<svg width="50" height="42" viewBox="0 0 50 42" fill="none" xmlns="http://www.w3.org/2000/svg">
<path fill-rule="evenodd" clip-rule="evenodd" d="M17.6025 8.93141V13.5387H32.0273V8.93141C32.0273 4.95464 28.7917 1.71902 24.8149 1.71902C20.8382 1.71902 17.6025 4.95464 17.6025 8.93141ZM30.9211 8.93141V12.4325H18.7087V8.93141C18.7087 5.56305 21.4466 2.82522 24.8149 2.82522C28.1833 2.82522 30.9211 5.56305 30.9211 8.93141Z" fill="#161922"/>
<path d="M17.6025 13.5387H17.3525V13.7887H17.6025V13.5387ZM32.0273 13.5387V13.7887H32.2773V13.5387H32.0273ZM30.9211 12.4325V12.6825H31.1711V12.4325H30.9211ZM18.7087 12.4325H18.4587V12.6825H18.7087V12.4325ZM17.8525 13.5387V8.93141H17.3525V13.5387H17.8525ZM32.0273 13.2887H17.6025V13.7887H32.0273V13.2887ZM31.7773 8.93141V13.5387H32.2773V8.93141H31.7773ZM24.8149 1.96902C28.6536 1.96902 31.7773 5.09272 31.7773 8.93141H32.2773C32.2773 4.81657 28.9298 1.46902 24.8149 1.46902V1.96902ZM17.8525 8.93141C17.8525 5.09272 20.9762 1.96902 24.8149 1.96902V1.46902C20.7001 1.46902 17.3525 4.81657 17.3525 8.93141H17.8525ZM31.1711 12.4325V8.93141H30.6711V12.4325H31.1711ZM18.7087 12.6825H30.9211V12.1825H18.7087V12.6825ZM18.4587 8.93141V12.4325H18.9587V8.93141H18.4587ZM24.8149 2.57522C21.3085 2.57522 18.4587 5.42498 18.4587 8.93141H18.9587C18.9587 5.70112 21.5846 3.07522 24.8149 3.07522V2.57522ZM31.1711 8.93141C31.1711 5.42498 28.3214 2.57522 24.8149 2.57522V3.07522C28.0452 3.07522 30.6711 5.70112 30.6711 8.93141H31.1711Z" fill="#161922"/>
<rect x="14.7998" y="13" width="21" height="17.5" fill="#3DB249"/>
<path fill-rule="evenodd" clip-rule="evenodd" d="M26.0603 21.9831C26.7811 21.4923 27.2544 20.665 27.2544 19.7273C27.2544 18.221 26.0333 17 24.5271 17C23.0208 17 21.7998 18.221 21.7998 19.7273C21.7998 20.656 22.264 21.4763 22.9731 21.9688L22.2544 27H26.7998L26.0603 21.9831Z" fill="white"/>
<path fill-rule="evenodd" clip-rule="evenodd" d="M16.663 31.6084H32.9683C34.4009 31.6084 35.6785 30.646 36.0767 29.2688C36.1597 28.9757 36.204 28.6715 36.204 28.3617V15.6737C36.204 15.3805 36.1652 15.0874 36.0878 14.8053C35.7006 13.406 34.4174 12.4325 32.9628 12.4325H16.663C15.2139 12.4325 13.9252 13.406 13.538 14.8053C13.4606 15.0874 13.4219 15.3805 13.4219 15.6737V28.3673C13.4219 28.677 13.4606 28.9812 13.5491 29.2743C13.9473 30.646 15.2305 31.6084 16.663 31.6084ZM14.6055 15.104C14.8599 14.1803 15.7062 13.5387 16.663 13.5387V13.5332H32.9628C33.9197 13.5332 34.7659 14.1803 35.0203 15.0985C35.0701 15.2865 35.0978 15.4801 35.0978 15.6737V28.3673C35.0978 28.5719 35.0701 28.771 35.0148 28.9646C34.7493 29.8717 33.9086 30.5022 32.9628 30.5022H16.663C15.7172 30.5022 14.8765 29.8717 14.611 28.9646C14.5557 28.771 14.5281 28.5719 14.5281 28.3673V15.6792C14.5281 15.4801 14.5557 15.292 14.6055 15.104Z" fill="#161922"/>
<path d="M36.0767 29.2688L36.3169 29.3383L36.3173 29.3369L36.0767 29.2688ZM36.0878 14.8053L36.3289 14.7391L36.3288 14.7386L36.0878 14.8053ZM13.538 14.8053L13.2971 14.7386L13.2969 14.7391L13.538 14.8053ZM13.5491 29.2743L13.7892 29.2046L13.7884 29.2021L13.5491 29.2743ZM16.663 13.5387V13.7887H16.913V13.5387H16.663ZM14.6055 15.104L14.3645 15.0376L14.3638 15.04L14.6055 15.104ZM16.663 13.5332V13.2832H16.413V13.5332H16.663ZM35.0203 15.0985L35.262 15.0345L35.2612 15.0317L35.0203 15.0985ZM35.0148 28.9646L35.2547 29.0348L35.2552 29.0333L35.0148 28.9646ZM14.611 28.9646L14.3706 29.0333L14.3711 29.0348L14.611 28.9646ZM32.9683 31.3584H16.663V31.8584H32.9683V31.3584ZM35.8366 29.1994C35.4692 30.4699 34.2893 31.3584 32.9683 31.3584V31.8584C34.5125 31.8584 35.8878 30.8221 36.3169 29.3383L35.8366 29.1994ZM35.954 28.3617C35.954 28.6475 35.9131 28.9288 35.8362 29.2007L36.3173 29.3369C36.4063 29.0225 36.454 28.6954 36.454 28.3617H35.954ZM35.954 15.6737V28.3617H36.454V15.6737H35.954ZM35.8467 14.8715C35.9181 15.1316 35.954 15.4024 35.954 15.6737H36.454C36.454 15.3587 36.4124 15.0432 36.3289 14.7391L35.8467 14.8715ZM32.9628 12.6825C34.3055 12.6825 35.4898 13.5814 35.8469 14.872L36.3288 14.7386C35.9115 13.2305 34.5294 12.1825 32.9628 12.1825V12.6825ZM16.663 12.6825H32.9628V12.1825H16.663V12.6825ZM13.779 14.872C14.136 13.5817 15.3256 12.6825 16.663 12.6825V12.1825C15.1022 12.1825 13.7144 13.2303 13.2971 14.7386L13.779 14.872ZM13.6719 15.6737C13.6719 15.4024 13.7077 15.1316 13.7791 14.8715L13.2969 14.7391C13.2135 15.0432 13.1719 15.3586 13.1719 15.6737H13.6719ZM13.6719 28.3673V15.6737H13.1719V28.3673H13.6719ZM13.7884 29.2021C13.708 28.9356 13.6719 28.6562 13.6719 28.3673H13.1719C13.1719 28.6978 13.2132 29.0268 13.3098 29.3466L13.7884 29.2021ZM16.663 31.3584C15.3414 31.3584 14.1563 30.4692 13.7892 29.2046L13.309 29.344C13.7383 30.8229 15.1196 31.8584 16.663 31.8584V31.3584ZM16.663 13.2887C15.5941 13.2887 14.6489 14.005 14.3645 15.0376L14.8465 15.1704C15.0709 14.3556 15.8182 13.7887 16.663 13.7887V13.2887ZM16.413 13.5332V13.5387H16.913V13.5332H16.413ZM32.9628 13.2832H16.663V13.7832H32.9628V13.2832ZM35.2612 15.0317C34.9769 14.0056 34.0324 13.2832 32.9628 13.2832V13.7832C33.807 13.7832 34.5549 14.355 34.7794 15.1652L35.2612 15.0317ZM35.3478 15.6737C35.3478 15.4564 35.3167 15.2413 35.262 15.0345L34.7787 15.1624C34.8235 15.3318 34.8478 15.5038 34.8478 15.6737H35.3478ZM35.3478 28.3673V15.6737H34.8478V28.3673H35.3478ZM35.2552 29.0333C35.317 28.817 35.3478 28.5948 35.3478 28.3673H34.8478C34.8478 28.5491 34.8232 28.725 34.7744 28.8959L35.2552 29.0333ZM32.9628 30.7522C34.0197 30.7522 34.9581 30.0484 35.2547 29.0348L34.7749 28.8944C34.5405 29.695 33.7975 30.2522 32.9628 30.2522V30.7522ZM16.663 30.7522H32.9628V30.2522H16.663V30.7522ZM14.3711 29.0348C14.6678 30.0484 15.6061 30.7522 16.663 30.7522V30.2522C15.8283 30.2522 15.0853 29.695 14.851 28.8944L14.3711 29.0348ZM14.2781 28.3673C14.2781 28.5947 14.3089 28.817 14.3707 29.0333L14.8514 28.8959C14.8026 28.725 14.7781 28.5491 14.7781 28.3673H14.2781ZM14.2781 15.6792V28.3673H14.7781V15.6792H14.2781ZM14.3638 15.04C14.3092 15.2465 14.2781 15.4561 14.2781 15.6792H14.7781C14.7781 15.5041 14.8023 15.3376 14.8472 15.168L14.3638 15.04Z" fill="#161922"/>
<path d="M11.3419 15.5077H7.16602V6.39822H8.27221V14.4015H11.3419V15.5077Z" fill="#161922" stroke="#161922" stroke-width="0.5"/>
<path d="M42.4649 15.5077H38.2891V14.4015H41.3588V6.39822H42.4649V15.5077Z" fill="#161922" stroke="#161922" stroke-width="0.5"/>
<path fill-rule="evenodd" clip-rule="evenodd" d="M4.74316 3.97566C4.74316 5.61836 6.07613 6.95133 7.71883 6.95133C9.36153 6.95133 10.6945 5.61836 10.6945 3.97566C10.6945 2.33296 9.36153 1 7.71883 1C6.07613 1 4.74316 2.33296 4.74316 3.97566ZM5.84936 3.97566C5.84936 2.9469 6.69007 2.10619 7.71883 2.10619C8.75312 2.10619 9.5883 2.9469 9.5883 3.97566C9.5883 5.00443 8.74759 5.84513 7.71883 5.84513C6.69007 5.84513 5.84936 5.00443 5.84936 3.97566Z" fill="#161922"/>
<path d="M7.71883 6.70133C6.2142 6.70133 4.99316 5.48029 4.99316 3.97566H4.49316C4.49316 5.75643 5.93806 7.20133 7.71883 7.20133V6.70133ZM10.4445 3.97566C10.4445 5.48029 9.22346 6.70133 7.71883 6.70133V7.20133C9.4996 7.20133 10.9445 5.75643 10.9445 3.97566H10.4445ZM7.71883 1.25C9.22346 1.25 10.4445 2.47104 10.4445 3.97566H10.9445C10.9445 2.19489 9.4996 0.75 7.71883 0.75V1.25ZM4.99316 3.97566C4.99316 2.47104 6.2142 1.25 7.71883 1.25V0.75C5.93806 0.75 4.49316 2.19489 4.49316 3.97566H4.99316ZM7.71883 1.85619C6.552 1.85619 5.59936 2.80883 5.59936 3.97566H6.09936C6.09936 3.08497 6.82814 2.35619 7.71883 2.35619V1.85619ZM9.8383 3.97566C9.8383 2.80931 8.89167 1.85619 7.71883 1.85619V2.35619C8.61457 2.35619 9.3383 3.08449 9.3383 3.97566H9.8383ZM7.71883 6.09513C8.88566 6.09513 9.8383 5.1425 9.8383 3.97566H9.3383C9.3383 4.86635 8.60952 5.59513 7.71883 5.59513V6.09513ZM5.59936 3.97566C5.59936 5.1425 6.552 6.09513 7.71883 6.09513V5.59513C6.82814 5.59513 6.09936 4.86635 6.09936 3.97566H5.59936Z" fill="#161922"/>
<path fill-rule="evenodd" clip-rule="evenodd" d="M38.9355 3.97566C38.9355 5.61836 40.2685 6.95133 41.9112 6.95133C43.5484 6.95133 44.8869 5.61836 44.8869 3.97566C44.8869 2.33296 43.5539 1 41.9112 1C40.2685 1 38.9355 2.33296 38.9355 3.97566ZM40.0417 3.97566C40.0417 2.9469 40.8824 2.10619 41.9112 2.10619C42.94 2.10619 43.7751 2.9469 43.7807 3.97566C43.7807 5.00443 42.94 5.84513 41.9112 5.84513C40.8824 5.84513 40.0417 5.00443 40.0417 3.97566Z" fill="#161922"/>
<path d="M43.7807 3.97566H44.0307L44.0307 3.97432L43.7807 3.97566ZM41.9112 6.70133C40.4066 6.70133 39.1855 5.48029 39.1855 3.97566H38.6855C38.6855 5.75643 40.1304 7.20133 41.9112 7.20133V6.70133ZM44.6369 3.97566C44.6369 5.47999 43.4106 6.70133 41.9112 6.70133V7.20133C43.6861 7.20133 45.1369 5.75674 45.1369 3.97566H44.6369ZM41.9112 1.25C43.4158 1.25 44.6369 2.47104 44.6369 3.97566H45.1369C45.1369 2.19489 43.692 0.75 41.9112 0.75V1.25ZM39.1855 3.97566C39.1855 2.47104 40.4066 1.25 41.9112 1.25V0.75C40.1304 0.75 38.6855 2.19489 38.6855 3.97566H39.1855ZM41.9112 1.85619C40.7444 1.85619 39.7917 2.80883 39.7917 3.97566H40.2917C40.2917 3.08497 41.0205 2.35619 41.9112 2.35619V1.85619ZM44.0307 3.97432C44.0244 2.80976 43.0793 1.85619 41.9112 1.85619V2.35619C42.8007 2.35619 43.5259 3.08404 43.5307 3.97701L44.0307 3.97432ZM41.9112 6.09513C43.078 6.09513 44.0307 5.1425 44.0307 3.97566H43.5307C43.5307 4.86635 42.8019 5.59513 41.9112 5.59513V6.09513ZM39.7917 3.97566C39.7917 5.1425 40.7444 6.09513 41.9112 6.09513V5.59513C41.0205 5.59513 40.2917 4.86635 40.2917 3.97566H39.7917Z" fill="#161922"/>
<path d="M8.27221 35.6018H7.16602V28.5664H11.3419V29.6726H8.27221V35.6018Z" fill="#161922" stroke="#161922" stroke-width="0.5"/>
<path d="M42.4649 35.6018H41.3588V29.6726H38.2891V28.5664H42.4649V35.6018Z" fill="#161922" stroke="#161922" stroke-width="0.5"/>
<path fill-rule="evenodd" clip-rule="evenodd" d="M4.74316 38.0243C4.74316 39.667 6.07613 41 7.71883 41C9.36153 41 10.6945 39.667 10.6945 38.0243C10.6945 36.3816 9.36153 35.0487 7.71883 35.0487C6.07613 35.0487 4.74316 36.3816 4.74316 38.0243ZM5.84936 38.0243C5.84936 36.9956 6.69007 36.1549 7.71883 36.1549C8.75312 36.1549 9.5883 36.9956 9.5883 38.0243C9.5883 39.0531 8.74759 39.8938 7.71883 39.8938C6.69007 39.8938 5.84936 39.0531 5.84936 38.0243Z" fill="#161922"/>
<path d="M7.71883 40.75C6.2142 40.75 4.99316 39.529 4.99316 38.0243H4.49316C4.49316 39.8051 5.93806 41.25 7.71883 41.25V40.75ZM10.4445 38.0243C10.4445 39.529 9.22346 40.75 7.71883 40.75V41.25C9.4996 41.25 10.9445 39.8051 10.9445 38.0243H10.4445ZM7.71883 35.2987C9.22346 35.2987 10.4445 36.5197 10.4445 38.0243H10.9445C10.9445 36.2436 9.4996 34.7987 7.71883 34.7987V35.2987ZM4.99316 38.0243C4.99316 36.5197 6.2142 35.2987 7.71883 35.2987V34.7987C5.93806 34.7987 4.49316 36.2436 4.49316 38.0243H4.99316ZM7.71883 35.9049C6.552 35.9049 5.59936 36.8575 5.59936 38.0243H6.09936C6.09936 37.1336 6.82814 36.4049 7.71883 36.4049V35.9049ZM9.8383 38.0243C9.8383 36.858 8.89167 35.9049 7.71883 35.9049V36.4049C8.61457 36.4049 9.3383 37.1332 9.3383 38.0243H9.8383ZM7.71883 40.1438C8.88566 40.1438 9.8383 39.1912 9.8383 38.0243H9.3383C9.3383 38.915 8.60952 39.6438 7.71883 39.6438V40.1438ZM5.59936 38.0243C5.59936 39.1912 6.552 40.1438 7.71883 40.1438V39.6438C6.82814 39.6438 6.09936 38.915 6.09936 38.0243H5.59936Z" fill="#161922"/>
<path fill-rule="evenodd" clip-rule="evenodd" d="M38.9355 38.0243C38.9355 39.667 40.2685 41 41.9112 41C43.5484 41 44.8869 39.667 44.8869 38.0243C44.8869 36.3816 43.5539 35.0487 41.9112 35.0487C40.2685 35.0487 38.9355 36.3816 38.9355 38.0243ZM40.0417 38.0243C40.0417 36.9956 40.8824 36.1549 41.9112 36.1549C42.94 36.1549 43.7807 36.9956 43.7807 38.0243C43.7807 39.0531 42.94 39.8938 41.9112 39.8938C40.8824 39.8938 40.0417 39.0531 40.0417 38.0243Z" fill="#161922"/>
<path d="M41.9112 40.75C40.4066 40.75 39.1855 39.529 39.1855 38.0243H38.6855C38.6855 39.8051 40.1304 41.25 41.9112 41.25V40.75ZM44.6369 38.0243C44.6369 39.5287 43.4106 40.75 41.9112 40.75V41.25C43.6861 41.25 45.1369 39.8054 45.1369 38.0243H44.6369ZM41.9112 35.2987C43.4158 35.2987 44.6369 36.5197 44.6369 38.0243H45.1369C45.1369 36.2436 43.692 34.7987 41.9112 34.7987V35.2987ZM39.1855 38.0243C39.1855 36.5197 40.4066 35.2987 41.9112 35.2987V34.7987C40.1304 34.7987 38.6855 36.2436 38.6855 38.0243H39.1855ZM41.9112 35.9049C40.7444 35.9049 39.7917 36.8575 39.7917 38.0243H40.2917C40.2917 37.1336 41.0205 36.4049 41.9112 36.4049V35.9049ZM44.0307 38.0243C44.0307 36.8575 43.078 35.9049 41.9112 35.9049V36.4049C42.8019 36.4049 43.5307 37.1336 43.5307 38.0243H44.0307ZM41.9112 40.1438C43.078 40.1438 44.0307 39.1912 44.0307 38.0243H43.5307C43.5307 38.915 42.8019 39.6438 41.9112 39.6438V40.1438ZM39.7917 38.0243C39.7917 39.1912 40.7444 40.1438 41.9112 40.1438V39.6438C41.0205 39.6438 40.2917 38.915 40.2917 38.0243H39.7917Z" fill="#161922"/>
<path fill-rule="evenodd" clip-rule="evenodd" d="M0.799805 21.7799C0.799805 23.4226 2.13277 24.7555 3.77547 24.7555C5.41264 24.7555 6.75113 23.4226 6.75113 21.7799C6.75113 20.1372 5.41817 18.8042 3.77547 18.8042C2.13277 18.8042 0.799805 20.1372 0.799805 21.7799ZM1.906 21.7799C1.906 20.7511 2.74671 19.9104 3.77547 19.9104C4.80423 19.9104 5.63941 20.7511 5.64494 21.7799C5.64494 22.8086 4.80423 23.6493 3.77547 23.6493C2.74671 23.6493 1.906 22.8086 1.906 21.7799Z" fill="#161922"/>
<path d="M5.64494 21.7799H5.89494L5.89493 21.7785L5.64494 21.7799ZM3.77547 24.5055C2.27084 24.5055 1.0498 23.2845 1.0498 21.7799H0.549805C0.549805 23.5606 1.9947 25.0055 3.77547 25.0055V24.5055ZM6.50113 21.7799C6.50113 23.2842 5.27487 24.5055 3.77547 24.5055V25.0055C5.55041 25.0055 7.00113 23.5609 7.00113 21.7799H6.50113ZM3.77547 19.0542C5.2801 19.0542 6.50113 20.2752 6.50113 21.7799H7.00113C7.00113 19.9991 5.55624 18.5542 3.77547 18.5542V19.0542ZM1.0498 21.7799C1.0498 20.2752 2.27084 19.0542 3.77547 19.0542V18.5542C1.9947 18.5542 0.549805 19.9991 0.549805 21.7799H1.0498ZM3.77547 19.6604C2.60864 19.6604 1.656 20.613 1.656 21.7799H2.156C2.156 20.8892 2.88478 20.1604 3.77547 20.1604V19.6604ZM5.89493 21.7785C5.88867 20.614 4.94352 19.6604 3.77547 19.6604V20.1604C4.66494 20.1604 5.39014 20.8882 5.39494 21.7812L5.89493 21.7785ZM3.77547 23.8993C4.9423 23.8993 5.89494 22.9467 5.89494 21.7799H5.39494C5.39494 22.6706 4.66616 23.3993 3.77547 23.3993V23.8993ZM1.656 21.7799C1.656 22.9467 2.60864 23.8993 3.77547 23.8993V23.3993C2.88478 23.3993 2.156 22.6706 2.156 21.7799H1.656Z" fill="#161922"/>
<path fill-rule="evenodd" clip-rule="evenodd" d="M42.8799 21.7799C42.8799 23.4226 44.2128 24.7555 45.8555 24.7555C47.4982 24.7555 48.8312 23.4226 48.8312 21.7799C48.8312 20.1372 47.4982 18.8042 45.8555 18.8042C44.2128 18.8042 42.8799 20.1372 42.8799 21.7799ZM43.9861 21.7799C43.9861 20.7511 44.8268 19.9104 45.8555 19.9104C46.8898 19.9104 47.725 20.7511 47.725 21.7799C47.725 22.8086 46.8843 23.6493 45.8555 23.6493C44.8268 23.6493 43.9861 22.8086 43.9861 21.7799Z" fill="#161922"/>
<path d="M45.8555 24.5055C44.3509 24.5055 43.1299 23.2845 43.1299 21.7799H42.6299C42.6299 23.5606 44.0748 25.0055 45.8555 25.0055V24.5055ZM48.5812 21.7799C48.5812 23.2845 47.3602 24.5055 45.8555 24.5055V25.0055C47.6363 25.0055 49.0812 23.5606 49.0812 21.7799H48.5812ZM45.8555 19.0542C47.3602 19.0542 48.5812 20.2752 48.5812 21.7799H49.0812C49.0812 19.9991 47.6363 18.5542 45.8555 18.5542V19.0542ZM43.1299 21.7799C43.1299 20.2752 44.3509 19.0542 45.8555 19.0542V18.5542C44.0748 18.5542 42.6299 19.9991 42.6299 21.7799H43.1299ZM45.8555 19.6604C44.6887 19.6604 43.7361 20.613 43.7361 21.7799H44.2361C44.2361 20.8892 44.9649 20.1604 45.8555 20.1604V19.6604ZM47.975 21.7799C47.975 20.6135 47.0284 19.6604 45.8555 19.6604V20.1604C46.7513 20.1604 47.475 20.8887 47.475 21.7799H47.975ZM45.8555 23.8993C47.0224 23.8993 47.975 22.9467 47.975 21.7799H47.475C47.475 22.6706 46.7462 23.3993 45.8555 23.3993V23.8993ZM43.7361 21.7799C43.7361 22.9467 44.6887 23.8993 45.8555 23.8993V23.3993C44.9649 23.3993 44.2361 22.6706 44.2361 21.7799H43.7361Z" fill="#161922"/>
<rect x="6.19238" y="21.2268" width="5.14934" height="1.10619" fill="#161922" stroke="#161922" stroke-width="0.5"/>
<rect x="38.2891" y="21.2268" width="5.14934" height="1.10619" fill="#161922" stroke="#161922" stroke-width="0.5"/>
</svg>
