<svg id="Layer_1" data-name="Layer 1" xmlns="http://www.w3.org/2000/svg" viewBox="0 0 285 74"><defs><style>.cls-1{fill:#fff;}</style></defs><title>logo white</title><polygon class="cls-1" points="257.45 62.46 257.45 46.48 257.45 43.2 257.45 43.14 258.9 44.83 274.06 62.46 285 62.46 265.21 39.48 283.15 18.83 272.21 18.83 259.3 33.68 258.93 34.11 258.93 34.11 257.45 35.82 257.45 35.78 257.45 32.4 257.44 6.35 249.01 10.19 249.01 62.46 257.45 62.46"/><path class="cls-1" d="M304.46-51.51c-7.46,5-15,4.56-20-1.19a12.19,12.19,0,0,1-2.11-3.61c0-.11-0.08-0.23-0.12-0.34a15.4,15.4,0,0,1-.79-3.71,17.7,17.7,0,0,1,0-3.12,13.54,13.54,0,0,1,3-7.42c5-5.77,12.54-6.18,20-1.16l4-3.77h0L310-77.3c-8.72-9-23.75-8.4-32,1A20.44,20.44,0,0,0,273.5-65h0s0,0.08,0,.12a25.53,25.53,0,0,0-.13,3.19c0,0.84,0,1.65.1,2.48l0.06,0.42a20.44,20.44,0,0,0,4.57,11.29c8.23,9.44,23.26,10,32,1l-0.55-.52Z" transform="translate(-64.22 102.49)"/><path class="cls-1" d="M226.23-48.18h0l-0.79-1.38c-0.31.12-.57,0.23-0.82,0.31-6.8,2.26-10.44-.18-10.49-7.07,0-4.45,0-8.9,0-13.36V-76h12.79v-7.76h-0.07v-0.1H214.15c0-1.54,0-3.09,0-4.63,0-2.42,0-4.82,0-7.14l-9.21,4.16v38h0c0.39,6.43,3.47,10.94,8.68,12.65,5.41,1.77,10.65,1,16-1.45Z" transform="translate(-64.22 102.49)"/><path class="cls-1" d="M201.42-63.51c-2.75-9.41-14.53-11.2-20.56-12.1-2-.3-16.43-1.72-15.45-10.36,0.72-6.32,12.14-9.48,20.31-6.42A15.85,15.85,0,0,1,192.38-88l8.16-3.58a22.92,22.92,0,0,0-4.46-5.23,23.38,23.38,0,0,0-16-5.71c-14.86.13-22,6.67-23.53,14.23s-0.46,17.44,18.33,20.75c15.85,2.8,19.23,5.11,17.07,12-1.92,6.15-22.23,11-29.57-2.5l-8.52,3.91c1.17,2.7,6.93,14.06,23.66,14C197.33-40.09,204.63-52.52,201.42-63.51Z" transform="translate(-64.22 102.49)"/><path class="cls-1" d="M110.74-54.65a22.48,22.48,0,0,1-16.17,5.32H94.33c-11.39,0-20.62-9.63-20.62-21.51s9.23-21.39,20.62-21.51c0.39,0,.8,0,1.2,0a22.88,22.88,0,0,1,15.2,5.46L115.18-91l2.18-2a31.21,31.21,0,0,0-22.63-9.16c-0.55,0-1.12,0-1.67,0C77.13-102,64.22-88.28,64.22-71.09S77.13-40,93.06-40h0.34a30.64,30.64,0,0,0,23.9-8.93l-2.29-2Z" transform="translate(-64.22 102.49)"/><path class="cls-1" d="M262.41-82v3.2h0L262.24-79a21.34,21.34,0,0,0-10.1-4L252-83c-0.6-.08-1.2-0.12-1.8-0.15h-1.94c-0.6,0-1.2.07-1.8,0.15l-0.15,0a21.34,21.34,0,0,0-10.1,4l-0.15.11c-0.44.33-.85,0.68-1.26,1s-0.54.48-.8,0.73l-0.27.25h0c-0.34.34-.68,0.66-1,1a20.44,20.44,0,0,0-4.57,11.29h0s0,0.08,0,.12a25.53,25.53,0,0,0-.13,3.19c0,0.84,0,1.65.1,2.48l0.06,0.42A20.44,20.44,0,0,0,232.76-47c0.31,0.36.65,0.68,1,1l0,0c0.18,0.19.38,0.35,0.57,0.53l0.21,0.19a21.34,21.34,0,0,0,13.79,5.64h1.89a21.45,21.45,0,0,0,12.23-4.33v3.2h8.26V-82h-8.26Zm-0.12,22.16a15.4,15.4,0,0,1-.79,3.71c0,0.11-.07.23-0.12,0.34a12.19,12.19,0,0,1-2.11,3.61,13.43,13.43,0,0,1-4.8,3.6,16.11,16.11,0,0,1-4.88,1h-0.76a16.11,16.11,0,0,1-4.88-1,13.43,13.43,0,0,1-4.8-3.6,12.19,12.19,0,0,1-2.11-3.61c0-.11-0.08-0.23-0.12-0.34a15.4,15.4,0,0,1-.79-3.71,17.71,17.71,0,0,1,0-3.12,13.54,13.54,0,0,1,3-7.42A13.47,13.47,0,0,1,243.85-74a16.18,16.18,0,0,1,5-1.08h0.75a16.18,16.18,0,0,1,5,1.08,13.47,13.47,0,0,1,4.69,3.55,13.54,13.54,0,0,1,3,7.42A17.71,17.71,0,0,1,262.29-59.88Z" transform="translate(-64.22 102.49)"/><polygon class="cls-1" points="82.22 17.53 69.68 47.43 57.02 17.53 48.41 17.53 65.4 57.75 62.16 65.48 58.6 73.97 58.59 74 66.39 74 66.4 73.97 67.17 73.97 90.84 17.53 82.22 17.53"/></svg>