<svg xmlns="http://www.w3.org/2000/svg" viewBox="0 0 1041 352"><defs><style>.cls-1{fill:#fff;}</style></defs><g id="Layer_2" data-name="Layer 2"><g id="Logo_versions" data-name="Logo versions"><path class="cls-1" d="M954.21,198.66H858c.38,1.52.65,2.87,1,4.18,4.33,14.33,17.71,25.06,32.63,26.5,16.7,1.62,30.21-4.63,41.89-16.46L949.09,231a51.22,51.22,0,0,1-17.8,14.58c-24.9,12.57-49.64,12.9-73.22-2.93-16.41-11-25.3-27.1-27.1-46.79-2-21.42,4.7-39.91,20.51-54.64,13.71-12.79,30.21-18.11,48.91-16.55,15.48,1.3,28.82,7.22,39.44,18.68,9.62,10.37,14.46,22.84,15.54,36.85A72.6,72.6,0,0,1,954.21,198.66Zm-26.33-22.45c-2.72-15-14.26-27.69-31.87-28.36-20.65-.78-33.7,12.3-37.65,28.36Z"/><path class="cls-1" d="M763.36,87.52v83.33l.42.2c1.35-1.5,2.71-3,4-4.5q17.93-20.56,35.88-41.1a3.65,3.65,0,0,1,2.37-1.25c10.72-.09,21.44-.07,32.16-.07.25,0,.5.05,1.18.12-17.78,20.41-35.36,40.58-53.06,60.91l58.37,67.59c-.88.06-1.42.14-2,.14-10.34,0-20.67,0-31-.06a4.15,4.15,0,0,1-2.75-1.26q-22-25.45-44-51c-.37-.44-.78-.84-1.5-1.61v53.75H736.82c0-.61-.12-1.28-.12-2q0-74.71,0-149.43a2.54,2.54,0,0,1,1.8-2.71c7.71-3.43,15.37-7,23-10.44C762,88,762.57,87.8,763.36,87.52Z"/><path class="cls-1" d="M603.07,190c-.44,9.8-2.06,19.32-6.23,28.2-7.86,16.73-21.18,27.43-38.78,32.14-24.14,6.47-45.77,1.23-63.95-16.3-7.94-7.65-12.6-17.2-14.94-27.9a80.24,80.24,0,0,1,.61-37.92c4.44-17,15-29.33,30.46-36.81,24.26-11.71,47.78-9.72,69.64,6.41C593,147.51,599.81,161,602,176.94,602.59,181.26,602.72,185.65,603.07,190Zm-25.83-1.52c-.24-2.5-.29-5-.74-7.5-2.64-14.3-10.56-24.38-24.5-29-16.28-5.37-33.37.28-42.52,13.77-6.46,9.54-7.83,20.22-5.77,31.31,2.55,13.76,10.36,23.53,23.66,28.17,16.4,5.73,33.7.1,43.09-13.52C575.28,204.75,577.06,196.85,577.24,188.48Z"/><path class="cls-1" d="M368.87,252.74V83.83h26.31V226.16H473.7v26.58Z"/><path class="cls-1" d="M722.43,233.2a62.51,62.51,0,0,1-25.71,16.35c-25.18,8.38-53.22.76-70.22-19.19-7.11-8.34-10.86-18.21-12.52-28.91-1.93-12.47-1.47-24.83,2.6-36.87,6.39-18.9,19.78-31,38.36-37,25-8,47.5-2.94,66.7,15.34a9.8,9.8,0,0,1,.7.81c-2.07,1.95-4.06,3.85-6.07,5.73-3.43,3.23-6.9,6.41-10.29,9.68a1.72,1.72,0,0,1-2.6.23c-7.24-4.79-15-8.19-23.75-9.25a36,36,0,0,0-39.48,26.67c-3.15,12.11-2,23.89,5,34.54,9.24,14.11,26.3,19.58,43.24,13.81,5.19-1.77,10-4.68,14.94-7.17,1-.49,1.57-.81,2.51.06C711.24,223.09,716.75,228.05,722.43,233.2Z"/><path class="cls-1" d="M996.22,252.88H969c-.37,0-.75,0-1.25-.07V127.63h27v9.55c13.51-12.06,29.47-13.66,46.26-12.9v29c-4.07-.36-8.2-1-12.33-1-16.75-.12-29,10.38-31.66,27a61.92,61.92,0,0,0-.75,9.43c-.07,20.59,0,41.17,0,61.76Z"/><path class="cls-1" d="M308.44,29.07c0-6.12-3.25-10.29-9.13-11.72A542,542,0,0,0,234.68,5.11C219,3.24,203.22,1.68,187.45.67,175.21-.11,162.91.09,150.64,0A488.07,488.07,0,0,0,92.92,2.8C82.51,4,72.1,5.18,61.75,6.76,44.18,9.45,26.77,13,9.51,17.28,3.19,18.85.06,22.71.06,29.26V108.7H0c0,24.51-.13,49,.08,73.52a220.69,220.69,0,0,0,1.59,26.21c2.49,19.29,10.64,36.21,23.08,51.06C38.26,275.55,53.68,289.61,70,302.65a446.14,446.14,0,0,0,69.76,45.47c9.76,5.16,19.44,5.23,29.09-.14,7.88-4.38,15.83-8.65,23.54-13.33,29.87-18.15,57.48-39.2,81.74-64.48,9.3-9.68,17.57-20.1,23.62-32.18,8-16,10.55-33.22,10.61-50.81C308.55,134.48,308.44,81.77,308.44,29.07ZM53.62,212.67H36.21V73.33H53.62Zm37.13-29.34H73.33V102.67H90.75ZM127.42,198H110V88h17.42Zm36.66,36.67H146.67V51.33h17.41Z"/></g></g></svg>