<svg width="16" height="16" viewBox="0 0 16 16" fill="none" xmlns="http://www.w3.org/2000/svg">
<g clip-path="url(#clip0)">
<g filter="url(#filter0_dd)">
<rect width="16" height="16" rx="3" fill="#3AB34A"/>
<rect width="16" height="16" rx="3" fill="url(#paint0_linear)" fill-opacity="0.02"/>
</g>
<path fill-rule="evenodd" clip-rule="evenodd" d="M6.31476 11.8585L3.13295 8.4415C2.95568 8.2535 2.95568 7.9475 3.13295 7.7575L3.77568 7.0745C3.95295 6.8865 4.24113 6.8865 4.4184 7.0745L6.63657 9.4665L11.5811 4.1415C11.7584 3.9535 12.0465 3.9535 12.2238 4.1415L12.8665 4.8255C13.0438 5.0135 13.0438 5.3205 12.8665 5.5075L6.95748 11.8585C6.78021 12.0465 6.49203 12.0465 6.31476 11.8585Z" fill="white"/>
</g>
<defs>
<filter id="filter0_dd" x="-1" y="0" width="18" height="18" filterUnits="userSpaceOnUse" color-interpolation-filters="sRGB">
<feFlood flood-opacity="0" result="BackgroundImageFix"/>
<feColorMatrix in="SourceAlpha" type="matrix" values="0 0 0 0 0 0 0 0 0 0 0 0 0 0 0 0 0 0 127 0"/>
<feOffset dy="1"/>
<feGaussianBlur stdDeviation="0.5"/>
<feColorMatrix type="matrix" values="0 0 0 0 0.251 0 0 0 0 0.3216 0 0 0 0 0.3451 0 0 0 0.032 0"/>
<feBlend mode="normal" in2="BackgroundImageFix" result="effect1_dropShadow"/>
<feColorMatrix in="SourceAlpha" type="matrix" values="0 0 0 0 0 0 0 0 0 0 0 0 0 0 0 0 0 0 127 0"/>
<feOffset dy="1"/>
<feGaussianBlur stdDeviation="0.5"/>
<feColorMatrix type="matrix" values="0 0 0 0 0.3796 0 0 0 0 0.4755 0 0 0 0 0.52 0 0 0 0.0528 0"/>
<feBlend mode="normal" in2="effect1_dropShadow" result="effect2_dropShadow"/>
<feBlend mode="normal" in="SourceGraphic" in2="effect2_dropShadow" result="shape"/>
</filter>
<linearGradient id="paint0_linear" x1="0.249362" y1="0.498724" x2="0.249362" y2="16" gradientUnits="userSpaceOnUse">
<stop stop-color="white"/>
<stop offset="1" stop-color="#617985"/>
</linearGradient>
<clipPath id="clip0">
<rect width="16" height="16" fill="white"/>
</clipPath>
</defs>
</svg>
