<svg width="40" height="41" viewBox="0 0 40 41" fill="none" xmlns="http://www.w3.org/2000/svg">
<path d="M26.0479 6.94605H27.7845C28.264 6.94605 28.6527 6.55726 28.6527 6.07782C28.6527 5.59838 28.2639 5.20959 27.7845 5.20959H26.0479C25.5684 5.20959 25.1797 5.59828 25.1797 6.07782C25.1797 6.55737 25.5684 6.94605 26.0479 6.94605Z" fill="black"/>
<path d="M20.838 6.94605H22.5745C23.0541 6.94605 23.4427 6.55726 23.4427 6.07782C23.4427 5.59838 23.0541 5.20959 22.5745 5.20959H20.838C20.3584 5.20959 19.9697 5.59828 19.9697 6.07782C19.9697 6.55737 20.3584 6.94605 20.838 6.94605Z" fill="black"/>
<path fill-rule="evenodd" clip-rule="evenodd" d="M10.4195 6.07768C10.4195 7.51621 9.25327 8.68246 7.81474 8.68246C6.37621 8.68246 5.20996 7.51632 5.20996 6.07768C5.20996 4.63905 6.37621 3.4729 7.81474 3.4729C9.25327 3.4729 10.4195 4.63915 10.4195 6.07768ZM8.68297 6.07768C8.68297 5.59814 8.29429 5.20946 7.81474 5.20946C7.3352 5.20946 6.94652 5.59824 6.94652 6.07768C6.94652 6.55713 7.3352 6.94591 7.81474 6.94591C8.29429 6.94591 8.68297 6.55723 8.68297 6.07768Z" fill="black"/>
<path d="M7.81474 8.94842C9.40016 8.94842 10.6855 7.6631 10.6855 6.07768H10.1536C10.1536 7.36933 9.10639 8.41651 7.81474 8.41651V8.94842ZM4.944 6.07768C4.944 7.66321 6.22933 8.94842 7.81474 8.94842V8.41651C6.52309 8.41651 5.47592 7.36942 5.47592 6.07768H4.944ZM7.81474 3.20694C6.22933 3.20694 4.944 4.49216 4.944 6.07768H5.47592C5.47592 4.78594 6.52309 3.73886 7.81474 3.73886V3.20694ZM10.6855 6.07768C10.6855 4.49227 9.40016 3.20694 7.81474 3.20694V3.73886C9.10639 3.73886 10.1536 4.78604 10.1536 6.07768H10.6855ZM7.81474 5.47541C8.1474 5.47541 8.41701 5.74502 8.41701 6.07768H8.94893C8.94893 5.45125 8.44117 4.9435 7.81474 4.9435V5.47541ZM7.21247 6.07768C7.21247 5.7451 7.4821 5.47541 7.81474 5.47541V4.9435C7.18829 4.9435 6.68056 5.45138 6.68056 6.07768H7.21247ZM7.81474 6.67995C7.4821 6.67995 7.21247 6.41026 7.21247 6.07768H6.68056C6.68056 6.70399 7.18829 7.21187 7.81474 7.21187V6.67995ZM8.41701 6.07768C8.41701 6.41034 8.1474 6.67995 7.81474 6.67995V7.21187C8.44117 7.21187 8.94893 6.70411 8.94893 6.07768H8.41701Z" fill="white"/>
<path fill-rule="evenodd" clip-rule="evenodd" d="M10.4195 16.4969C10.4195 17.9355 9.25327 19.1017 7.81474 19.1017C6.37621 19.1017 5.20996 17.9355 5.20996 16.4969C5.20996 15.0582 6.37621 13.8921 7.81474 13.8921C9.25327 13.8921 10.4195 15.0583 10.4195 16.4969ZM8.68297 16.4969C8.68297 16.0173 8.29429 15.6286 7.81474 15.6286C7.3352 15.6286 6.94652 16.0173 6.94652 16.4969C6.94652 16.9764 7.3352 17.3651 7.81474 17.3651C8.29429 17.3651 8.68297 16.9764 8.68297 16.4969Z" fill="black"/>
<path d="M7.81474 19.3676C9.40015 19.3676 10.6855 18.0824 10.6855 16.4969H10.1536C10.1536 17.7886 9.1064 18.8357 7.81474 18.8357V19.3676ZM4.944 16.4969C4.944 18.0824 6.22933 19.3676 7.81474 19.3676V18.8357C6.52309 18.8357 5.47592 17.7886 5.47592 16.4969H4.944ZM7.81474 13.6261C6.22933 13.6261 4.944 14.9113 4.944 16.4969H5.47592C5.47592 15.2051 6.52309 14.158 7.81474 14.158V13.6261ZM10.6855 16.4969C10.6855 14.9115 9.40016 13.6261 7.81474 13.6261V14.158C9.10639 14.158 10.1536 15.2052 10.1536 16.4969H10.6855ZM7.81474 15.8946C8.1474 15.8946 8.41701 16.1642 8.41701 16.4969H8.94893C8.94893 15.8704 8.44117 15.3627 7.81474 15.3627V15.8946ZM7.21247 16.4969C7.21247 16.1642 7.48208 15.8946 7.81474 15.8946V15.3627C7.18831 15.3627 6.68056 15.8704 6.68056 16.4969H7.21247ZM7.81474 17.0991C7.48208 17.0991 7.21247 16.8295 7.21247 16.4969H6.68056C6.68056 17.1233 7.18831 17.6311 7.81474 17.6311V17.0991ZM8.41701 16.4969C8.41701 16.8295 8.1474 17.0991 7.81474 17.0991V17.6311C8.44117 17.6311 8.94893 17.1233 8.94893 16.4969H8.41701Z" fill="white"/>
<path d="M27.7845 26.0477H26.0479C25.5684 26.0477 25.1797 26.4364 25.1797 26.916C25.1797 27.3955 25.5684 27.7842 26.0479 27.7842H27.7845C28.264 27.7842 28.6527 27.3955 28.6527 26.916C28.6527 26.4364 28.264 26.0477 27.7845 26.0477Z" fill="black"/>
<path d="M22.5745 26.0477H20.838C20.3584 26.0477 19.9697 26.4364 19.9697 26.916C19.9697 27.3955 20.3584 27.7842 20.838 27.7842H22.5745C23.0541 27.7842 23.4427 27.3955 23.4427 26.916C23.4427 26.4364 23.0541 26.0477 22.5745 26.0477Z" fill="black"/>
<path fill-rule="evenodd" clip-rule="evenodd" d="M5.20996 26.9159C5.20996 25.4774 6.37621 24.3112 7.81474 24.3112C9.25338 24.3112 10.4195 25.4773 10.4195 26.9159C10.4195 28.3546 9.25338 29.5207 7.81474 29.5207C6.37611 29.5207 5.20996 28.3545 5.20996 26.9159ZM6.94652 26.916C6.94652 27.3956 7.3352 27.7843 7.81474 27.7843C8.29429 27.7843 8.68297 27.3956 8.68297 26.916C8.68297 26.4365 8.29429 26.0478 7.81474 26.0478C7.3352 26.0478 6.94652 26.4365 6.94652 26.916Z" fill="black"/>
<path d="M7.81474 24.0452C6.22933 24.0452 4.944 25.3305 4.944 26.9159H5.47592C5.47592 25.6243 6.5231 24.5771 7.81474 24.5771V24.0452ZM10.6855 26.9159C10.6855 25.3304 9.40026 24.0452 7.81474 24.0452V24.5771C9.10649 24.5771 10.1536 25.6242 10.1536 26.9159H10.6855ZM7.81474 29.7867C9.40026 29.7867 10.6855 28.5015 10.6855 26.9159H10.1536C10.1536 28.2077 9.10649 29.2548 7.81474 29.2548V29.7867ZM4.944 26.9159C4.944 28.5013 6.22922 29.7867 7.81474 29.7867V29.2548C6.523 29.2548 5.47592 28.2076 5.47592 26.9159H4.944ZM7.81474 27.5183C7.48208 27.5183 7.21247 27.2487 7.21247 26.916H6.68056C6.68056 27.5425 7.18831 28.0502 7.81474 28.0502V27.5183ZM8.41701 26.916C8.41701 27.2487 8.1474 27.5183 7.81474 27.5183V28.0502C8.44117 28.0502 8.94893 27.5425 8.94893 26.916H8.41701ZM7.81474 26.3138C8.1474 26.3138 8.41701 26.5834 8.41701 26.916H8.94893C8.94893 26.2896 8.44117 25.7819 7.81474 25.7819V26.3138ZM7.21247 26.916C7.21247 26.5834 7.48208 26.3138 7.81474 26.3138V25.7819C7.18831 25.7819 6.68056 26.2896 6.68056 26.916H7.21247Z" fill="white"/>
<path fill-rule="evenodd" clip-rule="evenodd" d="M30.3892 32.9937H19.97H14.7605H4.34134C1.94484 32.9907 0.00284898 31.0487 0 28.6523V25.1793C0.00386647 23.8075 0.658114 22.5189 1.76342 21.7063C0.658216 20.8937 0.00386647 19.6051 0 18.2333V14.7603C0.00386647 13.3885 0.658114 12.0998 1.76342 11.2873C0.658216 10.4747 0.00386647 9.18603 0 7.81424V4.34124C0.00284898 1.94473 1.94484 0.00274723 4.34134 0H30.3892C32.7857 0.00295073 34.7276 1.94494 34.7305 4.34134V7.81435C34.7266 9.18613 34.0724 10.4748 32.9671 11.2874C34.0723 12.0999 34.7266 13.3886 34.7305 14.7604V18.2334C34.7266 19.6052 34.0724 20.8938 32.9671 21.7064C34.0723 22.519 34.7266 23.8076 34.7305 25.1794V28.6524C34.7275 31.0489 32.7856 32.9909 30.3892 32.9937ZM1.73656 4.34124V7.81424C1.73656 9.25278 2.9027 10.419 4.34134 10.419H30.3892C31.8278 10.419 32.9939 9.25278 32.9939 7.81424V4.34124C32.9939 2.9026 31.8277 1.73645 30.3892 1.73645H4.34134C2.90281 1.73645 1.73656 2.9027 1.73656 4.34124ZM1.73656 18.2334V14.7604C1.73656 13.3218 2.90281 12.1556 4.34134 12.1556H30.3892C31.8277 12.1556 32.9939 13.3218 32.9939 14.7604V18.2334C32.9939 19.6719 31.8278 20.8382 30.3892 20.8382H4.34134C2.9027 20.8382 1.73656 19.6719 1.73656 18.2334ZM1.73656 28.6525C1.73656 30.0911 2.90281 31.2573 4.34134 31.2573H30.3892C31.8278 31.2573 32.9939 30.091 32.9939 28.6525V25.1795C32.9939 23.741 31.8277 22.5747 30.3892 22.5747H4.34134C2.90281 22.5747 1.73656 23.741 1.73656 25.1795V28.6525Z" fill="#161922"/>
<path d="M29.2117 40C29.2117 40 39.1734 35.5959 39.1734 26.786C39.1734 23.2624 39.1734 19.3308 39.1734 19.3308L29.2117 16.2816L19.25 19.3308V26.786C19.25 35.5959 29.2117 40 29.2117 40Z" fill="#3AB34A" stroke="#161922" stroke-width="1.59574"/>
<path d="M28.1768 31.1601L24.501 27.3311L26.0763 25.6901L28.1768 27.8781L33.4281 22.4081L35.0035 24.0491L28.1768 31.1601Z" fill="white"/>
</svg>
