<svg width="49" height="32" viewBox="0 0 49 32" fill="none" xmlns="http://www.w3.org/2000/svg">
<path fill-rule="evenodd" clip-rule="evenodd" d="M3.62486 1H30.9714C32.4211 1 33.5963 2.17519 33.5963 3.62486V28.3751C33.5963 29.8248 32.4211 31 30.9714 31H3.62486C2.17519 31 1 29.8248 1 28.3751V3.62486C1 2.17519 2.17519 1 3.62486 1Z" stroke="#161922" stroke-width="1.5" stroke-linecap="square" stroke-linejoin="round"/>
<path d="M1 8.60581H33.5963" stroke="#161922" stroke-width="1.5" stroke-linecap="square"/>
<path d="M5.375 4.80295H11.351" stroke="#161922" stroke-width="1.5" stroke-linecap="round"/>
<path d="M7.1249 12.8119H27.2488C28.2153 12.8119 28.9987 13.5953 28.9987 14.5618V25.0612C28.9987 26.0277 28.2153 26.8111 27.2488 26.8111H7.1249C6.15846 26.8111 5.375 26.0277 5.375 25.0612V14.5618C5.375 13.5953 6.15846 12.8119 7.1249 12.8119Z" fill="#3AB34A"/>
<rect x="21.874" y="6.12476" width="25.6235" height="10.7493" rx="1.25" fill="white" stroke="#161922" stroke-width="1.5"/>
<path fill-rule="evenodd" clip-rule="evenodd" d="M27.8983 12.482L27.9598 13.5689H26.8884L26.9447 12.482L26.0373 13.0818L25.499 12.1539L26.4731 11.6618L25.499 11.1696L26.0373 10.2417L26.9447 10.8415L26.8884 9.74951H27.9598L27.8983 10.8364L28.8057 10.2417L29.344 11.1696L28.37 11.6618L29.344 12.1488L28.8109 13.0767L27.8983 12.482ZM32.7635 12.482L32.825 13.5689H31.7536L31.81 12.482L30.9025 13.0818L30.3642 12.1539L31.3383 11.6618L30.3642 11.1696L30.9025 10.2417L31.81 10.8415L31.7536 9.74951H32.825L32.7635 10.8364L33.6709 10.2417L34.2092 11.1696L33.2352 11.6618L34.2092 12.1488L33.6761 13.0767L32.7635 12.482ZM37.6903 13.5689L37.6287 12.482L38.5413 13.0767L39.0745 12.1488L38.1004 11.6618L39.0745 11.1696L38.5362 10.2417L37.6287 10.8364L37.6903 9.74951H36.6188L36.6752 10.8415L35.7678 10.2417L35.2295 11.1696L36.2035 11.6618L35.2295 12.1539L35.7678 13.0818L36.6752 12.482L36.6188 13.5689H37.6903ZM42.4939 12.482L42.5555 13.5689H41.484L41.5404 12.482L40.633 13.0818L40.0947 12.1539L41.0687 11.6618L40.0947 11.1696L40.633 10.2417L41.5404 10.8415L41.484 9.74951H42.5555L42.4939 10.8364L43.4014 10.2417L43.9397 11.1696L42.9656 11.6618L43.9397 12.1488L43.4065 13.0767L42.4939 12.482Z" fill="#161922"/>
</svg>
