<?xml version="1.0" encoding="utf-8"?>
<svg width="22px" height="22px" viewbox="0 0 22 22" version="1.1" xmlns:xlink="http://www.w3.org/1999/xlink" xmlns="http://www.w3.org/2000/svg">
    <defs>
        <path d="M0 0L22 0L22 22L0 22L0 0Z" id="path_1" />
        <path d="M0.999 0L6.001 0Q6.09939 0 6.19589 0.0191955Q6.2924 0.038391 6.3833 0.0760443Q6.4742 0.113698 6.55601 0.168362Q6.63782 0.223026 6.7074 0.2926Q6.77697 0.362175 6.83164 0.443985Q6.8863 0.525796 6.92395 0.616699Q6.96161 0.707602 6.9808 0.804105Q7 0.900607 7 0.999L7 8.001Q7 8.09939 6.9808 8.1959Q6.96161 8.2924 6.92395 8.3833Q6.8863 8.4742 6.83164 8.55602Q6.77697 8.63783 6.7074 8.7074Q6.63782 8.77697 6.55601 8.83164Q6.4742 8.8863 6.3833 8.92395Q6.2924 8.96161 6.19589 8.9808Q6.09939 9 6.001 9L0.999 9Q0.900607 9 0.804105 8.9808Q0.707602 8.96161 0.616699 8.92395Q0.525796 8.8863 0.443985 8.83164Q0.362175 8.77697 0.2926 8.7074Q0.223026 8.63783 0.168362 8.55601Q0.113698 8.4742 0.0760443 8.3833Q0.038391 8.2924 0.0191955 8.1959Q0 8.09939 0 8.001L0 0.999Q0 0.900607 0.0191955 0.804105Q0.038391 0.707602 0.0760443 0.616699Q0.113698 0.525796 0.168362 0.443985Q0.223026 0.362175 0.2926 0.2926Q0.362175 0.223026 0.443985 0.168362Q0.525796 0.113698 0.616699 0.0760443Q0.707602 0.038391 0.804105 0.0191955Q0.900607 0 0.999 0L0.999 0Z" id="path_2" />
        <path d="M0.999 0L6.001 0Q6.09939 0 6.19589 0.0191955Q6.2924 0.038391 6.3833 0.0760443Q6.4742 0.113698 6.55601 0.168362Q6.63782 0.223026 6.7074 0.2926Q6.77697 0.362175 6.83164 0.443985Q6.8863 0.525796 6.92395 0.616699Q6.96161 0.707602 6.9808 0.804105Q7 0.900607 7 0.999L7 7.001Q7 7.09939 6.9808 7.19589Q6.96161 7.2924 6.92395 7.3833Q6.8863 7.4742 6.83164 7.55601Q6.77697 7.63782 6.7074 7.7074Q6.63782 7.77697 6.55601 7.83164Q6.4742 7.8863 6.3833 7.92395Q6.2924 7.96161 6.19589 7.9808Q6.09939 8 6.001 8L0.999 8Q0.900607 8 0.804105 7.9808Q0.707602 7.96161 0.616699 7.92395Q0.525796 7.8863 0.443985 7.83164Q0.362175 7.77697 0.2926 7.7074Q0.223026 7.63782 0.168362 7.55601Q0.113698 7.4742 0.0760443 7.3833Q0.038391 7.2924 0.0191955 7.19589Q0 7.09939 0 7.001L0 0.999Q0 0.900607 0.0191955 0.804105Q0.038391 0.707602 0.0760443 0.616699Q0.113698 0.525796 0.168362 0.443985Q0.223026 0.362175 0.2926 0.2926Q0.362175 0.223026 0.443985 0.168362Q0.525796 0.113698 0.616699 0.0760443Q0.707602 0.038391 0.804105 0.0191955Q0.900607 0 0.999 0L0.999 0Z" transform="translate(9 8)" id="path_3" />
        <path d="M0.999 0L6.001 0Q6.09939 0 6.19589 0.0191955Q6.2924 0.038391 6.3833 0.0760443Q6.4742 0.113698 6.55601 0.168362Q6.63782 0.223026 6.7074 0.2926Q6.77697 0.362175 6.83164 0.443985Q6.8863 0.525796 6.92395 0.616699Q6.96161 0.707602 6.9808 0.804105Q7 0.900607 7 0.999L7 4.001Q7 4.09939 6.9808 4.19589Q6.96161 4.2924 6.92395 4.3833Q6.8863 4.4742 6.83164 4.55601Q6.77697 4.63782 6.7074 4.7074Q6.63782 4.77697 6.55601 4.83164Q6.4742 4.8863 6.3833 4.92395Q6.2924 4.96161 6.19589 4.9808Q6.09939 5 6.001 5L0.999 5Q0.900607 5 0.804105 4.9808Q0.707602 4.96161 0.616699 4.92395Q0.525796 4.8863 0.443985 4.83164Q0.362175 4.77697 0.2926 4.7074Q0.223026 4.63782 0.168362 4.55601Q0.113698 4.4742 0.0760443 4.3833Q0.038391 4.2924 0.0191955 4.19589Q0 4.09939 0 4.001L0 0.999Q0 0.900607 0.0191955 0.804105Q0.038391 0.707602 0.0760443 0.616699Q0.113698 0.525796 0.168362 0.443985Q0.223026 0.362175 0.2926 0.2926Q0.362175 0.223026 0.443985 0.168362Q0.525796 0.113698 0.616699 0.0760443Q0.707602 0.038391 0.804105 0.0191955Q0.900607 0 0.999 0L0.999 0Z" transform="translate(0 11)" id="path_4" />
        <path d="M0.999 0L6.001 0Q6.09939 0 6.19589 0.0191955Q6.2924 0.038391 6.3833 0.0760443Q6.4742 0.113698 6.55601 0.168362Q6.63782 0.223026 6.7074 0.2926Q6.77697 0.362175 6.83164 0.443985Q6.8863 0.525796 6.92395 0.616699Q6.96161 0.707602 6.9808 0.804105Q7 0.900607 7 0.999L7 5.001Q7 5.09939 6.9808 5.19589Q6.96161 5.2924 6.92395 5.3833Q6.8863 5.4742 6.83164 5.55601Q6.77697 5.63782 6.7074 5.7074Q6.63782 5.77697 6.55601 5.83164Q6.4742 5.8863 6.3833 5.92395Q6.2924 5.96161 6.19589 5.9808Q6.09939 6 6.001 6L0.999 6Q0.900607 6 0.804105 5.9808Q0.707602 5.96161 0.616699 5.92395Q0.525796 5.8863 0.443985 5.83164Q0.362175 5.77697 0.2926 5.7074Q0.223026 5.63782 0.168362 5.55601Q0.113698 5.4742 0.0760443 5.3833Q0.038391 5.2924 0.0191955 5.19589Q0 5.09939 0 5.001L0 0.999Q0 0.900607 0.0191955 0.804105Q0.038391 0.707602 0.0760443 0.616699Q0.113698 0.525796 0.168362 0.443985Q0.223026 0.362175 0.2926 0.2926Q0.362175 0.223026 0.443985 0.168362Q0.525796 0.113698 0.616699 0.0760443Q0.707602 0.038391 0.804105 0.0191955Q0.900607 0 0.999 0L0.999 0Z" transform="translate(9 0)" id="path_5" />
        <clipPath id="clip_1">
            <use xlink:href="#path_2" />
        </clipPath>
        <clipPath id="clip_2">
            <use xlink:href="#path_3" />
        </clipPath>
        <clipPath id="clip_3">
            <use xlink:href="#path_4" />
        </clipPath>
        <clipPath id="clip_4">
            <use xlink:href="#path_5" />
        </clipPath>
        <clipPath id="mask_1">
            <use xlink:href="#path_1" />
        </clipPath>
    </defs>
    <g id="Group-3">
        <path d="M0 0L22 0L22 22L0 22L0 0Z" id="Mask" fill="none" fill-rule="evenodd" stroke="none" />
        <g clip-path="url(#mask_1)">
            <g id="Group-3" transform="translate(3 3)">
                <g id="Rectangle-Copy">
                    <g clip-path="url(#clip_1)">
                        <use xlink:href="#path_2" fill="none" stroke="#9FA9B3" stroke-width="3" />
                    </g>
                </g>
                <g id="Rectangle-Copy-2">
                    <g clip-path="url(#clip_2)">
                        <use xlink:href="#path_3" fill="none" stroke="#9FA9B3" stroke-width="3" />
                    </g>
                </g>
                <g id="Rectangle-Copy-5">
                    <g clip-path="url(#clip_3)">
                        <use xlink:href="#path_4" fill="none" stroke="#9FA9B3" stroke-width="3" />
                    </g>
                </g>
                <g id="Rectangle-Copy-6">
                    <g clip-path="url(#clip_4)">
                        <use xlink:href="#path_5" fill="none" stroke="#9FA9B3" stroke-width="3" />
                    </g>
                </g>
            </g>
        </g>
    </g>
</svg>
