<?xml version="1.0" encoding="utf-8"?>
<svg width="22px" height="22px" viewbox="0 0 22 22" version="1.1" xmlns:xlink="http://www.w3.org/1999/xlink" xmlns="http://www.w3.org/2000/svg">
    <defs>
        <path d="M0 0L22 0L22 22L0 22L0 0Z" id="path_1" />
        <clipPath id="mask_1">
            <use xlink:href="#path_1" />
        </clipPath>
    </defs>
    <g id="󰆛">
        <path d="M0 0L22 0L22 22L0 22L0 0Z" id="Mask" fill="none" fill-rule="evenodd" stroke="none" />
        <g clip-path="url(#mask_1)">
            <path d="M14.5528 12.9611C14.9823 12.9611 15.355 12.8032 15.6708 12.4874C15.9866 12.1716 16.1445 11.7863 16.1445 11.3315L16.1445 1.62961C16.1445 1.17484 15.9866 0.789541 15.6708 0.473724C15.355 0.157908 14.9823 0 14.5528 0L1.59171 0C1.1622 0 0.789541 0.157908 0.473724 0.473724C0.157908 0.789541 0 1.17484 0 1.62961L0 11.3315C0 11.7863 0.157908 12.1716 0.473724 12.4874C0.789541 12.8032 1.1622 12.9611 1.59171 12.9611L14.5528 12.9611ZM14.5528 3.25922L1.59171 3.25922L1.59171 1.62961L14.5528 1.62961L14.5528 3.25922ZM14.5528 11.3315L1.59171 11.3315L1.59171 6.48055L14.5528 6.48055L14.5528 11.3315Z" transform="translate(3 4.9472656)" id="󰆛" fill="#9FA9B3" stroke="none" />
        </g>
    </g>
</svg>
