<?xml version="1.0" encoding="utf-8"?>
<svg width="18px" height="15px" viewBox="0 0 18 15" version="1.1" xmlns:xlink="http://www.w3.org/1999/xlink" xmlns="http://www.w3.org/2000/svg">
    <path d="M6.57661 6.5959C7.48949 6.5959 8.26737 6.27446 8.91025 5.63158C9.55312 4.98871 9.87456 4.21083 9.87456 3.29795C9.87456 2.38507 9.55312 1.60719 8.91025 0.964312C8.26737 0.321437 7.48306 0 6.55732 0C5.6573 0 4.88585 0.321437 4.24297 0.964312C3.6001 1.60719 3.27866 2.38507 3.27866 3.29795C3.27866 4.21083 3.6001 4.98871 4.24297 5.63158C4.88585 6.27446 5.66373 6.5959 6.57661 6.5959ZM6.57661 4.93728C6.1266 4.93728 5.74087 4.77656 5.41944 4.45512C5.098 4.13369 4.93728 3.74796 4.93728 3.29795C4.93728 2.84794 5.098 2.46221 5.41944 2.14077C5.74087 1.81934 6.12017 1.65862 6.55732 1.65862C7.02019 1.65862 7.41235 1.81934 7.73378 2.14077C8.05522 2.46221 8.21594 2.84794 8.21594 3.29795C8.21594 3.74796 8.05522 4.13369 7.73378 4.45512C7.41235 4.77656 7.02662 4.93728 6.57661 4.93728ZM13.9632 14.8118C14.0147 14.8118 14.0597 14.799 14.0982 14.7733C14.1368 14.7476 14.1561 14.6961 14.1561 14.619L14.3104 13.5775L15.0433 13.1918L16.0462 13.5775C16.2004 13.5775 16.2776 13.5518 16.2776 13.5004L17.1262 12.0732C17.2033 11.996 17.1905 11.906 17.0876 11.8032L16.2004 11.1089L16.2004 10.2989L17.0876 9.64312C17.1905 9.51455 17.2033 9.42455 17.1262 9.37312L16.2776 7.90736C16.2776 7.85593 16.2004 7.83022 16.0462 7.83022L15.0433 8.25451L14.3104 7.83022L14.1561 6.78876C14.1561 6.73733 14.1368 6.69233 14.0982 6.65376C14.0597 6.61518 14.0147 6.5959 13.9632 6.5959L12.3432 6.5959C12.2146 6.5959 12.1503 6.66018 12.1503 6.78876L11.9189 7.83022C11.8418 7.88165 11.7132 7.97165 11.5332 8.10022L11.2632 8.25451L10.2217 7.83022C10.0931 7.83022 10.0031 7.85593 9.9517 7.90736L9.18025 9.37312C9.12882 9.39883 9.10954 9.4374 9.1224 9.48883C9.13525 9.54026 9.1674 9.59169 9.21883 9.64312L10.106 10.2989L10.106 11.1089L9.21883 11.8032C9.11597 11.906 9.10311 11.996 9.18025 12.0732L9.9517 13.5004C10.0031 13.5518 10.0931 13.5775 10.2217 13.5775L11.2632 13.1918L11.5332 13.3461C11.7132 13.4489 11.8418 13.5261 11.9189 13.5775L12.1503 14.619C12.1503 14.7476 12.2146 14.8118 12.3432 14.8118L13.9632 14.8118ZM7.94593 13.1918C7.7145 12.6775 7.56021 12.1503 7.48306 11.6103L1.5429 11.6103L1.5429 10.7232C1.5429 10.5431 1.80005 10.3117 2.31435 10.0288C2.82865 9.74598 3.44581 9.50169 4.16583 9.29597C5.01442 9.09025 5.81159 8.98739 6.55732 8.98739C6.89162 8.98739 7.25163 9.01311 7.63735 9.06454C7.81736 8.52452 8.04879 8.03594 8.33166 7.59878C7.63735 7.47021 7.04591 7.40592 6.55732 7.40592C5.76016 7.40592 4.87299 7.53449 3.89582 7.79164C2.79008 8.07451 1.89005 8.43452 1.19575 8.87167C0.398582 9.41169 0 10.0288 0 10.7232L0 13.1918L7.94593 13.1918ZM13.1725 11.9575C12.8254 11.9575 12.5296 11.8353 12.2853 11.591C12.041 11.3467 11.9189 11.051 11.9189 10.7039C11.9189 10.3567 12.041 10.0674 12.2853 9.83599C12.5296 9.60455 12.8318 9.48883 13.1918 9.48883C13.5261 9.48883 13.809 9.61098 14.0404 9.85527C14.2718 10.0996 14.3875 10.3889 14.3875 10.7232C14.3875 11.0574 14.2718 11.3467 14.0404 11.591C13.809 11.8353 13.5197 11.9575 13.1725 11.9575Z" id="dashboard" fill="#9FA9B3" stroke="none" />
</svg>
