<?xml version="1.0" encoding="utf-8"?>
<svg width="25px" height="20px" viewBox="0 0 25 20" version="1.1" xmlns:xlink="http://www.w3.org/1999/xlink" xmlns="http://www.w3.org/2000/svg">
    <g id="Group-5-Copy-4">
        <path d="M22.4824 20C23.185 20 23.7803 19.7556 24.2682 19.2669C24.7561 18.7781 25 18.1818 25 17.478L25 4.98534C25 4.28153 24.7561 3.68524 24.2682 3.19648C23.7803 2.70772 23.185 2.46334 22.4824 2.46334L12.5293 2.46334L10.0117 0L2.51756 0C1.97112 0 1.52225 0.117302 1.17096 0.351906L0.409836 1.11437C0.136612 1.46628 0 1.91593 0 2.46334L0 17.478C0 18.0254 0.136612 18.4946 0.409836 18.8856C0.565964 19.042 0.644028 19.1593 0.644028 19.2375C1.26854 19.7458 1.89305 20 2.51756 20L22.4824 20Z" id="Path" fill="#072245" stroke="none" />
    </g>
</svg>
