<?xml version="1.0" encoding="utf-8"?>
<svg width="25px" height="20px" viewBox="0 0 25 20" version="1.1" xmlns:xlink="http://www.w3.org/1999/xlink" xmlns="http://www.w3.org/2000/svg">
    <g id="Group-5-Copy-4">
        <path d="M22.4824 20C23.185 20 23.7803 19.7556 24.2682 19.2669C24.7561 18.7781 25 18.1818 25 17.478L25 4.98534C25 4.28153 24.7561 3.68524 24.2682 3.19648C23.7803 2.70772 23.185 2.46334 22.4824 2.46334L12.5293 2.46334L10.0117 0L2.51756 0C1.97112 0 1.52225 0.117302 1.17096 0.351906L0.409836 1.11437C0.136612 1.46628 0 1.91593 0 2.46334L0 17.478C0 18.0254 0.136612 18.4946 0.409836 18.8856C0.565964 19.042 0.644028 19.1593 0.644028 19.2375C1.26854 19.7458 1.89305 20 2.51756 20L22.4824 20Z" id="Path" fill="#072245" stroke="none" />
        <g id="Asset-1-Copy-2" transform="translate(6.5 7)">
            <path d="M3.80931 3.81385C2.74137 3.81385 1.67309 3.81385 0.604475 3.81385C0.21869 3.81385 -0.0122706 3.58545 0.000503748 3.20068C0.00239301 3.00552 0.0239631 2.81105 0.0648865 2.62022C0.399575 1.22168 1.27794 0.364777 2.68516 0.0581925C2.84748 0.0240628 3.0129 0.00693784 3.17876 0.00709503C3.6555 0.00402919 4.13429 -0.0143659 4.60949 0.0239572C5.81846 0.121553 6.70449 0.731656 7.27575 1.79295C7.50715 2.23459 7.62978 2.7251 7.63344 3.22368C7.64212 3.57216 7.4035 3.81385 7.04428 3.81539C6.46075 3.81845 5.87773 3.81539 5.29471 3.81539L3.80931 3.81385Z" transform="translate(4.3663335 4.898289)" id="Path" fill="#FFFFFF" stroke="none" />
            <path d="M2.18036 4.35606C1.59996 4.3558 1.0436 4.12425 0.634404 3.71265C0.225203 3.30105 -0.00309533 2.74335 3.17052e-05 2.16296C0.00156463 0.978012 0.987745 0.00307289 2.18751 7.04187e-06C3.37144 -0.0030588 4.36988 0.995385 4.36375 2.17625C4.3587 3.37942 3.38354 4.35298 2.18036 4.35606Z" transform="translate(5.9998794 2.457871E-05)" id="Path" fill="#FFFFFF" stroke="none" />
            <path d="M2.18084 4.35558C0.982094 4.35558 -0.00153113 3.37757 1.7893e-06 2.18956C-0.000550934 1.607 0.231288 1.04829 0.644125 0.63728C1.05696 0.226266 1.61669 -0.00309845 2.19923 3.16206e-05C3.37856 0.00309747 4.37292 1.00052 4.36321 2.17576C4.36012 3.37935 3.38443 4.35389 2.18084 4.35558L2.18084 4.35558Z" transform="translate(1.0945565 0)" id="Path" fill="#FFFFFF" stroke="none" />
            <path d="M3.36175 3.81913L1.47728 3.81913L0.634681 3.81913C0.218748 3.81708 5.1397e-05 3.59737 5.1397e-05 3.17939C-0.00556932 2.02816 0.449709 1.11659 1.41903 0.477868C1.88157 0.177662 2.41949 0.0141791 2.97086 0.00623842C3.45986 -0.00857983 3.94937 -0.00960178 4.42151 0.151355C4.45983 0.164129 4.49765 0.17997 4.5513 0.202453C4.07869 0.668757 3.72248 1.23975 3.51147 1.86925C3.30452 2.49775 3.18598 3.13851 3.36175 3.81913Z" transform="translate(0 4.8940363)" id="Path" fill="#FFFFFF" stroke="none" />
        </g>
    </g>
</svg>
