<?xml version="1.0" encoding="utf-8"?>
<svg width="18px" height="14px" viewBox="0 0 18 14" version="1.1" xmlns:xlink="http://www.w3.org/1999/xlink" xmlns="http://www.w3.org/2000/svg">
  <desc>Created with Lunacy</desc>
  <g id="folder">
    <path d="M1.13487 0L5.43972 0C5.72166 0 5.98208 0.152128 6.12276 0.398919L6.83128 1.37665C6.97196 1.62344 7.23241 1.77557 7.51431 1.77557L18 1.77557L18 12.9384C18 13.5247 17.5295 14 16.9491 14L1.05088 14C0.470514 14 0 13.5247 0 12.9384L0 3.01387C0 2.19332 0.125499 1.37766 0.372076 0.595817L0.372076 0.595817C0.462404 0.244927 0.775977 0 1.13487 0Z" id="Path" fill="#9DBEF0" stroke="none" />
    <path d="M0 0L14 0L14 6L0 6L0 0Z" transform="translate(2 2)" id="Rectangle" fill="#EBF0F3" stroke="none" />
    <path d="M17.2118 0L12.8737 0C12.5652 0 12.2851 0.185346 12.1569 0.474268L11.4145 2.14713C11.2863 2.43605 11.0062 2.6214 10.6977 2.6214L0 2.6214L0 12.9179C0 13.5155 0.470513 14 1.05088 14L16.9491 14C17.5295 14 18 13.5155 18 12.9179L18 0.811556C18 0.36337 17.6471 0 17.2118 0Z" id="Path" fill="#C1D9FF" stroke="none" />
  </g>
</svg>