<?xml version="1.0" encoding="utf-8"?>
<svg width="16px" height="14px" viewBox="0 0 16 14" version="1.1" xmlns:xlink="http://www.w3.org/1999/xlink" xmlns="http://www.w3.org/2000/svg">
  <path d="M14.6563 10.6563C15.0313 10.6563 15.349 10.526 15.6094 10.2656Q16 9.875 16 9.3125L16 2.65625Q16 2.09375 15.6094 1.70313C15.349 1.44271 15.0313 1.3125 14.6563 1.3125L9.34375 1.3125L8 0L4 0Q3.4375 0 3.04688 0.390625Q2.65625 0.78125 2.65625 1.3125L2.65625 9.3125Q2.65625 9.875 3.04688 10.2656Q3.4375 10.6563 4 10.6563L14.6563 10.6563ZM13.3438 12L13.3438 13.3125L1.34375 13.3125Q0.78125 13.3125 0.390625 12.9219C0.130208 12.6615 0 12.3542 0 12L0 2.65625L1.34375 2.65625L1.34375 12L13.3438 12ZM14.6563 9.3125L4 9.3125L4 2.65625L14.6563 2.65625L14.6563 9.3125ZM12 6.65625L12 8L10.6563 8L10.6563 6.65625L9.34375 6.65625L9.34375 5.3125L10.6563 5.3125L10.6563 4L12 4L12 5.3125L13.3438 5.3125L13.3438 6.65625L12 6.65625Z" id="󱑿" fill="#072245" fill-rule="evenodd" stroke="none" />
</svg>
