<?xml version="1.0" encoding="utf-8"?>
<svg width="49px" height="49px" viewBox="0 0 49 49" version="1.1" xmlns:xlink="http://www.w3.org/1999/xlink" xmlns="http://www.w3.org/2000/svg">
    <defs>
        <linearGradient x1="0" y1="0" x2="1" y2="1" id="gradient_1">
            <stop offset="0" stop-color="#9D8DFF" />
            <stop offset="1" stop-color="#D7C2FF" />
        </linearGradient>
        <path d="M7.999 0L40.001 0Q40.1974 0 40.3935 0.00963514Q40.5896 0.0192703 40.785 0.0385174Q40.9805 0.0577644 41.1747 0.0865771Q41.3689 0.11539 41.5615 0.153699Q41.7541 0.192007 41.9446 0.23972Q42.1351 0.287433 42.323 0.344434Q42.5109 0.401436 42.6958 0.467589Q42.8807 0.533742 43.0621 0.608888Q43.2435 0.684033 43.421 0.76799Q43.5985 0.851946 43.7717 0.944512Q43.9449 1.03708 44.1133 1.13803Q44.2817 1.23898 44.445 1.34807Q44.6083 1.45717 44.766 1.57414Q44.9237 1.69112 45.0755 1.81569Q45.2273 1.94026 45.3728 2.07213Q45.5183 2.204 45.6571 2.34285Q45.796 2.4817 45.9279 2.6272Q46.0597 2.7727 46.1843 2.92449Q46.3089 3.07628 46.4258 3.234Q46.5428 3.39172 46.6519 3.55499Q46.761 3.71826 46.862 3.88669Q46.9629 4.05512 47.0555 4.2283Q47.148 4.40148 47.232 4.57899Q47.316 4.7565 47.3911 4.93791Q47.4663 5.11933 47.5324 5.30422Q47.5986 5.4891 47.6556 5.67701Q47.7126 5.86492 47.7603 6.0554Q47.808 6.24588 47.8463 6.43847Q47.8846 6.63106 47.9134 6.8253Q47.9422 7.01954 47.9615 7.21496Q47.9807 7.41038 47.9904 7.60651Q48 7.80264 48 7.999L48 40.001Q48 40.1974 47.9904 40.3935Q47.9807 40.5896 47.9615 40.785Q47.9422 40.9805 47.9134 41.1747Q47.8846 41.3689 47.8463 41.5615Q47.808 41.7541 47.7603 41.9446Q47.7126 42.1351 47.6556 42.323Q47.5986 42.5109 47.5324 42.6958Q47.4663 42.8807 47.3911 43.0621Q47.316 43.2435 47.232 43.421Q47.148 43.5985 47.0555 43.7717Q46.9629 43.9449 46.862 44.1133Q46.761 44.2817 46.6519 44.445Q46.5428 44.6083 46.4258 44.766Q46.3089 44.9237 46.1843 45.0755Q46.0597 45.2273 45.9279 45.3728Q45.796 45.5183 45.6571 45.6571Q45.5183 45.796 45.3728 45.9279Q45.2273 46.0597 45.0755 46.1843Q44.9237 46.3089 44.766 46.4258Q44.6083 46.5428 44.445 46.6519Q44.2817 46.761 44.1133 46.862Q43.9449 46.9629 43.7717 47.0555Q43.5985 47.148 43.421 47.232Q43.2435 47.316 43.0621 47.3911Q42.8807 47.4663 42.6958 47.5324Q42.5109 47.5986 42.323 47.6556Q42.1351 47.7126 41.9446 47.7603Q41.7541 47.808 41.5615 47.8463Q41.3689 47.8846 41.1747 47.9134Q40.9805 47.9422 40.785 47.9615Q40.5896 47.9807 40.3935 47.9904Q40.1974 48 40.001 48L7.999 48Q7.80264 48 7.60651 47.9904Q7.41038 47.9807 7.21496 47.9615Q7.01954 47.9422 6.8253 47.9134Q6.63106 47.8846 6.43847 47.8463Q6.24588 47.808 6.0554 47.7603Q5.86492 47.7126 5.67701 47.6556Q5.4891 47.5986 5.30422 47.5324Q5.11933 47.4663 4.93791 47.3911Q4.7565 47.316 4.57899 47.232Q4.40148 47.148 4.2283 47.0555Q4.05512 46.9629 3.88669 46.862Q3.71826 46.761 3.55499 46.6519Q3.39172 46.5428 3.234 46.4258Q3.07628 46.3089 2.92449 46.1843Q2.7727 46.0597 2.6272 45.9279Q2.4817 45.796 2.34285 45.6571Q2.204 45.5183 2.07213 45.3728Q1.94026 45.2273 1.81569 45.0755Q1.69112 44.9237 1.57414 44.766Q1.45717 44.6083 1.34807 44.445Q1.23898 44.2817 1.13803 44.1133Q1.03708 43.9449 0.944512 43.7717Q0.851946 43.5985 0.76799 43.421Q0.684033 43.2435 0.608888 43.0621Q0.533742 42.8807 0.467589 42.6958Q0.401436 42.5109 0.344434 42.323Q0.287433 42.1351 0.23972 41.9446Q0.192007 41.7541 0.153699 41.5615Q0.11539 41.3689 0.0865771 41.1747Q0.0577644 40.9805 0.0385174 40.785Q0.0192703 40.5896 0.00963514 40.3935Q0 40.1974 0 40.001L0 7.999Q0 7.80264 0.00963514 7.60651Q0.0192703 7.41038 0.0385174 7.21496Q0.0577644 7.01954 0.0865771 6.8253Q0.11539 6.63106 0.153699 6.43847Q0.192007 6.24588 0.23972 6.0554Q0.287433 5.86492 0.344434 5.67701Q0.401436 5.4891 0.467589 5.30422Q0.533742 5.11933 0.608888 4.93791Q0.684033 4.7565 0.76799 4.57899Q0.851946 4.40148 0.944512 4.2283Q1.03708 4.05512 1.13803 3.88669Q1.23898 3.71826 1.34807 3.55499Q1.45717 3.39172 1.57414 3.234Q1.69112 3.07628 1.81569 2.92449Q1.94026 2.7727 2.07213 2.6272Q2.204 2.4817 2.34285 2.34285Q2.4817 2.204 2.6272 2.07213Q2.7727 1.94026 2.92449 1.81569Q3.07628 1.69112 3.234 1.57414Q3.39172 1.45717 3.55499 1.34807Q3.71826 1.23898 3.88669 1.13803Q4.05512 1.03708 4.2283 0.944512Q4.40148 0.851946 4.57899 0.76799Q4.7565 0.684033 4.93791 0.608888Q5.11933 0.533742 5.30422 0.467589Q5.4891 0.401436 5.67701 0.344434Q5.86492 0.287433 6.0554 0.23972Q6.24588 0.192007 6.43847 0.153699Q6.63106 0.11539 6.8253 0.0865771Q7.01954 0.0577644 7.21496 0.0385174Q7.41038 0.0192703 7.60651 0.00963514Q7.80264 0 7.999 0L7.999 0Z" id="path_1" />
        <clipPath id="mask_1">
            <use xlink:href="#path_1" />
        </clipPath>
    </defs>
    <g id="Group-15" transform="translate(0.125 0.125)">
        <g id="Bitmap-Copy-3">
            <path d="M7.999 0L40.001 0Q40.1974 0 40.3935 0.00963514Q40.5896 0.0192703 40.785 0.0385174Q40.9805 0.0577644 41.1747 0.0865771Q41.3689 0.11539 41.5615 0.153699Q41.7541 0.192007 41.9446 0.23972Q42.1351 0.287433 42.323 0.344434Q42.5109 0.401436 42.6958 0.467589Q42.8807 0.533742 43.0621 0.608888Q43.2435 0.684033 43.421 0.76799Q43.5985 0.851946 43.7717 0.944512Q43.9449 1.03708 44.1133 1.13803Q44.2817 1.23898 44.445 1.34807Q44.6083 1.45717 44.766 1.57414Q44.9237 1.69112 45.0755 1.81569Q45.2273 1.94026 45.3728 2.07213Q45.5183 2.204 45.6571 2.34285Q45.796 2.4817 45.9279 2.6272Q46.0597 2.7727 46.1843 2.92449Q46.3089 3.07628 46.4258 3.234Q46.5428 3.39172 46.6519 3.55499Q46.761 3.71826 46.862 3.88669Q46.9629 4.05512 47.0555 4.2283Q47.148 4.40148 47.232 4.57899Q47.316 4.7565 47.3911 4.93791Q47.4663 5.11933 47.5324 5.30422Q47.5986 5.4891 47.6556 5.67701Q47.7126 5.86492 47.7603 6.0554Q47.808 6.24588 47.8463 6.43847Q47.8846 6.63106 47.9134 6.8253Q47.9422 7.01954 47.9615 7.21496Q47.9807 7.41038 47.9904 7.60651Q48 7.80264 48 7.999L48 40.001Q48 40.1974 47.9904 40.3935Q47.9807 40.5896 47.9615 40.785Q47.9422 40.9805 47.9134 41.1747Q47.8846 41.3689 47.8463 41.5615Q47.808 41.7541 47.7603 41.9446Q47.7126 42.1351 47.6556 42.323Q47.5986 42.5109 47.5324 42.6958Q47.4663 42.8807 47.3911 43.0621Q47.316 43.2435 47.232 43.421Q47.148 43.5985 47.0555 43.7717Q46.9629 43.9449 46.862 44.1133Q46.761 44.2817 46.6519 44.445Q46.5428 44.6083 46.4258 44.766Q46.3089 44.9237 46.1843 45.0755Q46.0597 45.2273 45.9279 45.3728Q45.796 45.5183 45.6571 45.6571Q45.5183 45.796 45.3728 45.9279Q45.2273 46.0597 45.0755 46.1843Q44.9237 46.3089 44.766 46.4258Q44.6083 46.5428 44.445 46.6519Q44.2817 46.761 44.1133 46.862Q43.9449 46.9629 43.7717 47.0555Q43.5985 47.148 43.421 47.232Q43.2435 47.316 43.0621 47.3911Q42.8807 47.4663 42.6958 47.5324Q42.5109 47.5986 42.323 47.6556Q42.1351 47.7126 41.9446 47.7603Q41.7541 47.808 41.5615 47.8463Q41.3689 47.8846 41.1747 47.9134Q40.9805 47.9422 40.785 47.9615Q40.5896 47.9807 40.3935 47.9904Q40.1974 48 40.001 48L7.999 48Q7.80264 48 7.60651 47.9904Q7.41038 47.9807 7.21496 47.9615Q7.01954 47.9422 6.8253 47.9134Q6.63106 47.8846 6.43847 47.8463Q6.24588 47.808 6.0554 47.7603Q5.86492 47.7126 5.67701 47.6556Q5.4891 47.5986 5.30422 47.5324Q5.11933 47.4663 4.93791 47.3911Q4.7565 47.316 4.57899 47.232Q4.40148 47.148 4.2283 47.0555Q4.05512 46.9629 3.88669 46.862Q3.71826 46.761 3.55499 46.6519Q3.39172 46.5428 3.234 46.4258Q3.07628 46.3089 2.92449 46.1843Q2.7727 46.0597 2.6272 45.9279Q2.4817 45.796 2.34285 45.6571Q2.204 45.5183 2.07213 45.3728Q1.94026 45.2273 1.81569 45.0755Q1.69112 44.9237 1.57414 44.766Q1.45717 44.6083 1.34807 44.445Q1.23898 44.2817 1.13803 44.1133Q1.03708 43.9449 0.944512 43.7717Q0.851946 43.5985 0.76799 43.421Q0.684033 43.2435 0.608888 43.0621Q0.533742 42.8807 0.467589 42.6958Q0.401436 42.5109 0.344434 42.323Q0.287433 42.1351 0.23972 41.9446Q0.192007 41.7541 0.153699 41.5615Q0.11539 41.3689 0.0865771 41.1747Q0.0577644 40.9805 0.0385174 40.785Q0.0192703 40.5896 0.00963514 40.3935Q0 40.1974 0 40.001L0 7.999Q0 7.80264 0.00963514 7.60651Q0.0192703 7.41038 0.0385174 7.21496Q0.0577644 7.01954 0.0865771 6.8253Q0.11539 6.63106 0.153699 6.43847Q0.192007 6.24588 0.23972 6.0554Q0.287433 5.86492 0.344434 5.67701Q0.401436 5.4891 0.467589 5.30422Q0.533742 5.11933 0.608888 4.93791Q0.684033 4.7565 0.76799 4.57899Q0.851946 4.40148 0.944512 4.2283Q1.03708 4.05512 1.13803 3.88669Q1.23898 3.71826 1.34807 3.55499Q1.45717 3.39172 1.57414 3.234Q1.69112 3.07628 1.81569 2.92449Q1.94026 2.7727 2.07213 2.6272Q2.204 2.4817 2.34285 2.34285Q2.4817 2.204 2.6272 2.07213Q2.7727 1.94026 2.92449 1.81569Q3.07628 1.69112 3.234 1.57414Q3.39172 1.45717 3.55499 1.34807Q3.71826 1.23898 3.88669 1.13803Q4.05512 1.03708 4.2283 0.944512Q4.40148 0.851946 4.57899 0.76799Q4.7565 0.684033 4.93791 0.608888Q5.11933 0.533742 5.30422 0.467589Q5.4891 0.401436 5.67701 0.344434Q5.86492 0.287433 6.0554 0.23972Q6.24588 0.192007 6.43847 0.153699Q6.63106 0.11539 6.8253 0.0865771Q7.01954 0.0577644 7.21496 0.0385174Q7.41038 0.0192703 7.60651 0.00963514Q7.80264 0 7.999 0L7.999 0Z" id="Mask" fill="url(#gradient_1)" fill-rule="evenodd" stroke="none" />
        </g>
        <g id="Group-2" transform="translate(12 12)">
            <g id="Group">
                <path d="M18.6824 0.00042131C18.4045 0.00751383 18.1446 0.139421 17.9749 0.35952C17.8052 0.579619 17.7436 0.86448 17.8074 1.13502L18.1439 2.71191C16.288 1.45494 14.048 0.615795 11.6921 0.615795C5.24567 0.615795 0 5.86145 0 12.3079C0 18.7543 5.24567 24 11.6921 24C18.1385 24 23.3842 18.7543 23.3842 12.3079C23.3911 11.8202 22.9489 11.3752 22.4611 11.3752C21.9734 11.3752 21.5312 11.8202 21.5381 12.3079C21.5381 17.7566 17.1408 22.1539 11.6921 22.1539C6.24338 22.1539 1.84612 17.7566 1.84612 12.3079C1.84612 6.85917 6.24338 2.46192 11.6921 2.46192C13.7296 2.46192 15.7744 3.28192 17.4324 4.48111L15.2593 4.63496C14.9135 4.63513 14.5968 4.82859 14.4387 5.1362C14.2806 5.44381 14.3078 5.81396 14.509 6.09524C14.7102 6.37651 15.0518 6.52172 15.394 6.47146L19.7016 6.16377C19.9684 6.14468 20.2137 6.01083 20.3742 5.79687C20.5347 5.5829 20.5945 5.30986 20.5381 5.04841L19.615 0.740793C19.5261 0.299671 19.1322 -0.0130883 18.6824 0.00042131Z" id="Path" fill="#FFFFFF" stroke="#FFFFFF" stroke-width="0.25" />
            </g>
            <path d="M3.86293 8.4C4.43006 8.4 4.79389 8.01478 4.79389 7.44764C4.79389 7.39414 4.78318 7.34064 4.77248 7.28713L4.53707 5.41452L6.11006 6.61299C6.30268 6.7735 6.51669 6.85911 6.7628 6.85911C7.24433 6.85911 7.68306 6.44178 7.68306 5.89605C7.68306 5.50013 7.44764 5.17911 7.03032 5.0186L5.20051 4.22675L7.03032 3.4349C7.44764 3.27439 7.68306 2.95338 7.68306 2.55745C7.68306 2.01172 7.25503 1.6051 6.7628 1.6051C6.51669 1.6051 6.30268 1.6907 6.11006 1.85121L4.51567 3.04968L4.76178 1.11287C4.77248 1.05936 4.78318 1.00586 4.78318 0.952357C4.78318 0.385223 4.41936 0 3.86293 0C3.2851 0 2.89987 0.406624 2.89987 0.963057C2.89987 1.01656 2.91057 1.05936 2.92127 1.11287L3.16739 3.04968L1.57299 1.84051C1.39108 1.6907 1.16637 1.6051 0.920255 1.6051C0.438726 1.6051 0 2.02242 0 2.55745C0 2.95338 0.235414 3.26369 0.652739 3.4349L2.47185 4.22675L0.652739 5.0079C0.246115 5.17911 0 5.50013 0 5.89605C0 6.44178 0.438726 6.84841 0.920255 6.84841C1.15567 6.84841 1.38038 6.7735 1.57299 6.61299L3.15669 5.41452L2.91057 7.28713C2.89987 7.34064 2.89987 7.39414 2.89987 7.44764C2.88917 8.00408 3.27439 8.4 3.86293 8.4Z" transform="translate(8.4 8.4)" id="" fill="#FFFFFF" stroke="#FFFFFF" stroke-width="0.25" />
        </g>
    </g>
</svg>
