<svg width="40" height="40" viewBox="0 0 40 40" fill="none" xmlns="http://www.w3.org/2000/svg">
<rect width="40" height="40" rx="8" fill="#FF9800"/>
<rect width="40" height="40" rx="8" fill="url(#paint0_linear_266_4665)" fill-opacity="0.2"/>
<path d="M29.1667 9H10.8333C10.3471 9 9.88079 9.19315 9.53697 9.53697C9.19315 9.88079 9 10.3471 9 10.8333V29.1667C9 29.6529 9.19315 30.1192 9.53697 30.463C9.88079 30.8068 10.3471 31 10.8333 31H23.2885C23.5292 31.0002 23.7676 30.9527 23.9898 30.8603C24.2121 30.7679 24.4138 30.6323 24.5833 30.4615L30.4615 24.5833C30.6323 24.4138 30.7679 24.2121 30.8603 23.9898C30.9527 23.7676 31.0002 23.5292 31 23.2885V10.8333C31 10.3471 30.8068 9.88079 30.463 9.53697C30.1192 9.19315 29.6529 9 29.1667 9ZM16.3333 15.4167H23.6667C23.9098 15.4167 24.1429 15.5132 24.3148 15.6852C24.4868 15.8571 24.5833 16.0902 24.5833 16.3333C24.5833 16.5764 24.4868 16.8096 24.3148 16.9815C24.1429 17.1534 23.9098 17.25 23.6667 17.25H16.3333C16.0902 17.25 15.8571 17.1534 15.6852 16.9815C15.5132 16.8096 15.4167 16.5764 15.4167 16.3333C15.4167 16.0902 15.5132 15.8571 15.6852 15.6852C15.8571 15.5132 16.0902 15.4167 16.3333 15.4167ZM20 24.5833H16.3333C16.0902 24.5833 15.8571 24.4868 15.6852 24.3148C15.5132 24.1429 15.4167 23.9098 15.4167 23.6667C15.4167 23.4236 15.5132 23.1904 15.6852 23.0185C15.8571 22.8466 16.0902 22.75 16.3333 22.75H20C20.2431 22.75 20.4763 22.8466 20.6482 23.0185C20.8201 23.1904 20.9167 23.4236 20.9167 23.6667C20.9167 23.9098 20.8201 24.1429 20.6482 24.3148C20.4763 24.4868 20.2431 24.5833 20 24.5833ZM16.3333 20.9167C16.0902 20.9167 15.8571 20.8201 15.6852 20.6482C15.5132 20.4763 15.4167 20.2431 15.4167 20C15.4167 19.7569 15.5132 19.5237 15.6852 19.3518C15.8571 19.1799 16.0902 19.0833 16.3333 19.0833H23.6667C23.9098 19.0833 24.1429 19.1799 24.3148 19.3518C24.4868 19.5237 24.5833 19.7569 24.5833 20C24.5833 20.2431 24.4868 20.4763 24.3148 20.6482C24.1429 20.8201 23.9098 20.9167 23.6667 20.9167H16.3333ZM23.6667 28.7885V23.6667H28.7885L23.6667 28.7885Z" fill="white"/>
<defs>
<linearGradient id="paint0_linear_266_4665" x1="4.5" y1="35" x2="40" y2="2.5" gradientUnits="userSpaceOnUse">
<stop stop-color="#794800"/>
<stop offset="1" stop-color="#794800" stop-opacity="0"/>
</linearGradient>
</defs>
</svg>
