<svg width="40" height="40" viewBox="0 0 40 40" fill="none" xmlns="http://www.w3.org/2000/svg">
<rect width="40" height="40" rx="8" fill="#A2A3A7"/>
<rect width="40" height="40" rx="8" fill="url(#paint0_linear_91_1075)" fill-opacity="0.2"/>
<path d="M30.1538 12.7143H20.3115L17.1038 10.362C16.7859 10.124 16.3962 9.99671 15.9962 10.0001H9.84615C9.35652 10.0001 8.88695 10.1907 8.54073 10.5301C8.1945 10.8694 8 11.3297 8 11.8096V27.1905C8 27.6704 8.1945 28.1307 8.54073 28.47C8.88695 28.8094 9.35652 29 9.84615 29H30.1538C30.6435 29 31.1131 28.8094 31.4593 28.47C31.8055 28.1307 32 27.6704 32 27.1905V14.5239C32 14.0439 31.8055 13.5837 31.4593 13.2443C31.1131 12.905 30.6435 12.7143 30.1538 12.7143ZM9.84615 11.8096H15.9962L18.4654 13.6191L15.9962 15.4286H9.84615V11.8096Z" fill="white"/>
<defs>
<linearGradient id="paint0_linear_91_1075" x1="3.5" y1="41.5" x2="43.5" y2="4.02145e-07" gradientUnits="userSpaceOnUse">
<stop/>
<stop offset="1" stop-opacity="0"/>
</linearGradient>
</defs>
</svg>
