<?xml version="1.0" encoding="utf-8"?>
<svg width="73px" height="73px" viewBox="0 0 73 73" version="1.1" xmlns:xlink="http://www.w3.org/1999/xlink" xmlns="http://www.w3.org/2000/svg">
    <defs>
        <linearGradient x1="0.5" y1="0" x2="0.5" y2="0.99700034" id="gradient_1">
            <stop offset="0" stop-color="#4481EB" />
            <stop offset="1" stop-color="#04BEFE" />
        </linearGradient>
        <path d="M15.999 0L54.001 0Q54.3937 0 54.786 0.0192715Q55.1783 0.038543 55.5692 0.0770395Q55.96 0.115536 56.3485 0.173165Q56.737 0.230794 57.1222 0.307416Q57.5075 0.384039 57.8884 0.47947Q58.2694 0.574901 58.6453 0.688911Q59.0211 0.802922 59.3909 0.935236Q59.7607 1.06755 60.1235 1.21785Q60.4864 1.36815 60.8414 1.53607Q61.1965 1.704 61.5429 1.88914Q61.8892 2.07428 62.2261 2.2762Q62.563 2.47812 62.8896 2.69632Q63.2161 2.91452 63.5316 3.14848Q63.8471 3.38245 64.1507 3.63161Q64.4543 3.88077 64.7453 4.14452Q65.0363 4.40828 65.314 4.686Q65.5917 4.96372 65.8555 5.25473Q66.1192 5.54574 66.3684 5.84934Q66.6176 6.15294 66.8515 6.46841Q67.0855 6.78387 67.3037 7.11043Q67.5219 7.43699 67.7238 7.77387Q67.9257 8.11075 68.1109 8.45712Q68.296 8.8035 68.4639 9.15855Q68.6318 9.51359 68.7821 9.87645Q68.9324 10.2393 69.0648 10.6091Q69.1971 10.9789 69.3111 11.3547Q69.4251 11.7306 69.5205 12.1116Q69.6159 12.4925 69.6926 12.8777Q69.7692 13.263 69.8268 13.6515Q69.8845 14.04 69.923 14.4308Q69.9615 14.8217 69.9807 15.214Q70 15.6062 70 15.999L70 54.001Q70 54.3937 69.9807 54.786Q69.9615 55.1783 69.923 55.5692Q69.8845 55.96 69.8268 56.3485Q69.7692 56.737 69.6926 57.1222Q69.6159 57.5075 69.5205 57.8884Q69.4251 58.2694 69.3111 58.6453Q69.1971 59.0211 69.0648 59.3909Q68.9324 59.7607 68.7821 60.1235Q68.6318 60.4864 68.4639 60.8414Q68.296 61.1965 68.1109 61.5429Q67.9257 61.8892 67.7238 62.2261Q67.5219 62.563 67.3037 62.8896Q67.0855 63.2161 66.8515 63.5316Q66.6176 63.8471 66.3684 64.1507Q66.1192 64.4543 65.8555 64.7453Q65.5917 65.0363 65.314 65.314Q65.0363 65.5917 64.7453 65.8555Q64.4543 66.1192 64.1507 66.3684Q63.8471 66.6176 63.5316 66.8515Q63.2161 67.0855 62.8896 67.3037Q62.563 67.5219 62.2261 67.7238Q61.8893 67.9257 61.5429 68.1109Q61.1965 68.296 60.8414 68.4639Q60.4864 68.6318 60.1235 68.7821Q59.7607 68.9324 59.3909 69.0648Q59.0211 69.1971 58.6453 69.3111Q58.2694 69.4251 57.8884 69.5205Q57.5075 69.6159 57.1222 69.6926Q56.737 69.7692 56.3485 69.8268Q55.96 69.8845 55.5692 69.923Q55.1783 69.9615 54.786 69.9807Q54.3937 70 54.001 70L15.999 70Q15.6062 70 15.214 69.9807Q14.8217 69.9615 14.4308 69.923Q14.04 69.8845 13.6515 69.8268Q13.263 69.7692 12.8777 69.6926Q12.4925 69.6159 12.1116 69.5205Q11.7306 69.4251 11.3547 69.3111Q10.9789 69.1971 10.6091 69.0648Q10.2393 68.9324 9.87645 68.7821Q9.51359 68.6318 9.15855 68.4639Q8.8035 68.296 8.45712 68.1109Q8.11075 67.9257 7.77387 67.7238Q7.43699 67.5219 7.11043 67.3037Q6.78387 67.0855 6.46841 66.8515Q6.15294 66.6176 5.84934 66.3684Q5.54574 66.1192 5.25473 65.8555Q4.96372 65.5917 4.686 65.314Q4.40828 65.0363 4.14452 64.7453Q3.88077 64.4543 3.63161 64.1507Q3.38245 63.8471 3.14848 63.5316Q2.91452 63.2161 2.69632 62.8896Q2.47812 62.563 2.2762 62.2261Q2.07428 61.8893 1.88914 61.5429Q1.704 61.1965 1.53607 60.8414Q1.36815 60.4864 1.21785 60.1235Q1.06755 59.7607 0.935236 59.3909Q0.802922 59.0211 0.688911 58.6453Q0.574901 58.2694 0.47947 57.8884Q0.384039 57.5075 0.307416 57.1222Q0.230794 56.737 0.173165 56.3485Q0.115536 55.96 0.0770395 55.5692Q0.038543 55.1783 0.0192715 54.786Q0 54.3937 0 54.001L0 15.999Q0 15.6062 0.0192715 15.214Q0.038543 14.8217 0.0770395 14.4308Q0.115536 14.04 0.173165 13.6515Q0.230794 13.263 0.307416 12.8777Q0.384039 12.4925 0.47947 12.1116Q0.574901 11.7306 0.688911 11.3547Q0.802922 10.9789 0.935236 10.6091Q1.06755 10.2393 1.21785 9.87645Q1.36815 9.51359 1.53607 9.15855Q1.704 8.8035 1.88914 8.45712Q2.07428 8.11075 2.2762 7.77387Q2.47812 7.43699 2.69632 7.11043Q2.91452 6.78387 3.14848 6.46841Q3.38245 6.15294 3.63161 5.84934Q3.88077 5.54574 4.14452 5.25473Q4.40828 4.96372 4.686 4.686Q4.96372 4.40828 5.25473 4.14452Q5.54574 3.88077 5.84934 3.63161Q6.15294 3.38245 6.46841 3.14848Q6.78387 2.91452 7.11043 2.69632Q7.43699 2.47812 7.77387 2.2762Q8.11075 2.07428 8.45712 1.88914Q8.8035 1.704 9.15855 1.53607Q9.51359 1.36815 9.87645 1.21785Q10.2393 1.06755 10.6091 0.935236Q10.9789 0.802922 11.3547 0.688911Q11.7306 0.574901 12.1116 0.47947Q12.4925 0.384039 12.8777 0.307416Q13.263 0.230794 13.6515 0.173165Q14.04 0.115536 14.4308 0.0770395Q14.8217 0.038543 15.214 0.0192715Q15.6062 0 15.999 0L15.999 0Z" id="path_1" />
        <path d="M0 0L59 0L59 59L0 59L0 0Z" id="path_2" />
        <clipPath id="mask_1">
            <use xlink:href="#path_1" />
        </clipPath>
        <clipPath id="mask_2">
            <use xlink:href="#path_2" />
        </clipPath>
    </defs>
    <g id="Group-4" transform="translate(1.5 1.5)">
        <g id="Bitmap">
            <path d="M15.999 0L54.001 0Q54.3937 0 54.786 0.0192715Q55.1783 0.038543 55.5692 0.0770395Q55.96 0.115536 56.3485 0.173165Q56.737 0.230794 57.1222 0.307416Q57.5075 0.384039 57.8884 0.47947Q58.2694 0.574901 58.6453 0.688911Q59.0211 0.802922 59.3909 0.935236Q59.7607 1.06755 60.1235 1.21785Q60.4864 1.36815 60.8414 1.53607Q61.1965 1.704 61.5429 1.88914Q61.8892 2.07428 62.2261 2.2762Q62.563 2.47812 62.8896 2.69632Q63.2161 2.91452 63.5316 3.14848Q63.8471 3.38245 64.1507 3.63161Q64.4543 3.88077 64.7453 4.14452Q65.0363 4.40828 65.314 4.686Q65.5917 4.96372 65.8555 5.25473Q66.1192 5.54574 66.3684 5.84934Q66.6176 6.15294 66.8515 6.46841Q67.0855 6.78387 67.3037 7.11043Q67.5219 7.43699 67.7238 7.77387Q67.9257 8.11075 68.1109 8.45712Q68.296 8.8035 68.4639 9.15855Q68.6318 9.51359 68.7821 9.87645Q68.9324 10.2393 69.0648 10.6091Q69.1971 10.9789 69.3111 11.3547Q69.4251 11.7306 69.5205 12.1116Q69.6159 12.4925 69.6926 12.8777Q69.7692 13.263 69.8268 13.6515Q69.8845 14.04 69.923 14.4308Q69.9615 14.8217 69.9807 15.214Q70 15.6062 70 15.999L70 54.001Q70 54.3937 69.9807 54.786Q69.9615 55.1783 69.923 55.5692Q69.8845 55.96 69.8268 56.3485Q69.7692 56.737 69.6926 57.1222Q69.6159 57.5075 69.5205 57.8884Q69.4251 58.2694 69.3111 58.6453Q69.1971 59.0211 69.0648 59.3909Q68.9324 59.7607 68.7821 60.1235Q68.6318 60.4864 68.4639 60.8414Q68.296 61.1965 68.1109 61.5429Q67.9257 61.8892 67.7238 62.2261Q67.5219 62.563 67.3037 62.8896Q67.0855 63.2161 66.8515 63.5316Q66.6176 63.8471 66.3684 64.1507Q66.1192 64.4543 65.8555 64.7453Q65.5917 65.0363 65.314 65.314Q65.0363 65.5917 64.7453 65.8555Q64.4543 66.1192 64.1507 66.3684Q63.8471 66.6176 63.5316 66.8515Q63.2161 67.0855 62.8896 67.3037Q62.563 67.5219 62.2261 67.7238Q61.8893 67.9257 61.5429 68.1109Q61.1965 68.296 60.8414 68.4639Q60.4864 68.6318 60.1235 68.7821Q59.7607 68.9324 59.3909 69.0648Q59.0211 69.1971 58.6453 69.3111Q58.2694 69.4251 57.8884 69.5205Q57.5075 69.6159 57.1222 69.6926Q56.737 69.7692 56.3485 69.8268Q55.96 69.8845 55.5692 69.923Q55.1783 69.9615 54.786 69.9807Q54.3937 70 54.001 70L15.999 70Q15.6062 70 15.214 69.9807Q14.8217 69.9615 14.4308 69.923Q14.04 69.8845 13.6515 69.8268Q13.263 69.7692 12.8777 69.6926Q12.4925 69.6159 12.1116 69.5205Q11.7306 69.4251 11.3547 69.3111Q10.9789 69.1971 10.6091 69.0648Q10.2393 68.9324 9.87645 68.7821Q9.51359 68.6318 9.15855 68.4639Q8.8035 68.296 8.45712 68.1109Q8.11075 67.9257 7.77387 67.7238Q7.43699 67.5219 7.11043 67.3037Q6.78387 67.0855 6.46841 66.8515Q6.15294 66.6176 5.84934 66.3684Q5.54574 66.1192 5.25473 65.8555Q4.96372 65.5917 4.686 65.314Q4.40828 65.0363 4.14452 64.7453Q3.88077 64.4543 3.63161 64.1507Q3.38245 63.8471 3.14848 63.5316Q2.91452 63.2161 2.69632 62.8896Q2.47812 62.563 2.2762 62.2261Q2.07428 61.8893 1.88914 61.5429Q1.704 61.1965 1.53607 60.8414Q1.36815 60.4864 1.21785 60.1235Q1.06755 59.7607 0.935236 59.3909Q0.802922 59.0211 0.688911 58.6453Q0.574901 58.2694 0.47947 57.8884Q0.384039 57.5075 0.307416 57.1222Q0.230794 56.737 0.173165 56.3485Q0.115536 55.96 0.0770395 55.5692Q0.038543 55.1783 0.0192715 54.786Q0 54.3937 0 54.001L0 15.999Q0 15.6062 0.0192715 15.214Q0.038543 14.8217 0.0770395 14.4308Q0.115536 14.04 0.173165 13.6515Q0.230794 13.263 0.307416 12.8777Q0.384039 12.4925 0.47947 12.1116Q0.574901 11.7306 0.688911 11.3547Q0.802922 10.9789 0.935236 10.6091Q1.06755 10.2393 1.21785 9.87645Q1.36815 9.51359 1.53607 9.15855Q1.704 8.8035 1.88914 8.45712Q2.07428 8.11075 2.2762 7.77387Q2.47812 7.43699 2.69632 7.11043Q2.91452 6.78387 3.14848 6.46841Q3.38245 6.15294 3.63161 5.84934Q3.88077 5.54574 4.14452 5.25473Q4.40828 4.96372 4.686 4.686Q4.96372 4.40828 5.25473 4.14452Q5.54574 3.88077 5.84934 3.63161Q6.15294 3.38245 6.46841 3.14848Q6.78387 2.91452 7.11043 2.69632Q7.43699 2.47812 7.77387 2.2762Q8.11075 2.07428 8.45712 1.88914Q8.8035 1.704 9.15855 1.53607Q9.51359 1.36815 9.87645 1.21785Q10.2393 1.06755 10.6091 0.935236Q10.9789 0.802922 11.3547 0.688911Q11.7306 0.574901 12.1116 0.47947Q12.4925 0.384039 12.8777 0.307416Q13.263 0.230794 13.6515 0.173165Q14.04 0.115536 14.4308 0.0770395Q14.8217 0.038543 15.214 0.0192715Q15.6062 0 15.999 0L15.999 0Z" id="Mask" fill="url(#gradient_1)" fill-rule="evenodd" stroke="none" />
        </g>
        <g id="ó°€" transform="translate(6 7)">
            <path d="M0 0L59 0L59 59L0 59L0 0Z" id="Mask" fill="none" fill-rule="evenodd" stroke="none" />
            <g clip-path="url(#mask_2)">
                <g id="Group" transform="translate(5 14)">
                    <path d="M25.0695 11.5699C25.0695 12.0908 24.6997 12.5 24.229 12.5L0.840415 12.5C0.378145 12.5 0 12.0908 0 11.5699C0 5.33094 4.53077 0 10.4631 0L14.6063 0C20.4048 0 25.0695 5.20112 25.0695 11.5699Z" transform="translate(12.534728 17.5)" id="Path" fill="none" stroke="#FFFFFF" stroke-width="3" />
                    <path d="M13.1615 5.54244C13.1615 8.69369 10.2253 12.5 6.58469 12.5C2.93615 12.5 0 8.69369 0 5.54244C0 2.48948 2.95199 0 6.58469 0C10.2095 -1.16376e-15 13.1615 2.48948 13.1615 5.54244Z" transform="translate(18.488724 0)" id="Path" fill="none" stroke="#FFFFFF" stroke-width="3" />
                    <path d="M8.77431 3.90973C8.77431 6.1042 6.81395 8.75 4.38715 8.75C1.96035 8.75 0 6.1042 0 3.90973C0 1.75001 1.96827 0 4.38716 0C6.80605 0 8.77431 1.75001 8.77431 3.90973Z" transform="translate(5.013891 6.25)" id="Path" fill="none" stroke="#FFFFFF" stroke-width="2.7" />
                    <path d="M8.77431 3.90973C8.77431 6.1042 6.82183 8.75 4.38706 8.75C1.9604 8.75 0 6.1042 0 3.90973C0 1.75001 1.96812 0 4.38706 0C6.80599 0 8.77431 1.75001 8.77431 3.90973Z" transform="translate(36.35071 6.25)" id="Path" fill="none" stroke="#FFFFFF" stroke-width="2.7" />
                    <path d="M6.78934 0L9.13679 0C7.0989 2.75596 6.69964 4.50679 6.49246 7.5L0.918301 7.5C0.41319 7.5 0 7.12957 0 6.67673C0 2.99672 2.67536 0 6.78934 0Z" transform="translate(6.7577763E-13 20)" id="Path" fill="none" stroke="#FFFFFF" stroke-width="2.7" />
                    <path d="M6.78934 0L9.13679 0C7.0989 2.75596 6.69964 4.50679 6.49246 7.5L0.918301 7.5C0.41319 7.5 0 7.12957 0 6.67673C0 2.99672 2.67536 0 6.78934 0Z" transform="matrix(-1 0 0 1 50 20)" id="Path-Copy" fill="none" stroke="#FFFFFF" stroke-width="2.7" />
                </g>
            </g>
        </g>
    </g>
</svg>
