<?xml version="1.0" encoding="utf-8"?>
<svg width="100px" height="100px" viewBox="0 0 100 100" version="1.1" xmlns:xlink="http://www.w3.org/1999/xlink" xmlns="http://www.w3.org/2000/svg">
    <g id="settingf">
        <g id="Group">
            <path d="M50 100C77.6142 100 100 77.6142 100 50C100 22.3858 77.6142 0 50 0C22.3858 0 0 22.3858 0 50C0 77.6142 22.3858 100 50 100Z" id="Oval" fill="#F3F5F8" stroke="none" />
            <path d="M19.2308 15.3846C29.8516 15.3846 38.4615 11.9407 38.4615 7.69231C38.4615 3.44396 29.8516 0 19.2308 0C8.60991 0 0 3.44396 0 7.69231C0 11.9407 8.60991 15.3846 19.2308 15.3846Z" transform="translate(30.76923 80.76923)" id="Oval" fill="#CFD6E4" stroke="none" />
        </g>
        <path d="M53.764 0.692308C54.9178 0.923077 56.764 0.153846 58.3794 0C59.2255 1.30769 59.6101 2.30769 59.9178 3.07692L48.5332 9.07692L47.6101 18.6154L56.5332 24.2308L66.3794 15.1538L67.9178 18.2308C67.8409 20.4615 67.3025 22.6923 66.3025 24.8462C63.3794 31.0769 56.9178 34.9231 49.9948 34.6154C49.4563 34.6154 48.8409 34.5385 48.3025 34.4615C44.764 33.9231 41.2255 35.3077 38.8409 37.9231L11.764 68.0769C9.4563 70.6154 5.61015 70.8462 3.07168 68.5385L3.07168 68.5385C0.533223 66.2308 -1.23601 62.3846 1.07168 59.8462L31.0717 28.1538C33.1486 25.8462 34.1486 22.6923 33.764 19.5385C33.4563 16.7692 33.764 13.8462 34.9178 11.0769C37.9178 3.61538 45.9178 -0.769231 53.764 0.692308Z" transform="translate(19.620623 15.615385)" id="Path" fill="#1F1F66" stroke="none" />
        <path d="M52.7496 0.279703C54.9804 0.664318 57.0573 1.51047 58.9035 2.66432L47.5189 8.66432L46.5958 18.2028L55.5189 23.8182L66.9035 17.8182C66.8266 20.0489 66.2881 22.2797 65.2881 24.4335C62.365 30.6643 55.9035 34.5105 48.9804 34.2028C48.442 34.2028 47.8266 34.1259 47.2881 34.0489C43.7496 33.5105 40.2112 34.8951 37.8266 37.5105L10.7496 67.6643C8.44195 70.2028 4.5958 70.4335 2.05734 68.1259L2.05734 68.1259C-0.481123 65.8182 -0.711892 61.972 1.5958 59.4335L30.0573 27.7412C32.1343 25.4335 33.1343 22.2797 32.7496 19.1259C32.442 16.3566 32.7496 13.4335 33.9035 10.6643C36.9035 3.20278 44.9035 -1.18184 52.7496 0.279703Z" transform="translate(19.096508 12.951067)" id="Path" fill="#4E66D0" stroke="none" />
        <path d="M12.2308 0C10.3846 1.15385 8.53846 2.23077 6.69231 3.30769C4.84615 4.30769 2.92308 5.38462 1 6.38462L1.23077 6.07692C1.07692 7.69231 0.846154 9.23077 0.692308 10.8462C0.615385 11.6154 0.461538 12.4615 0.384615 13.2308C0.230769 14 0.153846 14.8462 0 15.6154C0 14.8462 0.0769231 14 0.0769231 13.2308C0.0769231 12.4615 0.153846 11.6154 0.230769 10.8462C0.307692 9.23077 0.461538 7.69231 0.615385 6.07692C0.615385 5.92308 0.692308 5.84615 0.769231 5.76923L0.769231 5.76923C2.69231 4.76923 4.53846 3.76923 6.46154 2.84615C8.30769 1.76923 10.2308 0.846154 12.2308 0Z" transform="translate(65.76923 15.615385)" id="Path" fill="#21B8FF" stroke="none" />
        <path d="M35.7692 0C33.0769 3.23077 30.3846 6.38461 27.6154 9.53846C24.8462 12.6923 22.0769 15.7692 19.3077 18.9231C16.4615 22 13.6923 25.1538 10.8462 28.2308C10.1538 29 9.46154 29.7692 8.69231 30.5385C7.92308 31.3077 6.92308 31.8462 5.92308 32.1538C3.84615 32.6923 1.53846 32.1538 0 30.6154C0.846154 31.3077 1.76923 31.7692 2.76923 31.9231C3.76923 32.0769 4.84615 32.0769 5.76923 31.7692C6.76923 31.4615 7.61538 30.9231 8.30769 30.1538C9 29.3846 9.69231 28.6154 10.3846 27.7692C13.1538 24.6154 15.9231 21.5385 18.6923 18.3846C21.5385 15.3077 24.3077 12.1538 27.1538 9.07692C30.0769 6.07692 32.9231 3 35.7692 0Z" transform="translate(21.153847 50.46154)" id="Path" fill="#21B8FF" stroke="none" />
        <path d="M0 3.07692L6.53846 15.3077L13.1538 7.30769L2.69231 0L0 3.07692Z" transform="translate(39.307693 48.692307)" id="Path" fill="#1F1F66" stroke="none" />
        <path d="M43.8462 51.6923L9.76923 12.4615L3.38462 7.23077L0 2.07692L2.23077 0L7.38462 3.46154L12.1538 10.4615L47.9231 47.9231L43.8462 51.6923Z" transform="translate(15.461538 15.230769)" id="Path" fill="#4E66D0" stroke="none" />
        <path d="M13.6923 14.9231L0 0L14.2308 14.3846C14.3846 14.5385 14.3846 14.7692 14.2308 14.9231C14.0769 15.0769 13.8462 15.0769 13.6923 14.9231C13.6923 14.9231 13.6923 14.9231 13.6923 14.9231Z" transform="translate(27.538462 27.461538)" id="Path" fill="#FFFFFF" stroke="none" />
        <path d="M0.489513 10.5655L3.33567 11.3347L31.7972 44.7963C34.4895 47.7194 39.1049 47.9501 42.028 45.2578L42.028 45.2578C44.951 42.5655 45.1818 37.9501 42.4895 35.0271L11.4895 3.33475L10.5664 0.488592C8.02798 -2.28064 -2.35664 7.48859 0.489513 10.5655Z" transform="translate(36.741257 38.434486)" id="Path" fill="#21B8FF" stroke="none" />
        <path d="M9.04153 10.2181C7.34922 11.6796 4.73384 11.4488 3.2723 9.6796C1.81076 7.98729 -1.18924 1.6796 0.503068 0.294985C2.19538 -1.08963 8.11845 2.75652 9.50307 4.44883C10.8877 6.14114 10.8108 8.75652 9.04153 10.2181Z" transform="translate(67.57385 71.24348)" id="Path" fill="#FFCE00" stroke="none" />
        <path d="M2.23077 4.46154C3.46279 4.46154 4.46154 3.46279 4.46154 2.23077C4.46154 0.998749 3.46279 0 2.23077 0C0.998749 0 0 0.998749 0 2.23077C0 3.46279 0.998749 4.46154 2.23077 4.46154Z" transform="translate(71.76923 76.07692)" id="Oval" fill="#F2F2F2" stroke="none" />
        <path d="M1.67521 0C3.90598 4.07692 19.9829 26.0769 22.2906 28.8462C24.5983 31.6923 0.0598291 3 0.0598291 3C0.0598291 3 -0.478632 1.76923 1.67521 0Z" transform="translate(40.094017 46.76923)" id="Path" fill="#4E66D0" fill-opacity="0.5" stroke="none" />
        <g id="Group" transform="translate(39.692307 43.923077)" opacity="0.5">
            <path d="M0 5.76923C0.153846 5.07692 0.538462 4.46154 0.846154 3.92308C1.23077 3.38462 1.61538 2.92308 2.07692 2.46154C3 1.53846 3.92308 0.769231 4.92308 0C4 0.846154 3.07692 1.76923 2.30769 2.69231C1.92308 3.15385 1.53846 3.69231 1.23077 4.23077C0.923077 4.76923 0.692308 5.30769 0.615385 5.84615L0 5.76923Z" transform="matrix(1 0 0 1 5.4657134E-15 0)" id="Path" fill="#4E66D0" stroke="none" />
        </g>
        <path d="M2.23077 4.46154C3.46279 4.46154 4.46154 3.46279 4.46154 2.23077C4.46154 0.998749 3.46279 0 2.23077 0C0.998749 0 0 0.998749 0 2.23077C0 3.46279 0.998749 4.46154 2.23077 4.46154Z" transform="translate(23.076923 73.84615)" id="Oval" fill="#F2F2F2" stroke="none" />
        <path d="M3.76923 2.23077C4 2.23077 4.23077 2.30769 4.46154 2.38462C4.46154 2.30769 4.46154 2.30769 4.46154 2.23077C4.46154 1 3.46154 0 2.23077 0C1 0 0 1 0 2.23077C0 3.23077 0.692308 4.07692 1.53846 4.38462C1.61538 3.15385 2.61538 2.23077 3.76923 2.23077Z" transform="translate(23.076923 73.84615)" id="Path" fill="#1F1F66" stroke="none" />
        <g id="Group" transform="translate(43.076923 45)" opacity="0.5">
            <path d="M0.615385 0L20.7692 22.3846L0 0.538462L0.615385 0Z" id="Path" fill="#4E66D0" stroke="none" />
        </g>
        <path d="M3.23077 1.07692C2.61538 0.846154 2.15385 0.769231 1.61538 0.769231C1.07692 0.769231 0.615385 0.846154 0 1.07692C0.0769231 0.769231 0.307692 0.461538 0.615385 0.307692C0.923077 0.153846 1.23077 0 1.61538 0C2.30769 0 3 0.384615 3.23077 1.07692Z" transform="translate(23.692308 73.53846)" id="Path" fill="#21B8FF" stroke="none" />
    </g>
</svg>
