<svg width="40" height="40" viewBox="0 0 40 40" fill="none" xmlns="http://www.w3.org/2000/svg">
<rect width="40" height="40" rx="8" fill="#F54F64"/>
<rect width="40" height="40" rx="8" fill="url(#paint0_linear_267_2038)" fill-opacity="0.2"/>
<path d="M20.2197 24.6101C23.2573 24.6101 25.7197 22.1477 25.7197 19.1101C25.7197 16.0725 23.2573 13.6101 20.2197 13.6101C17.1822 13.6101 14.7197 16.0725 14.7197 19.1101C14.7197 22.1477 17.1822 24.6101 20.2197 24.6101Z" fill="white"/>
<path d="M20.2197 7.11011C17.6486 7.11011 15.1352 7.87254 12.9973 9.301C10.8595 10.7295 9.19324 12.7598 8.2093 15.1352C7.22536 17.5107 6.96792 20.1245 7.46952 22.6463C7.97113 25.168 9.20926 27.4844 11.0273 29.3025C12.8454 31.1206 15.1618 32.3587 17.6836 32.8603C20.2053 33.3619 22.8192 33.1045 25.1946 32.1205C27.5701 31.1366 29.6004 29.4704 31.0288 27.3325C32.4573 25.1947 33.2197 22.6813 33.2197 20.1101C33.2131 16.6643 31.8414 13.3616 29.4048 10.925C26.9683 8.48848 23.6655 7.11671 20.2197 7.11011ZM28.4447 27.4101C27.6353 26.249 26.5921 25.2697 25.3822 24.5351C23.993 25.866 22.1436 26.609 20.2197 26.609C18.2959 26.609 16.4464 25.866 15.0572 24.5351C13.8473 25.2697 12.8042 26.249 11.9947 27.4101C10.587 25.8248 9.66729 23.8665 9.34643 21.7708C9.02557 19.6751 9.31718 17.5313 10.1862 15.5974C11.0552 13.6636 12.4645 12.022 14.2446 10.8704C16.0246 9.71873 18.0996 9.10604 20.2197 9.10604C22.3399 9.10604 24.4148 9.71873 26.1949 10.8704C27.975 12.022 29.3843 13.6636 30.2533 15.5974C31.1223 17.5313 31.4139 19.6751 31.093 21.7708C30.7722 23.8665 29.8525 25.8248 28.4447 27.4101Z" fill="white"/>
<defs>
<linearGradient id="paint0_linear_267_2038" x1="4.5" y1="35" x2="40" y2="2.5" gradientUnits="userSpaceOnUse">
<stop stop-color="#DB1D35"/>
<stop offset="1" stop-color="#DB1D35" stop-opacity="0"/>
</linearGradient>
</defs>
</svg>
