<svg width="40" height="40" viewBox="0 0 40 40" fill="none" xmlns="http://www.w3.org/2000/svg">
<rect width="40" height="40" rx="20" fill="#E8E8E9"/>
<path d="M16.7375 20.5125C16.4124 19.7149 16.2468 18.8613 16.25 18C16.25 16.665 16.6459 15.3599 17.3876 14.2499C18.1293 13.1399 19.1835 12.2747 20.4169 11.7638C21.6503 11.2529 23.0075 11.1193 24.3169 11.3797C25.6262 11.6402 26.829 12.283 27.773 13.227C28.717 14.171 29.3599 15.3738 29.6203 16.6831C29.8808 17.9925 29.7471 19.3497 29.2362 20.5831C28.7253 21.8165 27.8601 22.8707 26.7501 23.6124C25.6401 24.3541 24.335 24.75 23 24.75C22.1387 24.7532 21.2851 24.5876 20.4875 24.2625V24.2625L19.25 25.5H17V27.75H14.75V30H11V26.25L16.7375 20.5125Z" stroke="#161922" stroke-width="1.5" stroke-linecap="round" stroke-linejoin="round"/>
<path d="M24.875 17.25C25.4963 17.25 26 16.7463 26 16.125C26 15.5037 25.4963 15 24.875 15C24.2537 15 23.75 15.5037 23.75 16.125C23.75 16.7463 24.2537 17.25 24.875 17.25Z" fill="#161922"/>
</svg>
