<?xml version="1.0" encoding="utf-8"?>
<svg width="48px" height="48px" viewBox="0 0 48 48" version="1.1" xmlns:xlink="http://www.w3.org/1999/xlink" xmlns="http://www.w3.org/2000/svg">
    <defs>
        <linearGradient x1="0.5" y1="0" x2="0.5" y2="1" id="gradient_1">
            <stop offset="0" stop-color="#2F6368" />
            <stop offset="1" stop-color="#324067" />
        </linearGradient>
        <path d="M7.999 0L40.001 0Q40.1974 0 40.3935 0.00963514Q40.5896 0.0192703 40.785 0.0385174Q40.9805 0.0577644 41.1747 0.0865771Q41.3689 0.11539 41.5615 0.153699Q41.7541 0.192007 41.9446 0.23972Q42.1351 0.287433 42.323 0.344434Q42.5109 0.401436 42.6958 0.467589Q42.8807 0.533742 43.0621 0.608888Q43.2435 0.684033 43.421 0.76799Q43.5985 0.851946 43.7717 0.944512Q43.9449 1.03708 44.1133 1.13803Q44.2817 1.23898 44.445 1.34807Q44.6083 1.45717 44.766 1.57414Q44.9237 1.69112 45.0755 1.81569Q45.2273 1.94026 45.3728 2.07213Q45.5183 2.204 45.6571 2.34285Q45.796 2.4817 45.9279 2.6272Q46.0597 2.7727 46.1843 2.92449Q46.3089 3.07628 46.4258 3.234Q46.5428 3.39172 46.6519 3.55499Q46.761 3.71826 46.862 3.88669Q46.9629 4.05512 47.0555 4.2283Q47.148 4.40148 47.232 4.57899Q47.316 4.7565 47.3911 4.93791Q47.4663 5.11933 47.5324 5.30422Q47.5986 5.4891 47.6556 5.67701Q47.7126 5.86492 47.7603 6.0554Q47.808 6.24588 47.8463 6.43847Q47.8846 6.63106 47.9134 6.8253Q47.9422 7.01954 47.9615 7.21496Q47.9807 7.41038 47.9904 7.60651Q48 7.80264 48 7.999L48 40.001Q48 40.1974 47.9904 40.3935Q47.9807 40.5896 47.9615 40.785Q47.9422 40.9805 47.9134 41.1747Q47.8846 41.3689 47.8463 41.5615Q47.808 41.7541 47.7603 41.9446Q47.7126 42.1351 47.6556 42.323Q47.5986 42.5109 47.5324 42.6958Q47.4663 42.8807 47.3911 43.0621Q47.316 43.2435 47.232 43.421Q47.148 43.5985 47.0555 43.7717Q46.9629 43.9449 46.862 44.1133Q46.761 44.2817 46.6519 44.445Q46.5428 44.6083 46.4258 44.766Q46.3089 44.9237 46.1843 45.0755Q46.0597 45.2273 45.9279 45.3728Q45.796 45.5183 45.6571 45.6571Q45.5183 45.796 45.3728 45.9279Q45.2273 46.0597 45.0755 46.1843Q44.9237 46.3089 44.766 46.4258Q44.6083 46.5428 44.445 46.6519Q44.2817 46.761 44.1133 46.862Q43.9449 46.9629 43.7717 47.0555Q43.5985 47.148 43.421 47.232Q43.2435 47.316 43.0621 47.3911Q42.8807 47.4663 42.6958 47.5324Q42.5109 47.5986 42.323 47.6556Q42.1351 47.7126 41.9446 47.7603Q41.7541 47.808 41.5615 47.8463Q41.3689 47.8846 41.1747 47.9134Q40.9805 47.9422 40.785 47.9615Q40.5896 47.9807 40.3935 47.9904Q40.1974 48 40.001 48L7.999 48Q7.80264 48 7.60651 47.9904Q7.41038 47.9807 7.21496 47.9615Q7.01954 47.9422 6.8253 47.9134Q6.63106 47.8846 6.43847 47.8463Q6.24588 47.808 6.0554 47.7603Q5.86492 47.7126 5.67701 47.6556Q5.4891 47.5986 5.30422 47.5324Q5.11933 47.4663 4.93791 47.3911Q4.7565 47.316 4.57899 47.232Q4.40148 47.148 4.2283 47.0555Q4.05512 46.9629 3.88669 46.862Q3.71826 46.761 3.55499 46.6519Q3.39172 46.5428 3.234 46.4258Q3.07628 46.3089 2.92449 46.1843Q2.7727 46.0597 2.6272 45.9279Q2.4817 45.796 2.34285 45.6571Q2.204 45.5183 2.07213 45.3728Q1.94026 45.2273 1.81569 45.0755Q1.69112 44.9237 1.57414 44.766Q1.45717 44.6083 1.34807 44.445Q1.23898 44.2817 1.13803 44.1133Q1.03708 43.9449 0.944512 43.7717Q0.851946 43.5985 0.76799 43.421Q0.684033 43.2435 0.608888 43.0621Q0.533742 42.8807 0.467589 42.6958Q0.401436 42.5109 0.344434 42.323Q0.287433 42.1351 0.23972 41.9446Q0.192007 41.7541 0.153699 41.5615Q0.11539 41.3689 0.0865771 41.1747Q0.0577644 40.9805 0.0385174 40.785Q0.0192703 40.5896 0.00963514 40.3935Q0 40.1974 0 40.001L0 7.999Q0 7.80264 0.00963514 7.60651Q0.0192703 7.41038 0.0385174 7.21496Q0.0577644 7.01954 0.0865771 6.8253Q0.11539 6.63106 0.153699 6.43847Q0.192007 6.24588 0.23972 6.0554Q0.287433 5.86492 0.344434 5.67701Q0.401436 5.4891 0.467589 5.30422Q0.533742 5.11933 0.608888 4.93791Q0.684033 4.7565 0.76799 4.57899Q0.851946 4.40148 0.944512 4.2283Q1.03708 4.05512 1.13803 3.88669Q1.23898 3.71826 1.34807 3.55499Q1.45717 3.39172 1.57414 3.234Q1.69112 3.07628 1.81569 2.92449Q1.94026 2.7727 2.07213 2.6272Q2.204 2.4817 2.34285 2.34285Q2.4817 2.204 2.6272 2.07213Q2.7727 1.94026 2.92449 1.81569Q3.07628 1.69112 3.234 1.57414Q3.39172 1.45717 3.55499 1.34807Q3.71826 1.23898 3.88669 1.13803Q4.05512 1.03708 4.2283 0.944512Q4.40148 0.851946 4.57899 0.76799Q4.7565 0.684033 4.93791 0.608888Q5.11933 0.533742 5.30422 0.467589Q5.4891 0.401436 5.67701 0.344434Q5.86492 0.287433 6.0554 0.23972Q6.24588 0.192007 6.43847 0.153699Q6.63106 0.11539 6.8253 0.0865771Q7.01954 0.0577644 7.21496 0.0385174Q7.41038 0.0192703 7.60651 0.00963514Q7.80264 0 7.999 0L7.999 0Z" id="path_1" />
        <clipPath id="mask_1">
            <use xlink:href="#path_1" />
        </clipPath>
    </defs>
    <g id="Group-6">
        <g id="Bitmap">
            <path d="M7.999 0L40.001 0Q40.1974 0 40.3935 0.00963514Q40.5896 0.0192703 40.785 0.0385174Q40.9805 0.0577644 41.1747 0.0865771Q41.3689 0.11539 41.5615 0.153699Q41.7541 0.192007 41.9446 0.23972Q42.1351 0.287433 42.323 0.344434Q42.5109 0.401436 42.6958 0.467589Q42.8807 0.533742 43.0621 0.608888Q43.2435 0.684033 43.421 0.76799Q43.5985 0.851946 43.7717 0.944512Q43.9449 1.03708 44.1133 1.13803Q44.2817 1.23898 44.445 1.34807Q44.6083 1.45717 44.766 1.57414Q44.9237 1.69112 45.0755 1.81569Q45.2273 1.94026 45.3728 2.07213Q45.5183 2.204 45.6571 2.34285Q45.796 2.4817 45.9279 2.6272Q46.0597 2.7727 46.1843 2.92449Q46.3089 3.07628 46.4258 3.234Q46.5428 3.39172 46.6519 3.55499Q46.761 3.71826 46.862 3.88669Q46.9629 4.05512 47.0555 4.2283Q47.148 4.40148 47.232 4.57899Q47.316 4.7565 47.3911 4.93791Q47.4663 5.11933 47.5324 5.30422Q47.5986 5.4891 47.6556 5.67701Q47.7126 5.86492 47.7603 6.0554Q47.808 6.24588 47.8463 6.43847Q47.8846 6.63106 47.9134 6.8253Q47.9422 7.01954 47.9615 7.21496Q47.9807 7.41038 47.9904 7.60651Q48 7.80264 48 7.999L48 40.001Q48 40.1974 47.9904 40.3935Q47.9807 40.5896 47.9615 40.785Q47.9422 40.9805 47.9134 41.1747Q47.8846 41.3689 47.8463 41.5615Q47.808 41.7541 47.7603 41.9446Q47.7126 42.1351 47.6556 42.323Q47.5986 42.5109 47.5324 42.6958Q47.4663 42.8807 47.3911 43.0621Q47.316 43.2435 47.232 43.421Q47.148 43.5985 47.0555 43.7717Q46.9629 43.9449 46.862 44.1133Q46.761 44.2817 46.6519 44.445Q46.5428 44.6083 46.4258 44.766Q46.3089 44.9237 46.1843 45.0755Q46.0597 45.2273 45.9279 45.3728Q45.796 45.5183 45.6571 45.6571Q45.5183 45.796 45.3728 45.9279Q45.2273 46.0597 45.0755 46.1843Q44.9237 46.3089 44.766 46.4258Q44.6083 46.5428 44.445 46.6519Q44.2817 46.761 44.1133 46.862Q43.9449 46.9629 43.7717 47.0555Q43.5985 47.148 43.421 47.232Q43.2435 47.316 43.0621 47.3911Q42.8807 47.4663 42.6958 47.5324Q42.5109 47.5986 42.323 47.6556Q42.1351 47.7126 41.9446 47.7603Q41.7541 47.808 41.5615 47.8463Q41.3689 47.8846 41.1747 47.9134Q40.9805 47.9422 40.785 47.9615Q40.5896 47.9807 40.3935 47.9904Q40.1974 48 40.001 48L7.999 48Q7.80264 48 7.60651 47.9904Q7.41038 47.9807 7.21496 47.9615Q7.01954 47.9422 6.8253 47.9134Q6.63106 47.8846 6.43847 47.8463Q6.24588 47.808 6.0554 47.7603Q5.86492 47.7126 5.67701 47.6556Q5.4891 47.5986 5.30422 47.5324Q5.11933 47.4663 4.93791 47.3911Q4.7565 47.316 4.57899 47.232Q4.40148 47.148 4.2283 47.0555Q4.05512 46.9629 3.88669 46.862Q3.71826 46.761 3.55499 46.6519Q3.39172 46.5428 3.234 46.4258Q3.07628 46.3089 2.92449 46.1843Q2.7727 46.0597 2.6272 45.9279Q2.4817 45.796 2.34285 45.6571Q2.204 45.5183 2.07213 45.3728Q1.94026 45.2273 1.81569 45.0755Q1.69112 44.9237 1.57414 44.766Q1.45717 44.6083 1.34807 44.445Q1.23898 44.2817 1.13803 44.1133Q1.03708 43.9449 0.944512 43.7717Q0.851946 43.5985 0.76799 43.421Q0.684033 43.2435 0.608888 43.0621Q0.533742 42.8807 0.467589 42.6958Q0.401436 42.5109 0.344434 42.323Q0.287433 42.1351 0.23972 41.9446Q0.192007 41.7541 0.153699 41.5615Q0.11539 41.3689 0.0865771 41.1747Q0.0577644 40.9805 0.0385174 40.785Q0.0192703 40.5896 0.00963514 40.3935Q0 40.1974 0 40.001L0 7.999Q0 7.80264 0.00963514 7.60651Q0.0192703 7.41038 0.0385174 7.21496Q0.0577644 7.01954 0.0865771 6.8253Q0.11539 6.63106 0.153699 6.43847Q0.192007 6.24588 0.23972 6.0554Q0.287433 5.86492 0.344434 5.67701Q0.401436 5.4891 0.467589 5.30422Q0.533742 5.11933 0.608888 4.93791Q0.684033 4.7565 0.76799 4.57899Q0.851946 4.40148 0.944512 4.2283Q1.03708 4.05512 1.13803 3.88669Q1.23898 3.71826 1.34807 3.55499Q1.45717 3.39172 1.57414 3.234Q1.69112 3.07628 1.81569 2.92449Q1.94026 2.7727 2.07213 2.6272Q2.204 2.4817 2.34285 2.34285Q2.4817 2.204 2.6272 2.07213Q2.7727 1.94026 2.92449 1.81569Q3.07628 1.69112 3.234 1.57414Q3.39172 1.45717 3.55499 1.34807Q3.71826 1.23898 3.88669 1.13803Q4.05512 1.03708 4.2283 0.944512Q4.40148 0.851946 4.57899 0.76799Q4.7565 0.684033 4.93791 0.608888Q5.11933 0.533742 5.30422 0.467589Q5.4891 0.401436 5.67701 0.344434Q5.86492 0.287433 6.0554 0.23972Q6.24588 0.192007 6.43847 0.153699Q6.63106 0.11539 6.8253 0.0865771Q7.01954 0.0577644 7.21496 0.0385174Q7.41038 0.0192703 7.60651 0.00963514Q7.80264 0 7.999 0L7.999 0Z" id="Mask" fill="url(#gradient_1)" fill-rule="evenodd" stroke="none" />
        </g>
        <g id="Group" transform="translate(12 12)">
            <path d="M0 5.91158L2.19789 5.91158C2.85474 4.21895 4.21895 2.88 5.91158 2.19789L5.91158 0C3.08211 0.833684 0.833684 3.08211 0 5.91158Z" transform="translate(3.663158 3.663158)" id="Path" fill="#48FF90" stroke="none" />
            <path d="M5.88632 0L3.68842 0C3.03158 1.69263 1.66737 3.03158 0 3.68842L0 5.91158C2.80421 5.07789 5.05263 2.82947 5.88632 0Z" transform="translate(14.450526 14.425263)" id="Path" fill="#48FF90" stroke="none" />
            <path d="M2.19789 0L0 0C0.833684 2.85474 3.08211 5.07789 5.91158 5.91158L5.91158 3.71368C4.21895 3.03158 2.88 1.69263 2.19789 0Z" transform="translate(3.663158 14.425263)" id="Path" fill="#48FF90" stroke="none" />
            <path d="M3.71368 5.91158L5.91158 5.91158C5.07789 3.08211 2.85474 0.833684 0 0L0 2.19789C1.69263 2.88 3.03158 4.21895 3.71368 5.91158Z" transform="translate(14.425263 3.663158)" id="Path" fill="#48FF90" stroke="none" />
            <path d="M22.9642 10.9642L15.5368 10.9642C15.1832 9.75158 14.2484 8.81684 13.0358 8.46316L13.0358 1.03579C13.0358 0.454737 12.5811 0 12 0C11.4189 0 10.9642 0.454737 10.9642 1.03579L10.9642 8.46316C9.75158 8.81684 8.81684 9.75158 8.46316 10.9642L1.03579 10.9642C0.454737 10.9642 0 11.4189 0 12C0 12.5811 0.454737 13.0358 1.03579 13.0358L8.46316 13.0358C8.81684 14.2484 9.75158 15.1832 10.9642 15.5368L10.9642 22.9642C10.9642 23.5453 11.4189 24 12 24C12.5811 24 13.0358 23.5453 13.0358 22.9642L13.0358 15.5368C14.2484 15.1832 15.1832 14.2484 15.5368 13.0358L22.9642 13.0358C23.5453 13.0358 24 12.5811 24 12C24 11.4189 23.5453 10.9642 22.9642 10.9642Z" id="Path" fill="#48FF90" stroke="none" />
            <path d="M1.03579 8.08421C1.61684 8.08421 2.07158 7.62947 2.07158 7.04842L2.07158 3.81474C2.07158 2.85474 2.85474 2.07158 3.81474 2.07158L7.02316 2.07158C7.60421 2.07158 8.05895 1.61684 8.05895 1.03579C8.05895 0.454737 7.60421 0 7.02316 0L3.81474 0C1.71789 -4.48764e-16 0 1.71789 0 3.81474L0 7.02316C0 7.60421 0.454737 8.08421 1.03579 8.08421Z" transform="matrix(1 0 0 1 0 4.487638E-16)" id="Path" fill="#48FF90" stroke="none" />
            <path d="M7.04842 0C6.46737 0 6.01263 0.454737 6.01263 1.03579L6.01263 4.24421C6.01263 5.20421 5.22947 5.98737 4.26947 5.98737L1.03579 5.98737C0.454737 5.98737 0 6.44211 0 7.02316C0 7.60421 0.454737 8.05895 1.03579 8.05895L4.24421 8.05895C6.34105 8.05895 8.05895 6.34105 8.05895 4.24421L8.05895 1.03579C8.08421 0.48 7.62947 0 7.04842 0Z" transform="translate(15.91579 15.91579)" id="Path" fill="#48FF90" stroke="none" />
            <path d="M4.26947 0L1.03579 0C0.454737 0 0 0.454737 0 1.03579C0 1.61684 0.454737 2.07158 1.03579 2.07158L4.24421 2.07158C5.20421 2.07158 5.98737 2.85474 5.98737 3.81474L5.98737 7.02316C5.98737 7.60421 6.4421 8.05895 7.02316 8.05895C7.60421 8.05895 8.05895 7.60421 8.05895 7.02316L8.05895 3.81474C8.08421 1.71789 6.36632 0 4.26947 0Z" transform="translate(15.91579 0)" id="Path" fill="#48FF90" stroke="none" />
            <path d="M7.04842 5.98737L3.81474 5.98737C2.85474 5.98737 2.07158 5.20421 2.07158 4.24421L2.07158 1.03579C2.07158 0.454737 1.61684 0 1.03579 0C0.454737 0 0 0.454737 0 1.03579L0 4.24421C0 6.34105 1.71789 8.05895 3.81474 8.05895L7.02316 8.05895C7.60421 8.05895 8.05895 7.60421 8.05895 7.02316C8.05895 6.44211 7.60421 5.98737 7.04842 5.98737Z" transform="translate(4.487638E-16 15.91579)" id="Path" fill="#48FF90" stroke="none" />
        </g>
    </g>
</svg>
