<?xml version="1.0" encoding="utf-8"?>
<svg width="48px" height="48px" viewBox="0 0 48 48" version="1.1" xmlns:xlink="http://www.w3.org/1999/xlink" xmlns="http://www.w3.org/2000/svg">
    <defs>
        <linearGradient x1="0" y1="0.13114014" x2="1" y2="1" id="gradient_1">
            <stop offset="0" stop-color="#FF5770" />
            <stop offset="1" stop-color="#FF9889" />
        </linearGradient>
        <path d="M7.999 0L40.001 0Q40.1974 0 40.3935 0.00963514Q40.5896 0.0192703 40.785 0.0385174Q40.9805 0.0577644 41.1747 0.0865771Q41.3689 0.11539 41.5615 0.153699Q41.7541 0.192007 41.9446 0.23972Q42.1351 0.287433 42.323 0.344434Q42.5109 0.401436 42.6958 0.467589Q42.8807 0.533742 43.0621 0.608888Q43.2435 0.684033 43.421 0.76799Q43.5985 0.851946 43.7717 0.944512Q43.9449 1.03708 44.1133 1.13803Q44.2817 1.23898 44.445 1.34807Q44.6083 1.45717 44.766 1.57414Q44.9237 1.69112 45.0755 1.81569Q45.2273 1.94026 45.3728 2.07213Q45.5183 2.204 45.6571 2.34285Q45.796 2.4817 45.9279 2.6272Q46.0597 2.7727 46.1843 2.92449Q46.3089 3.07628 46.4258 3.234Q46.5428 3.39172 46.6519 3.55499Q46.761 3.71826 46.862 3.88669Q46.9629 4.05512 47.0555 4.2283Q47.148 4.40148 47.232 4.57899Q47.316 4.7565 47.3911 4.93791Q47.4663 5.11933 47.5324 5.30422Q47.5986 5.4891 47.6556 5.67701Q47.7126 5.86492 47.7603 6.0554Q47.808 6.24588 47.8463 6.43847Q47.8846 6.63106 47.9134 6.8253Q47.9422 7.01954 47.9615 7.21496Q47.9807 7.41038 47.9904 7.60651Q48 7.80264 48 7.999L48 40.001Q48 40.1974 47.9904 40.3935Q47.9807 40.5896 47.9615 40.785Q47.9422 40.9805 47.9134 41.1747Q47.8846 41.3689 47.8463 41.5615Q47.808 41.7541 47.7603 41.9446Q47.7126 42.1351 47.6556 42.323Q47.5986 42.5109 47.5324 42.6958Q47.4663 42.8807 47.3911 43.0621Q47.316 43.2435 47.232 43.421Q47.148 43.5985 47.0555 43.7717Q46.9629 43.9449 46.862 44.1133Q46.761 44.2817 46.6519 44.445Q46.5428 44.6083 46.4258 44.766Q46.3089 44.9237 46.1843 45.0755Q46.0597 45.2273 45.9279 45.3728Q45.796 45.5183 45.6571 45.6571Q45.5183 45.796 45.3728 45.9279Q45.2273 46.0597 45.0755 46.1843Q44.9237 46.3089 44.766 46.4258Q44.6083 46.5428 44.445 46.6519Q44.2817 46.761 44.1133 46.862Q43.9449 46.9629 43.7717 47.0555Q43.5985 47.148 43.421 47.232Q43.2435 47.316 43.0621 47.3911Q42.8807 47.4663 42.6958 47.5324Q42.5109 47.5986 42.323 47.6556Q42.1351 47.7126 41.9446 47.7603Q41.7541 47.808 41.5615 47.8463Q41.3689 47.8846 41.1747 47.9134Q40.9805 47.9422 40.785 47.9615Q40.5896 47.9807 40.3935 47.9904Q40.1974 48 40.001 48L7.999 48Q7.80264 48 7.60651 47.9904Q7.41038 47.9807 7.21496 47.9615Q7.01954 47.9422 6.8253 47.9134Q6.63106 47.8846 6.43847 47.8463Q6.24588 47.808 6.0554 47.7603Q5.86492 47.7126 5.67701 47.6556Q5.4891 47.5986 5.30422 47.5324Q5.11933 47.4663 4.93791 47.3911Q4.7565 47.316 4.57899 47.232Q4.40148 47.148 4.2283 47.0555Q4.05512 46.9629 3.88669 46.862Q3.71826 46.761 3.55499 46.6519Q3.39172 46.5428 3.234 46.4258Q3.07628 46.3089 2.92449 46.1843Q2.7727 46.0597 2.6272 45.9279Q2.4817 45.796 2.34285 45.6571Q2.204 45.5183 2.07213 45.3728Q1.94026 45.2273 1.81569 45.0755Q1.69112 44.9237 1.57414 44.766Q1.45717 44.6083 1.34807 44.445Q1.23898 44.2817 1.13803 44.1133Q1.03708 43.9449 0.944512 43.7717Q0.851946 43.5985 0.76799 43.421Q0.684033 43.2435 0.608888 43.0621Q0.533742 42.8807 0.467589 42.6958Q0.401436 42.5109 0.344434 42.323Q0.287433 42.1351 0.23972 41.9446Q0.192007 41.7541 0.153699 41.5615Q0.11539 41.3689 0.0865771 41.1747Q0.0577644 40.9805 0.0385174 40.785Q0.0192703 40.5896 0.00963514 40.3935Q0 40.1974 0 40.001L0 7.999Q0 7.80264 0.00963514 7.60651Q0.0192703 7.41038 0.0385174 7.21496Q0.0577644 7.01954 0.0865771 6.8253Q0.11539 6.63106 0.153699 6.43847Q0.192007 6.24588 0.23972 6.0554Q0.287433 5.86492 0.344434 5.67701Q0.401436 5.4891 0.467589 5.30422Q0.533742 5.11933 0.608888 4.93791Q0.684033 4.7565 0.76799 4.57899Q0.851946 4.40148 0.944512 4.2283Q1.03708 4.05512 1.13803 3.88669Q1.23898 3.71826 1.34807 3.55499Q1.45717 3.39172 1.57414 3.234Q1.69112 3.07628 1.81569 2.92449Q1.94026 2.7727 2.07213 2.6272Q2.204 2.4817 2.34285 2.34285Q2.4817 2.204 2.6272 2.07213Q2.7727 1.94026 2.92449 1.81569Q3.07628 1.69112 3.234 1.57414Q3.39172 1.45717 3.55499 1.34807Q3.71826 1.23898 3.88669 1.13803Q4.05512 1.03708 4.2283 0.944512Q4.40148 0.851946 4.57899 0.76799Q4.7565 0.684033 4.93791 0.608888Q5.11933 0.533742 5.30422 0.467589Q5.4891 0.401436 5.67701 0.344434Q5.86492 0.287433 6.0554 0.23972Q6.24588 0.192007 6.43847 0.153699Q6.63106 0.11539 6.8253 0.0865771Q7.01954 0.0577644 7.21496 0.0385174Q7.41038 0.0192703 7.60651 0.00963514Q7.80264 0 7.999 0L7.999 0Z" id="path_1" />
        <clipPath id="mask_1">
            <use xlink:href="#path_1" />
        </clipPath>
    </defs>
    <g id="Bitmap">
        <path d="M7.999 0L40.001 0Q40.1974 0 40.3935 0.00963514Q40.5896 0.0192703 40.785 0.0385174Q40.9805 0.0577644 41.1747 0.0865771Q41.3689 0.11539 41.5615 0.153699Q41.7541 0.192007 41.9446 0.23972Q42.1351 0.287433 42.323 0.344434Q42.5109 0.401436 42.6958 0.467589Q42.8807 0.533742 43.0621 0.608888Q43.2435 0.684033 43.421 0.76799Q43.5985 0.851946 43.7717 0.944512Q43.9449 1.03708 44.1133 1.13803Q44.2817 1.23898 44.445 1.34807Q44.6083 1.45717 44.766 1.57414Q44.9237 1.69112 45.0755 1.81569Q45.2273 1.94026 45.3728 2.07213Q45.5183 2.204 45.6571 2.34285Q45.796 2.4817 45.9279 2.6272Q46.0597 2.7727 46.1843 2.92449Q46.3089 3.07628 46.4258 3.234Q46.5428 3.39172 46.6519 3.55499Q46.761 3.71826 46.862 3.88669Q46.9629 4.05512 47.0555 4.2283Q47.148 4.40148 47.232 4.57899Q47.316 4.7565 47.3911 4.93791Q47.4663 5.11933 47.5324 5.30422Q47.5986 5.4891 47.6556 5.67701Q47.7126 5.86492 47.7603 6.0554Q47.808 6.24588 47.8463 6.43847Q47.8846 6.63106 47.9134 6.8253Q47.9422 7.01954 47.9615 7.21496Q47.9807 7.41038 47.9904 7.60651Q48 7.80264 48 7.999L48 40.001Q48 40.1974 47.9904 40.3935Q47.9807 40.5896 47.9615 40.785Q47.9422 40.9805 47.9134 41.1747Q47.8846 41.3689 47.8463 41.5615Q47.808 41.7541 47.7603 41.9446Q47.7126 42.1351 47.6556 42.323Q47.5986 42.5109 47.5324 42.6958Q47.4663 42.8807 47.3911 43.0621Q47.316 43.2435 47.232 43.421Q47.148 43.5985 47.0555 43.7717Q46.9629 43.9449 46.862 44.1133Q46.761 44.2817 46.6519 44.445Q46.5428 44.6083 46.4258 44.766Q46.3089 44.9237 46.1843 45.0755Q46.0597 45.2273 45.9279 45.3728Q45.796 45.5183 45.6571 45.6571Q45.5183 45.796 45.3728 45.9279Q45.2273 46.0597 45.0755 46.1843Q44.9237 46.3089 44.766 46.4258Q44.6083 46.5428 44.445 46.6519Q44.2817 46.761 44.1133 46.862Q43.9449 46.9629 43.7717 47.0555Q43.5985 47.148 43.421 47.232Q43.2435 47.316 43.0621 47.3911Q42.8807 47.4663 42.6958 47.5324Q42.5109 47.5986 42.323 47.6556Q42.1351 47.7126 41.9446 47.7603Q41.7541 47.808 41.5615 47.8463Q41.3689 47.8846 41.1747 47.9134Q40.9805 47.9422 40.785 47.9615Q40.5896 47.9807 40.3935 47.9904Q40.1974 48 40.001 48L7.999 48Q7.80264 48 7.60651 47.9904Q7.41038 47.9807 7.21496 47.9615Q7.01954 47.9422 6.8253 47.9134Q6.63106 47.8846 6.43847 47.8463Q6.24588 47.808 6.0554 47.7603Q5.86492 47.7126 5.67701 47.6556Q5.4891 47.5986 5.30422 47.5324Q5.11933 47.4663 4.93791 47.3911Q4.7565 47.316 4.57899 47.232Q4.40148 47.148 4.2283 47.0555Q4.05512 46.9629 3.88669 46.862Q3.71826 46.761 3.55499 46.6519Q3.39172 46.5428 3.234 46.4258Q3.07628 46.3089 2.92449 46.1843Q2.7727 46.0597 2.6272 45.9279Q2.4817 45.796 2.34285 45.6571Q2.204 45.5183 2.07213 45.3728Q1.94026 45.2273 1.81569 45.0755Q1.69112 44.9237 1.57414 44.766Q1.45717 44.6083 1.34807 44.445Q1.23898 44.2817 1.13803 44.1133Q1.03708 43.9449 0.944512 43.7717Q0.851946 43.5985 0.76799 43.421Q0.684033 43.2435 0.608888 43.0621Q0.533742 42.8807 0.467589 42.6958Q0.401436 42.5109 0.344434 42.323Q0.287433 42.1351 0.23972 41.9446Q0.192007 41.7541 0.153699 41.5615Q0.11539 41.3689 0.0865771 41.1747Q0.0577644 40.9805 0.0385174 40.785Q0.0192703 40.5896 0.00963514 40.3935Q0 40.1974 0 40.001L0 7.999Q0 7.80264 0.00963514 7.60651Q0.0192703 7.41038 0.0385174 7.21496Q0.0577644 7.01954 0.0865771 6.8253Q0.11539 6.63106 0.153699 6.43847Q0.192007 6.24588 0.23972 6.0554Q0.287433 5.86492 0.344434 5.67701Q0.401436 5.4891 0.467589 5.30422Q0.533742 5.11933 0.608888 4.93791Q0.684033 4.7565 0.76799 4.57899Q0.851946 4.40148 0.944512 4.2283Q1.03708 4.05512 1.13803 3.88669Q1.23898 3.71826 1.34807 3.55499Q1.45717 3.39172 1.57414 3.234Q1.69112 3.07628 1.81569 2.92449Q1.94026 2.7727 2.07213 2.6272Q2.204 2.4817 2.34285 2.34285Q2.4817 2.204 2.6272 2.07213Q2.7727 1.94026 2.92449 1.81569Q3.07628 1.69112 3.234 1.57414Q3.39172 1.45717 3.55499 1.34807Q3.71826 1.23898 3.88669 1.13803Q4.05512 1.03708 4.2283 0.944512Q4.40148 0.851946 4.57899 0.76799Q4.7565 0.684033 4.93791 0.608888Q5.11933 0.533742 5.30422 0.467589Q5.4891 0.401436 5.67701 0.344434Q5.86492 0.287433 6.0554 0.23972Q6.24588 0.192007 6.43847 0.153699Q6.63106 0.11539 6.8253 0.0865771Q7.01954 0.0577644 7.21496 0.0385174Q7.41038 0.0192703 7.60651 0.00963514Q7.80264 0 7.999 0L7.999 0Z" id="Mask" fill="url(#gradient_1)" fill-rule="evenodd" stroke="none" />
        <g clip-path="url(#mask_1)">
            <path d="M39.1282 9.29793L33.1148 9.29793C34.2243 6.22615 33.042 2.79643 30.2752 1.06099C27.5084 -0.674447 23.906 -0.245945 21.6235 2.0901L20.5938 3.11979L19.5641 2.0901C17.2788 -0.218272 13.6967 -0.629469 10.9477 1.101C8.19878 2.83146 7.02069 6.23915 8.11395 9.29793L1.02969 9.29793C0.461008 9.29793 0 9.75893 0 10.3276C0 10.8963 0.461008 11.3573 1.02969 11.3573L9.18483 11.3573C9.38119 11.6276 9.59806 11.8823 9.83354 12.1193L18.4109 20.6966C19.6169 21.9011 21.5707 21.9011 22.7767 20.6966L31.3541 12.1193C31.5895 11.8823 31.8064 11.6276 32.0028 11.3573L39.1282 11.3573C39.6969 11.3573 40.1579 10.8963 40.1579 10.3276C40.1579 9.75893 39.6969 9.29793 39.1282 9.29793L39.1282 9.29793ZM10.7809 3.89206C11.6596 2.80832 12.9601 2.15245 14.3539 2.0901L14.5804 2.0901C15.8865 2.08666 17.1396 2.60573 18.0608 3.53166L20.5938 6.0647L23.1268 3.53166C24.1094 2.5513 25.4603 2.03139 26.8466 2.10002C28.2329 2.16865 29.5258 2.81944 30.4067 3.89206C31.6237 5.43942 31.8135 7.559 30.8907 9.29793L29.4697 9.29793L26.7719 3.90235L24.0741 9.29793L18.9257 9.29793L17.7724 11.6147L15.8263 4.81878L12.8299 9.29793L10.2969 9.29793C9.3741 7.559 9.56385 5.43942 10.7809 3.89206L10.7809 3.89206ZM13.942 11.3573L15.0644 9.65832L16.9796 16.3513L11.9856 11.3573L13.942 11.3573ZM21.3249 19.2344C21.1315 19.4294 20.8683 19.539 20.5938 19.539C20.3192 19.539 20.0561 19.4294 19.8627 19.2344L17.5047 16.8353L20.2025 11.3573L25.351 11.3573L26.7719 8.51536L28.1929 11.3573L29.2226 11.3573L21.3249 19.2344Z" transform="translate(3.6 13.2)" id="Shape" fill="#FFFFFF" stroke="none" />
        </g>
    </g>
</svg>
