<?xml version="1.0" encoding="utf-8"?>
<svg width="22px" height="22px" viewbox="0 0 22 22" version="1.1" xmlns:xlink="http://www.w3.org/1999/xlink" xmlns="http://www.w3.org/2000/svg">
    <defs>
        <path d="M0 0L22 0L22 22L0 22L0 0Z" id="path_1" />
        <clipPath id="mask_1">
            <use xlink:href="#path_1" />
        </clipPath>
    </defs>
    <g id="󰆛">
        <path d="M0 0L22 0L22 22L0 22L0 0Z" id="Mask" fill="none" fill-rule="evenodd" stroke="none" />
        <g clip-path="url(#mask_1)">
            <path d="M13.0983 14.75C13.5592 14.75 13.9498 14.59 14.2699 14.2699C14.59 13.9498 14.75 13.5592 14.75 13.0983L14.75 1.65169C14.75 1.19076 14.59 0.800239 14.2699 0.480143C13.9498 0.160048 13.5592 0 13.0983 0L1.65169 0C1.19076 0 0.800239 0.160048 0.480143 0.480143C0.160048 0.800239 0 1.19076 0 1.65169L0 13.0983C0 13.5592 0.160048 13.9498 0.480143 14.2699C0.800239 14.59 1.19076 14.75 1.65169 14.75L13.0983 14.75ZM13.0983 13.0983L1.65169 13.0983L1.65169 1.65169L13.0983 1.65169L13.0983 13.0983ZM7.375 7.56706C7.88715 7.56706 8.32248 7.3878 8.68099 7.0293C9.0395 6.67079 9.21875 6.23546 9.21875 5.72331C9.21875 5.21115 9.0395 4.77582 8.68099 4.41732C8.32248 4.05881 7.88715 3.87956 7.375 3.87956C6.86285 3.87956 6.42752 4.05881 6.06901 4.41732C5.7105 4.77582 5.53125 5.21115 5.53125 5.72331C5.53125 6.23546 5.7105 6.67079 6.06901 7.0293C6.42752 7.3878 6.86285 7.56706 7.375 7.56706ZM11.0625 11.485L11.0625 10.8704C11.0625 10.3071 10.6016 9.84614 9.67969 9.48763C8.91146 9.18034 8.14323 9.02669 7.375 9.02669C6.60677 9.02669 5.83854 9.18034 5.07031 9.48763C4.14844 9.84614 3.6875 10.3071 3.6875 10.8704L3.6875 11.485L11.0625 11.485Z" transform="translate(4 4)" id="󰀇" fill="#9FA9B3" stroke="none" />
        </g>
    </g>
</svg>
