<?xml version="1.0" encoding="utf-8"?>
<svg width="139px" height="117px" viewBox="0 0 139 117" version="1.1" xmlns:xlink="http://www.w3.org/1999/xlink" xmlns="http://www.w3.org/2000/svg">
    <defs>
        <linearGradient x1="-0.00075386354" y1="0.5" x2="1" y2="0.5" id="gradient_1">
            <stop offset="0" stop-color="#96C8FF" />
            <stop offset="0.27" stop-color="#93C6FF" />
            <stop offset="0.46" stop-color="#8ABFFD" />
            <stop offset="0.64" stop-color="#7AB4FB" />
            <stop offset="0.8" stop-color="#63A4F7" />
            <stop offset="0.95" stop-color="#4690F3" />
            <stop offset="1" stop-color="#3B88F1" />
        </linearGradient>
        <linearGradient x1="0.42447028" y1="1.0861533" x2="0.49025974" y2="0.5110664" id="gradient_2">
            <stop offset="0" stop-color="#CAE3FF" />
            <stop offset="0.25" stop-color="#DBECFF" />
            <stop offset="0.72" stop-color="#F5FAFF" />
            <stop offset="1" stop-color="#FFFFFF" />
        </linearGradient>
    </defs>
    <g id="img" transform="translate(1 1)">
        <path d="M0 78.499C0 109.986 26.1695 111.409 64.7707 105.392C77.951 103.379 90.8308 99.7402 103.115 94.5576C106.417 93.1275 109.64 91.5236 112.771 89.7528C130.334 79.7702 139.163 65.8108 135.023 44.1544C129.308 14.2181 87.7565 -7.95132 58.0534 2.7194C12.0935 19.2911 0 58.8486 0 78.499Z" id="Path" fill="#E7F9F6" stroke="none" />
        <g id="Group" transform="translate(18.113848 1.3316199)">
            <path d="M91.7378 9.76109C91.6998 9.51943 91.6292 9.28404 91.5279 9.06137C91.3485 8.62187 91.0393 8.24757 90.6416 7.98846L78.7813 0L78.2915 5.69105L87.2479 11.7903L50.9441 35.0443L71.201 58.24L61.9647 49.4118L84.4024 71.1032L0.156174 57.8901L0.0395541 58.7648C-0.0131847 59.1986 -0.0131847 59.6371 0.0395541 60.0709C0.0980624 60.4748 0.215957 60.8677 0.389414 61.2371C0.536086 61.5562 0.746418 61.8419 1.0075 62.0768C1.23862 62.2939 1.5251 62.4432 1.8355 62.5083L82.1166 77.8321C82.3955 77.8658 82.6774 77.8658 82.9563 77.8321L82.5948 78.6018L84.449 77.3423L84.6823 77.179L84.7523 77.179L84.7523 77.179L84.9039 77.0624C85.2865 76.7369 85.6032 76.341 85.8368 75.8962C86.0828 75.3836 86.233 74.8302 86.28 74.2635L86.3849 73.0974L91.7844 10.6241C91.8071 10.3356 91.7914 10.0454 91.7378 9.76109L91.7378 9.76109Z" transform="translate(3.7478156 34.43786)" id="Path" fill="#0042D4" stroke="none" />
            <path d="M11.4871 47.8258L30.9393 31.499L8.52491 9.4812L15.2539 4.5715L15.8137 0L6.99719 6.50739C6.85908 6.60845 6.73376 6.72593 6.62401 6.85725C6.50582 7.00339 6.40047 7.15946 6.30914 7.32373C6.22133 7.49646 6.14724 7.67583 6.08756 7.86018C6.02695 8.05019 5.98401 8.24538 5.95928 8.44328L0 55.7676L11.557 47.7908L11.4871 47.8258Z" transform="translate(3.9039896 36.641975)" id="Path" fill="url(#gradient_1)" stroke="none" />
            <path d="M16.324 1.80761L7.40259 8.59489C7.25762 8.70083 7.1281 8.82643 7.01774 8.96807C6.89685 9.11637 6.79135 9.27657 6.70287 9.44621C6.61505 9.62697 6.54098 9.81409 6.48129 10.006C6.42119 10.2048 6.37444 10.4074 6.34135 10.6124L0.0438708 60.8756C-0.0146236 61.3246 -0.0146236 61.7794 0.0438708 62.2284C0.106856 62.6312 0.224563 63.0236 0.393731 63.3946C0.548394 63.7222 0.761842 64.0186 1.02348 64.2692C1.25927 64.495 1.55462 64.6487 1.8748 64.7124L83.7886 80.6077C84.2865 80.7307 84.8068 80.7307 85.3047 80.6077C85.7905 80.4658 86.2373 80.2145 86.6108 79.873C87.0103 79.5165 87.3353 79.0845 87.5671 78.6018C87.8166 78.0658 87.9668 77.4889 88.0103 76.8992L88.1152 75.733L0.160491 59.966L11.9508 51.651L11.9508 51.651L32.3709 35.3242L8.88366 11.697L15.7409 6.57736L16.324 1.80761M80.395 0.034986L79.8585 5.86598L89.0365 12.1518L51.2983 36.7236L72.7097 60.3625L63.2402 51.1961L88.1269 75.6863L93.7013 10.7873C93.7306 10.5238 93.7306 10.2579 93.7013 9.99433C93.6576 9.74646 93.5872 9.50404 93.4914 9.27128C93.391 9.04555 93.2616 8.83385 93.1066 8.64153C92.9371 8.45856 92.7451 8.29788 92.5351 8.16339L80.43 0" transform="translate(0 32.96845)" id="Shape" fill="#4E66D0" stroke="none" />
            <path d="M6.85725 0.746367L0 5.86598L22.8575 28.8867L5.57443 11.4754L6.85725 0.746367M70.9982 0L69.832 13.0614L43.126 30.4495L80.1529 6.3208L70.9749 8.28634e-15" transform="translate(8.883659 38.799442)" id="Shape" fill="#031B4E" stroke="none" />
            <g id="Group" transform="translate(14.458091 0)">
                <path d="M1.54567 0.271275C1.48904 0.180909 1.40825 0.108195 1.31243 0.0613587C1.21112 0.0119532 1.09805 -0.00823888 0.985899 0.00304871C0.866323 0.0249593 0.751727 0.0684267 0.647701 0.131331C0.539532 0.208009 0.441562 0.298141 0.356151 0.399556C0.26624 0.513692 0.191741 0.639164 0.134573 0.77274C0.0781117 0.911231 0.0389429 1.05616 0.0179534 1.20423C-0.00598447 1.34315 -0.00598447 1.48515 0.0179534 1.62407C0.0380034 1.74605 0.08589 1.86178 0.157897 1.96226C0.214533 2.05263 0.295326 2.12534 0.391137 2.17218C0.497935 2.20203 0.610875 2.20203 0.717673 2.17218C0.836192 2.15272 0.950549 2.11329 1.05587 2.05556C1.16404 1.97888 1.26201 1.88875 1.34742 1.78733C1.43733 1.6732 1.51183 1.54773 1.569 1.41415C1.62701 1.27214 1.66621 1.12316 1.68562 0.970994C1.70956 0.832074 1.70956 0.690082 1.68562 0.551162C1.6607 0.448498 1.61285 0.35281 1.54567 0.271275Z" transform="translate(17.218468 9.116628)" id="Path" fill="none" fill-rule="evenodd" stroke="none" />
                <path d="M6.89224 2.54231C6.78395 2.16647 6.59266 1.81975 6.33246 1.52772C6.13785 1.3114 5.90448 1.13341 5.6444 1.00293L5.6444 1.00293L3.7435 0L3.8951 0.839663L0 1.29448L4.58316 6.74063L6.64733 7.84852L7.00886 3.87178C7.05565 3.42525 7.01606 2.97388 6.89224 2.54231L6.89224 2.54231Z" transform="translate(63.709454 0.3731837)" id="Path" fill="#031B4E" stroke="none" />
                <path d="M4.82806 3.07877L1.86592 27.7089L1.28282 32.4786L0 43.2077L17.2831 60.619L19.0207 62.3567L20.3852 61.4004C20.929 61.0244 21.5023 60.6929 22.0995 60.4091C22.6504 60.1347 23.2239 59.9084 23.8138 59.7327C24.3871 59.5716 24.9719 59.4546 25.5631 59.3829C26.153 59.3363 26.7457 59.3363 27.3357 59.3829C28.5482 59.4667 29.7345 59.7751 30.8343 60.2925C32.0151 60.8415 33.0891 61.5957 34.0064 62.5199L35.2659 63.7561L37.5983 62.2051L37.5983 62.2051L64.2109 44.7937L65.3771 31.7323L65.9136 25.9013L68.246 0L4.43156 6.35578L4.82806 3.07877" transform="translate(0 7.0671663)" id="Shape" fill="url(#gradient_2)" fill-rule="evenodd" stroke="none" />
                <path d="M5.46947 10.869C5.25577 10.8963 5.04588 10.7959 4.93302 10.6124C4.86948 10.5129 4.82591 10.402 4.80474 10.2859C4.78075 10.1509 4.78075 10.0127 4.80474 9.87771C4.81876 9.72828 4.8582 9.58235 4.92136 9.44621C5.02235 9.19452 5.19207 8.9763 5.41116 8.81646C5.51165 8.75727 5.62245 8.7177 5.7377 8.69984C5.83646 8.6693 5.94215 8.6693 6.04091 8.69984C6.13672 8.74668 6.21752 8.8194 6.27415 8.90976C6.34154 9.0085 6.38907 9.1194 6.41409 9.2363C6.43167 9.37179 6.43167 9.50898 6.41409 9.64447C6.39462 9.79285 6.3554 9.93797 6.29747 10.076C6.2416 10.2078 6.1712 10.3329 6.08756 10.4491C6.00206 10.5471 5.90403 10.6334 5.79601 10.7057C5.69632 10.7666 5.58517 10.8063 5.46947 10.8223M8.44328 10.5075C8.34049 10.5376 8.2312 10.5376 8.12841 10.5075C8.03502 10.4571 7.95505 10.3851 7.89517 10.2975C7.83162 10.198 7.78805 10.0871 7.76689 9.971C7.74295 9.83208 7.74295 9.69009 7.76689 9.55117C7.78788 9.40309 7.82704 9.25817 7.88351 9.11968C7.93894 8.98523 8.01357 8.85952 8.10508 8.74649C8.18053 8.64333 8.27565 8.55613 8.38497 8.48993C8.47959 8.42523 8.58695 8.38149 8.69985 8.36165C8.80822 8.35068 8.91746 8.37091 9.01472 8.41996C9.11007 8.46199 9.19112 8.53088 9.24796 8.61821C9.31053 8.72368 9.35766 8.83757 9.3879 8.95641C9.40597 9.09577 9.40597 9.23688 9.3879 9.37624C9.36691 9.52432 9.32774 9.66924 9.27128 9.80773C9.21574 9.93855 9.14107 10.0604 9.0497 10.1693C8.97043 10.2764 8.87148 10.3674 8.75815 10.4375C8.66105 10.5036 8.54864 10.5437 8.43162 10.5541M11.4637 10.2392C11.3516 10.2493 11.2389 10.2292 11.1372 10.1809C11.0414 10.1341 10.9606 10.0614 10.904 9.971C10.83 9.87601 10.7818 9.76354 10.764 9.64447C10.7403 9.50553 10.7403 9.36357 10.764 9.22463C10.784 8.92838 10.8984 8.64634 11.0906 8.41996C11.1708 8.30943 11.2743 8.21787 11.3938 8.15173C11.4945 8.08231 11.6105 8.03829 11.732 8.02345C11.8348 7.99332 11.944 7.99332 12.0468 8.02345C12.1437 8.07339 12.2276 8.14528 12.2917 8.23337C12.3543 8.33883 12.4014 8.45272 12.4317 8.57156C12.4554 8.7105 12.4554 8.85246 12.4317 8.99139C12.4162 9.1443 12.3769 9.29384 12.3151 9.43455C12.257 9.56766 12.1825 9.69302 12.0935 9.80773C12.0139 9.91143 11.9149 9.99859 11.8019 10.0643C11.7012 10.1337 11.5852 10.1777 11.4637 10.1926M61.482 0L2.84553 6.99719C2.54132 7.03532 2.25 7.14306 1.9942 7.31207C1.70982 7.50418 1.45787 7.74038 1.24783 8.01179C1.0207 8.30502 0.832541 8.62646 0.688057 8.96807C0.538905 9.34193 0.440838 9.7342 0.396508 10.1343L0 13.4113L63.8611 7.09049L64.2342 3.12541C64.2757 2.68198 64.2322 2.23471 64.106 1.80761C63.9997 1.43339 63.8126 1.08704 63.5578 0.793015C63.3064 0.516773 62.9953 0.301415 62.6482 0.163268C62.2747 0.0305897 61.8754 -0.0133297 61.482 0.034986" transform="translate(4.419894 0)" id="Shape" fill="#4E66D0" stroke="none" />
                <path d="M0.950955 0C0.83571 0.017856 0.724903 0.0574301 0.62442 0.11662C0.405331 0.276455 0.235603 0.494676 0.134616 0.746367C0.0714561 0.882509 0.0320156 1.02844 0.0179963 1.17786C-0.00599876 1.31286 -0.00599876 1.45103 0.0179963 1.58603C0.0391631 1.70217 0.082734 1.81308 0.146278 1.91257C0.259133 2.09608 0.46903 2.19647 0.68273 2.16913C0.798423 2.15307 0.909573 2.11337 1.00927 2.05251C1.11729 1.98016 1.21531 1.89389 1.30082 1.79595C1.38445 1.67975 1.45486 1.55458 1.51073 1.42276C1.56866 1.28477 1.60788 1.13965 1.62735 0.991269C1.64493 0.855781 1.64493 0.718588 1.62735 0.5831C1.60233 0.466206 1.5548 0.355299 1.48741 0.256564C1.43077 0.166198 1.34998 0.0934844 1.25417 0.046648C1.1554 0.0161044 1.04972 0.0161044 0.950955 0.046648" transform="translate(9.194976 8.699845)" id="Path" fill="#FFFFFF" stroke="none" />
                <path d="M0.974237 0.0150848C0.85323 0.0316259 0.737576 0.0754947 0.636039 0.143367C0.52672 0.209572 0.431594 0.29677 0.356151 0.399931C0.264642 0.512961 0.190007 0.638664 0.134573 0.773114C0.0781117 0.911605 0.0389429 1.05653 0.0179534 1.20461C-0.00598447 1.34353 -0.00598447 1.48552 0.0179534 1.62444C0.0391202 1.74058 0.0826911 1.85149 0.146235 1.95098C0.206116 2.03856 0.286091 2.11054 0.379475 2.16089C0.482271 2.19102 0.591553 2.19102 0.694349 2.16089C0.811365 2.15053 0.923779 2.11038 1.02088 2.04427C1.13421 1.97418 1.23316 1.88315 1.31243 1.77605C1.4038 1.66718 1.47847 1.54534 1.53401 1.41452C1.59047 1.27603 1.62964 1.13111 1.65063 0.98303C1.6687 0.843669 1.6687 0.702559 1.65063 0.563198C1.62039 0.444356 1.57326 0.330465 1.51069 0.225001C1.45385 0.137666 1.3728 0.068776 1.27745 0.0267468C1.17928 -0.00439428 1.07451 -0.00842367 0.974237 0.0150848" transform="translate(12.145503 8.346562)" id="Path" fill="#FFFFFF" stroke="none" />
                <path d="M0.985728 0C0.864296 0.0148437 0.74826 0.0588573 0.647531 0.128282C0.528047 0.194421 0.42454 0.285984 0.344319 0.396508C0.152194 0.622895 0.0377431 0.904934 0.0177832 1.20118C-0.00592773 1.34012 -0.00592773 1.48208 0.0177832 1.62102C0.0355629 1.74009 0.0837644 1.85256 0.157727 1.94755C0.214362 2.03792 0.295155 2.11063 0.390967 2.15747C0.492646 2.20574 0.605402 2.22587 0.717503 2.21578C0.855057 2.20877 0.988103 2.16443 1.10235 2.0875C1.21532 2.02179 1.31436 1.93463 1.3939 1.83093C1.48296 1.71622 1.55739 1.59086 1.61548 1.45775C1.67729 1.31704 1.71664 1.1675 1.7321 1.01459C1.75581 0.875654 1.75581 0.733701 1.7321 0.594762C1.70185 0.47592 1.65472 0.362028 1.59215 0.256564C1.52798 0.168474 1.44412 0.0965926 1.34725 0.046648C1.24445 0.0165205 1.13517 0.0165205 1.03238 0.046648" transform="translate(15.166128 8.02345)" id="Path" fill="#FFFFFF" stroke="none" />
            </g>
            <path d="M39.2576 0L36.9951 0.909635L7.99178 18.5542C5.89604 17.1737 3.43393 16.4546 0.924609 16.4901C-1.78097 16.4901 2.31239 21.6447 2.31239 21.6447L7.87516 20.7467L36.9019 1.83093L39.2342 0.314874" transform="translate(41.7555 50.041603)" id="Path" fill="#0042D4" stroke="none" />
            <path d="M25.4348 1.20118L0.29155 18.8808L0 19.0674L24.2336 0" transform="translate(8.090644 68.269295)" id="Path" fill="#68FBFF" stroke="none" />
            <path d="M1.66766 0L0 1.09623L13.6095 14.4725L31.7206 32.0821L1.71431 0.0583099" transform="translate(49.630653 69.692055)" id="Path" fill="#68FBFF" stroke="none" />
            <path d="M39.7091 18.0528C39.4294 18.0257 39.1475 18.074 38.8927 18.1927C38.5973 18.3301 38.3318 18.5243 38.1114 18.7641C37.8556 19.0435 37.6468 19.3625 37.4933 19.7088C37.3137 20.1159 37.1995 20.5488 37.1551 20.9916C37.1138 21.2778 37.1138 21.5684 37.1551 21.8546C37.1846 22.0959 37.2598 22.3294 37.3767 22.5426C37.4824 22.7327 37.63 22.8962 37.8082 23.0208C37.9978 23.145 38.2131 23.2247 38.4379 23.254C38.7265 23.2823 39.0172 23.2299 39.2776 23.1024C39.5758 22.9492 39.8412 22.7392 40.0589 22.4843C40.3139 22.2067 40.5191 21.8871 40.6654 21.5397C40.8343 21.1704 40.9445 20.7769 40.9919 20.3735C41.0275 20.083 41.0275 19.7893 40.9919 19.4988C40.9458 19.2472 40.8633 19.0037 40.747 18.7758C40.6378 18.5782 40.4865 18.407 40.3038 18.2743C40.1337 18.144 39.9329 18.0596 39.7207 18.0294M41.6683 0.046648C41.0783 0.000137104 40.4856 0.000137104 39.8957 0.046648C39.3045 0.118433 38.7197 0.235395 38.1464 0.396508C37.5565 0.572168 36.9829 0.798475 36.4321 1.0729C35.8509 1.35892 35.2933 1.69037 34.7644 2.06417L33.4583 2.98547L11.7903 18.2044L0 26.5194L87.9664 42.2397L63.0797 17.7495L49.4702 4.37325L48.2107 3.13708C47.2934 2.21284 46.2194 1.45867 45.0386 0.909635C43.9388 0.392268 42.7525 0.0838185 41.54 0" transform="translate(0.16049069 66.41504)" id="Shape" fill="#4E66D0" stroke="none" />
        </g>
        <path d="M19.0674 19.5805L0 0.396508L0.023324 0L20.2919 18.7175L19.0674 19.5805L19.0674 19.5805Z" transform="translate(32.52529 51.17497)" id="Path" fill="#0042D4" stroke="none" />
        <g id="Group-51" transform="translate(49.980114 20.699007)">
            <path d="M11.0789 31.4874C17.1976 31.4874 22.1578 24.4387 22.1578 15.7437C22.1578 7.04869 17.1976 7.10085e-16 11.0789 0C4.96019 -6.55463e-16 -6.15002e-16 7.04869 0 15.7437C7.68752e-16 24.4387 4.96019 31.4874 11.0789 31.4874Z" transform="matrix(0.98162717 0.190809 -0.190809 0.98162717 6.0080748 3.5762787E-07)" id="Oval" fill="#00BFA6" fill-rule="evenodd" stroke="none" />
            <path d="M2.43081 0L0 16.036" transform="translate(12.191347 10.102463)" id="Path-15" fill="none" fill-rule="evenodd" stroke="#FFFFFF" stroke-width="2" stroke-linecap="round" />
            <path d="M1.55031 0L0 16.9355" transform="matrix(4.371139E-08 -1 -1 -4.371139E-08 22.324228 18.16967)" id="Path-15-Copy" fill="none" fill-rule="evenodd" stroke="#FFFFFF" stroke-width="2" stroke-linecap="round" />
        </g>
    </g>
</svg>
