<?xml version="1.0" encoding="utf-8"?>
<svg width="22px" height="22px" viewbox="0 0 22 22" version="1.1" xmlns:xlink="http://www.w3.org/1999/xlink" xmlns="http://www.w3.org/2000/svg">
    <defs>
        <path d="M0 0L22 0L22 22L0 22L0 0Z" id="path_1" />
        <clipPath id="mask_1">
            <use xlink:href="#path_1" />
        </clipPath>
    </defs>
    <g id="󰟵">
        <path d="M0 0L22 0L22 22L0 22L0 0Z" id="Mask" fill="none" fill-rule="evenodd" stroke="none" />
        <g clip-path="url(#mask_1)">
            <path d="M10.7053 17.1445C10.9736 17.1445 11.2553 17.0573 11.5504 16.8829C11.8456 16.7085 11.9931 16.514 11.9931 16.2994C11.9931 16.514 12.1474 16.7085 12.4559 16.8829C12.7645 17.0573 13.0395 17.1445 13.281 17.1445L13.281 17.1445L15.4542 17.1445L15.4542 15.4542L13.7237 15.4542C13.4822 15.4542 13.281 15.367 13.12 15.1926C12.959 15.0182 12.8785 14.8103 12.8785 14.5688L12.8785 14.5688L12.8785 12.8785L17.1445 12.8785L17.1445 4.26601L12.8785 4.26601L12.8785 2.5757C12.8785 2.33423 12.959 2.1263 13.12 1.9519C13.281 1.7775 13.4822 1.69031 13.7237 1.69031L13.7237 1.69031L15.4542 1.69031L15.4542 0L13.281 0C13.0395 0 12.7645 0.0871983 12.4559 0.261595C12.1474 0.435992 11.9931 0.630511 11.9931 0.845153C11.9931 0.630511 11.8456 0.435992 11.5504 0.261595C11.2553 0.0871983 10.9736 0 10.7053 0L10.7053 0L8.57227 0L8.57227 1.69031L10.3028 1.69031C10.5443 1.69031 10.7455 1.7775 10.9065 1.9519C11.0675 2.1263 11.148 2.33423 11.148 2.5757L11.148 2.5757L11.148 14.5688C11.148 14.8103 11.0675 15.0182 10.9065 15.1926C10.7455 15.367 10.5443 15.4542 10.3028 15.4542L10.3028 15.4542L8.57227 15.4542L8.57227 17.1445L10.7053 17.1445ZM9.41742 12.8785L9.41742 11.148L1.69031 11.148L1.69031 5.99656L9.41742 5.99656L9.41742 4.26601L0 4.26601L0 12.8785L9.41742 12.8785ZM15.4542 11.148L12.8785 11.148L12.8785 5.99656L15.4542 5.99656L15.4542 11.148ZM8.55214 9.86012C8.88752 9.86012 9.17595 9.7528 9.41742 9.53815L9.41742 7.60638C9.17595 7.3649 8.87411 7.25758 8.5119 7.28441C8.14969 7.31124 7.84785 7.4521 7.60638 7.70699C7.3649 7.96188 7.25758 8.27042 7.28441 8.63263C7.31124 8.99484 7.44539 9.28997 7.68687 9.51803C7.92834 9.74609 8.21676 9.86012 8.55214 9.86012ZM4.28613 9.86012C4.64834 9.86012 4.95018 9.73267 5.19165 9.47779C5.43313 9.2229 5.55386 8.92106 5.55386 8.57227C5.55386 8.22347 5.43313 7.92163 5.19165 7.66674C4.95018 7.41186 4.64834 7.28441 4.28613 7.28441C3.92392 7.28441 3.61538 7.41186 3.36049 7.66674C3.1056 7.92163 2.97816 8.22347 2.97816 8.57227C2.97816 8.92106 3.1056 9.2229 3.36049 9.47779C3.61538 9.73267 3.92392 9.86012 4.28613 9.86012Z" transform="translate(2.5 2.5)" id="󰟵" fill="#9FA9B3" stroke="none" />
        </g>
    </g>
</svg>
