<svg width="20" height="20" viewBox="0 0 20 20" fill="none" xmlns="http://www.w3.org/2000/svg">
<path d="M17.43 10.98C17.47 10.66 17.5 10.34 17.5 10C17.5 9.66 17.47 9.34 17.43 9.02L19.54 7.37C19.73 7.22 19.78 6.95 19.66 6.73L17.66 3.27C17.57 3.11 17.4 3.02 17.22 3.02C17.16 3.02 17.1 3.03 17.05 3.05L14.56 4.05C14.04 3.65 13.48 3.32 12.87 3.07L12.49 0.42C12.46 0.18 12.25 0 12 0H8.00002C7.75002 0 7.54002 0.18 7.51002 0.42L7.13002 3.07C6.52002 3.32 5.96002 3.66 5.44002 4.05L2.95002 3.05C2.89002 3.03 2.83002 3.02 2.77002 3.02C2.60002 3.02 2.43002 3.11 2.34002 3.27L0.340022 6.73C0.210022 6.95 0.270023 7.22 0.460023 7.37L2.57002 9.02C2.53002 9.34 2.50002 9.67 2.50002 10C2.50002 10.33 2.53002 10.66 2.57002 10.98L0.460023 12.63C0.270023 12.78 0.220022 13.05 0.340022 13.27L2.34002 16.73C2.43002 16.89 2.60002 16.98 2.78002 16.98C2.84002 16.98 2.90002 16.97 2.95002 16.95L5.44002 15.95C5.96002 16.35 6.52002 16.68 7.13002 16.93L7.51002 19.58C7.54002 19.82 7.75002 20 8.00002 20H12C12.25 20 12.46 19.82 12.49 19.58L12.87 16.93C13.48 16.68 14.04 16.34 14.56 15.95L17.05 16.95C17.11 16.97 17.17 16.98 17.23 16.98C17.4 16.98 17.57 16.89 17.66 16.73L19.66 13.27C19.78 13.05 19.73 12.78 19.54 12.63L17.43 10.98ZM15.45 9.27C15.49 9.58 15.5 9.79 15.5 10C15.5 10.21 15.48 10.43 15.45 10.73L15.31 11.86L16.2 12.56L17.28 13.4L16.58 14.61L15.31 14.1L14.27 13.68L13.37 14.36C12.94 14.68 12.53 14.92 12.12 15.09L11.06 15.52L10.9 16.65L10.7 18H9.30002L9.11002 16.65L8.95002 15.52L7.89002 15.09C7.46002 14.91 7.06002 14.68 6.66002 14.38L5.75002 13.68L4.69002 14.11L3.42002 14.62L2.72002 13.41L3.80002 12.57L4.69002 11.87L4.55002 10.74C4.52002 10.43 4.50002 10.2 4.50002 10C4.50002 9.8 4.52002 9.57 4.55002 9.27L4.69002 8.14L3.80002 7.44L2.72002 6.6L3.42002 5.39L4.69002 5.9L5.73002 6.32L6.63002 5.64C7.06002 5.32 7.47002 5.08 7.88002 4.91L8.94002 4.48L9.10002 3.35L9.30002 2H10.69L10.88 3.35L11.04 4.48L12.1 4.91C12.53 5.09 12.93 5.32 13.33 5.62L14.24 6.32L15.3 5.89L16.57 5.38L17.27 6.59L16.2 7.44L15.31 8.14L15.45 9.27ZM10 6C7.79002 6 6.00002 7.79 6.00002 10C6.00002 12.21 7.79002 14 10 14C12.21 14 14 12.21 14 10C14 7.79 12.21 6 10 6ZM10 12C8.90002 12 8.00002 11.1 8.00002 10C8.00002 8.9 8.90002 8 10 8C11.1 8 12 8.9 12 10C12 11.1 11.1 12 10 12Z" fill="#5E5E5E"/>
</svg>
