<?xml version="1.0" encoding="utf-8"?>
<svg width="14px" height="14px" viewBox="0 0 14 14" version="1.1" xmlns:xlink="http://www.w3.org/1999/xlink" xmlns="http://www.w3.org/2000/svg">
    <path d="M8.05947 13.7005C8.14523 13.7005 8.22028 13.6737 8.2846 13.6201C8.34892 13.5665 8.38108 13.4968 8.38108 13.411L8.38108 13.411L8.63837 11.61C9.02429 11.4599 9.41022 11.2348 9.79615 10.9346L9.79615 10.9346L11.5007 11.61C11.5864 11.6529 11.6722 11.6583 11.758 11.6261C11.8437 11.5939 11.8973 11.5457 11.9188 11.4814L11.9188 11.4814L13.3017 9.10148C13.3445 9.01572 13.3606 8.93532 13.3499 8.86027C13.3392 8.78523 13.3017 8.71555 13.2373 8.65123L13.2373 8.65123L11.7901 7.52561L11.8223 6.85023L11.7901 6.17486L13.2373 5.04923C13.3017 4.98491 13.3392 4.91523 13.3499 4.84019C13.3606 4.76514 13.3445 4.68474 13.3017 4.59898L13.3017 4.59898L11.9188 2.21909C11.8973 2.15477 11.8437 2.10653 11.758 2.07437C11.6722 2.0422 11.5864 2.04756 11.5007 2.09045L11.5007 2.09045L9.79615 2.76582C9.41022 2.46565 9.02429 2.24053 8.63837 2.09045L8.63837 2.09045L8.38108 0.289446C8.38108 0.203684 8.34892 0.134003 8.2846 0.0804018C8.22028 0.0268006 8.14523 0 8.05947 0L8.05947 0L5.29365 0C5.20789 0 5.13285 0.0268006 5.06853 0.0804018C5.00421 0.134003 4.97204 0.203684 4.97204 0.289446L4.97204 0.289446L4.71476 2.09045C4.32883 2.24053 3.9429 2.46565 3.55697 2.76582L3.55697 2.76582L1.85246 2.09045C1.76669 2.04756 1.68093 2.0422 1.59517 2.07437C1.50941 2.10653 1.45581 2.15477 1.43437 2.21909L1.43437 2.21909L0.0514571 4.59898C0.00857619 4.68474 -0.00750416 4.76514 0.00321607 4.84019C0.0139363 4.91523 0.0514571 4.98491 0.115779 5.04923L0.115779 5.04923L1.56301 6.17486L1.53085 6.85023L1.56301 7.52561L0.115779 8.65123C0.0514571 8.71555 0.0139363 8.78523 0.00321607 8.86027C-0.00750416 8.93532 0.00857619 9.01572 0.0514571 9.10148L0.0514571 9.10148L1.43437 11.4814C1.45581 11.5457 1.50941 11.5939 1.59517 11.6261C1.68093 11.6583 1.76669 11.6529 1.85246 11.61L1.85246 11.61L3.55697 10.9346C3.9429 11.2348 4.32883 11.4599 4.71476 11.61L4.71476 11.61L4.97204 13.411C4.97204 13.4968 5.00421 13.5665 5.06853 13.6201C5.13285 13.6737 5.20789 13.7005 5.29365 13.7005L5.29365 13.7005L8.05947 13.7005ZM7.19113 12.3497L6.16199 12.3497L5.90471 10.5487C5.08997 10.3772 4.40387 9.96982 3.84642 9.3266L3.84642 9.3266L2.17406 10.0341L1.65949 9.1658L3.10672 8.07234C2.828 7.2576 2.828 6.44286 3.10672 5.62812L3.10672 5.62812L1.65949 4.56682L2.17406 3.66632L3.81426 4.37386C4.37171 3.73064 5.06853 3.32327 5.90471 3.15175L5.90471 3.15175L6.16199 1.35075L7.19113 1.35075L7.44842 3.15175C8.2846 3.32327 8.98141 3.73064 9.53887 4.37386L9.53887 4.37386L11.1791 3.66632L11.6936 4.56682L10.2464 5.62812C10.5251 6.44286 10.5251 7.26832 10.2464 8.1045L10.2464 8.1045L11.6936 9.1658L11.1791 10.0341L9.5067 9.3266C8.94925 9.96982 8.26316 10.3772 7.44842 10.5487L7.44842 10.5487L7.19113 12.3497ZM6.67656 9.58389C7.42698 9.58389 8.07019 9.31588 8.6062 8.77987C9.14222 8.24386 9.41022 7.60065 9.41022 6.85023C9.41022 6.09981 9.14222 5.4566 8.6062 4.92059C8.07019 4.38458 7.42698 4.11657 6.67656 4.11657C5.92615 4.11657 5.28293 4.38458 4.74692 4.92059C4.21091 5.4566 3.9429 6.09981 3.9429 6.85023C3.9429 7.60065 4.21091 8.24386 4.74692 8.77987C5.28293 9.31588 5.92615 9.58389 6.67656 9.58389ZM6.67656 8.23314C6.29063 8.23314 5.96367 8.09914 5.69566 7.83113C5.42766 7.56313 5.29365 7.23616 5.29365 6.85023C5.29365 6.4643 5.42766 6.13733 5.69566 5.86933C5.96367 5.60132 6.29063 5.46732 6.67656 5.46732C7.06249 5.46732 7.38946 5.60132 7.65746 5.86933C7.92547 6.13733 8.05947 6.4643 8.05947 6.85023C8.05947 7.23616 7.92547 7.56313 7.65746 7.83113C7.38946 8.09914 7.06249 8.23314 6.67656 8.23314Z" id="settings" fill="#9FA9B3" stroke="none" />
</svg>
