<?xml version="1.0" encoding="utf-8"?>
<svg width="24px" height="24px" viewbox="0 0 24 24" version="1.1" xmlns:xlink="http://www.w3.org/1999/xlink" xmlns="http://www.w3.org/2000/svg">
    <defs>
        <path d="M0 0L22 0L22 22L0 22L0 0Z" id="path_1" />
        <clipPath id="mask_1">
            <use xlink:href="#path_1" />
        </clipPath>
    </defs>
    <g id="ó°€" transform="translate(0.75 0.75)">
        <path d="M0 0L22 0L22 22L0 22L0 0Z" id="Mask" fill="none" fill-rule="evenodd" stroke="none" />
        <g clip-path="url(#mask_1)">
            <g id="Group" transform="translate(1 5)">
                <path d="M10 4.62797C10 4.83633 9.85252 5 9.66477 5L0.335235 5C0.150839 5 0 4.83633 0 4.62797C0 2.13238 1.80729 0 4.17366 0L5.82634 0C8.13932 0 10 2.08045 10 4.62797Z" transform="translate(5 7)" id="Path" fill="none" stroke="#9FA9B3" stroke-width="1.5" />
                <path d="M5.25 2.21698C5.25 3.47748 4.07879 5 2.62658 5C1.1712 5 0 3.47748 0 2.21698C0 0.995791 1.17753 0 2.62658 0C4.07247 -4.65503e-16 5.25 0.995791 5.25 2.21698Z" transform="translate(7.375 0)" id="Path" fill="none" stroke="#9FA9B3" stroke-width="1.5" />
                <path d="M3.5 1.56389C3.5 2.44168 2.71803 3.5 1.75 3.5C0.781966 3.5 0 2.44168 0 1.56389C0 0.700004 0.785126 0 1.75 0C2.71488 0 3.5 0.700004 3.5 1.56389Z" transform="translate(2 2.5)" id="Path" fill="none" stroke="#9FA9B3" stroke-width="1.3" />
                <path d="M3.5 1.56389C3.5 2.44168 2.72117 3.5 1.74996 3.5C0.781986 3.5 0 2.44168 0 1.56389C0 0.700004 0.785067 0 1.74996 0C2.71485 0 3.5 0.700004 3.5 1.56389Z" transform="translate(14.5 2.5)" id="Path" fill="none" stroke="#9FA9B3" stroke-width="1.3" />
                <path d="M2.70821 0L3.64459 0C2.83169 1.10238 2.67243 1.80272 2.58979 3L0.366303 3C0.164818 3 0 2.85183 0 2.67069C0 1.19869 1.06718 0 2.70821 0Z" transform="translate(2.6956215E-13 8)" id="Path" fill="none" stroke="#9FA9B3" stroke-width="1.3" />
                <path d="M2.70821 0L3.64459 0C2.83169 1.10238 2.67243 1.80272 2.58979 3L0.366303 3C0.164818 3 0 2.85183 0 2.67069C0 1.19869 1.06718 0 2.70821 0Z" transform="matrix(-1 0 0 1 19.944588 8)" id="Path-Copy" fill="none" stroke="#9FA9B3" stroke-width="1.3" />
            </g>
        </g>
    </g>
</svg>
