<svg width="25" height="25" viewBox="0 0 25 25" fill="none" xmlns="http://www.w3.org/2000/svg">
<g clip-path="url(#clip0_405_21303)">
<path fill-rule="evenodd" clip-rule="evenodd" d="M5.88497 20.4332C3.42211 18.4575 1.84375 15.4233 1.84375 12.024C1.84375 6.07756 6.67167 1.24902 12.6187 1.24902C12.9238 1.24902 13.1714 1.00144 13.1714 0.69629C13.1714 0.39114 12.9238 0.143555 12.6187 0.143555C6.06137 0.143555 0.738281 5.46726 0.738281 12.024C0.738281 15.7724 2.47757 19.1173 5.19297 21.2954C5.43065 21.4867 5.77912 21.4483 5.96977 21.21C6.16103 20.9723 6.12265 20.6238 5.88497 20.4332ZM12.5486 19.9663C8.16451 19.9663 4.60547 16.4072 4.60547 12.0237C4.60547 9.08614 6.20425 6.51868 8.57736 5.14458C8.84166 4.99169 8.93203 4.65312 8.77914 4.38944C8.62626 4.12514 8.28769 4.03477 8.02339 4.18766C5.32037 5.75302 3.5 8.67762 3.5 12.0237C3.5 17.0175 7.55421 21.0724 12.5486 21.0724C12.8538 21.0724 13.1014 20.8242 13.1014 20.5196C13.1014 20.2139 12.8538 19.9663 12.5486 19.9663ZM20.9959 12.0242C20.9959 7.64072 17.4369 4.08167 13.0534 4.08167C12.7476 4.08167 12.5 3.83347 12.5 3.52894C12.5 3.22317 12.7476 2.97559 13.0534 2.97559C18.0472 2.97559 22.1014 7.03042 22.1014 12.0242C22.1014 15.3703 20.2816 18.2949 17.578 19.8603C17.3137 20.0132 16.9751 19.9228 16.8222 19.6585C16.6693 19.3948 16.7597 19.0563 17.024 18.9034C19.3971 17.5293 20.9959 14.9618 20.9959 12.0242ZM19.3517 3.61475C21.814 5.59049 23.3923 8.62403 23.3923 12.024C23.3923 17.9704 18.5644 22.7983 12.618 22.7983C12.3123 22.7983 12.0647 23.0465 12.0647 23.3517C12.0647 23.6568 12.3123 23.9044 12.618 23.9044C19.1747 23.9044 24.4978 18.5807 24.4978 12.024C24.4978 8.27555 22.7585 4.93067 20.0431 2.75254C19.8054 2.5619 19.457 2.59965 19.2663 2.83795C19.0751 3.07564 19.1134 3.42411 19.3517 3.61475ZM5.71396 12.0132C5.71396 8.22207 8.81582 5.12021 12.607 5.12021C16.3981 5.12021 19.5 8.22207 19.5 12.0132C19.5 15.8044 16.3981 18.9062 12.607 18.9062C8.81582 18.9062 5.71396 15.8044 5.71396 12.0132ZM13.2963 11.8064C13.5031 11.7375 13.6409 11.5307 13.7788 11.3239C14.1924 10.6346 13.9856 9.80747 13.2963 9.46282C12.607 9.04923 11.8488 9.32495 11.4352 9.94533C11.0216 10.5657 11.2284 11.3929 11.9177 11.8064V14.0811C11.9177 14.4947 12.1934 14.7704 12.607 14.7704C13.0206 14.7704 13.2963 14.4947 13.2963 14.0811V11.8064Z" fill="#62AD56"/>
</g>
<defs>
<clipPath id="clip0_405_21303">
<rect width="24" height="24" fill="white" transform="translate(0.5 0.14502)"/>
</clipPath>
</defs>
</svg>
