<?xml version="1.0" encoding="utf-8"?>
<svg width="15px" height="15px" viewBox="0 0 15 15" version="1.1" xmlns:xlink="http://www.w3.org/1999/xlink" xmlns="http://www.w3.org/2000/svg">
    <path d="M12.7873 0.000492804C12.6818 0.000492804 12.5764 0.04041 12.4975 0.119751L11.2182 1.3971C11.1374 1.47743 11.098 1.58387 11.098 1.68786C11.098 1.79332 11.1389 1.89828 11.2172 1.97762C11.2177 1.97812 11.2177 1.97812 11.2182 1.97861L11.3537 2.11413L7.67198 5.79587L5.57263 3.69554C5.64754 3.4447 5.7047 3.18697 5.7047 2.91592C5.7047 2.13335 5.39374 1.37591 4.84821 0.832839C4.4382 0.42529 3.92864 0.163118 3.39 0.0611077C2.85137 -0.0409028 2.28267 0.0152769 1.75488 0.244924C1.62773 0.300118 1.541 0.414448 1.51636 0.547998C1.49221 0.679084 1.53361 0.81707 1.6297 0.912674L3.12537 2.40094C3.12537 2.40094 3.12537 2.40144 3.12537 2.40144C3.12537 2.40144 3.12537 2.40193 3.12537 2.40193L3.12537 2.40193C3.15543 2.43199 3.14015 2.47388 3.15543 2.4586L2.48571 3.09974C2.48423 3.10073 2.48324 3.10171 2.48226 3.1022L2.48275 3.10171C2.46254 3.12142 2.45466 3.12537 2.42115 3.09185L2.42115 3.09284L0.929429 1.61048C0.834811 1.51636 0.700275 1.47299 0.568696 1.49714C0.439582 1.5203 0.326729 1.60704 0.27055 1.72629C0.0921544 2.10477 0 2.5064 0 2.91494C0 3.63788 0.292233 4.32534 0.816084 4.84673C1.5686 5.59481 2.71387 5.85599 3.71624 5.55686L5.17642 7.01606L0.350384 11.8519C0.185787 12.016 0.0941256 12.2383 0.0941256 12.4699C0.0941256 12.7025 0.187758 12.9248 0.353834 13.0909C0.354819 13.0918 0.355805 13.0928 0.35679 13.0938L0.35679 13.0938L0.993001 13.7019L0.99103 13.699C1.32762 14.0336 1.87315 14.0346 2.20973 13.699L7.0338 8.87491L8.49299 10.3351C8.41808 10.5864 8.36191 10.8447 8.36191 11.1157C8.36191 11.8983 8.67188 12.6547 9.21741 13.1978C10.0369 14.0124 11.2552 14.2435 12.3107 13.7847C12.4344 13.731 12.5251 13.6196 12.5503 13.4836C12.5503 13.4841 12.5503 13.4836 12.5507 13.4826L12.5512 13.4816C12.5739 13.3515 12.5335 13.215 12.4369 13.118C12.4369 13.118 12.4364 13.118 12.4364 13.118C12.4364 13.118 12.4359 13.118 12.4359 13.118L12.4359 13.118L10.9412 11.6307C10.9284 11.6179 10.927 11.5873 10.9452 11.5691C10.9457 11.5686 10.9457 11.5686 10.9462 11.5681L10.9462 11.5681L11.5834 10.9299C11.61 10.9033 11.6188 10.9043 11.645 10.9299L13.1357 12.4206C13.2308 12.5158 13.3658 12.5567 13.4964 12.534C13.628 12.5113 13.7404 12.4241 13.7966 12.3038C14.2918 11.2532 14.073 10.0034 13.249 9.18341C12.4965 8.43533 11.3527 8.17316 10.3499 8.47229L8.25349 6.3759L11.9342 2.69416L12.0698 2.82968C12.2289 2.98886 12.4926 2.98787 12.6513 2.82968L13.9296 1.55036C14.0878 1.39217 14.0873 1.12901 13.9286 0.970825L13.0766 0.118273C12.9977 0.0394244 12.8923 0 12.7868 0L12.7873 0.000492804ZM2.87157 0.833332C3.04208 0.833332 3.21161 0.856001 3.37571 0.899861C3.7049 0.98758 4.0134 1.16055 4.26966 1.41484C4.65799 1.8012 4.88271 2.34969 4.88271 2.91642C4.88271 3.18302 4.83392 3.4309 4.73733 3.65858C4.6708 3.81283 4.70579 3.99122 4.82308 4.109C4.82308 4.109 4.82308 4.1095 4.82308 4.1095C4.82308 4.1095 4.82308 4.10999 4.82308 4.10999L4.82308 4.10999L9.93789 9.2248C10.0562 9.34308 10.2355 9.3761 10.3873 9.31252C11.1191 9.00452 12.0998 9.1977 12.6715 9.7659C13.0982 10.1897 13.2786 10.7712 13.2155 11.3404L12.224 10.3489C11.8879 10.0133 11.3424 10.0138 11.0053 10.3489C11.0053 10.3489 11.0048 10.3489 11.0048 10.3489C11.0048 10.3489 11.0043 10.3489 11.0043 10.3489L11.0043 10.3489L10.3661 10.9871C10.0296 11.3217 10.0281 11.8786 10.3622 12.2112L11.3345 13.1796C10.7752 13.22 10.2153 13.0332 9.79547 12.6163C9.40714 12.2299 9.18242 11.6824 9.18242 11.1157C9.18242 10.8491 9.23121 10.6007 9.3278 10.3735L9.3278 10.3725C9.39384 10.2183 9.35786 10.0394 9.24107 9.92212C9.24107 9.92212 9.24107 9.92163 9.24107 9.92163C9.24107 9.92163 9.24107 9.92114 9.24107 9.92114L9.24107 9.92114L4.12625 4.80731C4.00847 4.68953 3.82909 4.65602 3.6778 4.71959C2.94598 5.0271 1.96629 4.83441 1.39464 4.26621C0.967375 3.84092 0.785037 3.25793 0.850088 2.68776L1.8426 3.67435C2.17918 4.00847 2.72028 4.01833 3.05342 3.68963L3.0544 3.68864L3.72609 3.04652C3.72708 3.04553 3.72807 3.04455 3.72905 3.04356L3.72905 3.04356C4.06416 2.71092 4.03952 2.15257 3.70195 1.81943L2.72964 0.852059C2.77695 0.848609 2.82377 0.832839 2.87108 0.832839L2.87157 0.833332ZM12.7873 0.989058L13.0598 1.26158L12.361 1.96038L12.0885 1.68786L12.7873 0.989058ZM5.75497 7.59658L6.45278 8.29439L1.63069 13.1175C1.59964 13.1485 1.60211 13.15 1.56613 13.1145C1.56564 13.114 1.56465 13.113 1.56416 13.1125L1.56416 13.1125L0.929922 12.5054C0.929922 12.5054 0.929429 12.5054 0.929429 12.5054C0.929429 12.5054 0.928936 12.5054 0.928936 12.5054L0.928936 12.5054C0.914645 12.4911 0.913659 12.4492 0.929922 12.4335C0.929922 12.4335 0.930415 12.4335 0.930415 12.4335C0.930415 12.4335 0.930907 12.4335 0.930907 12.4335L0.930907 12.4335L5.75497 7.59658Z" transform="translate(0.1499939 0.14990234)" id="Shape" fill="#9FA9B3" stroke="#9FA9B3" stroke-width="0.3" stroke-linejoin="bevel" />
</svg>
