<?xml version="1.0" encoding="utf-8"?>
<svg width="22px" height="22px" viewbox="0 0 22 22" version="1.1" xmlns:xlink="http://www.w3.org/1999/xlink" xmlns="http://www.w3.org/2000/svg">
    <defs>
        <path d="M0 0L22 0L22 22L0 22L0 0Z" id="path_1" />
        <clipPath id="mask_1">
            <use xlink:href="#path_1" />
        </clipPath>
    </defs>
    <g id="󰀏">
        <path d="M0 0L22 0L22 22L0 22L0 0Z" id="Mask" fill="none" fill-rule="evenodd" stroke="none" />
        <g clip-path="url(#mask_1)">
            <path d="M10.0433 13.8728C10.4528 13.8728 10.808 13.7223 11.1091 13.4212C11.4101 13.1202 11.5607 12.7529 11.5607 12.3193L11.5607 2.31213L12.3555 2.31213L12.3555 0.758669L8.48987 0.758669L8.48987 0L3.8656 0L3.8656 0.758669L0 0.758669L0 2.31213L0.794796 2.31213L0.794796 12.3193C0.794796 12.7529 0.945326 13.1202 1.24638 13.4212C1.54744 13.7223 1.90269 13.8728 2.31213 13.8728L10.0433 13.8728ZM10.0433 12.3193L2.31213 12.3193L2.31213 2.31213L10.0433 2.31213L10.0433 12.3193ZM5.41907 10.802L5.41907 3.8656L3.8656 3.8656L3.8656 10.802L5.41907 10.802ZM8.48987 10.802L8.48987 3.8656L6.9364 3.8656L6.9364 10.802L8.48987 10.802Z" transform="translate(5 4)" id="󰩺" fill="#9FA9B3" stroke="none" />
        </g>
    </g>
</svg>
