<?xml version="1.0" encoding="utf-8"?>
<svg width="15px" height="14px" viewBox="0 0 15 14" version="1.1" xmlns:xlink="http://www.w3.org/1999/xlink" xmlns="http://www.w3.org/2000/svg">
    <path d="M11.1225 13.0294C11.2201 13.0307 11.3131 12.9886 11.3752 12.915C11.4373 12.8414 11.4618 12.7443 11.4418 12.651L10.5227 8.28799L13.8943 5.28411C13.9881 5.20114 14.0233 5.07224 13.9844 4.9547C13.9455 4.83715 13.8397 4.75277 13.7139 4.73904L9.17703 4.24157L7.29255 0.183256C7.2401 0.0715887 7.12582 0 7 0C6.87418 0 6.7599 0.0715887 6.70745 0.183256L4.82297 4.24157L0.286082 4.73904C0.160343 4.75277 0.0545083 4.83715 0.0156041 4.9547C-0.0233001 5.07225 0.0119454 5.20114 0.105679 5.28411L3.47727 8.28799L2.55819 12.651C2.53239 12.7717 2.58126 12.8959 2.68315 12.9687C2.78503 13.0415 2.92111 13.0494 3.03113 12.989L7 10.7872L10.9689 12.989C11.0158 13.0148 11.0686 13.0287 11.1225 13.0294L11.1225 13.0294ZM10.669 12.0987L7.15846 10.1517C7.06014 10.0974 6.93986 10.0974 6.84154 10.1517L3.33099 12.0987L4.14281 8.238C4.16575 8.12972 4.12872 8.01764 4.04529 7.94286L1.06133 5.2865L5.07651 4.84615C5.18837 4.83372 5.28544 4.76512 5.33249 4.66526L7 1.07585L8.66751 4.66526C8.71456 4.76512 8.81163 4.83372 8.92349 4.84615L12.9387 5.2865L9.95471 7.94286C9.87128 8.01764 9.83425 8.12972 9.85719 8.238L10.669 12.0987L10.669 12.0987Z" transform="translate(0.375 0.375)" id="Shape" fill="#9FA9B3" stroke="#9FA9B3" stroke-width="0.75" />
</svg>
