<?xml version="1.0" encoding="utf-8"?>
<svg width="155px" height="115px" viewBox="0 0 155 115" version="1.1" xmlns:xlink="http://www.w3.org/1999/xlink" xmlns="http://www.w3.org/2000/svg">
    <defs>
        <path d="M0 115L155 115L155 0L0 0L0 115Z" id="path_1" />
        <clipPath id="mask_1">
            <use xlink:href="#path_1" />
        </clipPath>
    </defs>
    <g id="Group-23">
        <path d="M5.999 0L149.001 0Q149.148 0 149.295 0.00722606Q149.442 0.0144521 149.589 0.0288868Q149.736 0.0433215 149.881 0.0649301Q150.027 0.0865387 150.171 0.115269Q150.316 0.143999 150.459 0.179782Q150.601 0.215565 150.742 0.258315Q150.883 0.301064 151.022 0.350677Q151.161 0.40029 151.297 0.456647Q151.433 0.513003 151.566 0.575968Q151.699 0.638933 151.829 0.708354Q151.959 0.777776 152.085 0.853486Q152.211 0.929196 152.334 1.01101Q152.456 1.09283 152.575 1.18056Q152.693 1.26828 152.807 1.36171Q152.921 1.45514 153.03 1.55403Q153.139 1.65293 153.243 1.75707Q153.347 1.8612 153.446 1.97032Q153.545 2.07944 153.638 2.19327Q153.732 2.30711 153.819 2.4254Q153.907 2.54369 153.989 2.66613Q154.071 2.78858 154.146 2.9149Q154.222 3.04121 154.292 3.17109Q154.361 3.30097 154.424 3.4341Q154.487 3.56722 154.543 3.70328Q154.6 3.83934 154.649 3.978Q154.699 4.11666 154.742 4.25758Q154.784 4.39851 154.82 4.54136Q154.856 4.68422 154.885 4.82865Q154.913 4.97309 154.935 5.11876Q154.957 5.26444 154.971 5.411Q154.986 5.55755 154.993 5.70464Q155 5.85173 155 5.999L155 109.001Q155 109.148 154.993 109.295Q154.986 109.442 154.971 109.589Q154.957 109.736 154.935 109.881Q154.913 110.027 154.885 110.171Q154.856 110.316 154.82 110.459Q154.784 110.601 154.742 110.742Q154.699 110.883 154.649 111.022Q154.6 111.161 154.543 111.297Q154.487 111.433 154.424 111.566Q154.361 111.699 154.292 111.829Q154.222 111.959 154.147 112.085Q154.071 112.211 153.989 112.334Q153.907 112.456 153.819 112.575Q153.732 112.693 153.638 112.807Q153.545 112.921 153.446 113.03Q153.347 113.139 153.243 113.243Q153.139 113.347 153.03 113.446Q152.921 113.545 152.807 113.638Q152.693 113.732 152.575 113.819Q152.456 113.907 152.334 113.989Q152.211 114.071 152.085 114.146Q151.959 114.222 151.829 114.292Q151.699 114.361 151.566 114.424Q151.433 114.487 151.297 114.543Q151.161 114.6 151.022 114.649Q150.883 114.699 150.742 114.742Q150.601 114.784 150.459 114.82Q150.316 114.856 150.171 114.885Q150.027 114.913 149.881 114.935Q149.736 114.957 149.589 114.971Q149.442 114.986 149.295 114.993Q149.148 115 149.001 115L5.999 115Q5.85173 115 5.70464 114.993Q5.55755 114.986 5.411 114.971Q5.26444 114.957 5.11876 114.935Q4.97309 114.913 4.82865 114.885Q4.68422 114.856 4.54136 114.82Q4.39851 114.784 4.25758 114.742Q4.11666 114.699 3.978 114.649Q3.83934 114.6 3.70328 114.543Q3.56722 114.487 3.4341 114.424Q3.30097 114.361 3.17109 114.292Q3.04121 114.222 2.9149 114.146Q2.78858 114.071 2.66613 113.989Q2.54369 113.907 2.4254 113.819Q2.30711 113.732 2.19327 113.638Q2.07944 113.545 1.97032 113.446Q1.8612 113.347 1.75707 113.243Q1.65293 113.139 1.55403 113.03Q1.45514 112.921 1.36171 112.807Q1.26829 112.693 1.18056 112.575Q1.09283 112.456 1.01101 112.334Q0.929196 112.211 0.853486 112.085Q0.777776 111.959 0.708354 111.829Q0.638933 111.699 0.575968 111.566Q0.513003 111.433 0.456647 111.297Q0.40029 111.161 0.350677 111.022Q0.301064 110.883 0.258315 110.742Q0.215565 110.601 0.179782 110.459Q0.143999 110.316 0.115269 110.171Q0.0865387 110.027 0.0649301 109.881Q0.0433215 109.736 0.0288868 109.589Q0.0144521 109.442 0.00722606 109.295Q0 109.148 0 109.001L0 5.999Q0 5.85173 0.00722606 5.70464Q0.0144521 5.55755 0.0288868 5.411Q0.0433215 5.26444 0.0649301 5.11876Q0.0865387 4.97309 0.115269 4.82865Q0.143999 4.68422 0.179782 4.54136Q0.215565 4.39851 0.258315 4.25758Q0.301064 4.11666 0.350677 3.978Q0.40029 3.83934 0.456647 3.70328Q0.513003 3.56722 0.575968 3.4341Q0.638933 3.30097 0.708354 3.17109Q0.777776 3.04121 0.853486 2.9149Q0.929196 2.78858 1.01101 2.66613Q1.09283 2.54369 1.18056 2.4254Q1.26828 2.30711 1.36171 2.19327Q1.45514 2.07944 1.55403 1.97032Q1.65293 1.8612 1.75707 1.75707Q1.8612 1.65293 1.97032 1.55403Q2.07944 1.45514 2.19327 1.36171Q2.30711 1.26829 2.4254 1.18056Q2.54369 1.09283 2.66613 1.01101Q2.78858 0.929196 2.9149 0.853486Q3.04121 0.777776 3.17109 0.708354Q3.30097 0.638933 3.4341 0.575968Q3.56722 0.513003 3.70328 0.456647Q3.83934 0.40029 3.978 0.350677Q4.11666 0.301064 4.25758 0.258315Q4.39851 0.215565 4.54136 0.179782Q4.68422 0.143999 4.82865 0.115269Q4.97309 0.0865387 5.11876 0.0649301Q5.26444 0.0433215 5.411 0.0288868Q5.55755 0.0144521 5.70464 0.00722606Q5.85173 0 5.999 0Z" id="Rectangle" fill="none" fill-rule="evenodd" stroke="none" />
        <g id="3129490">
            <path d="M0 0.192601L155 0.192601L155 0.115808L0 0.115808L0 0.192601Z" transform="translate(0 98.21725)" id="Fill-1" fill="#ECECEC" fill-rule="evenodd" stroke="none" />
            <g id="Group-62">
                <path d="M0 115L155 115L155 0L0 0L0 115Z" fill-opacity="0" />
                <g clip-path="url(#mask_1)">
                    <path d="M0 0.192756L8.05907 0.192756L8.05907 0.115653L0 0.115653L0 0.192756Z" transform="translate(54.07547 101.15438)" id="Fill-6" fill="#ECECEC" fill-rule="evenodd" stroke="none" />
                    <path d="M0 0.192756L16.7716 0.192756L16.7716 0.115653L0 0.115653L0 0.192756Z" transform="translate(16.26229 100.31736)" id="Fill-8" fill="#ECECEC" fill-rule="evenodd" stroke="none" />
                    <path d="M0 0.192756L8.15827 0.192756L8.15827 0.115653L0 0.115653L0 0.192756Z" transform="translate(45.6072 104.018265)" id="Fill-9" fill="#ECECEC" fill-rule="evenodd" stroke="none" />
                    <path d="M0 0.192756L12.0379 0.192756L12.0379 0.115653L0 0.115653L0 0.192756Z" transform="translate(80.05037 103.50014)" id="Fill-10" fill="#ECECEC" fill-rule="evenodd" stroke="none" />
                    <path d="M0 0.192756L3.31514 0.192756L3.31514 0.115653L0 0.115653L0 0.192756Z" transform="translate(94.84822 103.50014)" id="Fill-11" fill="#ECECEC" fill-rule="evenodd" stroke="none" />
                    <path d="M0 0.192756L16.9124 0.192756L16.9124 0.115653L0 0.115653L0 0.192756Z" transform="translate(122.55726 102.19804)" id="Fill-12" fill="#ECECEC" fill-rule="evenodd" stroke="none" />
                    <path d="M0 48.2913L45.999 48.2913L45.999 0L0 0L0 48.2913Z" transform="translate(23.84613 8.540365)" id="Fill-13" fill="#E7E7E7" fill-rule="evenodd" stroke="none" />
                    <path d="M54.3628 0L0.45663 0C0.2046 0 0 0.20355 0 0.454287C0 0.705332 0.2046 0.908573 0.45663 0.908573L54.3628 0.908573C54.6149 0.908573 54.8195 0.705332 54.8195 0.454287C54.8195 0.20355 54.6149 0 54.3628 0" transform="translate(20.411795 6.977379)" id="Fill-14" fill="#E7E7E7" fill-rule="evenodd" stroke="none" />
                    <path d="M0 48.2913L47.0388 48.2913L47.0388 0L0 0L0 48.2913Z" transform="translate(24.75815 8.540365)" id="Fill-15" fill="#F0F0F0" fill-rule="evenodd" stroke="none" />
                    <path d="M0 1.80419L45.999 1.80419L45.999 0L0 0L0 1.80419Z" transform="translate(23.84613 56.831676)" id="Fill-16" fill="#E7E7E7" fill-rule="evenodd" stroke="none" />
                    <path d="M0 1.80419L47.0388 1.80419L47.0388 0L0 0L0 1.80419Z" transform="translate(28.00974 56.831676)" id="Fill-17" fill="#F0F0F0" fill-rule="evenodd" stroke="none" />
                    <path d="M0 42.8541L41.5738 42.8541L41.5738 0L0 0L0 42.8541Z" transform="translate(27.4908 11.258683)" id="Fill-18" fill="#FAFAFA" fill-rule="evenodd" stroke="none" />
                    <path d="M0 42.8541L16.0382 0L23.6093 0L7.57082 42.8541L0 42.8541Z" transform="translate(36.928284 11.258929)" id="Fill-19" fill="#FFFFFF" fill-rule="evenodd" stroke="none" />
                    <path d="M0 42.8541L16.0382 0L18.9897 0L2.95151 42.8541L0 42.8541Z" transform="translate(46.125675 11.258929)" id="Fill-20" fill="#FFFFFF" fill-rule="evenodd" stroke="none" />
                    <path d="M0 42.8541L0.3472 42.8541L0.3472 0L0 0L0 42.8541Z" transform="translate(68.71739 11.258683)" id="Fill-21" fill="#E7E7E7" fill-rule="evenodd" stroke="none" />
                    <g id="Group-27" transform="translate(20.586355 6.1643815)">
                        <path d="M5.77592 43.6192L0 43.6192L3.11302 0L8.88894 0L5.77592 43.6192Z" id="Fill-22" fill="#F0F0F0" fill-rule="evenodd" stroke="none" />
                        <path d="M4.49996 43.6192L0 43.6192L3.11302 0L7.61298 0L4.49996 43.6192Z" transform="translate(3.526033 0)" id="Fill-23" fill="#E7E7E7" fill-rule="evenodd" stroke="none" />
                        <path d="M5.77592 43.6192L0 43.6192L3.11302 0L8.88894 0L5.77592 43.6192Z" transform="translate(5.776013 0)" id="Fill-24" fill="#F0F0F0" fill-rule="evenodd" stroke="none" />
                        <path d="M4.49996 43.6192L0 43.6192L3.11302 0L7.61298 0L4.49996 43.6192Z" transform="translate(9.302046 0)" id="Fill-25" fill="#E7E7E7" fill-rule="evenodd" stroke="none" />
                        <path d="M5.77592 43.6192L0 43.6192L3.11302 0L8.88894 0L5.77592 43.6192Z" transform="translate(11.552026 0)" id="Fill-26" fill="#F0F0F0" fill-rule="evenodd" stroke="none" />
                    </g>
                    <g id="Group-33" transform="translate(62.557133 6.16469)">
                        <path d="M1.75925 43.6189L5.02355 43.6189L3.26399 0L0 0L1.75925 43.6189Z" transform="translate(6.528445 0)" id="Fill-28" fill="#F0F0F0" fill-rule="evenodd" stroke="none" />
                        <path d="M1.75925 43.6189L4.30249 43.6189L2.54293 0L0 0L1.75925 43.6189Z" transform="translate(5.256825 0)" id="Fill-29" fill="#E7E7E7" fill-rule="evenodd" stroke="none" />
                        <path d="M1.75925 43.6189L5.02355 43.6189L3.26399 0L0 0L1.75925 43.6189Z" transform="translate(3.264238 0)" id="Fill-30" fill="#F0F0F0" fill-rule="evenodd" stroke="none" />
                        <path d="M1.75925 43.6189L4.30249 43.6189L2.54293 0L0 0L1.75925 43.6189Z" transform="translate(1.992587 0)" id="Fill-31" fill="#E7E7E7" fill-rule="evenodd" stroke="none" />
                        <path d="M1.75925 43.6189L5.02355 43.6189L3.26399 0L0 0L1.75925 43.6189Z" id="Fill-32" fill="#F0F0F0" fill-rule="evenodd" stroke="none" />
                    </g>
                    <path d="M0 42.0735L31.8079 42.0735L31.8079 0L0 0L0 42.0735Z" transform="translate(100.45519 6.1643815)" id="Fill-34" fill="#E7E7E7" fill-rule="evenodd" stroke="none" />
                    <path d="M0 42.0735L33.2317 42.0735L33.2317 0L0 0L0 42.0735Z" transform="translate(101.44781 6.1643815)" id="Fill-35" fill="#F5F5F5" fill-rule="evenodd" stroke="none" />
                    <path d="M30.5331 2.21746L2.95864 0L0 36.4151L27.5745 38.6329L30.5331 2.21746Z" transform="translate(102.79637 7.8856435)" id="Fill-36" fill="#FFFFFF" fill-rule="evenodd" stroke="none" />
                    <path d="M3.63785 0.0545884L2.95895 0L0 36.4151L0.67921 36.47L3.63785 0.0545884Z" transform="translate(129.69167 10.048516)" id="Fill-37" fill="#E7E7E7" fill-rule="evenodd" stroke="none" />
                    <path d="M0 34.379L17.7658 34.379L17.7658 0L0 0L0 34.379Z" transform="translate(118.66645 63.95377)" id="Fill-38" fill="#F5F5F5" fill-rule="evenodd" stroke="none" />
                    <path d="M0 34.379L1.46506 34.379L1.46506 0L0 0L0 34.379Z" transform="translate(134.96718 63.95377)" id="Fill-39" fill="#F0F0F0" fill-rule="evenodd" stroke="none" />
                    <path d="M0 14.5467L40.907 14.5467L40.907 0L0 0L0 14.5467Z" transform="translate(79.12874 64.934814)" id="Fill-40" fill="#E7E7E7" fill-rule="evenodd" stroke="none" />
                    <path d="M0 2.57861L55.3313 2.57861L55.3313 0L0 0L0 2.57861Z" transform="translate(81.10096 63.95377)" id="Fill-41" fill="#F0F0F0" fill-rule="evenodd" stroke="none" />
                    <path d="M0 34.379L17.7655 34.379L17.7655 0L0 0L0 34.379Z" transform="translate(63.33548 63.95377)" id="Fill-42" fill="#F5F5F5" fill-rule="evenodd" stroke="none" />
                    <path d="M8.63009 23.4249L0 23.4249L0 4.25296C0 1.90412 1.91394 0 4.2749 0L4.35488 0C6.71615 0 8.63009 1.90412 8.63009 4.25296L8.63009 23.4249Z" transform="translate(59.70296 74.90797)" id="Fill-43" fill="#E7E7E7" fill-rule="evenodd" stroke="none" />
                    <path d="M0 34.379L1.46506 34.379L1.46506 0L0 0L0 34.379Z" transform="translate(79.6359 63.95377)" id="Fill-44" fill="#F0F0F0" fill-rule="evenodd" stroke="none" />
                    <path d="M3.83284 7.42156L0 7.42156L0.93248 0L4.76532 0L3.83284 7.42156Z" transform="translate(97.2647 56.53221)" id="Fill-45" fill="#F0F0F0" fill-rule="evenodd" stroke="none" />
                    <path d="M3.83284 7.42156L0 7.42156L0.93248 0L4.76532 0L3.83284 7.42156Z" transform="translate(98.11221 56.53221)" id="Fill-46" fill="#F5F5F5" fill-rule="evenodd" stroke="none" />
                    <path d="M3.83284 3.71078L0 3.71078L0.46624 0L4.29908 0L3.83284 3.71078Z" transform="translate(98.57842 56.53215)" id="Fill-47" fill="#F0F0F0" fill-rule="evenodd" stroke="none" />
                    <path d="M2.46532 17.3779L29.5779 17.3779C29.8039 17.3779 29.9791 17.1809 29.9508 16.9576L27.8614 0.32753C27.8382 0.140635 27.6782 0 27.4885 0L0.375918 0C0.149928 0 -0.0252221 0.197073 0.00298795 0.420362L2.09239 17.0504C2.11595 17.2376 2.27591 17.3779 2.46532 17.3779" transform="translate(85.862114 41.97666)" id="Fill-48" fill="#F0F0F0" fill-rule="evenodd" stroke="none" />
                    <path d="M2.46532 17.3779L29.5779 17.3779C29.8039 17.3779 29.9791 17.1809 29.9512 16.9576L27.8614 0.32753C27.8382 0.140635 27.6782 0 27.4885 0L0.375918 0C0.149928 0 -0.0252221 0.197073 0.00298795 0.420362L2.09239 17.0504C2.11595 17.2376 2.27591 17.3779 2.46532 17.3779" transform="translate(86.26493 41.97666)" id="Fill-49" fill="#F5F5F5" fill-rule="evenodd" stroke="none" />
                    <path d="M28.1996 15.6573L26.2442 0.0915975C26.2373 0.0394764 26.1927 0 26.1397 0L0.105278 0C0.0420381 0 -0.00694186 0.0552052 0.00080814 0.117504L1.95691 15.6832C1.96342 15.7356 2.00806 15.7748 2.06107 15.7748L28.0955 15.7748C28.1587 15.7748 28.2074 15.7196 28.1996 15.6573" transform="translate(87.141556 42.778152)" id="Fill-50" fill="#E7E7E7" fill-rule="evenodd" stroke="none" />
                    <path d="M12.9162 15.7748L6.03415 0L0 0L6.88231 15.7748L12.9162 15.7748Z" transform="translate(99.64714 42.77871)" id="Fill-51" fill="#ECECEC" fill-rule="evenodd" stroke="none" />
                    <path d="M9.05634 15.7748L2.17434 0L0 0L6.88169 15.7748L9.05634 15.7748Z" transform="translate(96.31095 42.77871)" id="Fill-52" fill="#ECECEC" fill-rule="evenodd" stroke="none" />
                    <path d="M0.62155 0L5.62092 0C5.9644 0 6.24278 0.276951 6.24278 0.618669L6.24278 0.695463L0 0.695463L0 0.618669C0 0.276951 0.27838 0 0.62155 0" transform="translate(99.190575 63.258213)" id="Fill-53" fill="#F5F5F5" fill-rule="evenodd" stroke="none" />
                    <path d="M0.62155 0L3.61305 0C3.95653 0 4.23491 0.276951 4.23491 0.618669L4.23491 0.695463L0 0.695463L0 0.618669C0 0.276951 0.27838 0 0.62155 0" transform="translate(95.67809 63.258213)" id="Fill-54" fill="#F0F0F0" fill-rule="evenodd" stroke="none" />
                    <path d="M19.8236 1.54143L0.52173 1.54143L0 0L17.3123 0L19.8236 1.54143Z" transform="translate(92.508896 62.412804)" id="Fill-55" fill="#F5F5F5" fill-rule="evenodd" stroke="none" />
                    <path d="M3.62018 1.54143L0.43121 1.54143L0 0L3.18866 0L3.62018 1.54143Z" transform="translate(91.534386 62.412804)" id="Fill-56" fill="#F0F0F0" fill-rule="evenodd" stroke="none" />
                    <path d="M1.2958 0L4.19771 0C4.9135 0 5.49382 0.577342 5.49382 1.28915L0 1.28915C0 0.577342 0.58001 0 1.2958 0" transform="translate(83.51812 62.66456)" id="Fill-57" fill="#F0F0F0" fill-rule="evenodd" stroke="none" />
                    <path d="M0 24.8985L5.38439 24.8985L5.38439 0L0 0L0 24.8985Z" transform="translate(27.66068 73.434265)" id="Fill-58" fill="#E1E1E1" fill-rule="evenodd" stroke="none" />
                    <path d="M24.4612 29.4216L2.69173 29.4216L0 0L21.7694 0L24.4612 29.4216Z" transform="translate(27.105377 68.91126)" id="Fill-59" fill="#E7E7E7" fill-rule="evenodd" stroke="none" />
                    <path d="M24.4612 29.4216L2.69142 29.4216L0 0L21.7694 0L24.4612 29.4216Z" transform="translate(28.233065 68.91126)" id="Fill-60" fill="#F0F0F0" fill-rule="evenodd" stroke="none" />
                    <path d="M2.0956 22.908L0 0L15.2219 0L17.3178 22.908L2.0956 22.908Z" transform="translate(31.804605 72.16791)" id="Fill-61" fill="#FFFFFF" fill-rule="evenodd" stroke="none" />
                </g>
            </g>
            <path d="M120.211 3.49212C120.211 5.42091 93.301 6.98454 60.1056 6.98454C26.9102 6.98454 0 5.42091 0 3.49212C0 1.56363 26.9102 0 60.1056 0C93.301 0 120.211 1.56363 120.211 3.49212" transform="translate(17.394472 105.27713)" id="Fill-68" fill="#F5F5F5" fill-rule="evenodd" stroke="none" />
            <path d="M0.13516 4.11942L0 0.0101775L0.31 0L0.44516 4.10924L0.13516 4.11942Z" transform="translate(30.404366 34.9837)" id="Fill-70" fill="#00BFA6" fill-rule="evenodd" stroke="none" />
            <path d="M0.06417 1.96302L0 0.0101775L0.31 0L0.37417 1.95285L0.06417 1.96302Z" transform="translate(30.28827 31.438969)" id="Fill-71" fill="#00BFA6" fill-rule="evenodd" stroke="none" />
            <g id="Group-103" transform="translate(30.950533 16.15366)">
                <path d="M3.83106 45.0068L62.9983 45.0068C64.3365 45.0068 65.3958 43.9175 65.3521 42.5861L64.0349 2.4207C63.9912 1.0893 62.8603 0 61.5224 0L2.35484 0C1.01657 0 -0.0426961 1.0893 0.00132388 2.4207L1.31851 42.5861C1.36222 43.9175 2.49279 45.0068 3.83106 45.0068" id="Fill-72" fill="#00A893" fill-rule="evenodd" stroke="none" />
                <path d="M3.83105 45.0068L62.9986 45.0068C64.3368 45.0068 65.3958 43.9175 65.3524 42.5861L64.0349 2.4207C63.9912 1.0893 62.8606 0 61.5224 0L2.35483 0C1.01656 0 -0.042404 1.0893 0.00130599 2.4207L1.3185 42.5861C1.36221 43.9175 2.49278 45.0068 3.83105 45.0068" transform="translate(0.1896759 0)" id="Fill-74" fill="#00A893" fill-rule="evenodd" stroke="none" />
                <path d="M3.83105 45.0068L62.9986 45.0068C64.3368 45.0068 65.3958 43.9175 65.3524 42.5861L64.0349 2.4207C63.9912 1.0893 62.8606 0 61.5224 0L2.35483 0C1.01656 0 -0.042404 1.0893 0.00130599 2.4207L1.3185 42.5861C1.36221 43.9175 2.49278 45.0068 3.83105 45.0068" transform="translate(0.1896759 0)" id="Fill-76" fill="#FFFFFF" fill-opacity="0.6" fill-rule="evenodd" stroke="none" />
                <path d="M60.3996 0L1.23238 0C1.16542 0 1.09908 0.00277568 1.03367 0.00801864C-0.483467 0.131999 -0.265227 2.4207 1.26121 2.4207L60.5295 2.4207C62.0559 2.4207 62.1241 0.131999 60.5986 0.00801864C60.5329 0.00277568 60.4666 0 60.3996 0" transform="translate(1.162296 1.2103206)" id="Fill-78" fill="#00BFA6" fill-opacity="0.5" fill-rule="evenodd" stroke="none" />
                <path d="M1.11598 0.554828C1.12591 0.861387 0.884415 1.10966 0.576275 1.10966C0.268135 1.10966 0.010525 0.861387 0.000294998 0.554828C-0.009625 0.248269 0.231865 0 0.540005 0C0.848145 0 1.10575 0.248269 1.11598 0.554828" transform="translate(2.771685 1.8657825)" id="Fill-80" fill="#FAFAFA" fill-rule="evenodd" stroke="none" />
                <path d="M1.11598 0.554828C1.12621 0.861387 0.884415 1.10966 0.576275 1.10966C0.268445 1.10966 0.010525 0.861387 0.000294998 0.554828C-0.009625 0.248269 0.231865 0 0.540005 0C0.848145 0 1.10606 0.248269 1.11598 0.554828" transform="translate(4.6691017 1.8657825)" id="Fill-82" fill="#FAFAFA" fill-rule="evenodd" stroke="none" />
                <path d="M1.11598 0.554828C1.12591 0.861387 0.884415 1.10966 0.576275 1.10966C0.268135 1.10966 0.010525 0.861387 0.000294998 0.554828C-0.009625 0.248269 0.231865 0 0.540005 0C0.847835 0 1.10575 0.248269 1.11598 0.554828" transform="translate(6.566612 1.8657825)" id="Fill-84" fill="#FAFAFA" fill-rule="evenodd" stroke="none" />
                <path d="M1.9947 34.7861L58.605 34.7861C59.0924 34.7861 59.4743 34.3932 59.4585 33.9087L58.375 0.877732C58.3592 0.392913 57.9513 0 57.4642 0L0.853904 0C0.366584 0 -0.0153363 0.392913 0.000473663 0.877732L1.08392 33.9087C1.09973 34.3932 1.50738 34.7861 1.9947 34.7861" transform="translate(3.1730802 6.2118835)" id="Fill-86" fill="#FFFFFF" fill-rule="evenodd" stroke="none" />
                <g id="Group-98" transform="translate(19.092178 10.299506)">
                    <path d="M27.5873 25.5831L27.6205 26.6107L26.5872 26.6107L26.5872 26.3184L27.317 26.3184L27.2934 25.5924L27.5873 25.5831ZM5.18875 26.3183L5.18875 26.6107L3.54265 26.6107L3.54265 26.3183L5.18875 26.3183ZM8.48064 26.3183L8.48064 26.6107L6.83454 26.6107L6.83454 26.3183L8.48064 26.3183ZM11.7728 26.3183L11.7728 26.6107L10.1264 26.6107L10.1264 26.3183L11.7728 26.3183ZM15.0647 26.3183L15.0647 26.6107L13.4186 26.6107L13.4186 26.3183L15.0647 26.3183ZM18.3569 26.3183L18.3569 26.6107L16.7108 26.6107L16.7108 26.3183L18.3569 26.3183ZM21.6491 26.3183L21.6491 26.6107L20.0027 26.6107L20.0027 26.3183L21.6491 26.3183ZM24.941 26.3183L24.941 26.6107L23.2949 26.6107L23.2949 26.3183L24.941 26.3183ZM1.13299 25.5831L1.15717 26.3184L1.89683 26.3184L1.89683 26.6107L0.872588 26.6107L0.839418 25.5924L1.13299 25.5831ZM27.4798 22.3079L27.5331 23.9452L27.2396 23.9548L27.1859 22.3171L27.4798 22.3079ZM1.02601 22.3078L1.07933 23.9455L0.785757 23.9547L0.732127 22.3171L1.02601 22.3078ZM0.918437 19.0325L0.972067 20.6702L0.678187 20.6797L0.624867 19.0421L0.918437 19.0325ZM27.3723 19.0326L27.4259 20.6702L27.132 20.6795L27.0787 19.0421L27.3723 19.0326ZM27.2647 15.7573L27.3186 17.3946L27.0251 17.4045L26.9711 15.7668L27.2647 15.7573ZM0.810867 15.7572L0.864497 17.3949L0.570927 17.4044L0.517297 15.7668L0.810867 15.7572ZM27.1571 12.482L27.2111 14.1196L26.9175 14.1292L26.8635 12.4915L27.1571 12.482ZM0.703297 12.4819L0.757237 14.1196L0.463667 14.1291L0.409727 12.4915L0.703297 12.4819ZM27.0502 9.20666L27.1038 10.8443L26.8099 10.8539L26.7566 9.21622L27.0502 9.20666ZM0.596037 9.2066L0.649977 10.8442L0.356097 10.8538L0.302467 9.21616L0.596037 9.2066ZM26.9426 5.93135L26.9962 7.56901L26.7027 7.57857L26.649 5.94092L26.9426 5.93135ZM0.488777 5.93129L0.542407 7.56895L0.248837 7.57851L0.195207 5.94085L0.488777 5.93129ZM26.835 2.65605L26.8887 4.2937L26.5951 4.30326L26.5415 2.66561L26.835 2.65605ZM0.381207 2.65599L0.434837 4.29364L0.141267 4.3032L0.087637 2.66555L0.381207 2.65599ZM26.748 0L26.7812 1.01837L26.4876 1.02793L26.4635 0.29268L25.7238 0.29268L25.7238 0L26.748 0ZM1.03354 0L1.03354 0.29268L0.3038 0.29268L0.32736 1.01837L0.03379 1.02793L0 0L1.03354 0ZM17.4939 0.000215887L17.4939 0.292588L15.8475 0.292588L15.8475 0.000215887L17.4939 0.000215887ZM20.7858 0.000215887L20.7858 0.292588L19.1397 0.292588L19.1397 0.000215887L20.7858 0.000215887ZM24.078 0.000215887L24.078 0.292588L22.4319 0.292588L22.4319 0.000215887L24.078 0.000215887ZM10.9098 0.000215887L10.9098 0.292588L9.2637 0.292588L9.2637 0.000215887L10.9098 0.000215887ZM7.61791 0.000215887L7.61791 0.292588L5.9715 0.292588L5.9715 0.000215887L7.61791 0.000215887ZM4.32571 0.000215887L4.32571 0.292588L2.67961 0.292588L2.67961 0.000215887L4.32571 0.000215887ZM14.2017 0.000215887L14.2017 0.292588L12.5556 0.292588L12.5556 0.000215887L14.2017 0.000215887Z" id="Shape" fill="#00BFA6" fill-rule="evenodd" stroke="none" />
                    <path d="M6.95605 0L7.13 5.24295L12.4 5.24295L12.4614 7.09341L7.19139 7.09341L7.36535 12.3364L5.50535 12.3364L5.33139 7.09341L0.0613945 7.09341L0 5.24295L5.27 5.24295L5.09605 0L6.95605 0Z" transform="translate(7.691943 6.990925)" id="Path" fill="#00A893" fill-rule="evenodd" stroke="none" />
                </g>
            </g>
            <g id="Group-182" transform="translate(79.90365 12.386474)">
                <path d="M5.95572 0C6.24247 0.408642 6.47125 0.754369 6.70778 1.13741C6.944 1.51151 7.16627 1.89055 7.38234 2.27452C7.81665 3.0403 8.22027 3.82366 8.59041 4.63138C8.95869 5.43879 9.30713 6.26256 9.5945 7.12394C9.89582 7.97515 10.141 8.86954 10.3242 9.79199L10.4442 10.4955L10.4588 10.5834L10.4755 10.6956C10.4876 10.8036 10.5016 10.8961 10.5062 11.0164C10.5102 11.1351 10.5155 11.2434 10.5065 11.3797L10.4923 11.5746L10.4594 11.7896C10.4389 11.9259 10.3897 12.0921 10.3419 12.2392C10.2802 12.3996 10.2173 12.5535 10.1237 12.7083C9.94976 13.017 9.69556 13.2918 9.4395 13.4867C8.90816 13.8895 8.42921 14.0049 8.04171 14.0783C7.64925 14.1439 7.32964 14.1421 7.03049 14.1288C6.73382 14.1125 6.4635 14.0804 6.20744 14.032C5.69749 13.937 5.23466 13.8109 4.79043 13.6702C3.90476 13.3816 3.08853 13.0368 2.29772 12.6534C1.50443 12.2673 0.75485 11.8599 0 11.3772L0.89125 9.40925C2.45799 9.7923 4.0765 10.2123 5.56698 10.415C5.9365 10.468 6.29641 10.5001 6.61757 10.5035C6.92726 10.5097 7.23323 10.4763 7.28376 10.4298C7.30236 10.4153 7.23261 10.3934 7.02646 10.5294C6.93346 10.5951 6.82031 10.7101 6.74436 10.8347C6.70778 10.9016 6.67523 10.9547 6.65477 11.0198C6.6309 11.0657 6.61974 11.1336 6.60796 11.166L6.58967 11.265C6.58874 11.2973 6.58223 11.3017 6.58223 11.3165C6.58347 11.3325 6.5751 11.3229 6.5751 11.3276C6.57665 11.3374 6.5689 11.3072 6.56301 11.2865L6.54534 11.2215L6.40553 10.7033C5.99075 9.31365 5.37943 7.89589 4.66457 6.51175C4.31489 5.81598 3.9308 5.12915 3.53989 4.44664C3.34521 4.10493 3.14123 3.76753 2.94004 3.43136C2.74102 3.10414 2.52309 2.74546 2.34205 2.46357L5.95572 0Z" transform="translate(27.893677 16.370478)" id="Fill-104" fill="#FFC4BE" fill-rule="evenodd" stroke="none" />
                <path d="M2.6815 1.33325L1.33765 0L0 2.96504C0 2.96504 1.2648 3.66328 2.39289 3.1541L2.6815 1.33325Z" transform="translate(26.468266 24.60056)" id="Fill-106" fill="#FFC4BE" fill-rule="evenodd" stroke="none" />
                <path d="M0.99014 0L0 2.50243L1.64083 4.02721L2.97848 1.06185L0.99014 0Z" transform="translate(24.827559 23.538523)" id="Fill-108" fill="#FFC4BE" fill-rule="evenodd" stroke="none" />
                <path d="M25.8103 30.2016L0 25.6781L4.54677 0L30.3571 4.52374L25.8103 30.2016Z" transform="translate(0 12.839749)" id="Fill-110" fill="#00A893" fill-rule="evenodd" stroke="none" />
                <path d="M25.8103 30.2016L0 25.6781L4.54677 0L30.3571 4.52374L25.8103 30.2016Z" transform="translate(0 12.839749)" id="Fill-112" fill="#FFFFFF" fill-opacity="0.5" fill-rule="evenodd" stroke="none" />
                <path d="M23.2987 27.2621L0 23.1788L4.1044 0L27.4031 4.08334L23.2987 27.2621Z" transform="translate(1.477026 14.309596)" id="Fill-114" fill="#FFFFFF" fill-rule="evenodd" stroke="none" />
                <path d="M0.488379 0.366425C0.492719 0.571517 0.386699 0.740217 0.252159 0.742992C0.117309 0.745768 0.00446899 0.581694 0.000128991 0.376602C-0.00421101 0.17151 0.101499 0.00281039 0.236659 3.47046e-05C0.371199 -0.00274098 0.484039 0.161333 0.488379 0.366425" transform="translate(20.294083 6.662866)" id="Fill-120" fill="#1A2E35" fill-rule="evenodd" stroke="none" />
                <path d="M0.9486 0C0.9486 0 0.50437 1.19354 0 1.7752C0.372 2.10643 0.98921 1.93897 0.98921 1.93897L0.9486 0Z" transform="translate(19.751371 7.402682)" id="Fill-122" fill="#FF857F" fill-rule="evenodd" stroke="none" />
                <path d="M1.1208 0.445479C1.09042 0.450722 1.05818 0.444862 1.03059 0.426049C0.590701 0.124116 0.183361 0.279555 0.166311 0.286956C0.104931 0.311629 0.0339412 0.281713 0.00883117 0.22034C-0.0159688 0.158658 0.0131712 0.0889578 0.0748612 0.0636682C0.0965612 0.0547244 0.616431 -0.150676 1.16823 0.227433C1.22341 0.265368 1.23705 0.340311 1.19923 0.395208C1.18001 0.422656 1.15149 0.439927 1.1208 0.445479" transform="translate(20.387495 5.4298377)" id="Fill-124" fill="#1A2E35" fill-rule="evenodd" stroke="none" />
                <path d="M4.78195 0C4.65113 1.8924 4.80086 5.71544 6.25538 6.78531C6.25538 6.78531 5.89888 8.3289 2.44951 8.76005C-1.34365 9.23408 0.400102 7.11315 0.400102 7.11315C2.40828 6.36279 2.16183 4.84141 1.61995 3.45141L4.78195 0Z" transform="translate(21.975729 7.812064)" id="Fill-126" fill="#FFC4BE" fill-rule="evenodd" stroke="none" />
                <path d="M1.12117 0.23244C0.833803 0.192326 0.357643 0.186906 0.183733 0.445474C0.143433 0.505644 0.122973 0.576114 0.121423 0.661761C0.118013 0.86016 0.165753 0.899731 0.181563 0.912741C0.345553 1.05097 0.810553 0.637368 1.12117 0.23244M0.153663 1.12198C0.145293 1.11656 0.137233 1.1106 0.129483 1.10409C0.0677934 1.0526 -0.00443658 0.93334 0.00021342 0.655256C0.00300342 0.508897 0.0380334 0.383678 0.105303 0.283937C0.397323 -0.150264 1.24703 0.0405459 1.28299 0.048677C1.30686 0.0551819 1.32639 0.0833697 1.33321 0.123483C1.34003 0.163596 1.33259 0.206962 1.31461 0.234066C1.1159 0.532206 0.459013 1.30629 0.153663 1.12198" transform="translate(36.00486 89.06268)" id="Fill-128" fill="#007CFF" fill-rule="evenodd" stroke="none" />
                <path d="M0.388674 0.190996C0.374724 0.184189 0.360774 0.179083 0.346824 0.174829C0.281724 0.155683 0.225924 0.169298 0.175084 0.216098C0.109674 0.277363 0.119904 0.325439 0.123934 0.346286C0.172604 0.572202 0.655584 0.885336 0.980774 0.965321C0.863284 0.7343 0.617764 0.299486 0.388674 0.190996M0.673874 1.02106C0.375964 0.879805 0.060694 0.640275 0.00799403 0.393086C-0.00688597 0.323737 -0.013706 0.190996 0.107194 0.0782506C0.185624 0.00549804 0.274904 -0.0166255 0.372244 0.0123053C0.746104 0.120796 1.13794 0.986594 1.15468 1.02361C1.16615 1.04956 1.16646 1.0819 1.1553 1.10827C1.14445 1.13465 1.12368 1.15082 1.10136 1.14997C0.995034 1.14656 0.836934 1.09849 0.673874 1.02106" transform="translate(36.177006 88.37672)" id="Fill-130" fill="#007CFF" fill-rule="evenodd" stroke="none" />
                <path d="M0.384785 0.224008C0.342005 0.224008 0.302635 0.232105 0.267915 0.250035C0.211805 0.278376 0.172745 0.329852 0.149185 0.408512C0.106095 0.548481 0.121595 0.617887 0.137405 0.658374C0.256135 0.966074 0.903105 0.973015 1.37833 0.848084C1.14119 0.621357 0.683625 0.224008 0.384785 0.224008M0.790265 1.15C0.461975 1.15 0.145155 1.06498 0.038825 0.790245C0.00162498 0.693655 -0.027825 0.529973 0.043785 0.296306C0.083775 0.165012 0.148565 0.0765197 0.235985 0.0319841C0.661925 -0.184331 1.55535 0.765953 1.59317 0.80644C1.61518 0.830154 1.62696 0.876424 1.62293 0.922695C1.61858 0.969544 1.59967 1.00598 1.57487 1.01524C1.41182 1.07655 1.09592 1.15 0.790265 1.15" transform="translate(16.542982 93.302414)" id="Fill-132" fill="#007CFF" fill-rule="evenodd" stroke="none" />
                <path d="M0.332582 0.120271C0.318417 0.120271 0.303506 0.120888 0.288969 0.122122C0.157755 0.133224 0.149554 0.175785 0.146945 0.189972C0.113023 0.362681 0.61253 0.794762 0.991633 0.9832C0.95212 0.783042 0.842527 0.372858 0.585691 0.198607C0.508155 0.145869 0.425028 0.120271 0.332582 0.120271M1.08296 1.15159C1.0729 1.15159 1.06246 1.15005 1.05314 1.14635C0.681864 1.00849 -0.053231 0.458288 0.00305672 0.170542C0.0161036 0.103 0.0738823 0.019113 0.274058 0.00215047C0.422419 -0.00926067 0.558852 0.0246643 0.678137 0.105776C1.06954 0.371316 1.1523 1.05691 1.15565 1.08559C1.15789 1.10718 1.1467 1.12815 1.12546 1.14049C1.11278 1.14789 1.09787 1.15159 1.08296 1.15159" transform="translate(17.205341 92.693344)" id="Fill-134" fill="#007CFF" fill-rule="evenodd" stroke="none" />
                <path d="M2.81232 5.89216L0.25482 5.89216L0 0L2.5575 0L2.81232 5.89216Z" transform="translate(18.105923 87.89265)" id="Fill-136" fill="#FFC4BE" fill-rule="evenodd" stroke="none" />
                <path d="M5.40764 5.52484L3.03645 6.17342L0 0.648276L2.3715 0L5.40764 5.52484Z" transform="translate(34.63388 82.88689)" id="Fill-138" fill="#FFC4BE" fill-rule="evenodd" stroke="none" />
                <path d="M3.27579 1.32622L5.8336 0.0244246C5.92691 -0.0230704 6.04037 0.000368717 6.10702 0.0802467L7.59223 1.86501C7.7463 2.05006 7.68306 2.33163 7.46606 2.43742C6.5652 2.87659 6.10454 3.04529 4.97955 3.61801C4.28763 3.97021 2.22923 5.49313 1.19042 5.76238C0.17455 6.02576 -0.2517 5.04471 0.14944 4.84208C1.94744 3.93258 2.67439 2.44174 2.97788 1.65375C3.03244 1.51157 3.1397 1.39561 3.27579 1.32622" transform="translate(34.039158 87.47524)" id="Fill-140" fill="#1A2E35" fill-rule="evenodd" stroke="none" />
                <path d="M6.1771 0L8.96989 0C9.07467 0 9.16519 0.0721677 9.18782 0.173634L9.69312 2.43551C9.7452 2.6699 9.56633 2.89195 9.32515 2.88794C8.31765 2.87098 6.86158 2.81238 5.59523 2.81238C4.11467 2.81238 2.83592 2.89257 1.09961 2.89257C0.0493264 2.89257 -0.242074 1.83658 0.197506 1.74097C2.19825 1.3055 3.83195 1.25893 5.56082 0.198307C5.74868 0.082962 5.95638 0 6.1771 0" transform="translate(12.200603 93.490234)" id="Fill-142" fill="#1A2E35" fill-rule="evenodd" stroke="none" />
                <path d="M0.307289 4.47262C0.573889 5.15636 0.867459 5.82284 1.16351 6.44767C1.67315 7.52865 2.18124 8.47299 2.55045 9.12559C2.87967 9.7128 3.09481 10.0607 3.09481 10.0607L8.68163 7.30443C8.68163 7.30443 6.43072 0.86701 4.08092 0.150884C1.67284 -0.576961 -0.898921 1.40364 0.307289 4.47262" transform="translate(29.059383 14.8353615)" id="Fill-144" fill="#031B4E" fill-rule="evenodd" stroke="none" />
                <path d="M1.08066 0C0.59396 0.356212 0.24676 1.31382 0 2.4389C0.31837 3.05849 0.61194 3.59636 0.84816 4.0161C1.17738 4.60393 1.39221 4.95274 1.39221 4.95274L2.03267 4.63601C1.98989 3.14762 1.74995 1.47049 1.08066 0" transform="translate(30.76161 19.944138)" id="Fill-146" fill="#000000" fill-rule="evenodd" stroke="none" />
                <path d="M6.9082e-06 9.08607C6.9082e-06 9.95208 0.0207769 10.9045 0.0697569 11.954C0.194997 14.8077 0.508407 18.3649 1.10702 22.7844L14.7855 22.7844C14.8797 20.6958 13.56 10.5029 15.5862 0.659408C15.5862 0.659408 13.2398 0.19186 11.0047 0.0845335C9.25692 0.00126306 6.72608 -0.0542506 5.19096 0.0845335C3.16449 0.271429 1.25675 0.791099 1.25675 0.791099C1.25675 0.791099 -0.00340309 2.20762 6.9082e-06 9.08607" transform="translate(17.55396 14.32693)" id="Fill-148" fill="#031B4E" fill-rule="evenodd" stroke="none" />
                <path d="M16.6895 1.86896C16.4467 2.37537 16.2387 2.73374 16.0093 3.10445C15.784 3.46837 15.5567 3.8178 15.319 4.15674C14.849 4.83801 14.3549 5.48999 13.8378 6.12716C12.8011 7.39873 11.6824 8.61047 10.3862 9.72938C9.74051 10.2916 9.03898 10.8211 8.24662 11.3044L7.94158 11.4815L7.86191 11.5265L7.75 11.5826L7.52432 11.6902C7.22145 11.8207 6.91486 11.9225 6.61292 11.9826C6.00873 12.1063 5.4405 12.1143 4.91846 12.0684C3.87252 11.9583 2.99739 11.6397 2.19542 11.2575C1.79676 11.0595 1.4167 10.8492 1.05586 10.6108C0.68603 10.3736 0.36425 10.1303 0 9.82345L1.09802 7.96158C2.43877 8.31101 3.95343 8.62559 4.99348 8.47786C5.24768 8.44702 5.46065 8.3841 5.6079 8.30731C5.68137 8.26752 5.73872 8.23144 5.78553 8.1935C5.79545 8.1824 5.80599 8.17253 5.81653 8.16359L5.83265 8.15064L5.87698 8.11918L6.06484 7.98749C6.56952 7.61801 7.07482 7.16588 7.57206 6.68138C8.56251 5.70341 9.50305 4.58543 10.3903 3.43043C10.8336 2.85217 11.2632 2.25971 11.6737 1.66695C11.8767 1.36903 12.0773 1.07296 12.2633 0.7812C12.4443 0.495613 12.634 0.188746 12.732 0L16.6895 1.86896Z" transform="translate(4.382873 17.504221)" id="Fill-150" fill="#FFC4BE" fill-rule="evenodd" stroke="none" />
                <path d="M2.57176 1.11243L0.21297 0L0 3.14731C0 3.14731 1.83334 3.46313 2.80395 2.7507L2.57176 1.11243Z" transform="translate(3.462545 24.626589)" id="Fill-152" fill="#FFC4BE" fill-rule="evenodd" stroke="none" />
                <path d="M0 0.53509L0.90892 2.9342L2.76055 3.14731L2.97352 0L0 0.53509Z" transform="translate(0.701964 24.626558)" id="Fill-154" fill="#FFC4BE" fill-rule="evenodd" stroke="none" />
                <path d="M10.4331 2.86299C10.3524 5.29449 5.31867 10.8964 5.31867 10.8964L0 7.44071C0 7.44071 1.6864 4.30203 3.87624 2.0309C7.17929 -1.39521 10.5298 -0.0551768 10.4331 2.86299" transform="translate(12.329599 14.843177)" id="Fill-156" fill="#031B4E" fill-rule="evenodd" stroke="none" />
                <path d="M0 0L0.13082 3.03721L2.68956 3.03721L2.55843 0L0 0Z" transform="translate(18.106604 87.89416)" id="Fill-158" fill="#000000" fill-opacity="0.2" fill-rule="evenodd" stroke="none" />
                <path d="M2.37212 0L0 0.648893L1.56612 3.49613L3.93824 2.84754L2.37212 0Z" transform="translate(34.634502 82.888214)" id="Fill-160" fill="#000000" fill-opacity="0.2" fill-rule="evenodd" stroke="none" />
                <path d="M7.24313 3.63045C7.14052 6.15354 7.20934 7.63576 5.95725 8.95575C4.07369 10.9413 0.922852 9.85198 0.265652 7.34925C-0.325828 5.09632 -0.0586084 1.34853 2.39969 0.294388C4.82172 -0.744334 7.34605 1.10735 7.24313 3.63045" transform="translate(20.409147 2.8210375)" id="Fill-162" fill="#FFC4BE" fill-rule="evenodd" stroke="none" />
                <path d="M2.8536 7.6541C1.94096 7.00798 1.04537 5.67133 1.11419 4.67764C0.270366 4.64341 -0.298174 3.25557 0.166826 2.2446C0.459776 2.89565 1.46666 2.41608 1.85881 1.90196C1.64801 1.40511 1.68242 0.582585 3.12919 0C3.0086 0.419745 3.07184 1.12446 4.52419 0.616818C6.28933 0 9.39088 0.411418 8.48165 2.50151C9.72537 2.72449 11.3358 5.27534 9.96655 6.61877C8.59697 7.9622 8.31301 10.1263 7.14183 10.349C5.97096 10.5716 2.92242 10.6478 2.8536 7.6541" transform="translate(19.749372 0)" id="Fill-164" fill="#031B4E" fill-rule="evenodd" stroke="none" />
                <path d="M0 0.182803C0.81375 -0.187905 2.12536 -0.0287658 2.83216 0.974797C1.86992 0.583426 1.31936 0.328372 0 0.182803" transform="translate(27.406914 2.235402)" id="Fill-166" fill="#031B4E" fill-rule="evenodd" stroke="none" />
                <path d="M1.74887 0.9279C1.72965 1.51943 1.46987 2.08258 1.1484 2.45483C0.664804 3.01521 0.135014 2.68922 0.0280638 2.02615C-0.0680362 1.42907 0.0677438 0.4181 0.668834 0.0998221C1.26124 -0.213522 1.77057 0.251559 1.74887 0.9279" transform="translate(21.522825 6.618685)" id="Fill-168" fill="#FFC4BE" fill-rule="evenodd" stroke="none" />
                <path d="M0.318119 0C0.318119 0 -0.888711 19.2534 1.39878 26.3529C5.02206 37.5982 11.4803 49.0845 11.4803 49.0845L16.0996 47.7026C16.0996 47.7026 11.0199 35.5771 9.34904 26.105C7.84833 17.5954 9.14506 6.95062 9.14506 0L0.318119 0Z" transform="translate(23.193954 37.11145)" id="Fill-170" fill="#4E66D0" fill-rule="evenodd" stroke="none" />
                <path d="M0.121937 0.18583C1.41278 -0.189812 2.41904 -0.0479442 2.68037 1.09471C3.36237 4.07795 1.31668 11.9449 0.297087 15.544C-0.116453 10.3874 -0.020353 4.21951 0.121937 0.18583" transform="translate(23.194433 41.215717)" id="Fill-172" fill="#000000" fill-opacity="0.2" fill-rule="evenodd" stroke="none" />
                <path d="M0.000223916 1.78631C-0.0189961 1.79217 1.2055 3.209 1.2055 3.209L6.2523 1.69903L5.61122 0L0.000223916 1.78631Z" transform="translate(33.3701 83.09241)" id="Fill-174" fill="#1A2E35" fill-rule="evenodd" stroke="none" />
                <path d="M4.14492 0C4.14492 0 0.292552 16.2442 0.0213021 24.0038C-0.282808 32.7059 2.76976 53.2317 2.76976 53.2317L7.10263 53.2317C7.10263 53.2317 7.63583 32.5461 7.82865 24.6197C8.03883 15.9787 13.1371 0 13.1371 0L4.14492 0Z" transform="translate(14.514474 37.11145)" id="Fill-176" fill="#4E66D0" fill-rule="evenodd" stroke="none" />
                <path d="M0.0010631 0C-0.0187769 0 0.245653 1.78939 0.245653 1.78939L5.51596 1.78939L5.65856 0.192447L0.0010631 0Z" transform="translate(16.449583 88.62632)" id="Fill-178" fill="#1A2E35" fill-rule="evenodd" stroke="none" />
                <path d="M0.42977 0.627084C1.01598 0.425076 5.48494 -0.139929 8.72816 0.0321632C10.5795 0.130546 11.6236 0.33132 12.38 0.695551C13.1364 1.05947 11.7807 2.89297 11.1555 3.11687C11.4087 3.82004 9.99823 4.71721 9.19378 5.14312C8.87169 5.80435 5.70256 6.415 3.8407 4.99477C2.41129 3.90455 -1.24361 1.20381 0.42977 0.627084" transform="translate(20.145178 13.188193)" id="Fill-180" fill="#4E66D0" fill-rule="evenodd" stroke="none" />
            </g>
        </g>
    </g>
</svg>
