<svg width="24" height="24" viewBox="0 0 24 24" fill="none" xmlns="http://www.w3.org/2000/svg">
<circle cx="12" cy="12" r="12" fill="#F5F6F7"/>
<path fill-rule="evenodd" clip-rule="evenodd" d="M16.2014 14.6479C15.5133 13.9347 14.9422 13.3945 14.9422 13.3945L13.1817 11.6759C14.6935 9.86548 16.1238 8.15567 16.1238 8.15567C16.8735 7.3342 15.9104 6.61552 15.2684 7.23141L11.9485 10.4721L8.62859 7.23141C7.98655 6.61552 7.0235 7.3342 7.77313 8.15567C7.77313 8.15567 9.20348 9.86548 10.7153 11.6759L8.95471 13.3945C8.95471 13.3945 8.38367 13.9347 7.69557 14.6479C7.27353 15.0854 7.62529 15.8734 7.90136 16.0655C8.44309 16.4425 9.20747 16.4031 9.70346 15.8589C9.8261 15.7014 10.7971 14.5339 11.9485 13.1535C13.0998 14.5339 14.0709 15.7014 14.1935 15.8589C14.6895 16.4031 15.4539 16.4425 15.9956 16.0655C16.2717 15.8734 16.6234 15.0854 16.2014 14.6479Z" fill="#F54F64"/>
</svg>
