<svg width="40" height="41" viewBox="0 0 40 41" fill="none" xmlns="http://www.w3.org/2000/svg">
<path d="M26.0479 6.94605H27.7845C28.264 6.94605 28.6527 6.55726 28.6527 6.07782C28.6527 5.59838 28.2639 5.20959 27.7845 5.20959H26.0479C25.5684 5.20959 25.1797 5.59828 25.1797 6.07782C25.1797 6.55737 25.5684 6.94605 26.0479 6.94605Z" fill="black"/>
<path d="M20.8389 6.94605H22.5755C23.055 6.94605 23.4437 6.55726 23.4437 6.07782C23.4437 5.59838 23.055 5.20959 22.5755 5.20959H20.8389C20.3594 5.20959 19.9707 5.59828 19.9707 6.07782C19.9707 6.55737 20.3594 6.94605 20.8389 6.94605Z" fill="black"/>
<path fill-rule="evenodd" clip-rule="evenodd" d="M10.4185 6.07768C10.4185 7.51621 9.2523 8.68246 7.81377 8.68246C6.37523 8.68246 5.20898 7.51632 5.20898 6.07768C5.20898 4.63905 6.37523 3.4729 7.81377 3.4729C9.2523 3.4729 10.4185 4.63915 10.4185 6.07768ZM8.68199 6.07768C8.68199 5.59814 8.29331 5.20946 7.81377 5.20946C7.33422 5.20946 6.94554 5.59824 6.94554 6.07768C6.94554 6.55713 7.33422 6.94591 7.81377 6.94591C8.29331 6.94591 8.68199 6.55723 8.68199 6.07768Z" fill="black"/>
<path d="M7.81377 8.94842C9.39918 8.94842 10.6845 7.6631 10.6845 6.07768H10.1526C10.1526 7.36933 9.10541 8.41651 7.81377 8.41651V8.94842ZM4.94303 6.07768C4.94303 7.66321 6.22836 8.94842 7.81377 8.94842V8.41651C6.52211 8.41651 5.47494 7.36942 5.47494 6.07768H4.94303ZM7.81377 3.20694C6.22836 3.20694 4.94303 4.49216 4.94303 6.07768H5.47494C5.47494 4.78594 6.52211 3.73886 7.81377 3.73886V3.20694ZM10.6845 6.07768C10.6845 4.49227 9.39918 3.20694 7.81377 3.20694V3.73886C9.10541 3.73886 10.1526 4.78604 10.1526 6.07768H10.6845ZM7.81377 5.47541C8.14643 5.47541 8.41604 5.74502 8.41604 6.07768H8.94795C8.94795 5.45125 8.4402 4.9435 7.81377 4.9435V5.47541ZM7.2115 6.07768C7.2115 5.7451 7.48113 5.47541 7.81377 5.47541V4.9435C7.18732 4.9435 6.67958 5.45138 6.67958 6.07768H7.2115ZM7.81377 6.67995C7.48113 6.67995 7.2115 6.41026 7.2115 6.07768H6.67958C6.67958 6.70399 7.18732 7.21187 7.81377 7.21187V6.67995ZM8.41604 6.07768C8.41604 6.41034 8.14643 6.67995 7.81377 6.67995V7.21187C8.4402 7.21187 8.94795 6.70411 8.94795 6.07768H8.41604Z" fill="white"/>
<path fill-rule="evenodd" clip-rule="evenodd" d="M10.4185 16.4968C10.4185 17.9354 9.2523 19.1016 7.81377 19.1016C6.37523 19.1016 5.20898 17.9354 5.20898 16.4968C5.20898 15.0582 6.37523 13.892 7.81377 13.892C9.2523 13.892 10.4185 15.0583 10.4185 16.4968ZM8.68199 16.4968C8.68199 16.0173 8.29331 15.6286 7.81377 15.6286C7.33422 15.6286 6.94554 16.0173 6.94554 16.4968C6.94554 16.9764 7.33422 17.365 7.81377 17.365C8.29331 17.365 8.68199 16.9764 8.68199 16.4968Z" fill="black"/>
<path d="M7.81377 19.3676C9.39918 19.3676 10.6845 18.0823 10.6845 16.4968H10.1526C10.1526 17.7886 9.10542 18.8356 7.81377 18.8356V19.3676ZM4.94303 16.4968C4.94303 18.0823 6.22836 19.3676 7.81377 19.3676V18.8356C6.52211 18.8356 5.47494 17.7886 5.47494 16.4968H4.94303ZM7.81377 13.6261C6.22836 13.6261 4.94303 14.9113 4.94303 16.4968H5.47494C5.47494 15.2051 6.52211 14.158 7.81377 14.158V13.6261ZM10.6845 16.4968C10.6845 14.9114 9.39918 13.6261 7.81377 13.6261V14.158C9.10541 14.158 10.1526 15.2052 10.1526 16.4968H10.6845ZM7.81377 15.8945C8.14643 15.8945 8.41604 16.1642 8.41604 16.4968H8.94795C8.94795 15.8704 8.4402 15.3626 7.81377 15.3626V15.8945ZM7.2115 16.4968C7.2115 16.1642 7.48111 15.8945 7.81377 15.8945V15.3626C7.18734 15.3626 6.67958 15.8704 6.67958 16.4968H7.2115ZM7.81377 17.0991C7.48111 17.0991 7.2115 16.8295 7.2115 16.4968H6.67958C6.67958 17.1232 7.18734 17.631 7.81377 17.631V17.0991ZM8.41604 16.4968C8.41604 16.8295 8.14643 17.0991 7.81377 17.0991V17.631C8.4402 17.631 8.94795 17.1232 8.94795 16.4968H8.41604Z" fill="white"/>
<path d="M27.7845 26.0477H26.0479C25.5684 26.0477 25.1797 26.4364 25.1797 26.916C25.1797 27.3955 25.5684 27.7842 26.0479 27.7842H27.7845C28.264 27.7842 28.6527 27.3955 28.6527 26.916C28.6527 26.4364 28.264 26.0477 27.7845 26.0477Z" fill="black"/>
<path d="M22.5755 26.0477H20.8389C20.3594 26.0477 19.9707 26.4364 19.9707 26.916C19.9707 27.3955 20.3594 27.7842 20.8389 27.7842H22.5755C23.055 27.7842 23.4437 27.3955 23.4437 26.916C23.4437 26.4364 23.055 26.0477 22.5755 26.0477Z" fill="black"/>
<path fill-rule="evenodd" clip-rule="evenodd" d="M5.20898 26.9159C5.20898 25.4774 6.37523 24.3112 7.81377 24.3112C9.2524 24.3112 10.4185 25.4773 10.4185 26.9159C10.4185 28.3546 9.2524 29.5207 7.81377 29.5207C6.37513 29.5207 5.20898 28.3545 5.20898 26.9159ZM6.94554 26.916C6.94554 27.3956 7.33422 27.7843 7.81377 27.7843C8.29331 27.7843 8.68199 27.3956 8.68199 26.916C8.68199 26.4365 8.29331 26.0478 7.81377 26.0478C7.33422 26.0478 6.94554 26.4365 6.94554 26.916Z" fill="black"/>
<path d="M7.81377 24.0452C6.22835 24.0452 4.94303 25.3305 4.94303 26.9159H5.47494C5.47494 25.6243 6.52212 24.5771 7.81377 24.5771V24.0452ZM10.6845 26.9159C10.6845 25.3304 9.39928 24.0452 7.81377 24.0452V24.5771C9.10552 24.5771 10.1526 25.6242 10.1526 26.9159H10.6845ZM7.81377 29.7867C9.39928 29.7867 10.6845 28.5015 10.6845 26.9159H10.1526C10.1526 28.2077 9.10552 29.2548 7.81377 29.2548V29.7867ZM4.94303 26.9159C4.94303 28.5013 6.22824 29.7867 7.81377 29.7867V29.2548C6.52202 29.2548 5.47494 28.2076 5.47494 26.9159H4.94303ZM7.81377 27.5183C7.48111 27.5183 7.2115 27.2487 7.2115 26.916H6.67958C6.67958 27.5425 7.18734 28.0502 7.81377 28.0502V27.5183ZM8.41604 26.916C8.41604 27.2487 8.14643 27.5183 7.81377 27.5183V28.0502C8.4402 28.0502 8.94795 27.5425 8.94795 26.916H8.41604ZM7.81377 26.3138C8.14643 26.3138 8.41604 26.5834 8.41604 26.916H8.94795C8.94795 26.2896 8.4402 25.7819 7.81377 25.7819V26.3138ZM7.2115 26.916C7.2115 26.5834 7.48111 26.3138 7.81377 26.3138V25.7819C7.18734 25.7819 6.67958 26.2896 6.67958 26.916H7.2115Z" fill="white"/>
<path fill-rule="evenodd" clip-rule="evenodd" d="M30.3892 32.9937H19.97H14.7605H4.34134C1.94484 32.9907 0.00284898 31.0487 0 28.6523V25.1793C0.00386647 23.8075 0.658114 22.5189 1.76342 21.7063C0.658216 20.8937 0.00386647 19.6051 0 18.2333V14.7603C0.00386647 13.3885 0.658114 12.0998 1.76342 11.2873C0.658216 10.4747 0.00386647 9.18603 0 7.81424V4.34124C0.00284898 1.94473 1.94484 0.00274723 4.34134 0H30.3892C32.7857 0.00295073 34.7276 1.94494 34.7305 4.34134V7.81435C34.7266 9.18613 34.0724 10.4748 32.9671 11.2874C34.0723 12.0999 34.7266 13.3886 34.7305 14.7604V18.2334C34.7266 19.6052 34.0724 20.8938 32.9671 21.7064C34.0723 22.519 34.7266 23.8076 34.7305 25.1794V28.6524C34.7275 31.0489 32.7856 32.9909 30.3892 32.9937ZM1.73656 4.34124V7.81424C1.73656 9.25278 2.9027 10.419 4.34134 10.419H30.3892C31.8278 10.419 32.9939 9.25278 32.9939 7.81424V4.34124C32.9939 2.9026 31.8277 1.73645 30.3892 1.73645H4.34134C2.90281 1.73645 1.73656 2.9027 1.73656 4.34124ZM1.73656 18.2334V14.7604C1.73656 13.3218 2.90281 12.1556 4.34134 12.1556H30.3892C31.8277 12.1556 32.9939 13.3218 32.9939 14.7604V18.2334C32.9939 19.6719 31.8278 20.8382 30.3892 20.8382H4.34134C2.9027 20.8382 1.73656 19.6719 1.73656 18.2334ZM1.73656 28.6525C1.73656 30.0911 2.90281 31.2573 4.34134 31.2573H30.3892C31.8278 31.2573 32.9939 30.091 32.9939 28.6525V25.1795C32.9939 23.741 31.8277 22.5747 30.3892 22.5747H4.34134C2.90281 22.5747 1.73656 23.741 1.73656 25.1795V28.6525Z" fill="#161922"/>
<path d="M29.2117 40C29.2117 40 39.1734 35.596 39.1734 26.7861C39.1734 23.2625 39.1734 19.3309 39.1734 19.3309L29.2117 16.2817L19.25 19.3309V26.7861C19.25 35.596 29.2117 40 29.2117 40Z" fill="#3DB249" stroke="#161922" stroke-width="1.59574"/>
<path d="M28.1778 31.1601L24.502 27.3311L26.0773 25.6901L28.1778 27.8781L33.4291 22.4081L35.0044 24.0491L28.1778 31.1601Z" fill="white"/>
</svg>
