<svg width="40" height="42" viewBox="0 0 40 42" fill="none" xmlns="http://www.w3.org/2000/svg">
<path d="M24.9992 7.4H26.5992C27.0411 7.4 27.3992 7.04178 27.3992 6.60002C27.3992 6.15827 27.041 5.80005 26.5992 5.80005H24.9992C24.5573 5.80005 24.1992 6.15818 24.1992 6.60002C24.1992 7.04187 24.5573 7.4 24.9992 7.4Z" fill="#161922"/>
<path d="M20.2004 7.4H21.8004C22.2423 7.4 22.6004 7.04178 22.6004 6.60002C22.6004 6.15827 22.2423 5.80005 21.8004 5.80005H20.2004C19.7585 5.80005 19.4004 6.15818 19.4004 6.60002C19.4004 7.04187 19.7585 7.4 20.2004 7.4Z" fill="#161922"/>
<path fill-rule="evenodd" clip-rule="evenodd" d="M10.6008 6.59991C10.6008 7.92535 9.52624 8.99992 8.2008 8.99992C6.87535 8.99992 5.80078 7.92544 5.80078 6.59991C5.80078 5.27437 6.87535 4.19989 8.2008 4.19989C9.52624 4.19989 10.6008 5.27446 10.6008 6.59991ZM9.00077 6.59991C9.00077 6.15806 8.64264 5.79993 8.2008 5.79993C7.75895 5.79993 7.40082 6.15815 7.40082 6.59991C7.40082 7.04166 7.75895 7.39988 8.2008 7.39988C8.64264 7.39988 9.00077 7.04175 9.00077 6.59991Z" fill="#161922"/>
<path d="M8.2008 9.07492C9.56766 9.07492 10.6758 7.96677 10.6758 6.59991H10.5258C10.5258 7.88393 9.48482 8.92492 8.2008 8.92492V9.07492ZM5.72578 6.59991C5.72578 7.96687 6.83393 9.07492 8.2008 9.07492V8.92492C6.91677 8.92492 5.87578 7.88402 5.87578 6.59991H5.72578ZM8.2008 4.12489C6.83393 4.12489 5.72578 5.23294 5.72578 6.59991H5.87578C5.87578 5.31579 6.91677 4.27489 8.2008 4.27489V4.12489ZM10.6758 6.59991C10.6758 5.23304 9.56766 4.12489 8.2008 4.12489V4.27489C9.48482 4.27489 10.5258 5.31588 10.5258 6.59991H10.6758ZM8.2008 5.87493C8.60122 5.87493 8.92577 6.19948 8.92577 6.59991H9.07577C9.07577 6.11664 8.68406 5.72493 8.2008 5.72493V5.87493ZM7.47582 6.59991C7.47582 6.19957 7.80038 5.87493 8.2008 5.87493V5.72493C7.71752 5.72493 7.32582 6.11674 7.32582 6.59991H7.47582ZM8.2008 7.32488C7.80038 7.32488 7.47582 7.00024 7.47582 6.59991H7.32582C7.32582 7.08307 7.71752 7.47488 8.2008 7.47488V7.32488ZM8.92577 6.59991C8.92577 7.00033 8.60122 7.32488 8.2008 7.32488V7.47488C8.68406 7.47488 9.07577 7.08317 9.07577 6.59991H8.92577Z" fill="#161922"/>
<path d="M24.9992 17H26.5992C27.0411 17 27.3992 16.6419 27.3992 16.2001C27.3992 15.7582 27.041 15.4001 26.5992 15.4001H24.9992C24.5573 15.4001 24.1992 15.7582 24.1992 16.2001C24.1992 16.6419 24.5573 17 24.9992 17Z" fill="#161922"/>
<path d="M20.2004 17H21.8004C22.2423 17 22.6004 16.6419 22.6004 16.2001C22.6004 15.7582 22.2423 15.4001 21.8004 15.4001H20.2004C19.7585 15.4001 19.4004 15.7582 19.4004 16.2001C19.4004 16.6419 19.7585 17 20.2004 17Z" fill="#161922"/>
<path fill-rule="evenodd" clip-rule="evenodd" d="M10.6008 16.1999C10.6008 17.5255 9.52624 18.6 8.2008 18.6C6.87535 18.6 5.80078 17.5255 5.80078 16.1999C5.80078 14.8744 6.87535 13.7999 8.2008 13.7999C9.52624 13.7999 10.6008 14.8745 10.6008 16.1999ZM9.00077 16.1999C9.00077 15.7581 8.64264 15.4 8.2008 15.4C7.75895 15.4 7.40082 15.7581 7.40082 16.1999C7.40082 16.6418 7.75895 16.9999 8.2008 16.9999C8.64264 16.9999 9.00077 16.6418 9.00077 16.1999Z" fill="#161922"/>
<path d="M8.2008 18.675C9.56766 18.675 10.6758 17.5669 10.6758 16.1999H10.5258C10.5258 17.4841 9.48482 18.525 8.2008 18.525V18.675ZM5.72578 16.1999C5.72578 17.5669 6.83393 18.675 8.2008 18.675V18.525C6.91677 18.525 5.87578 17.4841 5.87578 16.1999H5.72578ZM8.2008 13.7249C6.83393 13.7249 5.72578 14.833 5.72578 16.1999H5.87578C5.87578 14.9158 6.91677 13.8749 8.2008 13.8749V13.7249ZM10.6758 16.1999C10.6758 14.8331 9.56766 13.7249 8.2008 13.7249V13.8749C9.48482 13.8749 10.5258 14.9159 10.5258 16.1999H10.6758ZM8.2008 15.475C8.60122 15.475 8.92577 15.7995 8.92577 16.1999H9.07577C9.07577 15.7167 8.68406 15.325 8.2008 15.325V15.475ZM7.47582 16.1999C7.47582 15.7995 7.80037 15.475 8.2008 15.475V15.325C7.71753 15.325 7.32582 15.7167 7.32582 16.1999H7.47582ZM8.2008 16.9249C7.80037 16.9249 7.47582 16.6004 7.47582 16.1999H7.32582C7.32582 16.6832 7.71753 17.0749 8.2008 17.0749V16.9249ZM8.92577 16.1999C8.92577 16.6004 8.60122 16.9249 8.2008 16.9249V17.0749C8.68406 17.0749 9.07577 16.6832 9.07577 16.1999H8.92577Z" fill="#161922"/>
<path d="M26.5992 25.0001H24.9992C24.5573 25.0001 24.1992 25.3582 24.1992 25.8C24.1992 26.2419 24.5573 26.6 24.9992 26.6H26.5992C27.0411 26.6 27.3992 26.2419 27.3992 25.8C27.3992 25.3582 27.0411 25.0001 26.5992 25.0001Z" fill="#161922"/>
<path d="M21.8004 25.0001H20.2004C19.7585 25.0001 19.4004 25.3582 19.4004 25.8C19.4004 26.2419 19.7585 26.6 20.2004 26.6H21.8004C22.2423 26.6 22.6004 26.2419 22.6004 25.8C22.6004 25.3582 22.2423 25.0001 21.8004 25.0001Z" fill="#161922"/>
<path fill-rule="evenodd" clip-rule="evenodd" d="M5.80078 25.8C5.80078 24.4746 6.87535 23.4 8.2008 23.4C9.52634 23.4 10.6008 24.4745 10.6008 25.8C10.6008 27.1256 9.52634 28.2001 8.2008 28.2001C6.87526 28.2001 5.80078 27.1255 5.80078 25.8ZM7.40082 25.8001C7.40082 26.242 7.75895 26.6001 8.2008 26.6001C8.64264 26.6001 9.00077 26.242 9.00077 25.8001C9.00077 25.3583 8.64264 25.0002 8.2008 25.0002C7.75895 25.0002 7.40082 25.3583 7.40082 25.8001Z" fill="#161922"/>
<path d="M8.2008 23.325C6.83393 23.325 5.72578 24.4332 5.72578 25.8H5.87578C5.87578 24.516 6.91677 23.475 8.2008 23.475V23.325ZM10.6758 25.8C10.6758 24.4331 9.56776 23.325 8.2008 23.325V23.475C9.48491 23.475 10.5258 24.5159 10.5258 25.8H10.6758ZM8.2008 28.2751C9.56776 28.2751 10.6758 27.167 10.6758 25.8H10.5258C10.5258 27.0842 9.48491 28.1251 8.2008 28.1251V28.2751ZM5.72578 25.8C5.72578 27.1669 6.83383 28.2751 8.2008 28.2751V28.1251C6.91668 28.1251 5.87578 27.0841 5.87578 25.8H5.72578ZM8.2008 26.5251C7.80037 26.5251 7.47582 26.2006 7.47582 25.8001H7.32582C7.32582 26.2834 7.71753 26.6751 8.2008 26.6751V26.5251ZM8.92577 25.8001C8.92577 26.2006 8.60122 26.5251 8.2008 26.5251V26.6751C8.68406 26.6751 9.07577 26.2834 9.07577 25.8001H8.92577ZM8.2008 25.0752C8.60122 25.0752 8.92577 25.3997 8.92577 25.8001H9.07577C9.07577 25.3169 8.68406 24.9252 8.2008 24.9252V25.0752ZM7.47582 25.8001C7.47582 25.3997 7.80037 25.0752 8.2008 25.0752V24.9252C7.71753 24.9252 7.32582 25.3169 7.32582 25.8001H7.47582Z" fill="#161922"/>
<path fill-rule="evenodd" clip-rule="evenodd" d="M25.8002 37.8001H33.8002C34.2421 37.8001 34.6003 38.1581 34.6003 38.6C34.6003 39.0418 34.2422 39.4 33.8003 39.4H25.8003C25.8003 40.2837 25.084 41 24.2003 41H9.80018C8.91649 41 8.20014 40.2837 8.20014 39.4H1.80007C1.35822 39.4 1 39.0418 1 38.6C1 38.1581 1.35822 37.8 1.80007 37.8H8.20005C8.20005 36.9163 8.91639 36.2 9.80009 36.2H14.6001V31.3999H5.00006C2.79195 31.3972 1.00263 29.6079 1 27.3999V24.1999C1.00356 22.936 1.60638 21.7486 2.62479 20.9999C1.60647 20.2512 1.00356 19.0639 1 17.7999V14.5999C1.00356 13.336 1.60638 12.1486 2.62479 11.3999C1.60647 10.6512 1.00356 9.4639 1 8.19995V4.99996C1.00263 2.79186 2.79195 1.00253 5.00006 1H29.0002C31.2083 1.00272 32.9976 2.79204 33.0003 5.00006V8.20005C32.9967 9.46399 32.3939 10.6513 31.3755 11.4C32.3938 12.1487 32.9967 13.3361 33.0003 14.6V17.8C32.9967 19.064 32.3939 20.2513 31.3755 21C32.3938 21.7487 32.9967 22.936 33.0003 24.2V27.4C32.9975 29.6081 31.2082 31.3974 29.0002 31.4H19.4001V36.2001H24.2002C25.0839 36.2001 25.8002 36.9164 25.8002 37.8001ZM2.60004 4.99996V8.19995C2.60004 9.5254 3.67452 10.6 5.00006 10.6H29.0002C30.3257 10.6 31.4002 9.5254 31.4002 8.19995V4.99996C31.4002 3.67442 30.3257 2.59995 29.0002 2.59995H5.00006C3.67461 2.59995 2.60004 3.67452 2.60004 4.99996ZM2.60004 17.8V14.6C2.60004 13.2746 3.67461 12.2 5.00006 12.2H29.0002C30.3257 12.2 31.4002 13.2746 31.4002 14.6V17.8C31.4002 19.1255 30.3257 20.2 29.0002 20.2H5.00006C3.67452 20.2 2.60004 19.1255 2.60004 17.8ZM2.60004 27.4001C2.60004 28.7256 3.67461 29.8001 5.00006 29.8001H29.0002C30.3257 29.8001 31.4002 28.7255 31.4002 27.4001V24.2001C31.4002 22.8746 30.3257 21.8001 29.0002 21.8001H5.00006C3.67461 21.8001 2.60004 22.8746 2.60004 24.2001V27.4001ZM17.8001 31.4001V36.2002H16.2001V31.4001H17.8001ZM9.80009 39.4001H24.2002V37.8001H9.80009V39.4001Z" fill="#161922"/>
<path d="M25.8002 37.8001H25.7252V37.8751H25.8002V37.8001ZM25.8003 39.4V39.325H25.7253V39.4H25.8003ZM8.20014 39.4H8.27514V39.325H8.20014V39.4ZM8.20005 37.8V37.875H8.27504V37.8H8.20005ZM14.6001 36.2V36.275H14.6751V36.2H14.6001ZM14.6001 31.3999H14.6751V31.3249H14.6001V31.3999ZM5.00006 31.3999L4.99996 31.4749H5.00006V31.3999ZM1 27.3999H0.925L0.925 27.4L1 27.3999ZM1 24.1999L0.925 24.1997V24.1999H1ZM2.62479 20.9999L2.66922 21.0603L2.75141 20.9999L2.66922 20.9395L2.62479 20.9999ZM1 17.7999H0.925L0.925 17.8001L1 17.7999ZM1 14.5999L0.925 14.5997V14.5999H1ZM2.62479 11.3999L2.66922 11.4604L2.75141 11.3999L2.66922 11.3395L2.62479 11.3999ZM1 8.19995H0.925L0.925 8.20016L1 8.19995ZM1 4.99996L0.925 4.99987V4.99996H1ZM5.00006 1V0.925L4.99997 0.925L5.00006 1ZM29.0002 1L29.0003 0.925H29.0002V1ZM33.0003 5.00006H33.0753V4.99997L33.0003 5.00006ZM33.0003 8.20005L33.0753 8.20026V8.20005H33.0003ZM31.3755 11.4L31.331 11.3396L31.2489 11.4L31.331 11.4605L31.3755 11.4ZM33.0003 14.6H33.0753V14.5998L33.0003 14.6ZM33.0003 17.8L33.0753 17.8002V17.8H33.0003ZM31.3755 21L31.331 20.9396L31.2489 21L31.331 21.0604L31.3755 21ZM33.0003 24.2H33.0753V24.1998L33.0003 24.2ZM33.0003 27.4L33.0753 27.4001V27.4H33.0003ZM29.0002 31.4V31.475H29.0003L29.0002 31.4ZM19.4001 31.4V31.325H19.3251V31.4H19.4001ZM19.4001 36.2001H19.3251V36.2751H19.4001V36.2001ZM17.8001 36.2002V36.2752H17.8751V36.2002H17.8001ZM17.8001 31.4001H17.8751V31.3251H17.8001V31.4001ZM16.2001 36.2002H16.1251V36.2752H16.2001V36.2002ZM16.2001 31.4001V31.3251H16.1251V31.4001H16.2001ZM24.2002 39.4001V39.4751H24.2752V39.4001H24.2002ZM9.80009 39.4001H9.72509V39.4751H9.80009V39.4001ZM24.2002 37.8001H24.2752V37.7251H24.2002V37.8001ZM9.80009 37.8001V37.7251H9.72509V37.8001H9.80009ZM33.8002 37.7251H25.8002V37.8751H33.8002V37.7251ZM34.6753 38.6C34.6753 38.1167 34.2835 37.7251 33.8002 37.7251V37.8751C34.2007 37.8751 34.5253 38.1996 34.5253 38.6H34.6753ZM33.8003 39.475C34.2836 39.475 34.6753 39.0832 34.6753 38.6H34.5253C34.5253 39.0004 34.2008 39.325 33.8003 39.325V39.475ZM25.8003 39.475H33.8003V39.325H25.8003V39.475ZM24.2003 41.075C25.1254 41.075 25.8753 40.3251 25.8753 39.4H25.7253C25.7253 40.2422 25.0425 40.925 24.2003 40.925V41.075ZM9.80018 41.075H24.2003V40.925H9.80018V41.075ZM8.12514 39.4C8.12514 40.3251 8.87507 41.075 9.80018 41.075V40.925C8.95791 40.925 8.27514 40.2422 8.27514 39.4H8.12514ZM1.80007 39.475H8.20014V39.325H1.80007V39.475ZM0.925 38.6C0.925 39.0833 1.31681 39.475 1.80007 39.475V39.325C1.39963 39.325 1.075 39.0004 1.075 38.6H0.925ZM1.80007 37.725C1.31681 37.725 0.925 38.1167 0.925 38.6H1.075C1.075 38.1996 1.39963 37.875 1.80007 37.875V37.725ZM8.20005 37.725H1.80007V37.875H8.20005V37.725ZM9.80009 36.125C8.87497 36.125 8.12505 36.8749 8.12505 37.8H8.27504C8.27504 36.9577 8.95781 36.275 9.80009 36.275V36.125ZM14.6001 36.125H9.80009V36.275H14.6001V36.125ZM14.5251 31.3999V36.2H14.6751V31.3999H14.5251ZM5.00006 31.4749H14.6001V31.3249H5.00006V31.4749ZM0.925 27.4C0.927674 29.6493 2.75051 31.4722 4.99996 31.4749L5.00015 31.3249C2.83339 31.3223 1.07758 29.5665 1.075 27.3998L0.925 27.4ZM0.925 24.1999V27.3999H1.075V24.1999H0.925ZM2.58037 20.9395C1.54279 21.7023 0.92863 22.912 0.925 24.1997L1.075 24.2001C1.0785 22.9599 1.66997 21.7949 2.66922 21.0603L2.58037 20.9395ZM0.925 17.8001C0.92863 19.0879 1.54289 20.2976 2.58036 21.0603L2.66922 20.9395C1.67006 20.2049 1.0785 19.0399 1.075 17.7997L0.925 17.8001ZM0.925 14.5999V17.7999H1.075V14.5999H0.925ZM2.58037 11.3395C1.54279 12.1023 0.92863 13.312 0.925 14.5997L1.075 14.6001C1.0785 13.36 1.66997 12.195 2.66922 11.4604L2.58037 11.3395ZM0.925 8.20016C0.92863 9.48789 1.54289 10.6976 2.58036 11.4604L2.66922 11.3395C1.67006 10.6049 1.0785 9.4399 1.075 8.19974L0.925 8.20016ZM0.925 4.99996V8.19995H1.075V4.99996H0.925ZM4.99997 0.925C2.75051 0.927579 0.927674 2.75041 0.925 4.99987L1.075 5.00005C1.07758 2.8333 2.83339 1.07748 5.00014 1.075L4.99997 0.925ZM29.0002 0.925H5.00006V1.075H29.0002V0.925ZM33.0753 4.99997C33.0726 2.7506 31.2498 0.92777 29.0003 0.925L29.0001 1.075C31.1669 1.07767 32.9227 2.83349 32.9253 5.00015L33.0753 4.99997ZM33.0753 8.20005V5.00006H32.9253V8.20005H33.0753ZM31.4199 11.4605C32.4575 10.6977 33.0716 9.48798 33.0753 8.20026L32.9253 8.19983C32.9218 9.44 32.3303 10.605 31.331 11.3396L31.4199 11.4605ZM33.0753 14.5998C33.0716 13.3121 32.4574 12.1024 31.4199 11.3396L31.331 11.4605C32.3302 12.1951 32.9218 13.3601 32.9253 14.6002L33.0753 14.5998ZM33.0753 17.8V14.6H32.9253V17.8H33.0753ZM31.4199 21.0604C32.4575 20.2976 33.0716 19.0879 33.0753 17.8002L32.9253 17.7998C32.9218 19.04 32.3303 20.205 31.331 20.9396L31.4199 21.0604ZM33.0753 24.1998C33.0716 22.912 32.4574 21.7024 31.4199 20.9396L31.331 21.0604C32.3302 21.795 32.9218 22.96 32.9253 24.2002L33.0753 24.1998ZM33.0753 27.4V24.2H32.9253V27.4H33.0753ZM29.0003 31.475C31.2497 31.4724 33.0725 29.6495 33.0753 27.4001L32.9253 27.3999C32.9226 29.5666 31.1668 31.3225 29.0001 31.325L29.0003 31.475ZM19.4001 31.475H29.0002V31.325H19.4001V31.475ZM19.4751 36.2001V31.4H19.3251V36.2001H19.4751ZM24.2002 36.1251H19.4001V36.2751H24.2002V36.1251ZM25.8752 37.8001C25.8752 36.875 25.1253 36.1251 24.2002 36.1251V36.2751C25.0424 36.2751 25.7252 36.9578 25.7252 37.8001H25.8752ZM2.67504 8.19995V4.99996H2.52504V8.19995H2.67504ZM5.00006 10.525C3.71594 10.525 2.67504 9.48398 2.67504 8.19995H2.52504C2.52504 9.56682 3.63309 10.675 5.00006 10.675V10.525ZM29.0002 10.525H5.00006V10.675H29.0002V10.525ZM31.3252 8.19995C31.3252 9.48398 30.2843 10.525 29.0002 10.525V10.675C30.3672 10.675 31.4752 9.56682 31.4752 8.19995H31.3252ZM31.3252 4.99996V8.19995H31.4752V4.99996H31.3252ZM29.0002 2.67495C30.2842 2.67495 31.3252 3.71585 31.3252 4.99996H31.4752C31.4752 3.633 30.3671 2.52495 29.0002 2.52495V2.67495ZM5.00006 2.67495H29.0002V2.52495H5.00006V2.67495ZM2.67504 4.99996C2.67504 3.71594 3.71603 2.67495 5.00006 2.67495V2.52495C3.63319 2.52495 2.52504 3.6331 2.52504 4.99996H2.67504ZM2.52504 14.6V17.8H2.67504V14.6H2.52504ZM5.00006 12.125C3.63319 12.125 2.52504 13.2332 2.52504 14.6H2.67504C2.67504 13.316 3.71603 12.275 5.00006 12.275V12.125ZM29.0002 12.125H5.00006V12.275H29.0002V12.125ZM31.4752 14.6C31.4752 13.2332 30.3671 12.125 29.0002 12.125V12.275C30.2842 12.275 31.3252 13.316 31.3252 14.6H31.4752ZM31.4752 17.8V14.6H31.3252V17.8H31.4752ZM29.0002 20.275C30.3672 20.275 31.4752 19.1669 31.4752 17.8H31.3252C31.3252 19.084 30.2843 20.125 29.0002 20.125V20.275ZM5.00006 20.275H29.0002V20.125H5.00006V20.275ZM2.52504 17.8C2.52504 19.1669 3.63309 20.275 5.00006 20.275V20.125C3.71594 20.125 2.67504 19.084 2.67504 17.8H2.52504ZM5.00006 29.7251C3.71603 29.7251 2.67504 28.6842 2.67504 27.4001H2.52504C2.52504 28.767 3.63319 29.8751 5.00006 29.8751V29.7251ZM29.0002 29.7251H5.00006V29.8751H29.0002V29.7251ZM31.3252 27.4001C31.3252 28.6841 30.2843 29.7251 29.0002 29.7251V29.8751C30.3672 29.8751 31.4752 28.7669 31.4752 27.4001H31.3252ZM31.3252 24.2001V27.4001H31.4752V24.2001H31.3252ZM29.0002 21.8751C30.2842 21.8751 31.3252 22.9161 31.3252 24.2001H31.4752C31.4752 22.8332 30.3671 21.7251 29.0002 21.7251V21.8751ZM5.00006 21.8751H29.0002V21.7251H5.00006V21.8751ZM2.67504 24.2001C2.67504 22.9161 3.71603 21.8751 5.00006 21.8751V21.7251C3.63319 21.7251 2.52504 22.8332 2.52504 24.2001H2.67504ZM2.67504 27.4001V24.2001H2.52504V27.4001H2.67504ZM17.8751 36.2002V31.4001H17.7251V36.2002H17.8751ZM16.2001 36.2752H17.8001V36.1252H16.2001V36.2752ZM16.1251 31.4001V36.2002H16.2751V31.4001H16.1251ZM17.8001 31.3251H16.2001V31.4751H17.8001V31.3251ZM24.2002 39.3251H9.80009V39.4751H24.2002V39.3251ZM24.1252 37.8001V39.4001H24.2752V37.8001H24.1252ZM9.80009 37.8751H24.2002V37.7251H9.80009V37.8751ZM9.87509 39.4001V37.8001H9.72509V39.4001H9.87509Z" fill="#161922"/>
<rect x="20" y="9" width="19" height="19" rx="3.84" fill="#3DB249" stroke="#161922" stroke-width="1.5"/>
<path fill-rule="evenodd" clip-rule="evenodd" d="M34.3874 16.7691C33.3313 15.7437 31.6128 15.7436 30.5566 16.7691L29.3417 17.9486L28.1269 16.7691C27.0708 15.7436 25.3522 15.7436 24.296 16.7691C22.5881 18.4273 23.8143 21.2576 26.2115 21.2576C26.9052 21.2576 27.5988 21.0013 28.1269 20.4886L29.3417 19.309L30.5566 20.4886C31.0847 21.0013 31.7783 21.2576 32.472 21.2576C34.8684 21.2576 36.0961 18.428 34.3874 16.7691ZM27.4582 19.8392C26.7707 20.5066 25.6522 20.5066 24.9648 19.8392C24.2774 19.1718 24.2774 18.0858 24.9648 17.4184C25.6522 16.751 26.7707 16.751 27.4582 17.4184L28.7048 18.6288L27.4582 19.8392ZM31.2253 19.8392C31.9128 20.5066 33.0313 20.5066 33.7187 19.8392C34.4061 19.1718 34.4061 18.0858 33.7187 17.4184C33.0313 16.751 31.9127 16.751 31.2253 17.4184L29.9787 18.6288L31.2253 19.8392Z" fill="white"/>
<path d="M30.5566 16.7691L30.3824 16.5897L30.3824 16.5897L30.5566 16.7691ZM34.3874 16.7691L34.5616 16.5897L34.5616 16.5897L34.3874 16.7691ZM29.3417 17.9486L29.1676 18.1279L29.3417 18.297L29.5159 18.1279L29.3417 17.9486ZM28.1269 16.7691L28.3011 16.5897V16.5897L28.1269 16.7691ZM24.296 16.7691L24.1219 16.5897L24.1219 16.5897L24.296 16.7691ZM28.1269 20.4886L28.3011 20.6679L28.3011 20.6679L28.1269 20.4886ZM29.3417 19.309L29.5159 19.1297L29.3417 18.9606L29.1676 19.1297L29.3417 19.309ZM30.5566 20.4886L30.3824 20.6679L30.5566 20.4886ZM24.9648 19.8392L25.139 19.6599L25.139 19.6598L24.9648 19.8392ZM27.4582 19.8392L27.6323 20.0186L27.6323 20.0186L27.4582 19.8392ZM24.9648 17.4184L24.7907 17.239L24.7907 17.239L24.9648 17.4184ZM27.4582 17.4184L27.6323 17.239L27.6323 17.239L27.4582 17.4184ZM28.7048 18.6288L28.879 18.8082L29.0637 18.6288L28.879 18.4494L28.7048 18.6288ZM33.7187 19.8392L33.8928 20.0186L33.8928 20.0186L33.7187 19.8392ZM31.2253 19.8392L31.0512 20.0186L31.0512 20.0186L31.2253 19.8392ZM33.7187 17.4184L33.8928 17.239V17.239L33.7187 17.4184ZM31.2253 17.4184L31.3995 17.5978L31.3995 17.5978L31.2253 17.4184ZM29.9787 18.6288L29.8045 18.4494L29.6198 18.6288L29.8045 18.8082L29.9787 18.6288ZM30.7307 16.9484C31.6899 16.0172 33.2541 16.0172 34.2133 16.9484L34.5616 16.5897C33.4084 15.4701 31.5356 15.4701 30.3824 16.5897L30.7307 16.9484ZM29.5159 18.1279L30.7307 16.9484L30.3824 16.5897L29.1676 17.7692L29.5159 18.1279ZM27.9528 16.9484L29.1676 18.1279L29.5159 17.7692L28.3011 16.5897L27.9528 16.9484ZM24.4702 16.9484C25.4294 16.0172 26.9936 16.0172 27.9528 16.9484L28.3011 16.5897C27.1479 15.4701 25.2751 15.4701 24.1219 16.5897L24.4702 16.9484ZM26.2115 21.0076C24.0209 21.0076 22.9361 18.4379 24.4702 16.9484L24.1219 16.5897C22.2402 18.4167 23.6078 21.5076 26.2115 21.5076V21.0076ZM27.9528 20.3092C27.4741 20.7739 26.8441 21.0076 26.2115 21.0076V21.5076C26.9662 21.5076 27.7235 21.2286 28.3011 20.6679L27.9528 20.3092ZM29.1676 19.1297L27.9528 20.3092L28.3011 20.6679L29.5159 19.4884L29.1676 19.1297ZM30.7307 20.3092L29.5159 19.1297L29.1676 19.4884L30.3824 20.6679L30.7307 20.3092ZM32.472 21.0076C31.8394 21.0076 31.2094 20.7739 30.7307 20.3092L30.3824 20.6679C30.9599 21.2286 31.7173 21.5076 32.472 21.5076V21.0076ZM34.2133 16.9484C35.748 18.4385 34.662 21.0076 32.472 21.0076V21.5076C35.0748 21.5076 36.4442 18.4176 34.5616 16.5897L34.2133 16.9484ZM24.7907 20.0186C25.5751 20.7802 26.8479 20.7801 27.6323 20.0186L27.284 19.6598C26.6936 20.2331 25.7293 20.2331 25.139 19.6599L24.7907 20.0186ZM24.7907 17.239C24.0021 18.0046 24.0021 19.253 24.7907 20.0186L25.139 19.6598C24.5527 19.0906 24.5527 18.167 25.139 17.5978L24.7907 17.239ZM27.6323 17.239C26.8479 16.4774 25.5751 16.4775 24.7907 17.239L25.139 17.5978C25.7294 17.0245 26.6936 17.0245 27.284 17.5978L27.6323 17.239ZM28.879 18.4494L27.6323 17.239L27.284 17.5978L28.5307 18.8082L28.879 18.4494ZM27.6323 20.0186L28.879 18.8082L28.5307 18.4494L27.284 19.6598L27.6323 20.0186ZM33.5445 19.6598C32.9541 20.2331 31.9899 20.2331 31.3995 19.6598L31.0512 20.0186C31.8356 20.7802 33.1084 20.7801 33.8928 20.0186L33.5445 19.6598ZM33.5445 17.5978C34.1308 18.167 34.1308 19.0906 33.5445 19.6598L33.8928 20.0186C34.6814 19.253 34.6814 18.0046 33.8928 17.239L33.5445 17.5978ZM31.3995 17.5978C31.9899 17.0245 32.9541 17.0245 33.5445 17.5978L33.8928 17.239C33.1084 16.4774 31.8356 16.4774 31.0512 17.239L31.3995 17.5978ZM30.1528 18.8082L31.3995 17.5978L31.0512 17.239L29.8045 18.4494L30.1528 18.8082ZM31.3995 19.6598L30.1528 18.4494L29.8045 18.8082L31.0512 20.0186L31.3995 19.6598Z" fill="white"/>
</svg>
