<svg width="26" height="41" viewBox="0 0 26 41" fill="none" xmlns="http://www.w3.org/2000/svg">
<path d="M8.68058 35.9771C8.60069 35.9771 8.52233 35.9523 8.45607 35.9037C8.34364 35.8221 8.28402 35.6853 8.30174 35.547L8.88192 30.9715L5.72243 27.6105C5.6267 27.5086 5.59484 27.3633 5.63811 27.2308C5.68086 27.0983 5.79227 26.9998 5.92956 26.9737L10.4612 26.1113L12.6809 22.0679C12.8154 21.824 13.2159 21.824 13.3503 22.0679L15.57 26.1113L20.1018 26.9737C20.2393 26.9996 20.3507 27.0981 20.3938 27.2306C20.4367 27.3631 20.4045 27.5086 20.3095 27.6103L17.1501 30.9715L17.7296 35.547C17.7477 35.6853 17.6881 35.8221 17.5753 35.9037C17.4629 35.9858 17.314 36.0003 17.1885 35.9403L13.0158 33.9744L8.84308 35.9403C8.79164 35.9649 8.73577 35.9771 8.68058 35.9771Z" fill="#3AB34A"/>
<circle cx="13.0354" cy="28.9646" r="11.2854" stroke="#161922" stroke-width="1.5"/>
<path fill-rule="evenodd" clip-rule="evenodd" d="M9.89648 17.8083L17.4322 1.29245C17.5135 1.1143 17.6913 1 17.8871 1H24.2772C24.645 1 24.8869 1.3837 24.7283 1.71555L16.919 18.0606C16.919 18.0606 15.2328 17.4514 13.4615 17.4514C11.6903 17.4514 9.89648 17.8083 9.89648 17.8083Z" stroke="#161922" stroke-width="1.5"/>
<path fill-rule="evenodd" clip-rule="evenodd" d="M13.0354 10.9488L8.28854 1.27966C8.2045 1.10847 8.03041 1 7.83971 1H1.77387C1.41089 1 1.16887 1.37459 1.31805 1.70549L8.7558 18.2038L9.89707 17.8083L13.0354 10.9488Z" stroke="#161922" stroke-width="1.5"/>
</svg>
