<svg width="108" height="182" viewBox="0 0 108 182" fill="none" xmlns="http://www.w3.org/2000/svg">
<path opacity="0.2" fill-rule="evenodd" clip-rule="evenodd" d="M4.5 9C6.98528 9 9 6.98528 9 4.5C9 2.01472 6.98528 0 4.5 0C2.01472 0 0 2.01472 0 4.5C0 6.98528 2.01472 9 4.5 9ZM29.5 9C31.9853 9 34 6.98528 34 4.5C34 2.01472 31.9853 0 29.5 0C27.0147 0 25 2.01472 25 4.5C25 6.98528 27.0147 9 29.5 9ZM83 4.5C83 6.98528 80.9853 9 78.5 9C76.0147 9 74 6.98528 74 4.5C74 2.01472 76.0147 0 78.5 0C80.9853 0 83 2.01472 83 4.5ZM54.5 9C56.9853 9 59 6.98528 59 4.5C59 2.01472 56.9853 0 54.5 0C52.0147 0 50 2.01472 50 4.5C50 6.98528 52.0147 9 54.5 9ZM108 4.5C108 6.98528 105.985 9 103.5 9C101.015 9 99 6.98528 99 4.5C99 2.01472 101.015 0 103.5 0C105.985 0 108 2.01472 108 4.5ZM29.5 34C31.9853 34 34 31.9853 34 29.5C34 27.0147 31.9853 25 29.5 25C27.0147 25 25 27.0147 25 29.5C25 31.9853 27.0147 34 29.5 34ZM9 29.5C9 31.9853 6.98528 34 4.5 34C2.01472 34 0 31.9853 0 29.5C0 27.0147 2.01472 25 4.5 25C6.98528 25 9 27.0147 9 29.5ZM78.5 34C80.9853 34 83 31.9853 83 29.5C83 27.0147 80.9853 25 78.5 25C76.0147 25 74 27.0147 74 29.5C74 31.9853 76.0147 34 78.5 34ZM59 29.5C59 31.9853 56.9853 34 54.5 34C52.0147 34 50 31.9853 50 29.5C50 27.0147 52.0147 25 54.5 25C56.9853 25 59 27.0147 59 29.5ZM103.5 34C105.985 34 108 31.9853 108 29.5C108 27.0147 105.985 25 103.5 25C101.015 25 99 27.0147 99 29.5C99 31.9853 101.015 34 103.5 34ZM34 54.5C34 56.9853 31.9853 59 29.5 59C27.0147 59 25 56.9853 25 54.5C25 52.0147 27.0147 50 29.5 50C31.9853 50 34 52.0147 34 54.5ZM4.5 59C6.98528 59 9 56.9853 9 54.5C9 52.0147 6.98528 50 4.5 50C2.01472 50 0 52.0147 0 54.5C0 56.9853 2.01472 59 4.5 59ZM83 54.5C83 56.9853 80.9853 59 78.5 59C76.0147 59 74 56.9853 74 54.5C74 52.0147 76.0147 50 78.5 50C80.9853 50 83 52.0147 83 54.5ZM54.5 59C56.9853 59 59 56.9853 59 54.5C59 52.0147 56.9853 50 54.5 50C52.0147 50 50 52.0147 50 54.5C50 56.9853 52.0147 59 54.5 59ZM108 54.5C108 56.9853 105.985 59 103.5 59C101.015 59 99 56.9853 99 54.5C99 52.0147 101.015 50 103.5 50C105.985 50 108 52.0147 108 54.5ZM29.5 83C31.9853 83 34 80.9853 34 78.5C34 76.0147 31.9853 74 29.5 74C27.0147 74 25 76.0147 25 78.5C25 80.9853 27.0147 83 29.5 83ZM9 78.5C9 80.9853 6.98528 83 4.5 83C2.01472 83 0 80.9853 0 78.5C0 76.0147 2.01472 74 4.5 74C6.98528 74 9 76.0147 9 78.5ZM78.5 83C80.9853 83 83 80.9853 83 78.5C83 76.0147 80.9853 74 78.5 74C76.0147 74 74 76.0147 74 78.5C74 80.9853 76.0147 83 78.5 83ZM59 78.5C59 80.9853 56.9853 83 54.5 83C52.0147 83 50 80.9853 50 78.5C50 76.0147 52.0147 74 54.5 74C56.9853 74 59 76.0147 59 78.5ZM103.5 83C105.985 83 108 80.9853 108 78.5C108 76.0147 105.985 74 103.5 74C101.015 74 99 76.0147 99 78.5C99 80.9853 101.015 83 103.5 83ZM34 103.5C34 105.985 31.9853 108 29.5 108C27.0147 108 25 105.985 25 103.5C25 101.015 27.0147 99 29.5 99C31.9853 99 34 101.015 34 103.5ZM4.5 108C6.98528 108 9 105.985 9 103.5C9 101.015 6.98528 99 4.5 99C2.01472 99 0 101.015 0 103.5C0 105.985 2.01472 108 4.5 108ZM83 103.5C83 105.985 80.9853 108 78.5 108C76.0147 108 74 105.985 74 103.5C74 101.015 76.0147 99 78.5 99C80.9853 99 83 101.015 83 103.5ZM54.5 108C56.9853 108 59 105.985 59 103.5C59 101.015 56.9853 99 54.5 99C52.0147 99 50 101.015 50 103.5C50 105.985 52.0147 108 54.5 108ZM108 103.5C108 105.985 105.985 108 103.5 108C101.015 108 99 105.985 99 103.5C99 101.015 101.015 99 103.5 99C105.985 99 108 101.015 108 103.5ZM29.5 132C31.9853 132 34 129.985 34 127.5C34 125.015 31.9853 123 29.5 123C27.0147 123 25 125.015 25 127.5C25 129.985 27.0147 132 29.5 132ZM9 127.5C9 129.985 6.98528 132 4.5 132C2.01472 132 0 129.985 0 127.5C0 125.015 2.01472 123 4.5 123C6.98528 123 9 125.015 9 127.5ZM78.5 132C80.9853 132 83 129.985 83 127.5C83 125.015 80.9853 123 78.5 123C76.0147 123 74 125.015 74 127.5C74 129.985 76.0147 132 78.5 132ZM59 127.5C59 129.985 56.9853 132 54.5 132C52.0147 132 50 129.985 50 127.5C50 125.015 52.0147 123 54.5 123C56.9853 123 59 125.015 59 127.5ZM103.5 132C105.985 132 108 129.985 108 127.5C108 125.015 105.985 123 103.5 123C101.015 123 99 125.015 99 127.5C99 129.985 101.015 132 103.5 132ZM34 152.5C34 154.985 31.9853 157 29.5 157C27.0147 157 25 154.985 25 152.5C25 150.015 27.0147 148 29.5 148C31.9853 148 34 150.015 34 152.5ZM4.5 157C6.98528 157 9 154.985 9 152.5C9 150.015 6.98528 148 4.5 148C2.01472 148 0 150.015 0 152.5C0 154.985 2.01472 157 4.5 157ZM83 152.5C83 154.985 80.9853 157 78.5 157C76.0147 157 74 154.985 74 152.5C74 150.015 76.0147 148 78.5 148C80.9853 148 83 150.015 83 152.5ZM54.5 157C56.9853 157 59 154.985 59 152.5C59 150.015 56.9853 148 54.5 148C52.0147 148 50 150.015 50 152.5C50 154.985 52.0147 157 54.5 157ZM108 152.5C108 154.985 105.985 157 103.5 157C101.015 157 99 154.985 99 152.5C99 150.015 101.015 148 103.5 148C105.985 148 108 150.015 108 152.5ZM29.5 182C31.9853 182 34 179.985 34 177.5C34 175.015 31.9853 173 29.5 173C27.0147 173 25 175.015 25 177.5C25 179.985 27.0147 182 29.5 182ZM9 177.5C9 179.985 6.98528 182 4.5 182C2.01472 182 0 179.985 0 177.5C0 175.015 2.01472 173 4.5 173C6.98528 173 9 175.015 9 177.5ZM78.5 182C80.9853 182 83 179.985 83 177.5C83 175.015 80.9853 173 78.5 173C76.0147 173 74 175.015 74 177.5C74 179.985 76.0147 182 78.5 182ZM59 177.5C59 179.985 56.9853 182 54.5 182C52.0147 182 50 179.985 50 177.5C50 175.015 52.0147 173 54.5 173C56.9853 173 59 175.015 59 177.5ZM103.5 182C105.985 182 108 179.985 108 177.5C108 175.015 105.985 173 103.5 173C101.015 173 99 175.015 99 177.5C99 179.985 101.015 182 103.5 182Z" fill="#79809B"/>
</svg>
