<svg width="38" height="57" viewBox="0 0 38 57" fill="none" xmlns="http://www.w3.org/2000/svg">
<path d="M3.61308 6.82275H1.6338C0.731478 6.82275 0 7.55423 0 8.45656V45.9836C0.00396265 46.8831 0.734281 47.6102 1.6338 47.6102H13.7614" stroke="#072245" stroke-width="1.5" stroke-linecap="round"/>
<path d="M30.229 6.82275H32.6113C33.5137 6.82275 34.2451 7.55423 34.2451 8.45656V29.221" stroke="#072245" stroke-width="1.5" stroke-linecap="round"/>
<path fill-rule="evenodd" clip-rule="evenodd" d="M6.02441 7.62881V6.98824C6.02441 5.79574 6.99113 4.82903 8.18362 4.82903H14.2438V3.96535C14.2438 3.1764 14.5582 2.41997 15.1174 1.86345C15.6766 1.30693 16.4346 0.996205 17.2235 1.00003V1.00003C18.8612 1.00003 20.1888 2.32765 20.1888 3.96535V4.81464H26.0475C27.24 4.81464 28.2067 5.78135 28.2067 6.97385V9.0179H6.02441V7.62881Z" stroke="#072245" stroke-width="1.5" stroke-linecap="round"/>
<path d="M4.21777 16.2656L5.74361 17.7483C5.90241 17.9009 6.15341 17.9009 6.31221 17.7483L9.04001 15.15" stroke="#072245" stroke-width="1.5" stroke-linecap="round"/>
<path d="M12.5522 15.1572H18.9507" stroke="#072245" stroke-width="1.5" stroke-linecap="round"/>
<path d="M12.5522 17.6691H29.4589" stroke="#072245" stroke-width="1.5" stroke-linecap="round"/>
<path d="M4.21777 24.2978L5.74361 25.7805C5.90085 25.937 6.15497 25.937 6.31221 25.7805L9.04001 23.1895" stroke="#072245" stroke-width="1.5" stroke-linecap="round"/>
<path d="M4.21777 33.2227L5.74361 34.7053C5.90241 34.8579 6.15341 34.8579 6.31221 34.7053L9.04001 32.1143" stroke="#072245" stroke-width="1.5" stroke-linecap="round"/>
<path d="M12.5522 23.1967H18.9507" stroke="#072245" stroke-width="1.5" stroke-linecap="round"/>
<path d="M12.5522 25.7086H29.4589" stroke="#072245" stroke-width="1.5" stroke-linecap="round"/>
<path d="M26.9594 56C26.9594 56 37.1391 51.4996 37.1391 42.4969C37.1391 38.8962 37.1391 34.8786 37.1391 34.8786L26.9594 31.7627L16.7798 34.8786V42.4969C16.7798 51.4996 26.9594 56 26.9594 56Z" fill="#00A893" stroke="#072245" stroke-width="1.5"/>
<path d="M25.9023 46.9668L22.146 43.0539L23.7558 41.377L25.9023 43.6129L31.2684 38.0232L32.8783 39.7001L25.9023 46.9668Z" fill="white"/>
</svg>
