<svg width="63" height="42" viewBox="0 0 63 42" fill="none" xmlns="http://www.w3.org/2000/svg">
<path fill-rule="evenodd" clip-rule="evenodd" d="M3.49981 1H39.9619C41.8948 1 43.4617 2.56692 43.4617 4.49981V37.5002C43.4617 39.4331 41.8948 41 39.9619 41H3.49981C1.56692 41 0 39.4331 0 37.5002V4.49981C0 2.56692 1.56692 1 3.49981 1Z" stroke="#131F37" stroke-width="1.5" stroke-linecap="square" stroke-linejoin="round"/>
<path d="M0 11.141H43.4617" stroke="#131F37" stroke-width="1.5" stroke-linecap="square"/>
<path d="M5.83301 6.07048H13.801" stroke="#131F37" stroke-width="1.5" stroke-linecap="round"/>
<path d="M8.16621 16.7491H34.9981C36.2867 16.7491 37.3313 17.7938 37.3313 19.0824V33.0816C37.3313 34.3702 36.2867 35.4148 34.9981 35.4148H8.16621C6.87762 35.4148 5.83301 34.3702 5.83301 33.0816V19.0824C5.83301 17.7938 6.87762 16.7491 8.16621 16.7491Z" fill="#00A893"/>
<rect x="27.582" y="7.58301" width="34.6647" height="14.8324" rx="1.25" fill="white" stroke="#072245" stroke-width="1.5"/>
<path fill-rule="evenodd" clip-rule="evenodd" d="M35.8641 16.3094L35.9461 17.7585H34.5175L34.5927 16.3094L33.3828 17.1091L32.665 15.8719L33.9638 15.2157L32.665 14.5595L33.3828 13.3222L34.5927 14.122L34.5175 12.666H35.9461L35.8641 14.1152L37.074 13.3222L37.7917 14.5595L36.493 15.2157L37.7917 15.8651L37.0808 17.1023L35.8641 16.3094ZM42.351 16.3094L42.4331 17.7585H41.0044L41.0796 16.3094L39.8697 17.1091L39.152 15.8719L40.4507 15.2157L39.152 14.5595L39.8697 13.3222L41.0796 14.122L41.0044 12.666H42.4331L42.351 14.1152L43.5609 13.3222L44.2787 14.5595L42.9799 15.2157L44.2787 15.8651L43.5678 17.1023L42.351 16.3094ZM48.92 17.7585L48.838 16.3094L50.0547 17.1023L50.7656 15.8651L49.4669 15.2157L50.7656 14.5595L50.0479 13.3222L48.838 14.1152L48.92 12.666H47.4914L47.5666 14.122L46.3567 13.3222L45.6389 14.5595L46.9377 15.2157L45.6389 15.8719L46.3567 17.1091L47.5666 16.3094L47.4914 17.7585H48.92ZM55.3249 16.3094L55.407 17.7585H53.9783L54.0535 16.3094L52.8436 17.1091L52.1259 15.8719L53.4247 15.2157L52.1259 14.5595L52.8436 13.3222L54.0535 14.122L53.9783 12.666H55.407L55.3249 14.1152L56.5348 13.3222L57.2526 14.5595L55.9538 15.2157L57.2526 15.8651L56.5417 17.1023L55.3249 16.3094Z" fill="#072245"/>
</svg>
