<svg width="32" height="51" viewBox="0 0 32 51" fill="none" xmlns="http://www.w3.org/2000/svg">
<path d="M10.6012 44.7214C10.5013 44.7214 10.4034 44.6903 10.3206 44.6297C10.18 44.5277 10.1055 44.3567 10.1277 44.1838L10.8529 38.4644L6.90352 34.2631C6.78386 34.1358 6.74404 33.9541 6.79812 33.7885C6.85157 33.6228 6.99082 33.4998 7.16244 33.4672L12.8269 32.3891L15.6016 27.3349C15.7698 27.03 16.2704 27.03 16.4384 27.3349L19.213 32.3891L24.8777 33.4672C25.0496 33.4995 25.1888 33.6226 25.2427 33.7883C25.2964 33.9539 25.2561 34.1358 25.1373 34.2629L21.1881 38.4644L21.9125 44.1838C21.9351 44.3567 21.8606 44.5277 21.7196 44.6297C21.5791 44.7323 21.393 44.7504 21.2361 44.6754L16.0202 42.218L10.8043 44.6754C10.74 44.7061 10.6702 44.7214 10.6012 44.7214Z" fill="#00A893"/>
<circle cx="16.0442" cy="35.9557" r="14.2942" stroke="#072245" stroke-width="1.5"/>
<path fill-rule="evenodd" clip-rule="evenodd" d="M12.1216 22.0103L21.5746 1.29245C21.6559 1.1143 21.8337 1 22.0295 1H30.2957C30.6635 1 30.9054 1.3837 30.7469 1.71555L20.8997 22.3257C20.8997 22.3257 18.7919 21.5643 16.5779 21.5643C14.3639 21.5643 12.1216 22.0103 12.1216 22.0103Z" stroke="#072245" stroke-width="1.5"/>
<path fill-rule="evenodd" clip-rule="evenodd" d="M16.0442 13.436L10.0764 1.27966C9.99231 1.10847 9.81822 1 9.62752 1H1.77387C1.41089 1 1.16887 1.37459 1.31805 1.70549L10.6947 22.5048L12.1213 22.0103L16.0442 13.436Z" stroke="#072245" stroke-width="1.5"/>
</svg>
