<svg width="50" height="51" viewBox="0 0 50 51" fill="none" xmlns="http://www.w3.org/2000/svg">
<path d="M32.6618 9.44297H34.7726C35.3555 9.44297 35.828 8.97039 35.828 8.38762C35.828 7.80485 35.3554 7.33228 34.7726 7.33228H32.6618C32.0789 7.33228 31.6064 7.80473 31.6064 8.38762C31.6064 8.97052 32.0789 9.44297 32.6618 9.44297Z" fill="black"/>
<path d="M26.3293 9.44297H28.4401C29.023 9.44297 29.4954 8.97039 29.4954 8.38762C29.4954 7.80485 29.023 7.33228 28.4401 7.33228H26.3293C25.7464 7.33228 25.2739 7.80473 25.2739 8.38762C25.2739 8.97052 25.7464 9.44297 26.3293 9.44297Z" fill="black"/>
<path fill-rule="evenodd" clip-rule="evenodd" d="M13.6648 8.3876C13.6648 10.1362 12.2472 11.5538 10.4987 11.5538C8.75012 11.5538 7.33252 10.1363 7.33252 8.3876C7.33252 6.63891 8.75012 5.22144 10.4987 5.22144C12.2472 5.22144 13.6648 6.63903 13.6648 8.3876ZM11.554 8.3876C11.554 7.8047 11.0816 7.33225 10.4987 7.33225C9.91578 7.33225 9.44333 7.80482 9.44333 8.3876C9.44333 8.97037 9.91578 9.44294 10.4987 9.44294C11.0816 9.44294 11.554 8.97049 11.554 8.3876Z" fill="black"/>
<path d="M10.4987 11.8197C12.3941 11.8197 13.9308 10.283 13.9308 8.3876H13.3989C13.3989 9.98927 12.1004 11.2878 10.4987 11.2878V11.8197ZM7.06656 8.3876C7.06656 10.2832 8.60324 11.8197 10.4987 11.8197V11.2878C8.897 11.2878 7.59848 9.98939 7.59848 8.3876H7.06656ZM10.4987 4.95548C8.60324 4.95548 7.06656 6.49202 7.06656 8.3876H7.59848C7.59848 6.7858 8.897 5.48739 10.4987 5.48739V4.95548ZM13.9308 8.3876C13.9308 6.49215 12.3941 4.95548 10.4987 4.95548V5.48739C12.1004 5.48739 13.3989 6.78592 13.3989 8.3876H13.9308ZM10.4987 7.59821C10.9347 7.59821 11.2881 7.95158 11.2881 8.3876H11.82C11.82 7.65782 11.2285 7.06629 10.4987 7.06629V7.59821ZM9.70929 8.3876C9.70929 7.95169 10.0627 7.59821 10.4987 7.59821V7.06629C9.76888 7.06629 9.17738 7.65796 9.17738 8.3876H9.70929ZM10.4987 9.17698C10.0627 9.17698 9.70929 8.8235 9.70929 8.3876H9.17738C9.17738 9.11723 9.76888 9.7089 10.4987 9.7089V9.17698ZM11.2881 8.3876C11.2881 8.82361 10.9347 9.17698 10.4987 9.17698V9.7089C11.2285 9.7089 11.82 9.11737 11.82 8.3876H11.2881Z" fill="white"/>
<path fill-rule="evenodd" clip-rule="evenodd" d="M13.6648 21.0521C13.6648 22.8008 12.2472 24.2183 10.4987 24.2183C8.75012 24.2183 7.33252 22.8008 7.33252 21.0521C7.33252 19.3035 8.75012 17.886 10.4987 17.886C12.2472 17.886 13.6648 19.3036 13.6648 21.0521ZM11.554 21.0521C11.554 20.4693 11.0816 19.9968 10.4987 19.9968C9.91578 19.9968 9.44333 20.4693 9.44333 21.0521C9.44333 21.635 9.91578 22.1075 10.4987 22.1075C11.0816 22.1075 11.554 21.635 11.554 21.0521Z" fill="black"/>
<path d="M10.4987 24.4843C12.3941 24.4843 13.9308 22.9477 13.9308 21.0521H13.3989C13.3989 22.6539 12.1004 23.9523 10.4987 23.9523V24.4843ZM7.06656 21.0521C7.06656 22.9477 8.60324 24.4843 10.4987 24.4843V23.9523C8.897 23.9523 7.59848 22.6539 7.59848 21.0521H7.06656ZM10.4987 17.62C8.60324 17.62 7.06656 19.1566 7.06656 21.0521H7.59848C7.59848 19.4504 8.897 18.1519 10.4987 18.1519V17.62ZM13.9308 21.0521C13.9308 19.1567 12.3941 17.62 10.4987 17.62V18.1519C12.1004 18.1519 13.3989 19.4505 13.3989 21.0521H13.9308ZM10.4987 20.2628C10.9347 20.2628 11.2881 20.6161 11.2881 21.0521H11.82C11.82 20.3224 11.2285 19.7308 10.4987 19.7308V20.2628ZM9.70929 21.0521C9.70929 20.6161 10.0627 20.2628 10.4987 20.2628V19.7308C9.7689 19.7308 9.17738 20.3224 9.17738 21.0521H9.70929ZM10.4987 21.8415C10.0627 21.8415 9.70929 21.4882 9.70929 21.0521H9.17738C9.17738 21.7819 9.7689 22.3734 10.4987 22.3734V21.8415ZM11.2881 21.0521C11.2881 21.4882 10.9347 21.8415 10.4987 21.8415V22.3734C11.2285 22.3734 11.82 21.7819 11.82 21.0521H11.2881Z" fill="white"/>
<path d="M34.7726 32.6615H32.6618C32.0789 32.6615 31.6064 33.1339 31.6064 33.7168C31.6064 34.2997 32.0789 34.7722 32.6618 34.7722H34.7726C35.3555 34.7722 35.828 34.2997 35.828 33.7168C35.828 33.1339 35.3555 32.6615 34.7726 32.6615Z" fill="black"/>
<path d="M28.4401 32.6615H26.3293C25.7464 32.6615 25.2739 33.1339 25.2739 33.7168C25.2739 34.2997 25.7464 34.7722 26.3293 34.7722H28.4401C29.023 34.7722 29.4954 34.2997 29.4954 33.7168C29.4954 33.1339 29.023 32.6615 28.4401 32.6615Z" fill="black"/>
<path fill-rule="evenodd" clip-rule="evenodd" d="M7.33252 33.7168C7.33252 31.9683 8.75012 30.5507 10.4987 30.5507C12.2474 30.5507 13.6648 31.9681 13.6648 33.7168C13.6648 35.4655 12.2474 36.883 10.4987 36.883C8.74999 36.883 7.33252 35.4654 7.33252 33.7168ZM9.44333 33.7169C9.44333 34.2998 9.91578 34.7723 10.4987 34.7723C11.0816 34.7723 11.554 34.2998 11.554 33.7169C11.554 33.134 11.0816 32.6616 10.4987 32.6616C9.91578 32.6616 9.44333 33.134 9.44333 33.7169Z" fill="black"/>
<path d="M10.4987 30.2847C8.60323 30.2847 7.06656 31.8214 7.06656 33.7168H7.59848C7.59848 32.1151 8.897 30.8166 10.4987 30.8166V30.2847ZM13.9308 33.7168C13.9308 31.8212 12.3942 30.2847 10.4987 30.2847V30.8166C12.1005 30.8166 13.3989 32.115 13.3989 33.7168H13.9308ZM10.4987 37.1489C12.3942 37.1489 13.9308 35.6124 13.9308 33.7168H13.3989C13.3989 35.3186 12.1005 36.617 10.4987 36.617V37.1489ZM7.06656 33.7168C7.06656 35.6123 8.6031 37.1489 10.4987 37.1489V36.617C8.89689 36.617 7.59848 35.3185 7.59848 33.7168H7.06656ZM10.4987 34.5063C10.0627 34.5063 9.70929 34.153 9.70929 33.7169H9.17738C9.17738 34.4467 9.7689 35.0382 10.4987 35.0382V34.5063ZM11.2881 33.7169C11.2881 34.153 10.9347 34.5063 10.4987 34.5063V35.0382C11.2285 35.0382 11.82 34.4467 11.82 33.7169H11.2881ZM10.4987 32.9276C10.9347 32.9276 11.2881 33.2809 11.2881 33.7169H11.82C11.82 32.9872 11.2285 32.3956 10.4987 32.3956V32.9276ZM9.70929 33.7169C9.70929 33.2809 10.0627 32.9276 10.4987 32.9276V32.3956C9.7689 32.3956 9.17738 32.9872 9.17738 33.7169H9.70929Z" fill="white"/>
<path fill-rule="evenodd" clip-rule="evenodd" d="M37.9386 41.1045H25.2739H18.9416H6.27697C3.36398 41.1008 1.00346 38.7403 1 35.8274V31.6059C1.0047 29.9385 1.79995 28.3721 3.14347 27.3844C1.80007 26.3967 1.0047 24.8303 1 23.1629V18.9414C1.0047 17.2739 1.79995 15.7076 3.14347 14.7199C1.80007 13.7322 1.0047 12.1658 1 10.4984V6.27685C1.00346 3.36386 3.36398 1.00334 6.27697 1H37.9386C40.8516 1.00359 43.2121 3.36411 43.2155 6.27697V10.4985C43.2108 12.1659 42.4156 13.7323 41.0721 14.72C42.4155 15.7077 43.2108 17.2741 43.2155 18.9415V23.163C43.2108 24.8304 42.4156 26.3968 41.0721 27.3845C42.4155 28.3722 43.2108 29.9386 43.2155 31.606V35.8275C43.212 38.7405 40.8514 41.101 37.9386 41.1045ZM3.11081 6.27685V10.4984C3.11081 12.2469 4.52829 13.6645 6.27697 13.6645H37.9386C39.6873 13.6645 41.1047 12.2469 41.1047 10.4984V6.27685C41.1047 4.52817 39.6871 3.11069 37.9386 3.11069H6.27697C4.52841 3.11069 3.11081 4.52829 3.11081 6.27685ZM3.11081 23.163V18.9415C3.11081 17.1929 4.52841 15.7753 6.27697 15.7753H37.9386C39.6871 15.7753 41.1047 17.1929 41.1047 18.9415V23.163C41.1047 24.9116 39.6873 26.3292 37.9386 26.3292H6.27697C4.52829 26.3292 3.11081 24.9116 3.11081 23.163ZM3.11081 35.8276C3.11081 37.5763 4.52841 38.9938 6.27697 38.9938H37.9386C39.6873 38.9938 41.1047 37.5762 41.1047 35.8276V31.6061C41.1047 29.8576 39.6871 28.44 37.9386 28.44H6.27697C4.52841 28.44 3.11081 29.8576 3.11081 31.6061V35.8276Z" fill="#131F37"/>
<path d="M37.9386 41.1045V41.3704H37.9389L37.9386 41.1045ZM6.27697 41.1045L6.27664 41.3704H6.27697V41.1045ZM1 35.8274H0.734042L0.734043 35.8277L1 35.8274ZM1 31.6059L0.734043 31.6051V31.6059H1ZM3.14347 27.3844L3.301 27.5987L3.59246 27.3844L3.30101 27.1701L3.14347 27.3844ZM1 23.1629H0.734042L0.734044 23.1636L1 23.1629ZM1 18.9414L0.734043 18.9406V18.9414H1ZM3.14347 14.7199L3.301 14.9341L3.59246 14.7199L3.30101 14.5056L3.14347 14.7199ZM1 10.4984H0.734042L0.734044 10.4991L1 10.4984ZM1 6.27685L0.734043 6.27654V6.27685H1ZM6.27697 1V0.734042L6.27667 0.734043L6.27697 1ZM37.9386 1L37.9389 0.734043H37.9386V1ZM43.2155 6.27697H43.4815V6.27666L43.2155 6.27697ZM43.2155 10.4985L43.4815 10.4992V10.4985H43.2155ZM41.0721 14.72L40.9146 14.5057L40.6231 14.72L40.9145 14.9343L41.0721 14.72ZM43.2155 18.9415H43.4815V18.9407L43.2155 18.9415ZM43.2155 23.163L43.4815 23.1637V23.163H43.2155ZM41.0721 27.3845L40.9146 27.1702L40.6231 27.3845L40.9145 27.5988L41.0721 27.3845ZM43.2155 31.606H43.4815V31.6053L43.2155 31.606ZM43.2155 35.8275L43.4815 35.8278V35.8275H43.2155ZM25.2739 41.3704H37.9386V40.8385H25.2739V41.3704ZM18.9416 41.3704H25.2739V40.8385H18.9416V41.3704ZM6.27697 41.3704H18.9416V40.8385H6.27697V41.3704ZM0.734043 35.8277C0.73768 38.8872 3.21703 41.3665 6.27664 41.3704L6.27731 40.8385C3.51093 40.835 1.26925 38.5933 1.26596 35.8271L0.734043 35.8277ZM0.734043 31.6059V35.8274H1.26596V31.6059H0.734043ZM2.98593 27.1701C1.57445 28.2078 0.738981 29.8534 0.734044 31.6051L1.26596 31.6066C1.27042 30.0235 2.02545 28.5364 3.301 27.5987L2.98593 27.1701ZM0.734044 23.1636C0.738981 24.9154 1.57459 26.561 2.98592 27.5987L3.30101 27.1701C2.02556 26.2324 1.27042 24.7452 1.26596 23.1621L0.734044 23.1636ZM0.734043 18.9414V23.1629H1.26596V18.9414H0.734043ZM2.98593 14.5056C1.57445 15.5432 0.738981 17.1889 0.734044 18.9406L1.26596 18.9421C1.27042 17.359 2.02545 15.8719 3.301 14.9341L2.98593 14.5056ZM0.734044 10.4991C0.738981 12.2509 1.57459 13.8965 2.98592 14.9341L3.30101 14.5056C2.02556 13.5678 1.27042 12.0807 1.26596 10.4976L0.734044 10.4991ZM0.734043 6.27685V10.4984H1.26596V6.27685H0.734043ZM6.27667 0.734043C3.21703 0.73755 0.73768 3.21691 0.734043 6.27654L1.26596 6.27717C1.26925 3.51081 3.51094 1.26913 6.27728 1.26596L6.27667 0.734043ZM37.9386 0.734043H6.27697V1.26596H37.9386V0.734043ZM43.4815 6.27666C43.4779 3.21715 40.9985 0.73781 37.9389 0.734043L37.9382 1.26596C40.7046 1.26936 42.9463 3.51107 42.9496 6.27729L43.4815 6.27666ZM43.4815 10.4985V6.27697H42.9496V10.4985H43.4815ZM41.2296 14.9343C42.6411 13.8966 43.4766 12.251 43.4815 10.4992L42.9496 10.4977C42.9451 12.0808 42.1901 13.568 40.9146 14.5057L41.2296 14.9343ZM43.4815 18.9407C43.4766 17.189 42.641 15.5434 41.2296 14.5057L40.9145 14.9343C42.19 15.872 42.9451 17.3592 42.9496 18.9422L43.4815 18.9407ZM43.4815 23.163V18.9415H42.9496V23.163H43.4815ZM41.2296 27.5988C42.6411 26.5611 43.4766 24.9155 43.4815 23.1637L42.9496 23.1622C42.9451 24.7453 42.1901 26.2325 40.9146 27.1702L41.2296 27.5988ZM43.4815 31.6053C43.4766 29.8535 42.641 28.2079 41.2296 27.1702L40.9145 27.5988C42.19 28.5365 42.9451 30.0237 42.9496 31.6068L43.4815 31.6053ZM43.4815 35.8275V31.606H42.9496V35.8275H43.4815ZM37.9389 41.3704C40.9984 41.3668 43.4777 38.8875 43.4815 35.8278L42.9496 35.8272C42.9462 38.5936 40.7045 40.8352 37.9383 40.8385L37.9389 41.3704ZM3.37677 10.4984V6.27685H2.84486V10.4984H3.37677ZM6.27697 13.3986C4.67518 13.3986 3.37677 12.1 3.37677 10.4984H2.84486C2.84486 12.3938 4.3814 13.9305 6.27697 13.9305V13.3986ZM37.9386 13.3986H6.27697V13.9305H37.9386V13.3986ZM40.8388 10.4984C40.8388 12.1 39.5404 13.3986 37.9386 13.3986V13.9305C39.8342 13.9305 41.3707 12.3938 41.3707 10.4984H40.8388ZM40.8388 6.27685V10.4984H41.3707V6.27685H40.8388ZM37.9386 3.37665C39.5403 3.37665 40.8388 4.67506 40.8388 6.27685H41.3707C41.3707 4.38128 39.834 2.84473 37.9386 2.84473V3.37665ZM6.27697 3.37665H37.9386V2.84473H6.27697V3.37665ZM3.37677 6.27685C3.37677 4.67517 4.6753 3.37665 6.27697 3.37665V2.84473C4.38153 2.84473 2.84486 4.38141 2.84486 6.27685H3.37677ZM2.84486 18.9415V23.163H3.37677V18.9415H2.84486ZM6.27697 15.5094C4.38153 15.5094 2.84486 17.046 2.84486 18.9415H3.37677C3.37677 17.3398 4.6753 16.0413 6.27697 16.0413V15.5094ZM37.9386 15.5094H6.27697V16.0413H37.9386V15.5094ZM41.3707 18.9415C41.3707 17.046 39.834 15.5094 37.9386 15.5094V16.0413C39.5403 16.0413 40.8388 17.3398 40.8388 18.9415H41.3707ZM41.3707 23.163V18.9415H40.8388V23.163H41.3707ZM37.9386 26.5951C39.8342 26.5951 41.3707 25.0584 41.3707 23.163H40.8388C40.8388 24.7647 39.5404 26.0632 37.9386 26.0632V26.5951ZM6.27697 26.5951H37.9386V26.0632H6.27697V26.5951ZM2.84486 23.163C2.84486 25.0584 4.3814 26.5951 6.27697 26.5951V26.0632C4.67518 26.0632 3.37677 24.7647 3.37677 23.163H2.84486ZM6.27697 38.7278C4.67529 38.7278 3.37677 37.4294 3.37677 35.8276H2.84486C2.84486 37.7232 4.38154 39.2598 6.27697 39.2598V38.7278ZM37.9386 38.7278H6.27697V39.2598H37.9386V38.7278ZM40.8388 35.8276C40.8388 37.4293 39.5404 38.7278 37.9386 38.7278V39.2598C39.8342 39.2598 41.3707 37.7231 41.3707 35.8276H40.8388ZM40.8388 31.6061V35.8276H41.3707V31.6061H40.8388ZM37.9386 28.7059C39.5403 28.7059 40.8388 30.0045 40.8388 31.6061H41.3707C41.3707 29.7107 39.834 28.174 37.9386 28.174V28.7059ZM6.27697 28.7059H37.9386V28.174H6.27697V28.7059ZM3.37677 31.6061C3.37677 30.0045 4.6753 28.7059 6.27697 28.7059V28.174C4.38153 28.174 2.84486 29.7107 2.84486 31.6061H3.37677ZM3.37677 35.8276V31.6061H2.84486V35.8276H3.37677Z" fill="white"/>
<path d="M36.5076 49.6207C36.5076 49.6207 48.6162 44.2676 48.6162 33.5589C48.6162 29.2759 48.6162 24.497 48.6162 24.497L36.5076 20.7906L24.3989 24.497V33.5589C24.3989 44.2676 36.5076 49.6207 36.5076 49.6207Z" fill="#00A893" stroke="#131F37" stroke-width="1.59574"/>
<path d="M35.2498 38.8757L30.7817 34.2215L32.6966 32.2268L35.2498 34.8864L41.6328 28.2374L43.5477 30.2321L35.2498 38.8757Z" fill="white"/>
</svg>
