<svg width="31" height="44" viewBox="0 0 31 44" fill="none" xmlns="http://www.w3.org/2000/svg">
<path d="M3.75908 5.44641H2.24763C1.55858 5.44641 1 6.00499 1 6.69404V35.3511C1.00303 36.038 1.56072 36.5932 2.24763 36.5932H11.5087" stroke="#161922" stroke-width="1.5" stroke-linecap="round"/>
<path d="M24.084 5.44641H25.9032C26.5923 5.44641 27.1508 6.00499 27.1508 6.69404V22.5505" stroke="#161922" stroke-width="1.5" stroke-linecap="round"/>
<path fill-rule="evenodd" clip-rule="evenodd" d="M5.59961 6.062V5.57284C5.59961 4.6622 6.33783 3.92399 7.24846 3.92399H11.8762V3.26445C11.8762 2.66198 12.1163 2.08434 12.5434 1.65936C12.9704 1.23438 13.5492 0.997102 14.1516 1.00003V1.00003C15.4023 1.00003 16.4161 2.01384 16.4161 3.26445V3.913H20.89C21.8006 3.913 22.5388 4.65121 22.5388 5.56185V7.12276H5.59961V6.062Z" stroke="#161922" stroke-width="1.5" stroke-linecap="round"/>
<path d="M4.2207 12.6574L5.38589 13.7896C5.50716 13.9062 5.69882 13.9062 5.82009 13.7896L7.90314 11.8055" stroke="#161922" stroke-width="1.5" stroke-linecap="round"/>
<path d="M10.5859 11.811H15.472" stroke="#161922" stroke-width="1.5" stroke-linecap="round"/>
<path d="M10.5859 14.7292H23.4964" stroke="#161922" stroke-width="1.5" stroke-linecap="round"/>
<path d="M4.2207 19.7911L5.38589 20.9233C5.50596 21.0428 5.70002 21.0428 5.82009 20.9233L7.90314 18.9447" stroke="#161922" stroke-width="1.5" stroke-linecap="round"/>
<path d="M4.2207 26.6064L5.38589 27.7386C5.50716 27.8551 5.69882 27.8551 5.82009 27.7386L7.90314 25.7599" stroke="#161922" stroke-width="1.5" stroke-linecap="round"/>
<path d="M10.5859 17.9502H15.472" stroke="#161922" stroke-width="1.5" stroke-linecap="round"/>
<path d="M10.5859 20.8684H23.4964" stroke="#161922" stroke-width="1.5" stroke-linecap="round"/>
<path d="M21.588 43C21.588 43 29.3616 39.5633 29.3616 32.6885C29.3616 29.9389 29.3616 26.871 29.3616 26.871L21.588 24.4915L13.8145 26.871V32.6885C13.8145 39.5633 21.588 43 21.588 43Z" fill="#3DB249" stroke="#161922" stroke-width="1.5"/>
<path d="M20.7806 36.1019L17.9121 33.1139L19.1414 31.8334L20.7806 33.5408L24.8783 29.2723L26.1077 30.5528L20.7806 36.1019Z" fill="white"/>
</svg>
