<svg width="49" height="32" viewBox="0 0 49 32" fill="none" xmlns="http://www.w3.org/2000/svg">
<path fill-rule="evenodd" clip-rule="evenodd" d="M3.62486 1H30.9714C32.4211 1 33.5963 2.17519 33.5963 3.62486V28.3751C33.5963 29.8248 32.4211 31 30.9714 31H3.62486C2.17519 31 1 29.8248 1 28.3751V3.62486C1 2.17519 2.17519 1 3.62486 1Z" stroke="#161922" stroke-width="1.5" stroke-linecap="square" stroke-linejoin="round"/>
<path d="M1 8.60578H33.5963" stroke="#161922" stroke-width="1.5" stroke-linecap="square"/>
<path d="M5.375 4.80289H11.351" stroke="#161922" stroke-width="1.5" stroke-linecap="round"/>
<path d="M7.1249 12.8119H27.2488C28.2153 12.8119 28.9987 13.5953 28.9987 14.5618V25.0612C28.9987 26.0276 28.2153 26.8111 27.2488 26.8111H7.1249C6.15846 26.8111 5.375 26.0276 5.375 25.0612V14.5618C5.375 13.5953 6.15846 12.8119 7.1249 12.8119Z" fill="#3DB249"/>
<rect x="21.873" y="6.12476" width="25.6235" height="10.7493" rx="1.25" fill="white" stroke="#161922" stroke-width="1.5"/>
<path fill-rule="evenodd" clip-rule="evenodd" d="M27.8973 12.482L27.9589 13.5689H26.8874L26.9438 12.482L26.0363 13.0818L25.498 12.1539L26.4721 11.6618L25.498 11.1696L26.0363 10.2417L26.9438 10.8415L26.8874 9.74951H27.9589L27.8973 10.8364L28.8048 10.2417L29.3431 11.1696L28.369 11.6618L29.3431 12.1488L28.8099 13.0767L27.8973 12.482ZM32.7625 12.482L32.8241 13.5689H31.7526L31.809 12.482L30.9016 13.0818L30.3633 12.1539L31.3373 11.6618L30.3633 11.1696L30.9016 10.2417L31.809 10.8415L31.7526 9.74951H32.8241L32.7625 10.8364L33.67 10.2417L34.2083 11.1696L33.2342 11.6618L34.2083 12.1488L33.6751 13.0767L32.7625 12.482ZM37.6893 13.5689L37.6278 12.482L38.5403 13.0767L39.0735 12.1488L38.0994 11.6618L39.0735 11.1696L38.5352 10.2417L37.6278 10.8364L37.6893 9.74951H36.6178L36.6742 10.8415L35.7668 10.2417L35.2285 11.1696L36.2025 11.6618L35.2285 12.1539L35.7668 13.0818L36.6742 12.482L36.6178 13.5689H37.6893ZM42.493 12.482L42.5545 13.5689H41.483L41.5394 12.482L40.632 13.0818L40.0937 12.1539L41.0678 11.6618L40.0937 11.1696L40.632 10.2417L41.5394 10.8415L41.483 9.74951H42.5545L42.493 10.8364L43.4004 10.2417L43.9387 11.1696L42.9646 11.6618L43.9387 12.1488L43.4055 13.0767L42.493 12.482Z" fill="#161922"/>
</svg>
