<svg width="37" height="37" viewBox="0 0 37 37" fill="none" xmlns="http://www.w3.org/2000/svg">
<path d="M25.9902 1.00002H32.9902C33.7895 0.996907 34.5569 1.31303 35.1221 1.87819C35.6872 2.44335 36.0033 3.21077 36.0002 4.01002V11.2433" stroke="#161922" stroke-width="1.75" stroke-linecap="round"/>
<path d="M11.01 1.00002H4.01002C3.21077 0.996907 2.44335 1.31303 1.87819 1.87819C1.31303 2.44335 0.996907 3.21077 1.00002 4.01002V11.2433" stroke="#161922" stroke-width="1.75" stroke-linecap="round"/>
<path d="M25.9902 36H32.9902C33.7895 36.0031 34.5569 35.687 35.1221 35.1218C35.6872 34.5566 36.0033 33.7892 36.0002 32.99V25.7567" stroke="#161922" stroke-width="1.75" stroke-linecap="round"/>
<path d="M11.01 36H4.01002C3.21077 36.0031 2.44335 35.687 1.87819 35.1218C1.31303 34.5566 0.996907 33.7892 1.00002 32.99V25.7567" stroke="#161922" stroke-width="1.75" stroke-linecap="round"/>
<path d="M18.4993 1.00003V36" stroke="#3DB249" stroke-width="1.75" stroke-linecap="round"/>
<path d="M36 18.5H1" stroke="#3DB249" stroke-width="1.75" stroke-linecap="round"/>
<circle cx="18.5" cy="18.5" r="5" fill="#3DB249"/>
<path d="M14.9421 29.3617C11.5158 28.225 8.82079 25.5473 7.66211 22.1283" stroke="#161922" stroke-width="1.75" stroke-linecap="round"/>
<path d="M29.3623 22.035C28.2432 25.4665 25.571 28.169 22.1523 29.3267" stroke="#161922" stroke-width="1.75" stroke-linecap="round"/>
<path d="M22.0352 7.63834C25.4724 8.76559 28.1782 11.4455 29.3385 14.8717" stroke="#161922" stroke-width="1.75" stroke-linecap="round"/>
<path d="M7.63867 14.965C8.76726 11.4908 11.4911 8.76692 14.9653 7.63834" stroke="#161922" stroke-width="1.75" stroke-linecap="round"/>
</svg>
