<svg width="51" height="35" viewBox="0 0 51 35" fill="none" xmlns="http://www.w3.org/2000/svg">
<path fill-rule="evenodd" clip-rule="evenodd" d="M29.1015 15.1391C29.383 15.278 29.6694 15.4105 29.9563 15.5431L29.9564 15.5432C30.593 15.8375 31.2321 16.133 31.8255 16.5039C35.6054 18.7575 38.0503 22.7113 38.3779 27.0998C38.585 28.7365 37.8973 30.3583 36.577 31.3472C35.0363 32.5873 33.2571 33.4972 31.3498 34.0203C28.2141 34.9673 24.9121 35.2318 21.6657 34.7962C19.2933 34.5451 16.9886 33.8537 14.8698 32.7574C13.6985 32.1706 12.6892 31.3052 11.9305 30.2373C11.4382 29.543 11.1948 28.7029 11.2396 27.853C11.5511 22.1218 14.3261 18.0556 19.508 15.6204C19.736 15.5158 19.9739 15.4259 20.2201 15.3329C20.3468 15.285 20.4757 15.2363 20.6066 15.1844C17.9506 13.4061 16.5461 10.9652 16.6424 7.75985C16.6912 5.57394 17.6523 3.50813 19.2928 2.06264C21.6051 0.0139225 24.8726 -0.561343 27.7457 0.57446C30.6187 1.71026 32.6095 4.36435 32.8959 7.44043C33.1822 10.5165 31.7155 13.4925 29.1015 15.1391ZM25.1372 33.2048L25.1382 33.2047L25.1429 33.2048H25.1372ZM25.6159 33.1723L25.6166 33.1722C26.1237 33.1395 26.7817 33.0971 27.4365 33.0179C29.6816 32.7845 31.8605 32.1192 33.8529 31.0584C34.6755 30.6322 35.4111 30.0559 36.022 29.3594C36.4396 28.9244 36.6465 28.3287 36.5883 27.7284C36.5647 27.5235 36.5458 27.3173 36.5268 27.1112L36.5268 27.1111C36.4866 26.6736 36.4464 26.2359 36.3618 25.8086C35.1989 19.9112 29.7859 15.8327 23.7965 16.341C17.8072 16.8493 13.1589 21.7818 13.0066 27.7907C12.98 28.4412 13.2028 29.0773 13.6295 29.569C14.3558 30.3797 15.2508 31.0214 16.2516 31.4492C18.946 32.7115 21.8102 33.1534 25.1382 33.2047C25.2736 33.1943 25.4352 33.1839 25.6159 33.1723ZM31.1856 8.1846C31.1856 12.3527 27.5384 14.7709 24.7634 14.5161L24.7691 14.5331C21.8978 14.72 18.4319 12.1659 18.4093 8.1846C18.4093 4.65653 21.2694 1.79646 24.7974 1.79646C28.3255 1.79646 31.1856 4.65653 31.1856 8.1846Z" fill="black"/>
<path fill-rule="evenodd" clip-rule="evenodd" d="M34.2832 16.6625L35.6537 17.7951L35.8293 17.6649C37.5624 16.1831 39.8775 15.574 42.1155 16.0112C45.5745 16.6528 48.139 19.5877 48.311 23.1016C48.3604 23.5459 48.1813 23.985 47.8353 24.2682C47.3559 24.6661 46.838 25.0152 46.2893 25.3102C44.3905 26.2209 42.2926 26.6377 40.19 26.5222H39.8955V28.2721C39.9596 28.2755 40.0239 28.2755 40.088 28.2721C42.5924 28.4687 45.1029 27.9772 47.3483 26.8506C48.1706 26.4469 48.8938 25.8668 49.4663 25.1517C49.9048 24.6256 50.1328 23.9558 50.1063 23.2715C50.0455 19.7026 47.9424 16.4853 44.6979 14.9975C44.6009 14.949 44.5018 14.9047 44.4006 14.8595C44.3363 14.8308 44.2712 14.8017 44.2052 14.7709C46.1836 13.2704 46.983 10.6742 46.1915 8.32072C45.3999 5.9672 43.1941 4.38184 40.711 4.38184C38.2279 4.38184 36.0221 5.9672 35.2305 8.32072C34.4389 10.6742 35.2384 13.2704 37.2168 14.7709C36.1318 15.2174 35.1376 15.8585 34.2832 16.6625ZM44.4717 12.1973C43.6779 13.4905 42.2155 14.2172 40.7053 14.0687V14.08C38.6645 13.909 37.0899 12.2116 37.0723 10.1637C37.0546 8.11584 38.5998 6.39161 40.6374 6.18547C42.1447 6.011 43.6195 6.71233 44.4355 7.9917C45.2515 9.27108 45.2655 10.904 44.4717 12.1973Z" fill="black"/>
<path fill-rule="evenodd" clip-rule="evenodd" d="M15.4691 16.5492C14.66 15.7827 13.7177 15.1705 12.6885 14.7427C14.484 13.5616 15.4563 11.466 15.1987 9.33231C14.9411 7.19866 13.4979 5.3947 11.4728 4.67498C9.44777 3.95526 7.18982 4.44383 5.64343 5.93632C4.54499 6.79666 3.82242 8.04898 3.62732 9.43054C3.29796 11.4606 4.10651 13.508 5.73404 14.7653L5.49618 14.8786C2.5762 16.1438 0.533987 18.8482 0.116107 22.0029C-0.108066 22.8812 -0.00542045 23.8111 0.404932 24.6193C0.838894 25.3216 1.44013 25.9053 2.15487 26.3183C3.90276 27.3376 5.87067 27.9204 7.89173 28.0173C8.30432 28.0438 8.71944 28.0349 9.13032 28.026C9.33418 28.0216 9.537 28.0173 9.73795 28.0173L9.8229 26.2617H8.98474C7.76347 26.2582 6.54821 26.0905 5.37159 25.7633C4.29389 25.502 3.28914 25.0006 2.43237 24.2965C2.0049 23.9642 1.78869 23.428 1.86605 22.8921C1.88601 22.7503 1.90176 22.6078 1.9175 22.4654C1.9464 22.2039 1.97528 21.9424 2.03028 21.6858C2.76459 18.3059 5.75257 15.8929 9.21127 15.8866C10.5475 15.9121 11.856 16.2723 13.017 16.9343C13.2537 17.0742 13.4791 17.2346 13.7089 17.3981C13.842 17.4927 13.9765 17.5884 14.1156 17.6819L15.4691 16.5492ZM12.9886 10.2574C12.9855 12.3623 11.2766 14.0662 9.17163 14.0631C8.15893 14.0676 7.18656 13.6666 6.47153 12.9494C5.75651 12.2323 5.35835 11.2587 5.36593 10.246C5.36906 8.14109 7.078 6.43723 9.18295 6.44035C11.2879 6.44348 12.9918 8.15242 12.9886 10.2574Z" fill="black"/>
<path d="M25.142 33.2048C21.812 33.1538 18.9464 32.7121 16.2507 31.4492C15.2499 31.0215 14.3549 30.3797 13.6286 29.569C13.2094 29.0823 12.989 28.4554 13.0113 27.8134C13.1637 21.8044 17.8119 16.872 23.8013 16.3637C29.7907 15.8553 35.2037 19.9339 36.3665 25.8313C36.4911 26.4599 36.5194 27.1112 36.593 27.7511C36.6512 28.3514 36.4444 28.9471 36.0267 29.3821C35.4159 30.0786 34.6802 30.6548 33.8577 31.0811C31.8652 32.1418 29.6864 32.8072 27.4412 33.0406C26.5521 33.1255 25.6573 33.1652 25.142 33.2048Z" fill="#3DB249"/>
<path d="M24.7684 14.5331C21.8972 14.72 18.4312 12.1659 18.4199 8.19593C18.4199 4.66787 21.28 1.8078 24.8081 1.8078C28.3361 1.8078 31.1962 4.66787 31.1962 8.19593C31.1849 12.3528 27.5377 14.771 24.7684 14.5331Z" fill="#3DB249"/>
</svg>
