<svg width="42" height="37" viewBox="0 0 42 37" fill="none" xmlns="http://www.w3.org/2000/svg">
<path fill-rule="evenodd" clip-rule="evenodd" d="M37.8328 1H3.54854C2.84478 1 2.20765 1.28526 1.74645 1.74645C1.28526 2.20765 1 2.84478 1 3.54854V33.4515C1 34.1552 1.28526 34.7924 1.74645 35.2535C2.20765 35.7147 2.84478 36 3.54854 36H37.8328C38.5366 36 39.1737 35.7147 39.6349 35.2535C40.0961 34.7924 40.3813 34.1552 40.3813 33.4515V3.54854C40.3813 2.84478 40.0961 2.20765 39.6349 1.74645C39.1737 1.28526 38.5366 1 37.8328 1Z" stroke="#131F37" stroke-width="1.75"/>
<mask id="mask0" mask-type="alpha" maskUnits="userSpaceOnUse" x="1" y="1" width="39" height="35">
<path fill-rule="evenodd" clip-rule="evenodd" d="M3.5486 1.5097H37.8328C38.9589 1.5097 39.8717 2.42252 39.8717 3.54854V33.4515C39.8717 34.5775 38.9589 35.4903 37.8328 35.4903H3.5486C2.42258 35.4903 1.50977 34.5775 1.50977 33.4515V3.54854C1.50977 2.42252 2.42258 1.5097 3.5486 1.5097Z" fill="white"/>
</mask>
<g mask="url(#mask0)">
<path d="M13.472 16.4612H11.2972C11.1471 16.4612 11.0254 16.6285 11.0254 16.835V23.5631C11.0254 23.7696 11.1471 23.9369 11.2972 23.9369H13.472C13.6221 23.9369 13.7438 23.7696 13.7438 23.5631V16.835C13.7438 16.6285 13.6221 16.4612 13.472 16.4612Z" fill="#3DB249"/>
<path d="M8.71418 19.8593H6.53942C6.38929 19.8593 6.26758 20.0114 6.26758 20.1991V23.5971C6.26758 23.7848 6.38929 23.9369 6.53942 23.9369H8.71418C8.86432 23.9369 8.98602 23.7848 8.98602 23.5971V20.1991C8.98602 20.0114 8.86432 19.8593 8.71418 19.8593Z" fill="#3DB249"/>
<path d="M18.9075 13.7427H16.7328C16.5826 13.7427 16.4609 13.9057 16.4609 14.1068V23.5728C16.4609 23.7739 16.5826 23.9369 16.7328 23.9369H18.9075C19.0577 23.9369 19.1794 23.7739 19.1794 23.5728V14.1068C19.1794 13.9057 19.0577 13.7427 18.9075 13.7427Z" fill="#3DB249"/>
<path fill-rule="evenodd" clip-rule="evenodd" d="M6.26758 32.1377L8.30641 28.6925L11.0249 30.2705L14.253 26.6553L16.4618 29.3965L19.1802 27.51V32.1377" fill="url(#paint0_linear)"/>
</g>
<defs>
<linearGradient id="paint0_linear" x1="6.26758" y1="26.6553" x2="6.26758" y2="32.1377" gradientUnits="userSpaceOnUse">
<stop stop-color="#73DF38"/>
<stop offset="1" stop-color="#3FBC1A" stop-opacity="0.01"/>
</linearGradient>
</defs>
</svg>
