<svg width="37" height="37" viewBox="0 0 37 37" fill="none" xmlns="http://www.w3.org/2000/svg">
<path d="M35.136 26.5208C34.6643 26.5208 34.2713 26.884 34.2713 27.3199V30.6612C34.2713 32.7313 32.4632 34.402 30.2229 34.402H26.2924C25.8208 34.402 25.4277 34.7652 25.4277 35.201C25.4277 35.6368 25.8208 36 26.2924 36H30.2229C33.4066 36 36.0007 33.603 36.0007 30.6612V27.3199C36.0007 26.884 35.6076 26.5208 35.136 26.5208Z" fill="#161922" stroke="#161922" stroke-width="0.25"/>
<path d="M30.2229 1H26.2924C25.8208 1 25.4277 1.38308 25.4277 1.84277C25.4277 2.30246 25.8208 2.68554 26.2924 2.68554H30.2229C32.4632 2.68554 34.2713 4.44769 34.2713 6.63123V10.7301C34.2713 11.1898 34.6643 11.5729 35.136 11.5729C35.6076 11.5729 36.0007 11.1898 36.0007 10.7301V6.63123C36.0007 3.52831 33.4066 1 30.2229 1Z" fill="#161922" stroke="#161922" stroke-width="0.25"/>
<path d="M25.7917 16.3125C26.7682 16.3125 27.5495 15.8647 27.6146 15.3049V12.6179C27.6146 12.0207 26.8333 11.5729 25.7917 11.5729C24.75 11.5729 23.9688 12.0581 23.9688 12.6179V15.2675C23.9687 15.8647 24.8151 16.3125 25.7917 16.3125Z" fill="#3DB249" stroke="#3DB249" stroke-width="0.25"/>
<path d="M24.1371 23.1747C22.5598 24.7731 20.4568 25.661 18.31 25.661H17.9595C15.7689 25.661 13.7097 24.7731 12.1324 23.1747C11.7819 22.7751 11.1686 22.7751 10.7743 23.1747C10.3799 23.5299 10.3799 24.1515 10.7743 24.5511C12.7458 26.549 15.2869 27.6146 17.9595 27.6146H18.31C20.9826 27.6146 23.5675 26.549 25.4953 24.5511C25.8896 24.1959 25.8896 23.5743 25.4953 23.1747C25.1448 22.7751 24.5314 22.7751 24.1371 23.1747Z" fill="#3DB249" stroke="#3DB249" stroke-width="0.25"/>
<path d="M16.1842 21.0521H16.4036C18.3785 21.0521 19.9583 19.7086 19.9583 18.0665V12.3939C19.9583 11.9461 19.5195 11.5729 18.9929 11.5729C18.4662 11.5729 18.0274 11.9461 18.0274 12.3939V18.0292C18.0274 18.8129 17.2813 19.41 16.4036 19.41H16.1842C15.6576 19.41 15.2188 19.7832 15.2188 20.231C15.2188 20.6789 15.6576 21.0521 16.1842 21.0521Z" fill="#3DB249" stroke="#3DB249" stroke-width="0.25"/>
<path d="M9.75065 11.5729C8.70898 11.5729 7.92773 12.0581 7.92773 12.6179V15.2675C7.92773 15.8647 8.77409 16.3125 9.75065 16.3125C10.7923 16.3125 11.5736 15.8647 11.5736 15.3049V12.6179C11.5736 12.0207 10.7272 11.5729 9.75065 11.5729Z" fill="#3DB249" stroke="#3DB249" stroke-width="0.25"/>
<path d="M1.8647 11.5729C2.33635 11.5729 2.7294 11.1898 2.7294 10.7301V6.63123C2.7294 4.44769 4.53741 2.68554 6.77776 2.68554H10.7082C11.1799 2.68554 11.5729 2.30246 11.5729 1.84277C11.5729 1.38308 11.1799 1 10.7082 1H6.77776C3.5941 1 1 3.52831 1 6.63123V10.7301C1 11.1898 1.39305 11.5729 1.8647 11.5729Z" fill="#161922" stroke="#161922" stroke-width="0.25"/>
<path d="M10.7082 34.402H6.77776C4.53741 34.402 2.7294 32.7313 2.7294 30.6612V27.3199C2.7294 26.884 2.33635 26.5208 1.8647 26.5208C1.39305 26.5208 1 26.884 1 27.3199V30.6612C1 33.603 3.5941 36 6.77776 36H10.7082C11.2192 36 11.5729 35.6368 11.5729 35.201C11.5729 34.7652 11.1799 34.402 10.7082 34.402Z" fill="#161922" stroke="#161922" stroke-width="0.25"/>
</svg>
