<svg width="63" height="37" viewBox="0 0 63 37" fill="none" xmlns="http://www.w3.org/2000/svg">
<path d="M1 17.6833H18.2667L23.1667 10.45L27.25 24.2167L30.4 17.8H37.9833L42.5333 8L47.55 17.9167L61.2 17.6833" stroke="#3DB249" stroke-width="1.75" stroke-linecap="round"/>
<path fill-rule="evenodd" clip-rule="evenodd" d="M40.0842 1C43.0009 1 45.8009 2.16667 47.7842 4.15C49.8842 6.25 50.9342 8.93333 50.9342 11.85C50.9342 14.7667 49.8842 17.45 47.7842 19.55L31.5676 35.7667C31.4509 35.8833 31.2176 36 31.1009 36C30.9842 36 30.7509 35.8833 30.6342 35.7667L14.4176 19.55C12.4342 17.45 11.2676 14.7667 11.2676 11.85C11.2676 8.93333 12.3176 6.25 14.4176 4.15C16.5176 2.16667 19.2009 1 22.1176 1C25.0342 1 27.7176 2.16667 29.8176 4.15L31.1009 5.43333L32.3842 4.15C34.4842 2.16667 37.1676 1 40.0842 1ZM31.1009 34.25L46.8509 18.6167C48.6009 16.75 49.6509 14.4167 49.7676 11.85C49.7676 9.28333 48.8342 6.95 46.9676 5.08333C45.1009 3.21667 42.7676 2.28333 40.2009 2.28333C37.6342 2.28333 35.1842 3.33333 33.4342 5.08333L31.4509 6.83333C31.2176 7.06667 30.7509 7.06667 30.5176 6.83333L28.7676 5.08333C27.0176 3.33333 24.6842 2.28333 22.1176 2.28333C19.5509 2.28333 17.1009 3.33333 15.3509 5.08333C13.4842 6.95 12.5509 9.28333 12.5509 11.85C12.5509 14.4167 13.6009 16.8667 15.3509 18.6167L31.1009 34.25Z" fill="#161922"/>
<path d="M47.7842 4.15L47.961 3.97322L47.7842 4.15ZM47.7842 19.55L47.961 19.7268L47.7842 19.55ZM31.5676 35.7667L31.7444 35.9434H31.7444L31.5676 35.7667ZM30.6342 35.7667L30.4575 35.9434H30.4575L30.6342 35.7667ZM14.4176 19.55L14.2358 19.7217L14.2408 19.7268L14.4176 19.55ZM14.4176 4.15L14.2459 3.96817L14.2408 3.97322L14.4176 4.15ZM29.8176 4.15L29.9944 3.97315L29.9892 3.96825L29.8176 4.15ZM31.1009 5.43333L30.9241 5.61011L31.1009 5.78689L31.2777 5.61011L31.1009 5.43333ZM32.3842 4.15L32.2125 3.96817L32.2075 3.97322L32.3842 4.15ZM46.8509 18.6167L47.0271 18.7942L47.0333 18.7877L46.8509 18.6167ZM31.1009 34.25L30.9248 34.4274L31.1009 34.6022L31.277 34.4274L31.1009 34.25ZM49.7676 11.85L50.0176 11.8614V11.85H49.7676ZM46.9676 5.08333L46.7908 5.26011V5.26011L46.9676 5.08333ZM33.4342 5.08333L33.5996 5.27079L33.6055 5.26563L33.611 5.26011L33.4342 5.08333ZM31.4509 6.83333L31.2855 6.64587L31.2797 6.65104L31.2741 6.65656L31.4509 6.83333ZM30.5176 6.83333L30.3408 7.01011L30.5176 6.83333ZM28.7676 5.08333L28.9444 4.90656L28.7676 5.08333ZM15.3509 5.08333L15.1741 4.90656L15.3509 5.08333ZM15.3509 18.6167L15.1741 18.7934L15.1748 18.7941L15.3509 18.6167ZM47.961 3.97322C45.9301 1.94233 43.0663 0.75 40.0842 0.75V1.25C42.9356 1.25 45.6717 2.391 47.6075 4.32678L47.961 3.97322ZM51.1842 11.85C51.1842 8.87006 50.11 6.12221 47.961 3.97322L47.6075 4.32678C49.6585 6.37779 50.6842 8.9966 50.6842 11.85H51.1842ZM47.961 19.7268C50.11 17.5778 51.1842 14.8299 51.1842 11.85H50.6842C50.6842 14.7034 49.6585 17.3222 47.6075 19.3732L47.961 19.7268ZM31.7444 35.9434L47.961 19.7268L47.6075 19.3732L31.3908 35.5899L31.7444 35.9434ZM31.1009 36.25C31.2199 36.25 31.3509 36.1982 31.446 36.1507C31.5491 36.0992 31.6613 36.0265 31.7444 35.9434L31.3908 35.5899C31.3572 35.6235 31.2944 35.6675 31.2224 35.7035C31.188 35.7207 31.1563 35.7336 31.1308 35.7417C31.1024 35.7508 31.0936 35.75 31.1009 35.75V36.25ZM30.4575 35.9434C30.5405 36.0265 30.6528 36.0992 30.7558 36.1507C30.8509 36.1982 30.9819 36.25 31.1009 36.25V35.75C31.1082 35.75 31.0995 35.7508 31.071 35.7417C31.0455 35.7336 31.0139 35.7207 30.9794 35.7035C30.9074 35.6675 30.8446 35.6235 30.811 35.5899L30.4575 35.9434ZM14.2408 19.7268L30.4575 35.9434L30.811 35.5899L14.5944 19.3732L14.2408 19.7268ZM11.0176 11.85C11.0176 14.836 12.2126 17.5794 14.2358 19.7217L14.5993 19.3783C12.6559 17.3206 11.5176 14.6974 11.5176 11.85H11.0176ZM14.2408 3.97322C12.0918 6.12221 11.0176 8.87006 11.0176 11.85H11.5176C11.5176 8.9966 12.5433 6.37779 14.5944 4.32678L14.2408 3.97322ZM22.1176 0.75C19.1316 0.75 16.3882 1.945 14.2459 3.96825L14.5892 4.33175C16.647 2.38834 19.2702 1.25 22.1176 1.25V0.75ZM29.9892 3.96825C27.847 1.945 25.1036 0.75 22.1176 0.75V1.25C24.9649 1.25 27.5882 2.38834 29.6459 4.33175L29.9892 3.96825ZM31.2777 5.25656L29.9944 3.97322L29.6408 4.32678L30.9241 5.61011L31.2777 5.25656ZM32.2075 3.97322L30.9241 5.25656L31.2777 5.61011L32.561 4.32678L32.2075 3.97322ZM40.0842 0.75C37.0983 0.75 34.3549 1.945 32.2126 3.96825L32.5559 4.33175C34.6136 2.38834 37.2369 1.25 40.0842 1.25V0.75ZM46.6748 18.4392L30.9248 34.0726L31.277 34.4274L47.027 18.7941L46.6748 18.4392ZM49.5178 11.8386C49.4041 14.3417 48.3807 16.6194 46.6685 18.4457L47.0333 18.7877C48.8211 16.8806 49.8978 14.4917 50.0173 11.8614L49.5178 11.8386ZM46.7908 5.26011C48.6097 7.07903 49.5176 9.34841 49.5176 11.85H50.0176C50.0176 9.21825 49.0588 6.82097 47.1444 4.90656L46.7908 5.26011ZM40.2009 2.53333C42.7025 2.53333 44.9719 3.44119 46.7908 5.26011L47.1444 4.90656C45.2299 2.99215 42.8327 2.03333 40.2009 2.03333V2.53333ZM33.611 5.26011C35.3149 3.55623 37.7016 2.53333 40.2009 2.53333V2.03333C37.5669 2.03333 35.0536 3.11044 33.2575 4.90656L33.611 5.26011ZM31.6163 7.02079L33.5996 5.27079L33.2688 4.89587L31.2855 6.64587L31.6163 7.02079ZM30.3408 7.01011C30.515 7.18427 30.7596 7.25833 30.9842 7.25833C31.2089 7.25833 31.4535 7.18427 31.6277 7.01011L31.2741 6.65656C31.215 6.71573 31.1096 6.75833 30.9842 6.75833C30.8589 6.75833 30.7535 6.71573 30.6944 6.65656L30.3408 7.01011ZM28.5908 5.26011L30.3408 7.01011L30.6944 6.65656L28.9444 4.90656L28.5908 5.26011ZM22.1176 2.53333C24.6136 2.53333 26.8845 3.55384 28.5908 5.26011L28.9444 4.90656C27.1506 3.11283 24.7549 2.03333 22.1176 2.03333V2.53333ZM15.5277 5.26011C17.2316 3.55623 19.6183 2.53333 22.1176 2.53333V2.03333C19.4835 2.03333 16.9703 3.11044 15.1741 4.90656L15.5277 5.26011ZM12.8009 11.85C12.8009 9.34841 13.7088 7.07903 15.5277 5.26011L15.1741 4.90656C13.2597 6.82097 12.3009 9.21825 12.3009 11.85H12.8009ZM15.5277 18.4399C13.8238 16.736 12.8009 14.3493 12.8009 11.85H12.3009C12.3009 14.484 13.378 16.9973 15.1741 18.7934L15.5277 18.4399ZM31.277 34.0726L15.527 18.4392L15.1748 18.7941L30.9248 34.4274L31.277 34.0726Z" fill="#161922"/>
</svg>
