<svg id="Flat" height="512" viewBox="0 0 512 512" width="512" xmlns="http://www.w3.org/2000/svg">
    <path d="m392 488h-272a48 48 0 0 1 -48-48v-368a48 48 0 0 1 48-48h224l96 96v320a48 48 0 0 1 -48 48z" fill="#cfd2fc" />
    <path d="m72 360h368a0 0 0 0 1 0 0v80a48 48 0 0 1 -48 48h-272a48 48 0 0 1 -48-48v-80a0 0 0 0 1 0 0z" fill="#5153ff" />
    <path d="m440 120h-48a48 48 0 0 1 -48-48v-48z" fill="#8690fa" />
    <path d="m344 216v-32h-32v32h-50.1a64 64 0 1 0 0 32h98.1l16-32zm-144 32a16 16 0 1 1 16-16 16 16 0 0 1 -16 16z" fill="#8690fa" />
    <path d="m240 384a8 8 0 0 0 -8 8v48a8 8 0 0 1 -16 0 8 8 0 0 0 -16 0 24 24 0 0 0 48 0v-48a8 8 0 0 0 -8-8z" fill="#fff" />
    <path d="m288 400h16a8 8 0 0 0 0-16h-16a24 24 0 0 0 0 48 8 8 0 0 1 0 16h-16a8 8 0 0 0 0 16h16a24 24 0 0 0 0-48 8 8 0 0 1 0-16z" fill="#fff" />
</svg>
