<svg width="25" height="25" viewBox="0 0 25 25" fill="none" xmlns="http://www.w3.org/2000/svg">
<path d="M21.8974 8.25246V18.8368C21.8974 19.0134 21.8273 19.1827 21.7025 19.3075C21.5776 19.4323 21.4083 19.5025 21.2318 19.5025H4.64742C4.4485 19.5025 4.25774 19.4234 4.11709 19.2828C3.97643 19.1421 3.89742 18.9514 3.89742 18.7525V6.00246C3.89742 5.80354 3.97643 5.61278 4.11709 5.47213C4.25774 5.33147 4.4485 5.25246 4.64742 5.25246H9.64429C9.80646 5.25312 9.96415 5.30569 10.0943 5.40246L12.7005 7.35246C12.8307 7.44922 12.9884 7.50179 13.1505 7.50246H21.1474C21.3463 7.50246 21.5371 7.58147 21.6777 7.72213C21.8184 7.86278 21.8974 8.05354 21.8974 8.25246Z" stroke="#606060" stroke-width="1.2" stroke-linecap="round" stroke-linejoin="round"/>
</svg>
