<svg width="25" height="25" viewBox="0 0 25 25" fill="none" xmlns="http://www.w3.org/2000/svg">
<path d="M16.619 9.35039H21.119V4.85039" stroke="#606060" stroke-width="1.2" stroke-linecap="round" stroke-linejoin="round"/>
<path d="M17.9282 17.8344C16.7747 18.9888 15.3047 19.7752 13.7042 20.0941C12.1037 20.413 10.4445 20.25 8.93665 19.6258C7.42877 19.0015 6.13989 17.9441 5.23307 16.5873C4.32626 15.2304 3.84223 13.6351 3.84223 12.0031C3.84223 10.3711 4.32626 8.77581 5.23307 7.41896C6.13989 6.06211 7.42877 5.00469 8.93665 4.38047C10.4445 3.75624 12.1037 3.59326 13.7042 3.91213C15.3047 4.231 16.7747 5.01741 17.9282 6.17187L21.1157 9.34999" stroke="#606060" stroke-width="1.2" stroke-linecap="round" stroke-linejoin="round"/>
<path d="M11.9841 9.75354V12.0035" stroke="#606060" stroke-width="1.2" stroke-linecap="round" stroke-linejoin="round"/>
<path d="M9.84263 11.3073L11.9801 12.0034" stroke="#606060" stroke-width="1.2" stroke-linecap="round" stroke-linejoin="round"/>
<path d="M10.6651 13.8248L11.987 12.0037" stroke="#606060" stroke-width="1.2" stroke-linecap="round" stroke-linejoin="round"/>
<path d="M13.306 13.8248L11.9841 12.0037" stroke="#606060" stroke-width="1.2" stroke-linecap="round" stroke-linejoin="round"/>
<path d="M14.1216 11.3073L11.9841 12.0034" stroke="#606060" stroke-width="1.2" stroke-linecap="round" stroke-linejoin="round"/>
</svg>
