<svg class="icon-highlight" width="24" height="24" viewBox="0 0 24 24" fill="none" xmlns="http://www.w3.org/2000/svg">
  <path d="M16.5188 9.34692H21.0188V4.84692" stroke="#161922" stroke-width="1.5" stroke-linecap="round" stroke-linejoin="round"/>
  <path d="M17.8311 17.8313C16.6776 18.9857 15.2076 19.7721 13.6071 20.091C12.0066 20.4099 10.3474 20.2469 8.83953 19.6227C7.33165 18.9984 6.04278 17.941 5.13596 16.5842C4.22914 15.2273 3.74512 13.632 3.74512 12C3.74512 10.368 4.22914 8.7727 5.13596 7.41585C6.04278 6.059 7.33165 5.00158 8.83953 4.37735C10.3474 3.75313 12.0066 3.59014 13.6071 3.90902C15.2076 4.22789 16.6776 5.0143 17.8311 6.16875L21.0186 9.34688" stroke="#161922" stroke-width="1.5" stroke-linecap="round" stroke-linejoin="round"/>
  <path d="M11.8875 9.75V12" stroke="#161922" stroke-width="1.125" stroke-linecap="round" stroke-linejoin="round"/>
  <path d="M9.75 11.304L11.8875 12" stroke="#161922" stroke-width="1.125" stroke-linecap="round" stroke-linejoin="round"/>
  <path d="M10.5657 13.8211L11.8875 12" stroke="#161922" stroke-width="1.125" stroke-linecap="round" stroke-linejoin="round"/>
  <path d="M13.2093 13.8211L11.8875 12" stroke="#161922" stroke-width="1.125" stroke-linecap="round" stroke-linejoin="round"/>
  <path d="M14.025 11.304L11.8875 12" stroke="#161922" stroke-width="1.125" stroke-linecap="round" stroke-linejoin="round"/>
</svg>