<svg width="25" height="25" viewBox="0 0 25 25" fill="none" xmlns="http://www.w3.org/2000/svg">
<path fill-rule="evenodd" clip-rule="evenodd" d="M6.55561 2.76709H13.4734C14.0156 2.76793 14.5354 2.97235 14.9189 3.33565C15.3025 3.69886 15.5186 4.19144 15.5198 4.70538V7.57394H14.9326V5.20714H5.0996V18.7905H14.9342V17.2884L15.5214 16.8309V19.5653C15.5202 20.079 15.3043 20.5713 14.9211 20.9346C14.5379 21.2978 14.0185 21.5024 13.4767 21.5036H6.5588C6.01684 21.5032 5.49719 21.2994 5.11337 20.9367C4.72955 20.574 4.51296 20.0821 4.5108 19.5683V4.70538C4.51211 4.19172 4.72796 3.69942 5.11112 3.33612C5.49428 2.97291 6.01366 2.76831 6.55561 2.76709ZM10.3668 10.6972C10.3723 10.6262 10.4061 10.5598 10.461 10.5113C10.5161 10.4628 10.5886 10.4358 10.6637 10.4358C10.7388 10.4358 10.8111 10.4628 10.8662 10.5113C10.9213 10.5598 10.9549 10.6262 10.9605 10.6972V11.0602L11.2823 10.8589C11.3134 10.8308 11.3506 10.8095 11.3912 10.7965C11.432 10.7836 11.4752 10.7792 11.5179 10.7837C11.5605 10.7882 11.6016 10.8015 11.6384 10.8227C11.675 10.8438 11.7064 10.8724 11.7302 10.9062C11.7541 10.9401 11.7697 10.9786 11.7763 11.0187C11.7827 11.059 11.7799 11.1001 11.7678 11.1392C11.7558 11.1783 11.7349 11.2144 11.7067 11.245C11.6784 11.2756 11.6433 11.3 11.604 11.3164L11.1953 11.5772L11.6057 11.8349C11.6614 11.8789 11.6982 11.9409 11.709 12.009C11.7198 12.0771 11.7037 12.1465 11.664 12.2041C11.6243 12.2617 11.5636 12.3035 11.4935 12.3215C11.4234 12.3395 11.3488 12.3324 11.2839 12.3015L10.9621 12.1003V12.4647C10.9565 12.5358 10.9229 12.6023 10.8678 12.6507C10.8128 12.6992 10.7404 12.7261 10.6653 12.7261C10.5901 12.7261 10.5177 12.6992 10.4627 12.6507C10.4076 12.6023 10.3739 12.5358 10.3685 12.4647V12.111L10.0467 12.3122C10.0147 12.336 9.97765 12.3532 9.93821 12.3628C9.89877 12.3724 9.85764 12.374 9.81745 12.3678C9.77726 12.3615 9.73885 12.3474 9.70475 12.3264C9.67056 12.3053 9.64142 12.2777 9.61912 12.2455C9.59673 12.2132 9.58174 12.1768 9.575 12.1388C9.56816 12.1007 9.56985 12.0617 9.57978 12.0242C9.58971 11.9869 9.60779 11.9517 9.6328 11.9213C9.65772 11.8907 9.6891 11.8655 9.72489 11.8471L10.1351 11.5879L9.72489 11.3286C9.69051 11.3095 9.66053 11.284 9.63692 11.2535C9.61322 11.2232 9.59626 11.1885 9.58718 11.1517C9.578 11.1149 9.57687 11.0767 9.58381 11.0395C9.59074 11.0023 9.60554 10.9667 9.62737 10.9351C9.6491 10.9035 9.67749 10.8763 9.71074 10.8555C9.74391 10.8345 9.78129 10.8202 9.82045 10.8134C9.8597 10.8065 9.89998 10.8073 9.93886 10.8156C9.97774 10.824 10.0145 10.8397 10.0467 10.8619L10.3685 11.0632V10.6972H10.3668ZM16.5977 10.6972C16.5977 10.6228 16.6289 10.5515 16.6845 10.4988C16.7399 10.4462 16.8153 10.4166 16.8938 10.4166C16.9723 10.4166 17.0476 10.4462 17.103 10.4988C17.1586 10.5515 17.1898 10.6228 17.1898 10.6972V11.0602L17.5115 10.8589C17.5749 10.8324 17.6462 10.8279 17.7127 10.8464C17.7792 10.8647 17.8369 10.9048 17.8753 10.9594C17.9137 11.0142 17.9305 11.0799 17.923 11.1452C17.9153 11.2105 17.8835 11.2711 17.8333 11.3164L17.4231 11.5772L17.8333 11.8349C17.8706 11.8526 17.9036 11.8776 17.93 11.9083C17.9564 11.9389 17.9757 11.9744 17.9867 12.0126C17.9975 12.0508 17.9998 12.0907 17.9932 12.1299C17.9867 12.169 17.9715 12.2063 17.9486 12.2394C17.9259 12.2725 17.8959 12.3007 17.8607 12.3221C17.8256 12.3434 17.7861 12.3575 17.7448 12.3634C17.7035 12.3693 17.6614 12.3667 17.6212 12.3562C17.581 12.3455 17.5436 12.3269 17.5115 12.3015L17.1898 12.1003V12.4647C17.1898 12.5392 17.1586 12.6105 17.103 12.6632C17.0476 12.7158 16.9723 12.7453 16.8938 12.7453C16.8153 12.7453 16.7399 12.7158 16.6845 12.6632C16.6289 12.6105 16.5977 12.5392 16.5977 12.4647V12.111L16.2759 12.3122C16.2441 12.3384 16.2066 12.3578 16.1661 12.3693C16.1257 12.3806 16.0831 12.3836 16.0413 12.3781C15.9996 12.3725 15.9595 12.3587 15.9238 12.3372C15.8882 12.3159 15.8577 12.2875 15.8346 12.254C15.8114 12.2206 15.7961 12.1828 15.7896 12.1433C15.7832 12.1038 15.7857 12.0634 15.797 12.0248C15.8084 11.9863 15.8282 11.9505 15.8553 11.9199C15.8825 11.8892 15.9162 11.8644 15.9542 11.8471L16.3645 11.5879L15.9542 11.3286C15.9168 11.3109 15.8839 11.2859 15.8574 11.2553C15.831 11.2247 15.8117 11.1891 15.8009 11.1508C15.79 11.1127 15.7877 11.0727 15.7943 11.0336C15.8008 10.9946 15.816 10.9572 15.8388 10.9241C15.8617 10.891 15.8916 10.8629 15.9268 10.8415C15.9619 10.82 16.0014 10.806 16.0427 10.8002C16.084 10.7943 16.1261 10.7967 16.1663 10.8074C16.2065 10.8181 16.2439 10.8366 16.2759 10.8619L16.5977 11.0632V10.6972ZM13.4831 10.6972C13.4831 10.6228 13.5143 10.5515 13.5698 10.4988C13.6253 10.4462 13.7006 10.4166 13.7791 10.4166C13.8576 10.4166 13.9329 10.4462 13.9884 10.4988C14.0439 10.5515 14.0751 10.6228 14.0751 10.6972V11.0602L14.3969 10.8589C14.4601 10.8346 14.5302 10.8316 14.5954 10.8506C14.6606 10.8696 14.717 10.9093 14.7548 10.9632C14.7926 11.017 14.8097 11.0815 14.8031 11.1459C14.7965 11.2102 14.7667 11.2705 14.7186 11.3164L14.3084 11.5772L14.7186 11.8349C14.756 11.8526 14.789 11.8776 14.8154 11.9083C14.8418 11.9389 14.8611 11.9744 14.872 12.0126C14.8829 12.0508 14.8851 12.0907 14.8786 12.1299C14.8721 12.169 14.8568 12.2063 14.8341 12.2394C14.8112 12.2725 14.7812 12.3007 14.7461 12.3221C14.711 12.3434 14.6714 12.3575 14.6302 12.3634C14.5889 12.3693 14.5467 12.3667 14.5065 12.3562C14.4664 12.3455 14.429 12.3269 14.3969 12.3015L14.0751 12.1003V12.4647C14.0751 12.5392 14.0439 12.6105 13.9884 12.6632C13.9329 12.7158 13.8576 12.7453 13.7791 12.7453C13.7006 12.7453 13.6253 12.7158 13.5698 12.6632C13.5143 12.6105 13.4831 12.5392 13.4831 12.4647V12.111L13.1614 12.3122C13.0964 12.3456 13.0206 12.3547 12.9491 12.3375C12.8775 12.3205 12.8153 12.2785 12.7748 12.2199C12.7343 12.1614 12.7185 12.0907 12.7305 12.0215C12.7425 11.9525 12.7814 11.8903 12.8396 11.8471L13.2498 11.5879L12.8396 11.3286C12.8023 11.3109 12.7693 11.2859 12.7429 11.2553C12.7165 11.2247 12.6972 11.1891 12.6862 11.1508C12.6753 11.1127 12.6731 11.0727 12.6796 11.0336C12.6862 10.9946 12.7014 10.9572 12.7242 10.9241C12.747 10.891 12.777 10.8629 12.8121 10.8415C12.8472 10.82 12.8868 10.806 12.9281 10.8002C12.9693 10.7943 13.0115 10.7967 13.0517 10.8074C13.0918 10.8181 13.1292 10.8366 13.1614 10.8619L13.4831 11.0632V10.6972ZM8.78216 8.73148H18.6956C18.9095 8.73467 19.1137 8.81729 19.2641 8.96157C19.4145 9.10584 19.4992 9.30032 19.5 9.50314V13.6314C19.5003 13.8375 19.4169 14.0357 19.2671 14.185C19.1173 14.3344 18.9127 14.4234 18.6956 14.4336H15.2141C14.3245 15.5026 13.1645 16.1462 11.7939 16.4923C11.74 16.5057 11.6833 16.5048 11.63 16.4898C11.5767 16.4747 11.5287 16.4461 11.4914 16.407C11.4649 16.3791 11.4445 16.3466 11.4313 16.3111C11.4182 16.2758 11.4126 16.2384 11.4148 16.2009C11.4171 16.1634 11.4271 16.1268 11.4444 16.0931C11.4617 16.0593 11.4858 16.0292 11.5155 16.0043C11.6774 15.8709 11.8251 15.7228 11.9563 15.5621C12.2079 15.2076 12.3954 14.8159 12.5114 14.403H8.78216C8.56669 14.4019 8.36031 14.3202 8.20798 14.1757C8.05556 14.0313 7.96937 13.8357 7.96816 13.6314V9.50314C7.96853 9.29864 8.05444 9.10256 8.20705 8.95791C8.35956 8.81327 8.56641 8.73186 8.78216 8.73148ZM10.0162 19.3899C10.1816 19.3902 10.3432 19.437 10.4807 19.5242C10.6182 19.6114 10.7253 19.7352 10.7887 19.8801C10.8521 20.0249 10.8688 20.1843 10.8368 20.3382C10.8049 20.492 10.7255 20.6335 10.6089 20.7447C10.4922 20.8559 10.3435 20.9319 10.1813 20.963C10.0192 20.9943 9.85099 20.9793 9.69782 20.9201C9.54465 20.8608 9.4134 20.7599 9.32056 20.6301C9.22781 20.5003 9.1776 20.3474 9.17629 20.1905C9.17572 20.0856 9.1969 19.9816 9.23887 19.8845C9.28074 19.7874 9.34257 19.6991 9.42061 19.6247C9.49865 19.5503 9.59139 19.4912 9.6936 19.4509C9.79581 19.4106 9.90542 19.3899 10.0162 19.3899Z" fill="#606060"/>
</svg>
