<svg class="icon-highlight" width="24" height="24" viewBox="0 0 24 24" fill="none" xmlns="http://www.w3.org/2000/svg">
  <path d="M21.2113 6.36103C21.1133 6.13208 20.9079 5.96675 20.6634 5.91976C20.4188 5.87278 20.1668 5.95028 19.9909 6.1266L16.3471 9.77906L14.5774 9.42262L14.221 7.6529L17.8734 4.00913C18.0498 3.83323 18.1273 3.58127 18.0803 3.33669C18.0333 3.0921 17.868 2.88679 17.639 2.78874C16.3465 2.23518 14.9132 2.09968 13.5399 2.40119C12.1665 2.70271 10.9218 3.42615 9.98002 4.47023C9.03825 5.51432 8.44656 6.82677 8.28779 8.22385C8.15232 9.41586 8.33778 10.6185 8.81966 11.7092L3.16621 16.5885C3.15233 16.6005 3.13889 16.613 3.12592 16.626C2.56258 17.1893 2.24609 17.9534 2.24609 18.75C2.24609 19.5467 2.56258 20.3108 3.12592 20.8741C3.68926 21.4375 4.45331 21.7539 5.25 21.7539C6.04668 21.7539 6.81074 21.4375 7.37408 20.8741C7.38705 20.8612 7.39954 20.8477 7.41152 20.8338L12.2909 15.1804C13.3815 15.6623 14.5842 15.8477 15.7762 15.7123C17.1733 15.5535 18.4857 14.9618 19.5298 14.02C20.5739 13.0782 21.2973 11.8336 21.5989 10.4602C21.9004 9.08683 21.7649 7.65355 21.2113 6.36103Z" stroke="#161922" stroke-width="1.5" stroke-linecap="round" stroke-linejoin="round"/>
</svg>