<svg width="25" height="25" viewBox="0 0 25 25" fill="none" xmlns="http://www.w3.org/2000/svg">
<path d="M21.7735 6.42361C21.695 6.24045 21.5308 6.10818 21.3351 6.0706C21.1394 6.03301 20.9379 6.09501 20.7972 6.23606L17.0965 9.94554L15.1501 9.55351L14.7581 7.60711L18.4676 3.90647C18.6086 3.76575 18.6706 3.56418 18.633 3.36851C18.5954 3.17284 18.4632 3.00859 18.28 2.93015C17.0163 2.38891 15.6149 2.25642 14.2721 2.55123C12.9293 2.84603 11.7123 3.55338 10.7915 4.57423C9.87065 5.59508 9.29213 6.87833 9.13689 8.24432C9.00024 9.4467 9.19757 10.6602 9.70255 11.753L3.96428 16.7056C3.95317 16.7152 3.94242 16.7252 3.93204 16.7356C3.39683 17.2708 3.09615 17.9967 3.09615 18.7536C3.09615 19.5105 3.39683 20.2364 3.93204 20.7716L4.3563 20.3473L3.93204 20.7716C4.46725 21.3068 5.19315 21.6075 5.95005 21.6075C6.70696 21.6075 7.43286 21.3068 7.96807 20.7716C7.97844 20.7612 7.98844 20.7505 7.99802 20.7393L12.9506 15.0011C14.0434 15.5061 15.2569 15.7034 16.4593 15.5667C17.8253 15.4115 19.1085 14.833 20.1294 13.9122C21.1502 12.9914 21.8576 11.7744 22.1524 10.4316C22.4472 9.08875 22.3147 7.68737 21.7735 6.42361Z" stroke="#606060" stroke-width="1.2" stroke-linecap="round" stroke-linejoin="round"/>
</svg>
