<svg width="36" height="33" viewBox="0 0 36 33" fill="none" xmlns="http://www.w3.org/2000/svg">
<path d="M2.78647 1.34741H31.827C33.3664 1.34741 34.6144 2.5954 34.6144 4.13486V28.56C34.6144 30.0994 33.3664 31.3474 31.827 31.3474H2.78647C1.24701 31.3474 -0.000976562 30.0994 -0.000976562 28.56V4.13486C-0.000976563 2.5954 1.24701 1.34741 2.78647 1.34741Z" fill="white" stroke="#131F37" stroke-width="1.5" stroke-linecap="square" stroke-linejoin="round"/>
<path d="M-0.000976562 9.42431H34.6144" stroke="#131F37" stroke-width="1.5" stroke-linecap="square"/>
<path d="M4.64453 5.38586H10.9907" stroke="#131F37" stroke-width="1.5" stroke-linecap="round"/>
<path d="M6.50283 14.3555H13.936C14.9623 14.3555 15.7943 15.1875 15.7943 16.2138V24.5762C15.7943 25.6025 14.9623 26.4345 13.936 26.4345H6.50283C5.47652 26.4345 4.64453 25.6025 4.64453 24.5762V16.2138C4.64453 15.1875 5.47652 14.3555 6.50283 14.3555Z" fill="#3DB249"/>
<path d="M21.369 14.3555H28.8022C29.8286 14.3555 30.6605 15.1875 30.6605 16.2138V24.5762C30.6605 25.6025 29.8286 26.4345 28.8022 26.4345H21.369C20.3427 26.4345 19.5107 25.6025 19.5107 24.5762V16.2138C19.5107 15.1875 20.3427 14.3555 21.369 14.3555Z" fill="#3DB249"/>
</svg>
