<svg width="49" height="31" viewBox="0 0 49 31" fill="none" xmlns="http://www.w3.org/2000/svg">
<path d="M41.8296 13.7748V26.5232C41.8296 28.4434 40.273 30 38.3528 30H4.47683C2.55663 30 1 28.4434 1 26.5232V11.8394C1 9.91918 2.55663 8.36255 4.47683 8.36255H32.871" stroke="#161922" stroke-width="1.75" stroke-linecap="round"/>
<circle cx="9.28615" cy="19.1987" r="2.71193" fill="#3DB249"/>
<circle cx="16.2861" cy="19.1987" r="2.71193" fill="#3DB249"/>
<circle cx="23.4834" cy="19.1987" r="2.71193" fill="#3DB249"/>
<path d="M43.3013 2.6604L29.5099 16.5677C29.3415 16.7345 29.2282 16.9489 29.1854 17.182L28.7334 19.8244L31.3758 19.3724C31.6089 19.3296 31.8233 19.2163 31.99 19.0479L45.8974 5.25643L44.6225 3.94683L43.3013 2.6604Z" fill="#161922"/>
<path d="M48.3661 1.80289L47.578 0.991631L46.7783 0.203549C46.6498 0.0733139 46.4745 0 46.2916 0C46.1086 0 45.9333 0.0733139 45.8048 0.203549L44.0664 1.94196L45.3181 3.25157L46.6161 4.51482L48.3545 2.7764C48.4863 2.64947 48.5617 2.47502 48.5639 2.29207C48.566 2.10912 48.4948 1.93292 48.3661 1.80289Z" fill="#161922"/>
</svg>
