<svg width="32" height="32" viewBox="0 0 32 32" fill="none" xmlns="http://www.w3.org/2000/svg">
<path d="M30.2588 22.875C29.8546 22.875 29.5177 23.1863 29.5177 23.5599V26.4239C29.5177 28.1983 27.9679 29.6303 26.0476 29.6303H22.6787C22.2744 29.6303 21.9375 29.9416 21.9375 30.3151C21.9375 30.6887 22.2744 31 22.6787 31H26.0476C28.7765 31 31 28.9454 31 26.4239V23.5599C31 23.1863 30.6631 22.875 30.2588 22.875Z" fill="#161922" stroke="#161922" stroke-width="0.5"/>
<path d="M26.0476 1H22.6787C22.2744 1 21.9375 1.32835 21.9375 1.72237C21.9375 2.11639 22.2744 2.44475 22.6787 2.44475H26.0476C27.9679 2.44475 29.5177 3.95516 29.5177 5.82677V9.34013C29.5177 9.73415 29.8546 10.0625 30.2588 10.0625C30.6631 10.0625 31 9.73415 31 9.34013V5.82677C31 3.16712 28.7765 1 26.0476 1Z" fill="#161922" stroke="#161922" stroke-width="0.5"/>
<path d="M22.25 14.125C23.0871 14.125 23.7567 13.7411 23.8125 13.2613V10.9582C23.8125 10.4464 23.1429 10.0625 22.25 10.0625C21.3571 10.0625 20.6875 10.4783 20.6875 10.9582V13.2293C20.6875 13.7411 21.4129 14.125 22.25 14.125Z" fill="#3DB249" stroke="#3DB249" stroke-width="0.25"/>
<path d="M20.8323 20.0069C19.4804 21.3769 17.6778 22.138 15.8377 22.138H15.5373C13.6596 22.138 11.8946 21.3769 10.5427 20.0069C10.2422 19.6644 9.71647 19.6644 9.37849 20.0069C9.0405 20.3113 9.0405 20.8441 9.37849 21.1866C11.0684 22.8992 13.2465 23.8125 15.5373 23.8125H15.8377C18.1285 23.8125 20.3442 22.8992 21.9965 21.1866C22.3345 20.8822 22.3345 20.3494 21.9965 20.0069C21.6961 19.6644 21.1703 19.6644 20.8323 20.0069Z" fill="#3DB249" stroke="#3DB249" stroke-width="0.25"/>
<path d="M14.015 18.1875H14.2031C15.8958 18.1875 17.25 17.0359 17.25 15.6284V10.7662C17.25 10.3824 16.8738 10.0625 16.4225 10.0625C15.9711 10.0625 15.5949 10.3824 15.5949 10.7662V15.5965C15.5949 16.2682 14.9554 16.78 14.2031 16.78H14.015C13.5637 16.78 13.1875 17.0999 13.1875 17.4838C13.1875 17.8676 13.5637 18.1875 14.015 18.1875Z" fill="#3DB249" stroke="#3DB249" stroke-width="0.25"/>
<path d="M8.5 10.0625C7.60714 10.0625 6.9375 10.4783 6.9375 10.9582V13.2293C6.9375 13.7411 7.66295 14.125 8.5 14.125C9.39286 14.125 10.0625 13.7411 10.0625 13.2613V10.9582C10.0625 10.4464 9.33705 10.0625 8.5 10.0625Z" fill="#3DB249" stroke="#3DB249" stroke-width="0.25"/>
<path d="M1.74117 10.0625C2.14545 10.0625 2.48234 9.73415 2.48234 9.34013V5.82677C2.48234 3.95516 4.03206 2.44475 5.95237 2.44475H9.32133C9.7256 2.44475 10.0625 2.11639 10.0625 1.72237C10.0625 1.32835 9.7256 1 9.32133 1H5.95237C3.22351 1 1 3.16712 1 5.82677V9.34013C1 9.73415 1.3369 10.0625 1.74117 10.0625Z" fill="#161922" stroke="#161922" stroke-width="0.5"/>
<path d="M9.32133 29.6303H5.95237C4.03206 29.6303 2.48234 28.1983 2.48234 26.4239V23.5599C2.48234 23.1863 2.14545 22.875 1.74117 22.875C1.3369 22.875 1 23.1863 1 23.5599V26.4239C1 28.9454 3.22351 31 5.95237 31H9.32133C9.75929 31 10.0625 30.6887 10.0625 30.3151C10.0625 29.9416 9.7256 29.6303 9.32133 29.6303Z" fill="#161922" stroke="#161922" stroke-width="0.5"/>
</svg>
