<svg width="30" height="32" viewBox="0 0 30 32" fill="none" xmlns="http://www.w3.org/2000/svg">
<path d="M0.100586 22.3855L14.3475 30.5636C14.5016 30.6521 14.6912 30.6521 14.8453 30.5636L29.0922 22.3855" stroke="#161922" stroke-width="1.75" stroke-linecap="round"/>
<path d="M0.100586 16.2407L14.343 24.6139C14.4994 24.7059 14.6934 24.7059 14.8498 24.6139L29.0922 16.2407" stroke="#161922" stroke-width="1.75" stroke-linecap="round"/>
<path fill-rule="evenodd" clip-rule="evenodd" d="M0.792328 9.64801C0.477325 9.85205 0.491049 10.3175 0.817528 10.5026L14.3498 18.1758C14.5028 18.2626 14.6901 18.2626 14.843 18.1758L28.3753 10.5026C28.7018 10.3175 28.7155 9.85205 28.4005 9.64801L14.8682 0.882616C14.7029 0.775489 14.49 0.775489 14.3246 0.882617L0.792328 9.64801Z" fill="#3DB249" stroke="#161922" stroke-width="1.5" stroke-linecap="round"/>
</svg>
