<svg width="31" height="32" viewBox="0 0 31 32" fill="none" xmlns="http://www.w3.org/2000/svg">
<path d="M15.3287 21.5C16.0376 21.5 16.4924 21.0185 16.4924 20.3096C16.4924 20.2427 16.479 20.1758 16.4656 20.1089L16.1713 17.7682L18.1376 19.2662C18.3783 19.4669 18.6459 19.5739 18.9535 19.5739C19.5554 19.5739 20.1038 19.0522 20.1038 18.3701C20.1038 17.8752 19.8096 17.4739 19.2879 17.2732L17.0006 16.2834L19.2879 15.2936C19.8096 15.093 20.1038 14.6917 20.1038 14.1968C20.1038 13.5146 19.5688 13.0064 18.9535 13.0064C18.6459 13.0064 18.3783 13.1134 18.1376 13.314L16.1446 14.8121L16.4522 12.3911C16.4656 12.3242 16.479 12.2573 16.479 12.1904C16.479 11.4815 16.0242 11 15.3287 11C14.6064 11 14.1248 11.5083 14.1248 12.2038C14.1248 12.2707 14.1382 12.3242 14.1516 12.3911L14.4592 14.8121L12.4662 13.3006C12.2389 13.1134 11.958 13.0064 11.6503 13.0064C11.0484 13.0064 10.5 13.528 10.5 14.1968C10.5 14.6917 10.7943 15.0796 11.3159 15.2936L13.5898 16.2834L11.3159 17.2599C10.8076 17.4739 10.5 17.8752 10.5 18.3701C10.5 19.0522 11.0484 19.5605 11.6503 19.5605C11.9446 19.5605 12.2255 19.4669 12.4662 19.2662L14.4459 17.7682L14.1382 20.1089C14.1248 20.1758 14.1248 20.2427 14.1248 20.3096C14.1115 21.0051 14.593 21.5 15.3287 21.5Z" fill="#3DB249"/>
<path d="M29.5149 16.7443C29.5137 23.5462 24.7076 29.4 18.036 30.7253C11.3644 32.0506 4.6858 28.4783 2.08489 22.1933C-0.516019 15.9082 1.68528 8.6612 7.34242 4.88456C12.9996 1.10792 20.5368 1.85368 25.3441 6.66571" stroke="#151923" stroke-width="1.75" stroke-linecap="round"/>
<path d="M19.3965 7.5285H25.6282C25.9456 7.5285 26.1827 7.23655 26.1176 6.92588L24.8749 1" stroke="#151923" stroke-width="1.75" stroke-linecap="round"/>
</svg>
