<svg width="31" height="33" viewBox="0 0 31 33" fill="none" xmlns="http://www.w3.org/2000/svg">
<path d="M12.7493 12.9915H8.45996C7.90768 12.9915 7.45996 13.4392 7.45996 13.9915V30.4707C7.45996 31.023 7.90768 31.4707 8.45996 31.4707H28.6351C29.1873 31.4707 29.6351 31.023 29.6351 30.4707V13.9915C29.6351 13.4392 29.1873 12.9915 28.6351 12.9915H24.0913" stroke="#161922" stroke-width="1.75" stroke-linecap="round"/>
<path fill-rule="evenodd" clip-rule="evenodd" d="M6.28935 6.57959H2C1.44771 6.57959 1 7.02731 1 7.57959V24.0588C1 24.6111 1.44772 25.0588 2 25.0588H22.1751C22.7274 25.0588 23.1751 24.6111 23.1751 24.0588V7.57959C23.1751 7.0273 22.7274 6.57959 22.1751 6.57959H17.6313" fill="white"/>
<path d="M6.28935 6.57959H2C1.44771 6.57959 1 7.02731 1 7.57959V24.0588C1 24.6111 1.44772 25.0588 2 25.0588H22.1751C22.7274 25.0588 23.1751 24.6111 23.1751 24.0588V7.57959C23.1751 7.0273 22.7274 6.57959 22.1751 6.57959H17.6313" stroke="#161922" stroke-width="1.75" stroke-linecap="round"/>
<path d="M12.1852 1.47059L12.2489 15.9818" stroke="#3DB249" stroke-width="1.75" stroke-linecap="round"/>
<path d="M7.64965 12.9832L11.8958 17.2293C12.0911 17.4246 12.4077 17.4246 12.6029 17.2293L16.6934 13.1389" stroke="#3DB249" stroke-width="1.75" stroke-linecap="round"/>
</svg>
