<svg width="43" height="30" viewBox="0 0 43 30" fill="none" xmlns="http://www.w3.org/2000/svg">
<path fill-rule="evenodd" clip-rule="evenodd" d="M24.9436 12.9763C25.1849 13.0955 25.4304 13.209 25.6763 13.3227C26.222 13.575 26.7698 13.8283 27.2784 14.1462C30.5183 16.0779 32.614 19.4668 32.8948 23.2284C33.0723 24.6312 32.4829 26.0214 31.3511 26.8691C30.0306 27.932 28.5055 28.7119 26.8707 29.1603C24.183 29.972 21.3526 30.1987 18.57 29.8253C16.5365 29.6101 14.5611 29.0174 12.745 28.0778C11.741 27.5748 10.8759 26.833 10.2256 25.9176C9.80364 25.3226 9.59496 24.6025 9.63341 23.874C9.90039 18.9616 12.279 15.4762 16.7205 13.3889C16.916 13.2992 17.12 13.2222 17.331 13.1425C17.4396 13.1014 17.5501 13.0597 17.6623 13.0152C15.3856 11.4909 14.1818 9.39878 14.2643 6.6513C14.3062 4.77766 15.13 3.00697 16.5361 1.76797C18.5181 0.0119334 21.3189 -0.481151 23.7814 0.492394C26.244 1.46594 27.9505 3.74087 28.1959 6.37751C28.4414 9.01415 27.1841 11.565 24.9436 12.9763ZM21.5456 28.4612L21.5464 28.4612L21.5505 28.4612H21.5456ZM21.956 28.4334L21.9565 28.4333H21.9565C22.3912 28.4053 22.9552 28.369 23.5164 28.3011C25.4408 28.101 27.3084 27.5307 29.0162 26.6215C29.7213 26.2561 30.3518 25.7622 30.8754 25.1652C31.2334 24.7924 31.4107 24.2817 31.3608 23.7672C31.3406 23.5916 31.3244 23.4149 31.3082 23.2382L31.3082 23.2381V23.2381C31.2737 22.8631 31.2392 22.4879 31.1667 22.1217C30.1699 17.0668 25.5302 13.5709 20.3965 14.0066C15.2627 14.4422 11.2785 18.6701 11.1479 23.8206C11.1251 24.3782 11.3161 24.9234 11.6819 25.3448C12.3044 26.0397 13.0715 26.5898 13.9294 26.9564C16.2389 28.0384 18.6939 28.4172 21.5464 28.4612C21.6625 28.4523 21.8011 28.4433 21.956 28.4334ZM26.7299 7.01537C26.7299 10.5881 23.6038 12.6608 21.2253 12.4424L21.2301 12.4569C18.769 12.6171 15.7982 10.4279 15.7788 7.01537C15.7788 3.99131 18.2303 1.53983 21.2544 1.53983C24.2784 1.53983 26.7299 3.99131 26.7299 7.01537Z" fill="black"/>
<path fill-rule="evenodd" clip-rule="evenodd" d="M29.3848 14.2821L30.5595 15.253L30.71 15.1413C32.1955 13.8712 34.1799 13.3492 36.0981 13.7239C39.063 14.2739 41.2612 16.7895 41.4086 19.8013C41.4509 20.1822 41.2974 20.5586 41.0009 20.8013C40.5899 21.1424 40.146 21.4416 39.6757 21.6945C38.0482 22.4751 36.25 22.8324 34.4477 22.7333H34.1953V24.2332C34.2503 24.2361 34.3053 24.2361 34.3603 24.2332C36.507 24.4017 38.6588 23.9804 40.5834 23.0148C41.2883 22.6688 41.9082 22.1716 42.3989 21.5586C42.7747 21.1077 42.9701 20.5335 42.9474 19.947C42.8953 16.888 41.0926 14.1302 38.3116 12.855C38.2285 12.8134 38.1436 12.7755 38.0568 12.7367C38.0017 12.7121 37.9459 12.6872 37.8893 12.6608C39.5851 11.3746 40.2703 9.14936 39.5919 7.13205C38.9134 5.11474 37.0226 3.75586 34.8943 3.75586C32.7659 3.75586 30.8752 5.11474 30.1967 7.13205C29.5182 9.14936 30.2035 11.3746 31.8992 12.6608C30.9693 13.0435 30.1171 13.593 29.3848 14.2821ZM38.1178 10.4548C37.4374 11.5633 36.1839 12.1861 34.8894 12.0589V12.0686C33.1402 11.922 31.7905 10.4671 31.7754 8.71177C31.7603 6.95643 33.0847 5.47852 34.8312 5.30183C36.1232 5.15229 37.3873 5.75342 38.0867 6.85003C38.7861 7.94664 38.7982 9.34629 38.1178 10.4548Z" fill="black"/>
<path fill-rule="evenodd" clip-rule="evenodd" d="M13.2593 14.185C12.5657 13.528 11.758 13.0033 10.8759 12.6365C12.4149 11.6242 13.2483 9.82794 13.0275 7.99909C12.8066 6.17025 11.5696 4.62399 9.83385 4.00709C8.09809 3.39019 6.1627 3.80896 4.83722 5.08824C3.8957 5.82568 3.27636 6.89909 3.10913 8.08328C2.82683 9.82333 3.51986 11.5783 4.91489 12.6559L4.71102 12.753C2.20817 13.8375 0.457704 16.1555 0.0995204 18.8596C-0.0926277 19.6125 -0.00464609 20.4095 0.347085 21.1023C0.719052 21.7042 1.2344 22.2045 1.84703 22.5585C3.34522 23.4322 5.032 23.9318 6.76434 24.0148C7.11799 24.0375 7.4738 24.0298 7.82599 24.0223C8.00072 24.0185 8.17457 24.0148 8.34681 24.0148L8.41963 22.51H7.70121C6.6544 22.507 5.61275 22.3633 4.60422 22.0828C3.68048 21.8588 2.81926 21.429 2.08489 20.8256C1.71849 20.5407 1.53316 20.0811 1.59947 19.6217C1.61658 19.5002 1.63008 19.3781 1.64357 19.256C1.66834 19.0318 1.6931 18.8078 1.74024 18.5878C2.36964 15.6908 4.93078 13.6225 7.89537 13.6171C9.0407 13.6389 10.1623 13.9477 11.1574 14.5151C11.3603 14.635 11.5535 14.7724 11.7505 14.9126C11.8646 14.9937 11.9799 15.0758 12.0991 15.1559L13.2593 14.185ZM11.1331 8.792C11.1304 10.5962 9.66564 12.0567 7.86139 12.054C6.99337 12.0579 6.15991 11.7142 5.54703 11.0995C4.93415 10.4848 4.59287 9.6503 4.59937 8.78229C4.60205 6.97804 6.06685 5.51759 7.8711 5.52027C9.67534 5.52295 11.1358 6.98775 11.1331 8.792Z" fill="black"/>
<path d="M21.5504 28.4612C18.6961 28.4175 16.2399 28.0389 13.9293 26.9564C13.0714 26.5898 12.3043 26.0397 11.6818 25.3448C11.3225 24.9276 11.1335 24.3903 11.1527 23.84C11.2833 18.6895 15.2675 14.4616 20.4012 14.0259C25.535 13.5902 30.1747 17.0862 31.1714 22.141C31.2782 22.6799 31.3025 23.2381 31.3656 23.7866C31.4155 24.3011 31.2382 24.8118 30.8802 25.1846C30.3566 25.7816 29.726 26.2755 29.021 26.6409C27.3132 27.5501 25.4456 28.1204 23.5212 28.3204C22.7591 28.3933 21.9921 28.4272 21.5504 28.4612Z" fill="#3DB249"/>
<path d="M21.2296 12.457C18.7686 12.6171 15.7978 10.4279 15.7881 7.0251C15.7881 4.00104 18.2396 1.54956 21.2636 1.54956C24.2877 1.54956 26.7392 4.00104 26.7392 7.0251C26.7295 10.5881 23.6034 12.6608 21.2296 12.457Z" fill="#3DB249"/>
</svg>
