<svg width="27" height="30" viewBox="0 0 27 30" fill="none" xmlns="http://www.w3.org/2000/svg">
<path d="M20.7936 27.9982C20.7936 28.3192 20.5657 28.5714 20.2756 28.5714H5.86074C5.57583 28.5714 5.34277 28.3192 5.34277 27.9982C5.34277 24.153 8.13518 20.8674 11.7914 20.8674H14.3449C17.9187 20.8674 20.7936 24.073 20.7936 27.9982Z" fill="#3DB249"/>
<path d="M17.1244 15.3207C17.1244 17.2629 15.3148 19.6088 13.071 19.6088C10.8223 19.6088 9.0127 17.2629 9.0127 15.3207C9.0127 13.4391 10.8321 11.9048 13.071 11.9048C15.305 11.9048 17.1244 13.4391 17.1244 15.3207Z" fill="#3DB249"/>
<rect x="0.75" y="7.41663" width="25.1667" height="21.8333" rx="2.25" stroke="#161922" stroke-width="1.5"/>
<path fill-rule="evenodd" clip-rule="evenodd" d="M2.46875 4.81458H24.4688C24.4688 3.98615 23.7972 3.31458 22.9688 3.31458H3.96875C3.14032 3.31458 2.46875 3.98615 2.46875 4.81458Z" fill="#161922"/>
<path fill-rule="evenodd" clip-rule="evenodd" d="M5.24707 1.5H21.6906C21.6906 0.671573 21.019 0 20.1906 0H6.74707C5.91864 0 5.24707 0.671573 5.24707 1.5Z" fill="#161922"/>
</svg>
