<svg width="54" height="32" viewBox="0 0 54 32" fill="none" xmlns="http://www.w3.org/2000/svg">
<path d="M1 15.3H15.8L20 9.1L23.5 20.9L26.2 15.4H32.7L36.6 7L40.9 15.5L52.6 15.3" stroke="#3DB249" stroke-width="1.75" stroke-linecap="round"/>
<path fill-rule="evenodd" clip-rule="evenodd" d="M34.4998 1C36.9998 1 39.3998 2 41.0998 3.7C42.8998 5.5 43.7998 7.8 43.7998 10.3C43.7998 12.8 42.8998 15.1 41.0998 16.9L27.1998 30.8C27.0998 30.9 26.8998 31 26.7998 31C26.6998 31 26.4998 30.9 26.3998 30.8L12.4998 16.9C10.7998 15.1 9.7998 12.8 9.7998 10.3C9.7998 7.8 10.6998 5.5 12.4998 3.7C14.2998 2 16.5998 1 19.0998 1C21.5998 1 23.8998 2 25.6998 3.7L26.7998 4.8L27.8998 3.7C29.6998 2 31.9998 1 34.4998 1ZM26.7998 29.5L40.2998 16.1C41.7998 14.5 42.6998 12.5 42.7998 10.3C42.7998 8.1 41.9998 6.1 40.3998 4.5C38.7998 2.9 36.7998 2.1 34.5998 2.1C32.3998 2.1 30.2998 3 28.7998 4.5L27.0998 6C26.8998 6.2 26.4998 6.2 26.2998 6L24.7998 4.5C23.2998 3 21.2998 2.1 19.0998 2.1C16.8998 2.1 14.7998 3 13.2998 4.5C11.6998 6.1 10.8998 8.1 10.8998 10.3C10.8998 12.5 11.7998 14.6 13.2998 16.1L26.7998 29.5Z" fill="#161922"/>
<path d="M41.0998 3.7L41.2766 3.52322L41.0998 3.7ZM41.0998 16.9L41.2766 17.0768L41.0998 16.9ZM26.3998 30.8L26.5766 30.6232L26.3998 30.8ZM12.4998 16.9L12.318 17.0717L12.323 17.0768L12.4998 16.9ZM12.4998 3.7L12.3281 3.51817L12.323 3.52322L12.4998 3.7ZM25.6998 3.7L25.8767 3.52315L25.8715 3.51825L25.6998 3.7ZM26.7998 4.8L26.623 4.97678L26.7998 5.15355L26.9766 4.97678L26.7998 4.8ZM27.8998 3.7L27.7281 3.51817L27.723 3.52322L27.8998 3.7ZM40.2998 16.1L40.476 16.2775L40.4822 16.271L40.2998 16.1ZM26.7998 29.5L26.6237 29.6774L26.7998 29.8522L26.9759 29.6774L26.7998 29.5ZM42.7998 10.3L43.0498 10.3114V10.3H42.7998ZM40.3998 4.5L40.5766 4.32322L40.3998 4.5ZM28.7998 4.5L28.9652 4.68746L28.9711 4.6823L28.9766 4.67678L28.7998 4.5ZM27.0998 6L26.9344 5.81254L26.9285 5.8177L26.923 5.82322L27.0998 6ZM26.2998 6L26.4766 5.82322V5.82322L26.2998 6ZM13.2998 4.5L13.123 4.32322L13.2998 4.5ZM13.2998 16.1L13.123 16.2768L13.1237 16.2774L13.2998 16.1ZM41.2766 3.52322C39.529 1.77567 37.0651 0.75 34.4998 0.75V1.25C36.9345 1.25 39.2706 2.22433 40.923 3.87678L41.2766 3.52322ZM44.0498 10.3C44.0498 7.73673 43.1256 5.37221 41.2766 3.52322L40.923 3.87678C42.674 5.62779 43.5498 7.86327 43.5498 10.3H44.0498ZM41.2766 17.0768C43.1256 15.2278 44.0498 12.8633 44.0498 10.3H43.5498C43.5498 12.7367 42.674 14.9722 40.923 16.7232L41.2766 17.0768ZM27.3766 30.9768L41.2766 17.0768L40.923 16.7232L27.023 30.6232L27.3766 30.9768ZM26.7998 31.25C26.9105 31.25 27.029 31.2024 27.1116 31.1611C27.2021 31.1158 27.3018 31.0515 27.3766 30.9768L27.023 30.6232C26.9978 30.6485 26.9475 30.6842 26.888 30.7139C26.8598 30.728 26.8344 30.7383 26.8146 30.7446C26.7919 30.7518 26.7884 30.75 26.7998 30.75V31.25ZM26.223 30.9768C26.2978 31.0515 26.3975 31.1158 26.488 31.1611C26.5706 31.2024 26.6891 31.25 26.7998 31.25V30.75C26.8113 30.75 26.8077 30.7518 26.785 30.7446C26.7652 30.7383 26.7398 30.728 26.7116 30.7139C26.6521 30.6842 26.6019 30.6485 26.5766 30.6232L26.223 30.9768ZM12.323 17.0768L26.223 30.9768L26.5766 30.6232L12.6766 16.7232L12.323 17.0768ZM9.5498 10.3C9.5498 12.8693 10.5781 15.2294 12.3181 17.0717L12.6816 16.7283C11.0215 14.9706 10.0498 12.7307 10.0498 10.3H9.5498ZM12.323 3.52322C10.474 5.37221 9.5498 7.73673 9.5498 10.3H10.0498C10.0498 7.86327 10.9256 5.62779 12.6766 3.87678L12.323 3.52322ZM19.0998 0.75C16.5305 0.75 14.1704 1.77833 12.3281 3.51825L12.6715 3.88175C14.4292 2.22167 16.6691 1.25 19.0998 1.25V0.75ZM25.8715 3.51825C24.0292 1.77833 21.6691 0.75 19.0998 0.75V1.25C21.5305 1.25 23.7704 2.22167 25.5281 3.88175L25.8715 3.51825ZM26.9766 4.62322L25.8766 3.52322L25.523 3.87678L26.623 4.97678L26.9766 4.62322ZM27.723 3.52322L26.623 4.62322L26.9766 4.97678L28.0766 3.87678L27.723 3.52322ZM34.4998 0.75C31.9305 0.75 29.5704 1.77833 27.7281 3.51825L28.0715 3.88175C29.8292 2.22167 32.0691 1.25 34.4998 1.25V0.75ZM40.1237 15.9226L26.6237 29.3226L26.9759 29.6774L40.4759 16.2774L40.1237 15.9226ZM42.5501 10.2886C42.453 12.425 41.5796 14.3694 40.1174 15.929L40.4822 16.271C42.02 14.6306 42.9467 12.575 43.0495 10.3114L42.5501 10.2886ZM40.223 4.67678C41.7753 6.22903 42.5498 8.16508 42.5498 10.3H43.0498C43.0498 8.03492 42.2243 5.97097 40.5766 4.32322L40.223 4.67678ZM34.5998 2.35C36.7347 2.35 38.6708 3.12452 40.223 4.67678L40.5766 4.32322C38.9288 2.67548 36.8649 1.85 34.5998 1.85V2.35ZM28.9766 4.67678C30.4305 3.2229 32.4672 2.35 34.5998 2.35V1.85C32.3324 1.85 30.1691 2.7771 28.623 4.32322L28.9766 4.67678ZM27.2652 6.18746L28.9652 4.68746L28.6344 4.31254L26.9344 5.81254L27.2652 6.18746ZM26.123 6.17678C26.2805 6.33427 26.5002 6.4 26.6998 6.4C26.8994 6.4 27.1191 6.33427 27.2766 6.17678L26.923 5.82322C26.8805 5.86573 26.8002 5.9 26.6998 5.9C26.5994 5.9 26.5191 5.86573 26.4766 5.82322L26.123 6.17678ZM24.623 4.67678L26.123 6.17678L26.4766 5.82322L24.9766 4.32322L24.623 4.67678ZM19.0998 2.35C21.2292 2.35 23.1668 3.2205 24.623 4.67678L24.9766 4.32322C23.4329 2.7795 21.3704 1.85 19.0998 1.85V2.35ZM13.4766 4.67678C14.9305 3.2229 16.9672 2.35 19.0998 2.35V1.85C16.8324 1.85 14.6691 2.7771 13.123 4.32322L13.4766 4.67678ZM11.1498 10.3C11.1498 8.16508 11.9243 6.22903 13.4766 4.67678L13.123 4.32322C11.4753 5.97097 10.6498 8.03492 10.6498 10.3H11.1498ZM13.4766 15.9232C12.0227 14.4693 11.1498 12.4326 11.1498 10.3H10.6498C10.6498 12.5674 11.5769 14.7307 13.123 16.2768L13.4766 15.9232ZM26.9759 29.3226L13.4759 15.9226L13.1237 16.2774L26.6237 29.6774L26.9759 29.3226Z" fill="#161922"/>
</svg>
