<svg width="56" height="26" viewBox="0 0 56 26" fill="none" xmlns="http://www.w3.org/2000/svg">
<rect x="0.999023" y="1.24976" width="53.6071" height="23.25" rx="2.125" fill="white" stroke="#161922" stroke-width="1.75"/>
<path fill-rule="evenodd" clip-rule="evenodd" d="M13.9495 14.8801L14.0751 17.0983H11.8883L12.0033 14.8801L10.1514 16.1043L9.05273 14.2104L11.0407 13.206L9.05273 12.2015L10.1514 10.3077L12.0033 11.5319L11.8883 9.30322H14.0751L13.9495 11.5214L15.8015 10.3077L16.9001 12.2015L14.9121 13.206L16.9001 14.2L15.8119 16.0938L13.9495 14.8801ZM23.879 14.8801L24.0046 17.0983H21.8178L21.9329 14.8801L20.0809 16.1043L18.9823 14.2104L20.9703 13.206L18.9823 12.2015L20.0809 10.3077L21.9329 11.5319L21.8178 9.30322H24.0046L23.879 11.5214L25.731 10.3077L26.8297 12.2015L24.8417 13.206L26.8297 14.2L25.7415 16.0938L23.879 14.8801ZM33.9342 17.0983L33.8086 14.8801L35.671 16.0938L36.7592 14.2L34.7712 13.206L36.7592 12.2015L35.6606 10.3077L33.8086 11.5214L33.9342 9.30322H31.7474L31.8624 11.5319L30.0105 10.3077L28.9118 12.2015L30.8998 13.206L28.9118 14.2104L30.0105 16.1043L31.8624 14.8801L31.7474 17.0983H33.9342ZM43.7381 14.8801L43.8637 17.0983H41.6769L41.792 14.8801L39.94 16.1043L38.8414 14.2104L40.8294 13.206L38.8414 12.2015L39.94 10.3077L41.792 11.5319L41.6769 9.30322H43.8637L43.7381 11.5214L45.5901 10.3077L46.6888 12.2015L44.7008 13.206L46.6888 14.2L45.6006 16.0938L43.7381 14.8801Z" fill="#3DB249"/>
</svg>
