<svg width="35" height="32" viewBox="0 0 35 32" fill="none" xmlns="http://www.w3.org/2000/svg">
<path fill-rule="evenodd" clip-rule="evenodd" d="M31.571 1H2.18447C1.58124 1 1.03513 1.2445 0.639815 1.63982C0.244505 2.03513 0 2.58124 0 3.18447V28.8155C0 29.4188 0.244505 29.9649 0.639815 30.3602C1.03513 30.7555 1.58124 31 2.18447 31H31.571C32.1742 31 32.7203 30.7555 33.1156 30.3602C33.5109 29.9649 33.7554 29.4188 33.7554 28.8155V3.18447C33.7554 2.58124 33.5109 2.03513 33.1156 1.63982C32.7203 1.2445 32.1742 1 31.571 1Z" stroke="#131F37" stroke-width="1.5"/>
<mask id="mask0" mask-type="alpha" maskUnits="userSpaceOnUse" x="0" y="1" width="34" height="30">
<path fill-rule="evenodd" clip-rule="evenodd" d="M2.1841 1.43689H31.5706C32.5358 1.43689 33.3182 2.2193 33.3182 3.18446V28.8155C33.3182 29.7807 32.5358 30.5631 31.5706 30.5631H2.1841C1.21894 30.5631 0.436523 29.7807 0.436523 28.8155V3.18446C0.436523 2.2193 1.21894 1.43689 2.1841 1.43689Z" fill="white"/>
</mask>
<g mask="url(#mask0)">
<path d="M10.6899 14.2524H8.82578C8.6971 14.2524 8.59277 14.3959 8.59277 14.5728V20.3398C8.59277 20.5168 8.6971 20.6602 8.82578 20.6602H10.6899C10.8185 20.6602 10.9229 20.5168 10.9229 20.3398V14.5728C10.9229 14.3959 10.8185 14.2524 10.6899 14.2524Z" fill="#3DB249"/>
<path d="M6.61174 17.165H4.74766C4.61897 17.165 4.51465 17.2954 4.51465 17.4563V20.3689C4.51465 20.5298 4.61897 20.6602 4.74766 20.6602H6.61174C6.74042 20.6602 6.84475 20.5298 6.84475 20.3689V17.4563C6.84475 17.2954 6.74042 17.165 6.61174 17.165Z" fill="#3DB249"/>
<path d="M15.35 11.9223H13.4859C13.3573 11.9223 13.2529 12.062 13.2529 12.2344V20.3481C13.2529 20.5205 13.3573 20.6602 13.4859 20.6602H15.35C15.4787 20.6602 15.583 20.5205 15.583 20.3481V12.2344C15.583 12.062 15.4787 11.9223 15.35 11.9223Z" fill="#3DB249"/>
<path fill-rule="evenodd" clip-rule="evenodd" d="M4.51465 27.6895L6.26222 24.7364L8.59232 26.089L11.3593 22.9903L13.2525 25.3399L15.5826 23.7229V27.6895" fill="url(#paint0_linear)"/>
</g>
<path d="M0.436523 9.10929H33.3182" stroke="#131F37" stroke-width="1.5" stroke-linecap="square"/>
<path d="M4.84961 5.27307H10.8779" stroke="#131F37" stroke-width="1.5" stroke-linecap="round"/>
<path d="M19.6602 16.274H29.1836" stroke="#131F37" stroke-width="1.5" stroke-linecap="round"/>
<path d="M19.6602 13.3614H25.6885" stroke="#131F37" stroke-width="1.5" stroke-linecap="round"/>
<path d="M19.6602 18.9126H21.4077" stroke="#131F37" stroke-width="1.5" stroke-linecap="round"/>
<defs>
<linearGradient id="paint0_linear" x1="4.51465" y1="22.9903" x2="4.51465" y2="27.6895" gradientUnits="userSpaceOnUse">
<stop stop-color="#73DF38"/>
<stop offset="1" stop-color="#3FBC1A" stop-opacity="0.01"/>
</linearGradient>
</defs>
</svg>
