<svg width="44" height="32" viewBox="0 0 44 32" fill="none" xmlns="http://www.w3.org/2000/svg">
<path fill-rule="evenodd" clip-rule="evenodd" d="M3.62486 1H30.9714C32.4211 1 33.5963 2.17519 33.5963 3.62486V28.3751C33.5963 29.8248 32.4211 31 30.9714 31H3.62486C2.17519 31 1 29.8248 1 28.3751V3.62486C1 2.17519 2.17519 1 3.62486 1Z" stroke="#161922" stroke-width="1.5" stroke-linecap="square" stroke-linejoin="round"/>
<path d="M1 8.60581H33.5963" stroke="#161922" stroke-width="1.5" stroke-linecap="square"/>
<path d="M5.375 4.80295H11.351" stroke="#161922" stroke-width="1.5" stroke-linecap="round"/>
<rect x="16.874" y="13.1248" width="25.6235" height="10.7493" rx="1.25" fill="white" stroke="#161922" stroke-width="1.5"/>
<path fill-rule="evenodd" clip-rule="evenodd" d="M22.8983 19.482L22.9598 20.5689H21.8884L21.9447 19.482L21.0373 20.0818L20.499 19.1539L21.4731 18.6618L20.499 18.1696L21.0373 17.2417L21.9447 17.8415L21.8884 16.7495H22.9598L22.8983 17.8364L23.8057 17.2417L24.344 18.1696L23.37 18.6618L24.344 19.1488L23.8109 20.0767L22.8983 19.482ZM27.7635 19.482L27.825 20.5689H26.7536L26.81 19.482L25.9025 20.0818L25.3642 19.1539L26.3383 18.6618L25.3642 18.1696L25.9025 17.2417L26.81 17.8415L26.7536 16.7495H27.825L27.7635 17.8364L28.6709 17.2417L29.2092 18.1696L28.2352 18.6618L29.2092 19.1488L28.6761 20.0767L27.7635 19.482ZM32.6903 20.5689L32.6287 19.482L33.5413 20.0767L34.0745 19.1488L33.1004 18.6618L34.0745 18.1696L33.5362 17.2417L32.6287 17.8364L32.6903 16.7495H31.6188L31.6752 17.8415L30.7678 17.2417L30.2295 18.1696L31.2035 18.6618L30.2295 19.1539L30.7678 20.0818L31.6752 19.482L31.6188 20.5689H32.6903ZM37.4939 19.482L37.5555 20.5689H36.484L36.5404 19.482L35.633 20.0818L35.0947 19.1539L36.0687 18.6618L35.0947 18.1696L35.633 17.2417L36.5404 17.8415L36.484 16.7495H37.5555L37.4939 17.8364L38.4014 17.2417L38.9397 18.1696L37.9656 18.6618L38.9397 19.1488L38.4065 20.0767L37.4939 19.482Z" fill="#3DB249"/>
</svg>
