<svg width="39" height="32" viewBox="0 0 39 32" fill="none" xmlns="http://www.w3.org/2000/svg">
<rect x="1" y="10" width="37" height="7" fill="#3DB249"/>
<path d="M34.2048 31C35.2425 31 36.1216 30.6334 36.8422 29.9003C37.5628 29.1672 37.9231 28.2727 37.9231 27.217V8.47801C37.9231 7.42229 37.5628 6.52786 36.8422 5.79472C36.1216 5.06158 35.2425 4.69501 34.2048 4.69501H19.5048L15.7865 1H4.71825C3.91119 1 3.24824 1.17595 2.72942 1.52786L1.6053 2.67155C1.20177 3.19941 1 3.8739 1 4.69501V27.217C1 28.0381 1.20177 28.7419 1.6053 29.3284C1.83589 29.563 1.95118 29.739 1.95118 29.8563C2.87354 30.6188 3.79589 31 4.71825 31H34.2048Z" stroke="#161922" stroke-width="1.5"/>
</svg>
