<svg width="32" height="32" viewBox="0 0 32 32" fill="none" xmlns="http://www.w3.org/2000/svg">
<path d="M24.2034 14.0377C20.609 14.0377 17.6846 11.1136 17.6846 7.51886C17.6846 3.92413 20.609 1 24.2034 1C27.7979 1 30.7223 3.92413 30.7223 7.51886C30.7223 11.1136 27.7979 14.0377 24.2034 14.0377Z" fill="#3DB249"/>
<path d="M26.7925 7.3554H24.5406V5.10348C24.5406 4.9653 24.4286 4.85327 24.2904 4.85327C24.1522 4.85327 24.0402 4.9653 24.0402 5.10348V7.3554H21.7883C21.6501 7.3554 21.5381 7.46742 21.5381 7.60561C21.5381 7.7438 21.6501 7.85582 21.7883 7.85582H24.0402V10.1077C24.0402 10.2459 24.1522 10.3579 24.2904 10.3579C24.4286 10.3579 24.5406 10.2459 24.5406 10.1077V7.85582H26.7925C26.9307 7.85582 27.0428 7.7438 27.0428 7.60561C27.0428 7.46742 26.9307 7.3554 26.7925 7.3554Z" fill="white" stroke="white"/>
<path d="M0.450653 30.8044C0.326296 30.6803 0.256078 30.5121 0.255326 30.3364L0.197279 18.7965C0.196135 18.6187 0.266058 18.4478 0.391516 18.3218C0.516975 18.1959 0.687569 18.1252 0.86537 18.1256L13.1894 18.1355C13.5575 18.1361 13.8556 18.4346 13.8556 18.8027V30.126C13.8559 30.4902 13.5639 30.7872 13.1998 30.7931L0.933782 30.9999C0.78518 31.0023 0.640887 30.9552 0.523133 30.8672L0.450653 30.8044Z" fill="white" stroke="#161922" stroke-width="1.5"/>
<path d="M0.450653 14.2904C0.326296 14.1663 0.256078 13.9981 0.255326 13.8224L0.197279 2.28248C0.196135 2.10469 0.266058 1.93379 0.391516 1.8078C0.516975 1.68181 0.687569 1.61117 0.86537 1.61157L13.1894 1.62148C13.5575 1.62206 13.8556 1.92056 13.8556 2.28862V13.6119C13.8559 13.9761 13.5639 14.2732 13.1998 14.2791L0.933782 14.4858C0.78518 14.4883 0.640887 14.4411 0.523133 14.3532L0.450653 14.2904Z" fill="white" stroke="#161922" stroke-width="1.5"/>
<path d="M17.5766 30.8044C17.4523 30.6803 17.3821 30.5121 17.3813 30.3364L17.3233 18.7965C17.3221 18.6187 17.392 18.4478 17.5175 18.3218C17.643 18.1959 17.8135 18.1252 17.9913 18.1256L30.3154 18.1355C30.6834 18.1361 30.9816 18.4346 30.9816 18.8027V30.126C30.9819 30.4902 30.6899 30.7872 30.3258 30.7931L18.0598 30.9999C17.9112 31.0023 17.7669 30.9552 17.6491 30.8672L17.5766 30.8044Z" fill="white" stroke="#161922" stroke-width="1.5"/>
<path d="M21.2988 20.878H26.8035" stroke="#161922" stroke-width="1.54839" stroke-linecap="round"/>
<path d="M4.78418 4.36401H10.2889" stroke="#161922" stroke-width="1.54839" stroke-linecap="round"/>
<path d="M4.17285 20.878H9.67753" stroke="#161922" stroke-width="1.54839" stroke-linecap="round"/>
</svg>
