<svg width="31" height="44" viewBox="0 0 31 44" fill="none" xmlns="http://www.w3.org/2000/svg">
<path d="M3.75908 5.44644H2.24763C1.55858 5.44644 1 6.00502 1 6.69407V35.3511C1.00303 36.038 1.56072 36.5932 2.24763 36.5932H11.5087" stroke="#161922" stroke-width="1.5" stroke-linecap="round"/>
<path d="M24.084 5.44644H25.9032C26.5923 5.44644 27.1508 6.00502 27.1508 6.69407V22.5505" stroke="#161922" stroke-width="1.5" stroke-linecap="round"/>
<path fill-rule="evenodd" clip-rule="evenodd" d="M5.60059 6.062V5.57284C5.60059 4.6622 6.3388 3.92399 7.24944 3.92399H11.8772V3.26445C11.8772 2.66198 12.1173 2.08434 12.5443 1.65936C12.9714 1.23438 13.5502 0.997102 14.1526 1.00003V1.00003C15.4032 1.00003 16.417 2.01384 16.417 3.26445V3.913H20.8909C21.8016 3.913 22.5398 4.65121 22.5398 5.56185V7.12276H5.60059V6.062Z" stroke="#161922" stroke-width="1.5" stroke-linecap="round"/>
<path d="M4.2207 12.6574L5.38589 13.7896C5.50716 13.9062 5.69882 13.9062 5.82009 13.7896L7.90314 11.8055" stroke="#161922" stroke-width="1.5" stroke-linecap="round"/>
<path d="M10.585 11.811H15.4711" stroke="#161922" stroke-width="1.5" stroke-linecap="round"/>
<path d="M10.585 14.7292H23.4955" stroke="#161922" stroke-width="1.5" stroke-linecap="round"/>
<path d="M4.2207 19.7911L5.38589 20.9233C5.50596 21.0428 5.70002 21.0428 5.82009 20.9233L7.90314 18.9447" stroke="#161922" stroke-width="1.5" stroke-linecap="round"/>
<path d="M4.2207 26.6064L5.38589 27.7386C5.50716 27.8552 5.69882 27.8552 5.82009 27.7386L7.90314 25.76" stroke="#161922" stroke-width="1.5" stroke-linecap="round"/>
<path d="M10.585 17.9502H15.4711" stroke="#161922" stroke-width="1.5" stroke-linecap="round"/>
<path d="M10.585 20.8684H23.4955" stroke="#161922" stroke-width="1.5" stroke-linecap="round"/>
<path d="M21.587 43C21.587 43 29.3606 39.5633 29.3606 32.6885C29.3606 29.9389 29.3606 26.871 29.3606 26.871L21.587 24.4915L13.8135 26.871V32.6885C13.8135 39.5633 21.587 43 21.587 43Z" fill="#3DB249" stroke="#161922" stroke-width="1.5"/>
<path d="M20.7796 36.1019L17.9111 33.1139L19.1405 31.8334L20.7796 33.5408L24.8774 29.2722L26.1067 30.5528L20.7796 36.1019Z" fill="white"/>
</svg>
